<svg width="94" height="104" viewBox="0 0 94 104" fill="none" xmlns="http://www.w3.org/2000/svg">
<path d="M91.7222 59.221H91.6153C90.3133 57.5784 88.4763 56.5604 86.498 56.3851C84.5198 56.2098 82.5576 56.8912 81.0319 58.2832L63.7138 73.991L49.0682 74.8116C48.691 74.8379 48.3142 74.7541 47.9762 74.5688C47.6382 74.3835 47.351 74.1032 47.1439 73.7566C46.9654 73.4359 46.8598 73.0729 46.836 72.6981C46.8122 72.3233 46.8709 71.9478 47.0072 71.6031C47.1434 71.2584 47.3531 70.9546 47.6188 70.7174C47.8845 70.4801 48.1982 70.3164 48.5336 70.2399L57.4065 68.2471C59.251 67.8477 60.8868 66.6909 61.9796 65.0133C63.0724 63.3357 63.5398 61.2638 63.2862 59.221C62.9977 57.213 62.0397 55.3939 60.598 54.1162C59.1562 52.8384 57.3333 52.193 55.4823 52.3049L30.3603 54.0632C28.5358 54.1301 26.7772 54.8276 25.3358 56.056L0 78.211L2.67256 81.8449L27.9015 59.6899C28.6648 59.0303 29.6026 58.6601 30.5741 58.6349L55.6961 56.8765C56.4853 56.8087 57.2682 57.0745 57.8844 57.6194C58.5005 58.1643 58.9033 58.947 59.0101 59.8071C59.1065 60.657 58.9069 61.5155 58.451 62.211C57.9952 62.9064 57.3167 63.3876 56.5513 63.5582L47.6784 65.551C46.1758 65.9873 44.8687 67.0071 44.0003 68.4209C43.1319 69.8346 42.7613 71.5461 42.9573 73.237C43.1533 74.9279 43.9027 76.4832 45.066 77.6137C46.2294 78.7443 47.7275 79.3731 49.282 79.3833L64.6759 78.4455C65.1511 78.4122 65.6026 78.2059 65.9587 77.8594L83.9183 61.4482C84.2449 61.14 84.6248 60.9071 85.0353 60.7634C85.4458 60.6197 85.8785 60.5682 86.3075 60.612C86.7366 60.6557 87.1532 60.7939 87.5325 61.0181C87.9118 61.2423 88.246 61.5481 88.5151 61.9171H88.4082C88.6758 62.2553 88.8799 62.6481 89.0087 63.0731C89.1375 63.498 89.1884 63.9467 89.1586 64.3932C89.1288 64.8398 89.0189 65.2756 88.8351 65.6754C88.6512 66.0753 88.3972 66.4314 88.0875 66.7232L65.638 88.0577C65.2008 88.4762 64.6922 88.7953 64.1417 88.9965C63.5912 89.1978 63.0097 89.2771 62.4309 89.23L27.7946 87.3544C27.505 87.3275 27.2135 87.3656 26.9378 87.4663C26.6621 87.5671 26.408 87.7285 26.1911 87.9405L13.7904 100.483L16.6768 104L28.436 92.0433L62.2171 94.1533C64.4843 94.2935 66.711 93.4516 68.4175 91.8089L90.8669 70.4743C92.3197 69.0913 93.2221 67.1407 93.3819 65.0384C93.5417 62.9361 92.9461 60.8486 91.7222 59.221Z" fill="#81A8E9"/>
<path d="M18.4946 28.5086V35.542C18.4946 37.4074 19.1704 39.1963 20.3733 40.5153C21.5761 41.8343 23.2076 42.5754 24.9087 42.5754H38.0577C38.4844 43.9767 39.3026 45.1952 40.3964 46.0578C41.4901 46.9205 42.8038 47.3836 44.1511 47.3815H59.8658C61.2131 47.3836 62.5268 46.9205 63.6206 46.0578C64.7143 45.1952 65.5326 43.9767 65.9592 42.5754H79.1082C80.8093 42.5754 82.4408 41.8343 83.6437 40.5153C84.8466 39.1963 85.5223 37.4074 85.5223 35.542V28.5086C85.5228 26.4347 85.112 24.3855 84.3182 22.503C83.5244 20.6205 82.3668 18.9499 80.9255 17.607C81.4671 16.2593 81.7568 14.8064 81.7776 13.3339C81.7983 11.8614 81.5497 10.3993 81.0464 9.03396C80.5431 7.66863 79.7952 6.42779 78.8472 5.38476C77.8991 4.34173 76.7699 3.51768 75.5265 2.96131C74.283 2.40493 72.9504 2.12752 71.6075 2.14546C70.2646 2.16341 68.9386 2.47635 67.7079 3.06579C66.4771 3.65523 65.3666 4.50921 64.442 5.57727C63.5174 6.64532 62.7974 7.90578 62.3245 9.28415C61.8367 6.66326 60.5381 4.30764 58.6485 2.61585C56.759 0.924068 54.3944 0 51.955 0C49.5156 0 47.151 0.924068 45.2615 2.61585C43.3719 4.30764 42.0733 6.66326 41.5855 9.28415C41.1127 7.90578 40.3927 6.64532 39.468 5.57727C38.5434 4.50921 37.4329 3.65523 36.2022 3.06579C34.9714 2.47635 33.6454 2.16341 32.3025 2.14546C30.9596 2.12752 29.627 2.40493 28.3836 2.96131C27.1401 3.51768 26.011 4.34173 25.0629 5.38476C24.1148 6.42779 23.367 7.66863 22.8636 9.03396C22.3603 10.3993 22.1117 11.8614 22.1324 13.3339C22.1532 14.8064 22.4429 16.2593 22.9845 17.607C21.5627 18.9609 20.4252 20.6364 19.6502 22.5183C18.8751 24.4002 18.4809 26.4438 18.4946 28.5086ZM41.5855 18.3103L40.9441 17.607C41.3101 16.864 41.5971 16.0773 41.7993 15.2625C41.9854 15.9909 42.2361 16.6976 42.5476 17.3725L41.5855 18.3103ZM62.0038 40.3481C62.0038 40.9699 61.7786 41.5662 61.3776 42.0059C60.9766 42.4456 60.4328 42.6926 59.8658 42.6926H44.1511C43.5841 42.6926 43.0403 42.4456 42.6393 42.0059C42.2384 41.5662 42.0131 40.9699 42.0131 40.3481V28.8603C42.0125 27.3489 42.3081 25.855 42.8799 24.4797C43.4517 23.1045 44.2862 21.88 45.3271 20.8892C47.223 22.6042 49.6041 23.5422 52.0619 23.5422C54.5197 23.5422 56.9008 22.6042 58.7968 20.8892C59.8431 21.875 60.6815 23.0984 61.2537 24.4749C61.8259 25.8513 62.1184 27.3477 62.1107 28.8603L62.0038 40.3481ZM62.3245 18.3103L61.3624 17.3725C61.674 16.6976 61.9246 15.9909 62.1107 15.2625C62.3129 16.0773 62.5999 16.864 62.9659 17.607L62.3245 18.3103ZM81.2462 35.542C81.2462 36.1638 81.021 36.7601 80.62 37.1998C80.2191 37.6395 79.6752 37.8865 79.1082 37.8865H66.2799V28.8603C66.2853 26.5463 65.8101 24.2613 64.8902 22.1786L65.7454 21.2409C67.5234 22.7909 69.7278 23.6347 71.9992 23.6347C74.2706 23.6347 76.475 22.7909 78.253 21.2409C79.1972 22.1468 79.953 23.2645 80.4694 24.5183C80.9858 25.7721 81.2507 27.1329 81.2462 28.5086V35.542ZM72.0526 6.23636C73.1944 6.23636 74.3105 6.60761 75.2598 7.30316C76.2091 7.99871 76.949 8.98733 77.3859 10.144C77.8229 11.3006 77.9372 12.5734 77.7144 13.8013C77.4917 15.0292 76.9419 16.1571 76.1346 17.0424C75.3272 17.9276 74.2986 18.5305 73.1788 18.7748C72.059 19.019 70.8983 18.8937 69.8435 18.4146C68.7887 17.9355 67.8871 17.1241 67.2528 16.0832C66.6185 15.0422 66.2799 13.8183 66.2799 12.5664C66.2797 10.9077 66.8732 9.31512 67.9327 8.13132C68.9923 6.94752 70.4333 6.26708 71.9457 6.23636H72.0526ZM51.955 4.94691C53.2236 4.94691 54.4637 5.35941 55.5185 6.13225C56.5733 6.90508 57.3954 8.00354 57.8809 9.28872C58.3664 10.5739 58.4934 11.9881 58.2459 13.3524C57.9984 14.7167 57.3875 15.97 56.4905 16.9536C55.5935 17.9372 54.4506 18.6071 53.2063 18.8785C51.9621 19.1499 50.6725 19.0106 49.5004 18.4782C48.3284 17.9459 47.3266 17.0444 46.6219 15.8878C45.9171 14.7312 45.5409 13.3713 45.5409 11.9803C45.5409 10.1149 46.2166 8.32594 47.4195 7.00693C48.6224 5.68792 50.2539 4.94691 51.955 4.94691ZM32.0712 6.23636C33.2129 6.23636 34.329 6.60761 35.2783 7.30316C36.2277 7.99871 36.9676 8.98733 37.4045 10.144C37.8414 11.3006 37.9557 12.5734 37.733 13.8013C37.5102 15.0292 36.9604 16.1571 36.1531 17.0424C35.3458 17.9276 34.3172 18.5305 33.1974 18.7748C32.0776 19.019 30.9169 18.8937 29.8621 18.4146C28.8072 17.9355 27.9057 17.1241 27.2713 16.0832C26.637 15.0422 26.2985 13.8183 26.2985 12.5664C26.2985 10.8876 26.9067 9.27749 27.9893 8.09038C29.0718 6.90327 30.5402 6.23636 32.0712 6.23636ZM22.8776 28.5086C22.88 27.1341 23.148 25.7757 23.664 24.523C24.1799 23.2703 24.9321 22.1517 25.8709 21.2409C27.6488 22.7909 29.8532 23.6347 32.1246 23.6347C34.3961 23.6347 36.6005 22.7909 38.3784 21.2409L39.2336 22.1786C38.2768 24.2516 37.7648 26.5371 37.737 28.8603V37.8865H24.9087C24.3417 37.8865 23.7979 37.6395 23.3969 37.1998C22.9959 36.7601 22.7707 36.1638 22.7707 35.542L22.8776 28.5086Z" fill="#81A8E9"/>
</svg>
