<svg width="75" height="106" viewBox="0 0 75 106" fill="none" xmlns="http://www.w3.org/2000/svg">
<path d="M32.239 9.14072C32.239 4.65875 28.5854 1 24.1096 1C19.6338 1 15.9801 4.65875 15.9801 9.14072C15.9801 13.1653 18.9031 16.4582 22.6481 17.0985V104.909H25.4797V17.0985C29.4074 16.4582 32.239 13.0739 32.239 9.14072ZM24.2009 14.4459C21.278 14.4459 18.9031 12.0677 18.9031 9.14072C18.9031 6.21372 21.278 3.83553 24.2009 3.83553C27.1239 3.83553 29.4988 6.21372 29.4988 9.14072C29.4988 12.0677 27.1239 14.4459 24.2009 14.4459Z" fill="#81A8E9"/>
<path d="M61.6512 52.8628C61.6512 48.3808 57.9976 44.7221 53.5218 44.7221C49.046 44.7221 45.3923 48.3808 45.3923 52.8628C45.3923 56.8874 48.3153 60.1803 52.0603 60.8206V104.909H54.9833V60.912C58.7283 60.1803 61.6512 56.8874 61.6512 52.8628ZM53.5218 58.168C50.5988 58.168 48.2239 55.7898 48.2239 52.8628C48.2239 49.9358 50.5988 47.5576 53.5218 47.5576C56.4447 47.5576 58.8196 49.9358 58.8196 52.8628C58.8196 55.7898 56.4447 58.168 53.5218 58.168Z" fill="#81A8E9"/>
<path d="M47.3105 29.8127C47.3105 25.3307 43.6568 21.6719 39.1811 21.6719C34.7053 21.6719 31.0516 25.3307 31.0516 29.8127C31.0516 33.8373 33.9745 37.1302 37.7196 37.7704V71.8883L28.8594 80.7608V104.817H31.691V81.9499L40.5512 73.0774H40.6425V37.7704C44.3876 37.1302 47.3105 33.8373 47.3105 29.8127ZM39.1811 35.1179C36.2581 35.1179 33.8832 32.7397 33.8832 29.8127C33.8832 26.8857 36.2581 24.5075 39.1811 24.5075C42.104 24.5075 44.4789 26.8857 44.4789 29.8127C44.4789 32.7397 42.104 35.1179 39.1811 35.1179Z" fill="#81A8E9"/>
<path d="M73.9825 37.9534C73.9825 33.4714 70.3288 29.8127 65.853 29.8127C61.3772 29.8127 57.7235 33.4714 57.7235 37.9534C57.7235 41.978 60.6465 45.2709 64.3915 45.9112V64.6623L38.1763 91.0967V105H41.0079V92.2858L67.2231 66.0343H67.3145V46.0026C71.0595 45.3624 73.9825 41.978 73.9825 37.9534ZM65.853 43.2586C62.93 43.2586 60.5551 40.8804 60.5551 37.9534C60.5551 35.0264 62.93 32.6482 65.853 32.6482C68.7759 32.6482 71.1508 35.0264 71.1508 37.9534C71.1508 40.8804 68.7759 43.2586 65.853 43.2586Z" fill="#81A8E9"/>
<path d="M19.4511 68.5954L10.5909 59.723V47.5576C14.4273 46.9173 17.2589 43.533 17.2589 39.5998C17.2589 35.1179 13.6052 31.4591 9.12946 31.4591C4.65369 31.4591 1 35.1179 1 39.5998C1 43.6245 3.92295 46.9173 7.66798 47.5576V60.8206L16.5282 69.693V104.909H19.3598V68.5954H19.4511ZM3.92295 39.5998C3.92295 36.6728 6.29785 34.2946 9.2208 34.2946C12.1438 34.2946 14.5187 36.6728 14.5187 39.5998C14.5187 42.5268 12.1438 44.905 9.2208 44.905C6.29785 44.905 3.92295 42.5268 3.92295 39.5998Z" fill="#81A8E9"/>
<path d="M32.239 9.14072C32.239 4.65875 28.5854 1 24.1096 1C19.6338 1 15.9801 4.65875 15.9801 9.14072C15.9801 13.1653 18.9031 16.4582 22.6481 17.0985V104.909H25.4797V17.0985C29.4074 16.4582 32.239 13.0739 32.239 9.14072ZM24.2009 14.4459C21.278 14.4459 18.9031 12.0677 18.9031 9.14072C18.9031 6.21372 21.278 3.83553 24.2009 3.83553C27.1239 3.83553 29.4988 6.21372 29.4988 9.14072C29.4988 12.0677 27.1239 14.4459 24.2009 14.4459Z" stroke="#81A8E9"/>
<path d="M61.6512 52.8628C61.6512 48.3808 57.9976 44.7221 53.5218 44.7221C49.046 44.7221 45.3923 48.3808 45.3923 52.8628C45.3923 56.8874 48.3153 60.1803 52.0603 60.8206V104.909H54.9833V60.912C58.7283 60.1803 61.6512 56.8874 61.6512 52.8628ZM53.5218 58.168C50.5988 58.168 48.2239 55.7898 48.2239 52.8628C48.2239 49.9358 50.5988 47.5576 53.5218 47.5576C56.4447 47.5576 58.8196 49.9358 58.8196 52.8628C58.8196 55.7898 56.4447 58.168 53.5218 58.168Z" stroke="#81A8E9"/>
<path d="M47.3105 29.8127C47.3105 25.3307 43.6568 21.6719 39.1811 21.6719C34.7053 21.6719 31.0516 25.3307 31.0516 29.8127C31.0516 33.8373 33.9745 37.1302 37.7196 37.7704V71.8883L28.8594 80.7608V104.817H31.691V81.9499L40.5512 73.0774H40.6425V37.7704C44.3876 37.1302 47.3105 33.8373 47.3105 29.8127ZM39.1811 35.1179C36.2581 35.1179 33.8832 32.7397 33.8832 29.8127C33.8832 26.8857 36.2581 24.5075 39.1811 24.5075C42.104 24.5075 44.4789 26.8857 44.4789 29.8127C44.4789 32.7397 42.104 35.1179 39.1811 35.1179Z" stroke="#81A8E9"/>
<path d="M73.9825 37.9534C73.9825 33.4714 70.3288 29.8127 65.853 29.8127C61.3772 29.8127 57.7235 33.4714 57.7235 37.9534C57.7235 41.978 60.6465 45.2709 64.3915 45.9112V64.6623L38.1763 91.0967V105H41.0079V92.2858L67.2231 66.0343H67.3145V46.0026C71.0595 45.3624 73.9825 41.978 73.9825 37.9534ZM65.853 43.2586C62.93 43.2586 60.5551 40.8804 60.5551 37.9534C60.5551 35.0264 62.93 32.6482 65.853 32.6482C68.7759 32.6482 71.1508 35.0264 71.1508 37.9534C71.1508 40.8804 68.7759 43.2586 65.853 43.2586Z" stroke="#81A8E9"/>
<path d="M19.4511 68.5954L10.5909 59.723V47.5576C14.4273 46.9173 17.2589 43.533 17.2589 39.5998C17.2589 35.1179 13.6052 31.4591 9.12946 31.4591C4.65369 31.4591 1 35.1179 1 39.5998C1 43.6245 3.92295 46.9173 7.66798 47.5576V60.8206L16.5282 69.693V104.909H19.3598V68.5954H19.4511ZM3.92295 39.5998C3.92295 36.6728 6.29785 34.2946 9.2208 34.2946C12.1438 34.2946 14.5187 36.6728 14.5187 39.5998C14.5187 42.5268 12.1438 44.905 9.2208 44.905C6.29785 44.905 3.92295 42.5268 3.92295 39.5998Z" stroke="#81A8E9"/>
</svg>
