<svg width="97" height="89" viewBox="0 0 97 89" fill="none" xmlns="http://www.w3.org/2000/svg">
<path d="M97 72.5801C97 68.8133 93.9196 65.7309 90.1552 65.7309H6.84478C3.0804 65.7309 0 68.8133 0 72.5801V82.1508C0 85.9186 3.0804 89 6.84478 89H90.1552C93.9196 89 97 85.9186 97 82.1508V72.5801ZM61.1219 81.2473C58.9786 81.2473 57.243 79.5097 57.243 77.365C57.243 75.2203 58.9796 73.4836 61.1219 73.4836C63.2642 73.4836 65.0018 75.2203 65.0018 77.365C65.0018 79.5097 63.2652 81.2473 61.1219 81.2473ZM72.7636 81.2473C70.6192 81.2473 68.8827 79.5097 68.8827 77.365C68.8827 75.2203 70.6192 73.4836 72.7636 73.4836C74.9049 73.4836 76.6424 75.2203 76.6424 77.365C76.6424 79.5097 74.9049 81.2473 72.7636 81.2473ZM84.4022 81.2473C82.2589 81.2473 80.5223 79.5097 80.5223 77.365C80.5223 75.2203 82.2589 73.4836 84.4022 73.4836C86.5455 73.4836 88.2831 75.2203 88.2831 77.365C88.2831 79.5097 86.5455 81.2473 84.4022 81.2473Z" fill="#81A8E9"/>
<path d="M69.4367 31.9846C69.8817 31.5212 70.2728 30.9409 70.6068 30.2458C70.8689 29.5872 71 28.8824 71 28.1283C71 27.3764 70.8594 26.6781 70.5814 26.042C70.2992 25.4037 69.9176 24.8341 69.4357 24.3332C68.9114 23.7904 68.3354 23.3828 67.7012 23.1146C67.105 22.8443 66.4508 22.7092 65.7436 22.7092C65.0365 22.7092 64.3643 22.8443 63.7322 23.1146C63.061 23.4246 62.4828 23.829 61.9987 24.3332L54.2268 32.389V7.39236C54.2268 6.65757 54.0872 5.97213 53.8082 5.33496C53.5302 4.69779 53.1465 4.11747 52.6624 3.59615C52.1762 3.07268 51.6012 2.65648 50.929 2.34862C50.3329 2.11692 49.6796 2 48.9704 2C48.2622 2 47.609 2.11692 47.0139 2.34755C46.3406 2.65541 45.7635 3.07268 45.2805 3.59507C44.7964 4.11532 44.4212 4.69672 44.1622 5.33389C43.9001 5.97321 43.7722 6.65865 43.7722 7.39236V32.389L35.9442 24.3332C35.459 23.829 34.8819 23.4257 34.2107 23.1146C33.6156 22.8443 32.9434 22.7102 32.1982 22.7102C31.4901 22.7102 30.8368 22.8443 30.2418 23.1146C29.6456 23.3839 29.0685 23.7904 28.5083 24.3332C28.0242 24.8341 27.6511 25.4048 27.3921 26.042C27.13 26.6813 27 27.3775 27 28.1294C27 28.8824 27.13 29.5882 27.3932 30.2447C27.6892 30.9409 28.0623 31.5212 28.5115 31.9857L45.2815 49.3749C45.7656 49.8383 46.3428 50.2459 47.0139 50.5945C47.609 50.8627 48.2622 51 48.9704 51C49.6796 51 50.3413 50.8627 50.9565 50.5945C51.5716 50.3231 52.1382 49.9155 52.6614 49.3749L69.4367 31.9846Z" stroke="#81A8E9" stroke-width="4"/>
</svg>
