<svg width="117" height="104" viewBox="0 0 117 104" fill="none" xmlns="http://www.w3.org/2000/svg">
<path d="M101.665 74.5092L101.311 74.8629L101.665 75.2166L103.68 77.2294C107.526 81.073 107.526 87.3274 103.68 91.1709C101.815 93.034 99.3392 94.0589 96.7026 94.0589C94.0661 94.0589 91.5902 93.0332 89.7255 91.1708L87.7122 89.1582L87.3587 88.805L87.0053 89.1582L72.8587 103.293L54.2329 84.6834L60.7266 78.1949C61.5106 77.4116 61.9033 76.3823 61.9053 75.3551L61.9063 74.8541H61.4053H34.9039V65.6785C34.9039 63.4558 33.0955 61.6495 30.872 61.6495C28.6493 61.6495 26.841 63.4559 26.841 65.6785V74.8541H0.499999V48.5353H10.1387C12.3621 48.5353 14.1705 46.729 14.1705 44.5063C14.1705 42.2845 12.3621 40.4782 10.1387 40.4782H0.499999V14.1594H20.5058H21.0058V13.6594V10.3587C21.0058 4.9229 25.4317 0.499999 30.872 0.499999C36.3132 0.499999 40.7391 4.92293 40.7391 10.3587V13.6594V14.1594H41.2391H61.2449V27.8562V29.0627L62.0983 28.2099L72.8588 17.4573L87.0053 31.5923L87.3587 31.9455L87.7121 31.5923L90.0483 29.258C91.912 27.3959 94.3886 26.371 97.0244 26.371C99.661 26.371 102.138 27.3958 104.002 29.258C107.848 33.1015 107.848 39.356 104.001 43.1996L101.665 45.5339L101.311 45.8876L101.665 46.2412L115.811 60.3757L101.665 74.5092ZM54.9096 69.0244H55.4096V68.5244V48.5353H64.5922C66.8157 48.5353 68.6241 46.729 68.6241 44.5063C68.6241 42.2845 66.8157 40.4782 64.5922 40.4782H55.4096V20.4891V19.9891H54.9096H34.9039V10.3587C34.9039 8.13603 33.0955 6.32971 30.872 6.32971C28.6493 6.32971 26.841 8.13611 26.841 10.3587V19.9891H6.83526H6.33526V20.4891V34.1485V34.6485H6.83526H10.1387C15.579 34.6485 20.0058 39.0715 20.0058 44.5063C20.0058 49.9421 15.579 54.365 10.1387 54.365H6.83526H6.33526V54.865V68.5244V69.0244H6.83526H20.5058H21.0058V68.5244V65.6785C21.0058 60.2436 25.4318 55.8198 30.872 55.8198C36.3132 55.8198 40.7391 60.2436 40.7391 65.6785V68.5244V69.0244H41.2391H54.9096ZM93.0603 45.8876L99.8758 39.0785L99.5224 38.7248L99.8758 39.0785C101.448 37.5073 101.448 34.9512 99.8757 33.3808C99.1143 32.6201 98.101 32.2007 97.0253 32.2007C95.9497 32.2007 94.9352 32.62 94.1745 33.3811L87.3587 40.1906L73.2121 26.0564L72.8587 25.7034L72.5054 26.0564L64.7474 33.8072L63.9482 34.6057L65.0765 34.6604C70.2933 34.9131 74.4594 39.234 74.4594 44.5063C74.4594 49.9421 70.0334 54.365 64.5922 54.365H61.7449H61.2449V54.865V65.7362V66.074L61.5582 66.2001C62.7809 66.6922 63.9037 67.4277 64.8531 68.3754C68.6989 72.2189 68.6989 78.4734 64.8531 82.3169L62.8387 84.3297L62.4847 84.6834L62.8387 85.0371L72.5053 94.695L72.8587 95.048L73.2121 94.6949L87.3587 80.5608L93.8521 87.0489C95.4243 88.6199 97.9809 88.6199 99.5531 87.0489C101.126 85.4778 101.126 82.9226 99.5531 81.3514L93.0603 74.8638L107.206 60.7294L107.56 60.3757L107.206 60.022L93.0603 45.8876Z" fill="#81A8E9" stroke="white" stroke-width="0.999998"/>
</svg>
