<svg width="81" height="84" viewBox="0 0 81 84" fill="none" xmlns="http://www.w3.org/2000/svg">
<path d="M79.5537 47.7739C81.0181 45.6949 80.4661 42.7664 78.5737 41.0897C76.6362 39.3796 73.6061 39.3013 71.601 40.9221C69.6184 42.5204 68.8975 45.4601 70.3168 47.5503C71.2405 48.9028 71.3982 50.2441 71.3532 51.7419C71.3194 53.1279 71.3532 54.5139 71.3419 55.911C71.3306 58.5377 70.1817 60.5162 67.895 61.8239C59.8972 66.4179 51.8768 70.9783 43.8903 75.5945C41.3671 77.0476 38.9677 77.0588 36.4445 75.5945C28.6494 71.0788 20.8431 66.5855 12.9918 62.1704C9.89402 60.4267 8.6324 57.923 9.03792 54.3909C9.31953 54.3015 9.46597 54.2233 9.62368 54.2233C18.7705 54.2121 27.9172 54.1897 37.064 54.2233C38.9452 54.2344 40.1392 55.5645 40.2406 57.5653C40.2857 58.4483 40.2519 59.3313 40.2519 60.315C43.5862 60.315 46.6501 60.3485 49.7028 60.2926C50.7842 60.2703 51.584 60.5162 52.4063 61.2986C54.3888 63.1764 57.6217 63.0758 59.5818 61.2315C61.6432 59.2978 61.8685 56.1681 60.1112 53.9773C58.4215 51.876 55.0647 51.1494 53.0596 52.9378C51.46 54.3686 49.8267 54.2903 48.0356 54.3015C46.5262 54.3127 45.0168 54.3238 43.5186 54.3015C41.4684 54.268 40.1392 53.0384 40.1392 51.2277C40.1392 49.4058 41.4684 48.1315 43.4735 48.098C45.625 48.0645 47.7878 48.0086 49.9281 48.1315C50.7391 48.1762 51.6628 48.5339 52.2936 49.0481C54.5127 50.8812 57.7456 50.8477 59.762 48.8245C61.7671 46.8014 61.8121 43.5041 59.8521 41.4362C57.847 39.3125 54.5353 39.2455 52.2711 41.1233C51.6516 41.6374 50.7166 42.0175 49.9056 42.0398C46.7515 42.1404 43.5862 42.0845 40.342 42.0845C40.3082 42.7775 40.2631 43.3029 40.2519 43.817C40.2181 47.2597 39.2944 48.1874 35.8362 48.1874H1.67093C1.67093 50.8253 1.64841 53.2732 1.67093 55.7099C1.73852 61.2203 4.11533 65.4342 8.95907 68.2062C16.9681 72.789 24.9659 77.3829 32.975 81.9545C37.7624 84.6818 42.5836 84.6818 47.371 81.9545C55.4252 77.3606 63.4567 72.7108 71.5221 68.128C75.3746 65.9372 77.7063 62.6622 78.3935 58.3924C78.7652 56.0452 78.6188 53.6085 78.6413 51.2165C78.6638 49.9646 78.7765 48.8804 79.5537 47.7739ZM55.9433 54.8157C57.3401 54.8157 58.4778 56.0005 58.444 57.3865C58.4103 58.806 57.25 59.8455 55.7856 59.7673C54.4001 59.7002 53.4313 58.6383 53.4651 57.2412C53.4989 55.8999 54.6028 54.8157 55.9433 54.8157ZM55.9433 42.5987C57.3063 42.5987 58.4103 43.6494 58.444 44.9795C58.4778 46.3767 57.3514 47.5391 55.9433 47.5391C54.5916 47.5391 53.4989 46.4884 53.4651 45.136C53.4201 43.6941 54.4902 42.5987 55.9433 42.5987ZM75.0254 47.5503C73.6061 47.5615 72.4909 46.4437 72.5134 45.0242C72.5359 43.6494 73.5835 42.621 74.9578 42.6099C76.3884 42.5987 77.5261 43.7164 77.4923 45.1248C77.4698 46.4549 76.3771 47.528 75.0254 47.5503Z" fill="#81A8E9"/>
<path d="M78.6526 28.4257C78.6413 22.8258 76.2307 18.5895 71.3307 15.784C63.2765 11.1677 55.2337 6.54023 47.1683 1.96865C42.5498 -0.646875 37.83 -0.658052 33.2115 1.94629C24.9434 6.61847 16.709 11.3465 8.49722 16.097C4.73487 18.2766 2.49323 21.6074 1.91874 25.8437C1.56954 28.4145 1.78357 31.0636 1.65966 33.6679C1.62587 34.3609 1.42311 35.1322 1.04011 35.7134C-0.581977 38.1948 -0.300364 41.1344 1.83989 42.9564C3.89003 44.7001 6.90892 44.6777 8.92527 42.9005C11.0205 41.045 11.2683 38.1165 9.6124 35.6463C9.27447 35.1545 9.01538 34.5062 8.99286 33.925C8.92527 31.846 8.89147 29.7558 8.98159 27.6768C9.08297 25.4748 10.0405 23.597 11.9667 22.4681C20.3587 17.5947 28.7846 12.7772 37.2442 8.00447C39.1254 6.94262 41.2319 6.94262 43.1131 8.00447C51.5614 12.7772 59.9873 17.6059 68.3906 22.4681C70.8237 23.8765 71.8713 26.9167 71.0941 29.6887C70.9927 29.7223 70.8913 29.8005 70.8012 29.8005C61.6544 29.8229 52.5076 29.8564 43.3609 29.8229C41.4346 29.8117 40.3307 28.6045 40.1392 26.6932C40.0829 26.1678 40.0491 25.6201 40.0942 25.0948C40.1843 24.0665 39.7675 23.6753 38.7086 23.6976C35.9714 23.7535 33.2115 23.787 30.4743 23.6641C29.6632 23.6306 28.7621 23.2393 28.0975 22.7475C26.6894 21.7192 25.2363 21.0709 23.4678 21.4398C21.0797 21.9428 19.3562 23.72 19.0746 25.9666C18.8042 28.1351 19.9194 30.3035 21.8344 31.343C23.9183 32.4719 26.2388 32.1478 28.12 30.5494C28.6044 30.1358 29.2802 29.7446 29.8885 29.7111C32.1977 29.6217 34.5182 29.6328 36.8275 29.6887C38.8776 29.7334 40.2406 31.0077 40.2631 32.7625C40.2857 34.5286 38.7875 35.9034 36.7261 35.9481C34.8449 35.9816 32.9525 35.9034 31.0826 35.9705C29.7984 36.0152 28.7959 35.7693 27.7708 34.8415C25.6869 32.9525 22.3751 33.2655 20.4939 35.2775C18.5226 37.3788 18.5677 40.6203 20.5953 42.6546C22.5666 44.633 25.822 44.823 27.8834 42.9117C28.717 42.1404 29.5281 41.9057 30.5982 41.9169C33.7072 41.9616 36.8049 41.9392 39.9928 41.9392C40.0378 41.2574 40.0829 40.7879 40.0942 40.3185C40.173 36.6188 40.9728 35.814 44.6788 35.814C55.2787 35.814 65.8786 35.814 76.4898 35.814H78.6751C78.6526 33.2096 78.6638 30.8177 78.6526 28.4257ZM5.36568 41.4474C4.00268 41.4586 2.80864 40.2626 2.8199 38.9213C2.83117 37.5577 4.01394 36.4511 5.42201 36.4846C6.80754 36.5182 7.84388 37.5353 7.8664 38.899C7.9002 40.2514 6.73995 41.4362 5.36568 41.4474ZM24.4928 29.2081C23.1636 29.264 21.8907 28.0568 21.8682 26.7267C21.8457 25.3966 23.051 24.1559 24.3914 24.1447C25.6756 24.1224 26.8358 25.2401 26.8922 26.5479C26.9597 27.9227 25.8446 29.1522 24.4928 29.2081ZM24.4703 41.4474C23.1073 41.4809 21.8795 40.3185 21.8682 38.9772C21.8457 37.6135 23.0059 36.4846 24.414 36.4846C25.822 36.4846 26.8358 37.4571 26.8922 38.8431C26.9372 40.2514 25.8671 41.4139 24.4703 41.4474Z" fill="#81A8E9"/>
</svg>
