<svg width="47" height="40" viewBox="0 0 47 40" fill="none" xmlns="http://www.w3.org/2000/svg">
<g clip-path="url(#clip0)">
<path fill-rule="evenodd" clip-rule="evenodd" d="M44.8834 1.01266C44.1239 0.253165 43.3644 0 42.3517 0H3.8706C2.85794 0 1.84528 0.253165 1.08578 1.01266C0.326286 1.77215 0.0731201 2.78481 0.0731201 3.79747V29.8734C0.0731201 30.8861 0.326286 31.8987 1.08578 32.6582C1.84528 33.4177 2.85794 33.6709 3.8706 33.6709H17.0352C17.0352 34.4304 16.782 34.9367 16.5289 35.6962C16.2757 36.2025 16.0225 36.7089 15.7694 37.2152C15.5162 37.7215 15.5162 38.2278 15.5162 38.2278C15.5162 38.7342 15.5162 39.2405 15.7694 39.4937C16.2757 39.7468 16.5289 40 17.0352 40H29.1871C29.6935 40 29.9466 39.7468 30.1998 39.4937C30.7061 39.2405 30.7061 38.7342 30.7061 38.2278C30.7061 38.2278 30.7061 37.7215 30.453 37.2152C30.1998 36.7089 29.9466 36.2025 29.6935 35.6962C29.4403 34.9367 29.1871 34.4304 29.1871 33.6709H42.3517C43.3644 33.6709 44.1239 33.4177 44.8834 32.6582C45.6429 31.8987 46.1492 30.8861 46.1492 29.8734V3.79747C46.1492 2.78481 45.6429 1.77215 44.8834 1.01266ZM43.1112 23.7975C43.1112 24.0506 42.8581 24.0506 42.8581 24.3038C42.6049 24.557 42.3517 24.557 42.3517 24.557H3.8706C3.61744 24.557 3.61744 24.557 3.36427 24.3038C3.1111 24.0506 3.1111 24.0506 3.1111 23.7975V3.79747C3.1111 3.5443 3.1111 3.5443 3.36427 3.29114C3.61744 3.03797 3.61744 3.03797 3.8706 3.03797H42.3517C42.3517 3.03797 42.6049 3.03797 42.8581 3.29114C42.8581 3.5443 43.1112 3.5443 43.1112 3.79747V23.7975Z" fill="#81A8E9"/>
</g>
<defs>
<clipPath id="clip0">
<rect width="46.2222" height="40" fill="white"/>
</clipPath>
</defs>
</svg>
