<svg width="50" height="40" viewBox="0 0 50 40" fill="none" xmlns="http://www.w3.org/2000/svg">
<g clip-path="url(#clip0)">
<path fill-rule="evenodd" clip-rule="evenodd" d="M47.9658 5.44376H44.4155V1.89347C44.4155 0.946722 43.9421 0.236663 42.9954 0.236663C42.9954 0.236663 39.4451 -0.23671 35.4214 0.473349C30.9244 1.18341 27.3741 3.31359 24.7705 6.39051C22.4037 3.31359 18.8534 1.18341 14.3563 0.473349C10.096 -0.23671 6.78237 0.236663 6.78237 0.236663C5.83562 0.236663 5.36225 0.946722 5.36225 1.89347V5.44376H1.81196C0.86521 5.44376 0.155151 6.15382 0.155151 7.10057V38.3432C0.155151 38.8165 0.391838 39.2899 0.865211 39.7633C1.33858 40 1.81196 40 2.28533 40C2.52202 39.7633 14.8297 35.5029 24.2972 39.7633C24.5338 40 25.2439 40 25.4806 39.7633C34.7114 35.7396 47.2557 39.7633 47.4924 40C47.4924 40 47.7291 40 47.9658 40C48.2025 40 48.6759 40 48.9125 39.7633C49.3859 39.2899 49.6226 38.8165 49.6226 38.3432V7.10057C49.6226 6.15382 48.9125 5.44376 47.9658 5.44376ZM3.46876 36.213V8.75737H5.36225V30.7692C5.36225 31.2426 5.59894 31.7159 5.83562 32.1893C6.309 32.426 6.78237 32.426 7.25574 32.426C7.25574 32.426 14.593 31.4793 19.8001 35.0296C13.1729 33.8461 6.78237 35.2662 3.46876 36.213ZM23.1137 33.6094C20.9836 31.4793 17.9066 30.0591 14.3563 29.3491C12.4628 29.1124 11.0427 29.1124 9.62261 29.1124C9.38592 29.1124 8.91255 29.1124 8.67586 29.1124V3.31359C11.7528 3.31359 19.5634 3.55027 23.1137 9.70412V33.6094ZM26.4273 9.70412C30.2143 3.55027 38.025 3.31359 41.1019 3.31359V29.1124C39.6818 28.8757 37.7883 29.1124 35.4214 29.3491C31.8711 30.0591 28.7942 31.4793 26.4273 33.6094V9.70412ZM29.9776 35.0296C35.1847 31.4793 42.522 32.426 42.522 32.426C42.9954 32.426 43.4688 32.426 43.9421 32.1893C44.1788 31.7159 44.4155 31.2426 44.4155 30.7692V8.75737H46.309V36.213C42.9954 35.2662 36.6049 33.8461 29.9776 35.0296Z" fill="#81A8E9"/>
</g>
<defs>
<clipPath id="clip0">
<rect width="49.7778" height="40" fill="white"/>
</clipPath>
</defs>
</svg>
