<svg width="12" height="12" viewBox="0 0 12 12" fill="none" xmlns="http://www.w3.org/2000/svg">
<rect width="12" height="12" rx="3" fill="#0B8457"/>
<path d="M1.12129 6.34284C1.04043 6.27427 1 6.17141 1 6.10284C1 6.03427 1.04043 5.93141 1.12129 5.86284L1.68731 5.38284C1.84903 5.2457 2.09161 5.2457 2.25333 5.38284L2.29376 5.41713L4.5174 7.43999C4.59826 7.50856 4.71955 7.50856 4.80041 7.43999L10.218 2.67427H10.2584C10.4202 2.53713 10.6627 2.53713 10.8245 2.67427L11.3905 3.15427C11.5522 3.29141 11.5522 3.49713 11.3905 3.63427L4.9217 9.3257C4.84084 9.39427 4.75998 9.42856 4.63869 9.42856C4.5174 9.42856 4.43654 9.39427 4.35568 9.3257L1.20215 6.4457L1.12129 6.34284Z" fill="white"/>
</svg>
