<svg width="117" height="111" viewBox="0 0 117 111" fill="none" xmlns="http://www.w3.org/2000/svg">
<path opacity="0.9" d="M61.425 0C40.95 0 22.815 11.1 13.455 28.0421L0 14.6053V52.5789H38.025L21.645 36.2211C29.25 21.6158 43.875 11.6842 61.425 11.6842C85.41 11.6842 105.3 31.5474 105.3 55.5C105.3 79.4526 85.41 99.3158 61.425 99.3158C42.12 99.3158 26.325 87.0474 19.89 70.1053H7.605C14.04 93.4737 35.685 111 61.425 111C92.43 111 117 85.8789 117 55.5C117 25.1211 91.845 0 61.425 0ZM52.65 29.2105V59.0053L80.145 75.3632L84.825 67.7684L61.425 53.7474V29.2105H52.65Z" fill="#C0D4F4"/>
</svg>
