<svg width="59" height="45" viewBox="0 0 59 45" fill="none" xmlns="http://www.w3.org/2000/svg">
<g clip-path="url(#clip0)">
<path fill-rule="evenodd" clip-rule="evenodd" d="M57.2426 20.8681H52.2213C51.217 20.8681 50.4638 21.6213 50.4638 22.6255C50.4638 23.3787 51.217 24.1319 52.2213 24.1319H57.2426C58.2468 24.1319 59 23.3787 59 22.6255C59 21.6213 58.2468 20.8681 57.2426 20.8681Z" fill="#81A8E9"/>
<path fill-rule="evenodd" clip-rule="evenodd" d="M54.983 31.6638L51.7191 28.1489C50.966 27.6468 49.9617 27.6468 49.2085 28.1489C48.4553 28.9021 48.4553 29.9064 49.2085 30.6596L52.7234 34.1745C53.2255 34.6766 54.4808 34.6766 54.983 34.1745C55.7362 33.4213 55.7362 32.417 54.983 31.6638Z" fill="#81A8E9"/>
<path fill-rule="evenodd" clip-rule="evenodd" d="M54.983 10.8255C54.4808 10.3234 53.2255 10.3234 52.7234 10.8255L49.2085 14.3404C48.4553 15.0936 48.4553 16.0978 49.2085 16.851C49.9617 17.6042 50.966 17.6042 51.7191 16.851L54.983 13.3361C55.7362 12.583 55.7362 11.5787 54.983 10.8255Z" fill="#81A8E9"/>
<path fill-rule="evenodd" clip-rule="evenodd" d="M39.9191 0.0297852C37.4085 0.0297852 35.1489 2.0383 34.8979 4.54893L33.3915 6.05532C30.6298 8.81702 26.6128 10.3234 22.5957 10.3234H12.0511C9.79149 10.3234 8.03404 11.8298 7.28085 13.8383H7.02979C3.01277 13.8383 0 16.8511 0 20.8681C0 24.634 3.01277 27.6468 7.02979 27.6468H7.28085C7.78298 29.1532 8.78723 30.4085 10.2936 30.9106V39.6979C10.2936 42.7106 12.8043 44.9702 15.566 44.9702C18.3277 44.9702 20.8383 42.7106 20.8383 39.6979V31.1617H22.5957C26.6128 31.1617 30.6298 32.9191 33.3915 35.4298L34.8979 37.1872C35.1489 39.6979 37.4085 41.4553 39.9191 41.4553C42.9319 41.4553 45.1915 39.1957 45.1915 36.434V5.30213C45.1915 2.28936 42.9319 0.0297852 39.9191 0.0297852ZM7.02979 24.1319C5.02128 24.1319 3.51489 22.6255 3.51489 20.8681C3.51489 18.8596 5.02128 17.3532 7.02979 17.3532V24.1319ZM17.3234 39.6979C17.3234 40.7021 16.5702 41.4553 15.566 41.4553C14.5617 41.4553 13.8085 40.7021 13.8085 39.6979V31.1617H17.3234V39.6979ZM20.8383 27.6468H12.0511C11.0468 27.6468 10.2936 26.8936 10.2936 25.8894V15.5957C10.2936 14.5915 11.0468 13.8383 12.0511 13.8383H20.8383V27.6468ZM34.8979 32.166C31.8851 29.6553 28.1191 28.1489 24.1021 27.8979V13.8383C28.1191 13.3362 31.8851 11.8298 34.8979 9.31915V32.166ZM41.6766 36.434C41.6766 37.1872 40.9234 38.1915 39.9191 38.1915C39.166 38.1915 38.1617 37.1872 38.1617 36.434V5.30213C38.1617 4.29787 39.166 3.54468 39.9191 3.54468C40.9234 3.54468 41.6766 4.29787 41.6766 5.30213V36.434Z" fill="#81A8E9"/>
</g>
<defs>
<clipPath id="clip0">
<rect width="59" height="45" fill="white"/>
</clipPath>
</defs>
</svg>
