<svg width="45" height="63" viewBox="0 0 45 63" fill="none" xmlns="http://www.w3.org/2000/svg">
<path d="M23.1306 46.5737C21.0382 46.5737 19.8181 48.5654 19.8181 51.227C19.8181 53.91 21.0782 55.7997 23.1509 55.7997C25.2448 55.7997 26.4432 53.8079 26.4432 51.1463C26.4432 48.6866 25.2649 46.5737 23.1306 46.5737Z" fill="#007AFF"/>
<path d="M7.54162 46.614C6.85029 46.614 6.40254 46.6746 6.13892 46.7352V55.6976C6.40254 55.7594 6.83013 55.7594 7.21583 55.7594C10.0197 55.7796 11.8488 54.2344 11.8488 50.9634C11.8702 48.1176 10.2033 46.614 7.54162 46.614Z" fill="#007AFF"/>
<path d="M44.9881 14.8639C44.9845 14.5795 44.8943 14.2985 44.6989 14.0764L32.7391 0.41599C32.7367 0.412161 32.7331 0.410922 32.7296 0.407431C32.6584 0.327815 32.5765 0.262162 32.4885 0.204279C32.4624 0.187387 32.4362 0.172184 32.4089 0.156756C32.3317 0.11554 32.2521 0.0813061 32.1689 0.0563062C32.1464 0.0497747 32.1263 0.0405404 32.1036 0.0346846C32.0123 0.0128378 31.9196 0 31.8246 0H2.43243C1.09144 0 0 1.09155 0 2.43254V59.5946C0 60.9361 1.09144 62.0271 2.43243 62.0271H42.5675C43.9096 62.0271 45 60.9361 45 59.5946V15.0002C44.9999 14.9545 44.9928 14.9096 44.9881 14.8639ZM12.8664 56.4091C11.4234 57.6086 9.22847 58.1776 6.54514 58.1776C4.93906 58.1776 3.80123 58.0754 3.0295 57.9744V44.5213C4.16733 44.3384 5.65111 44.2363 7.21642 44.2363C9.81721 44.2363 11.504 44.7043 12.8249 45.6996C14.2481 46.7566 15.1423 48.4431 15.1423 50.8614C15.1419 53.4832 14.1872 55.2914 12.8664 56.4091ZM22.988 58.2595C18.9237 58.2595 16.5459 55.1905 16.5459 51.2883C16.5459 47.183 19.1675 44.1145 23.2113 44.1145C27.4181 44.1145 29.7152 47.265 29.7152 51.0442C29.7154 55.5361 26.9918 58.2595 22.988 58.2595ZM38.7597 55.6787C39.6944 55.6787 40.7313 55.4744 41.3405 55.2314L41.8085 57.6496C41.2395 57.9353 39.9592 58.2393 38.2928 58.2393C33.5575 58.2393 31.1191 55.292 31.1191 51.3904C31.1191 46.7168 34.4518 44.1152 38.5969 44.1152C40.2027 44.1152 41.4224 44.4401 41.9712 44.7251L41.3404 47.1837C40.7115 46.9199 39.8367 46.6752 38.7399 46.6752C36.2813 46.6752 34.3697 48.1593 34.3697 51.2075C34.37 53.9505 35.9959 55.6787 38.7597 55.6787ZM2.43243 41.3008V2.43254H30.6084V14.8779C30.6084 15.5492 31.1524 16.0941 31.8246 16.0941H42.5675L42.5687 41.3008H2.43243Z" fill="#007AFF"/>
<path d="M19.417 16.7903H28.2674C28.7117 16.7903 29.0727 16.4299 29.0727 15.9848C29.0727 15.5398 28.7117 15.179 28.2674 15.179H19.417C18.9718 15.179 18.6122 15.5398 18.6122 15.9848C18.6117 16.4299 18.9709 16.7903 19.417 16.7903Z" fill="#007AFF"/>
<path d="M32.5966 21.6243H10.5785C10.1335 21.6243 9.77213 21.9847 9.77213 22.4298C9.77213 22.8752 10.1335 23.2351 10.5785 23.2351H32.5966C33.042 23.2351 33.4032 22.8752 33.4032 22.4298C33.4032 21.9849 33.0427 21.6243 32.5966 21.6243Z" fill="#007AFF"/>
<path d="M12.8798 18.4044L13.626 15.371C13.8168 14.6346 13.9418 14.0126 14.0572 13.3237H14.0759C14.1519 14.0218 14.2667 14.6346 14.4292 15.371L15.1 18.4044H16.3637L18.0942 11.9554H16.8981L16.2286 14.8737C16.0564 15.6587 15.9024 16.3945 15.7882 17.1036H15.7683C15.6733 16.405 15.539 15.6873 15.3766 14.9218L14.7355 11.9561H13.5013L12.8038 14.8744C12.6206 15.6874 12.4377 16.4537 12.3337 17.1322H12.316C12.2108 16.4915 12.0571 15.668 11.894 14.8836L11.2815 11.9561H10.0279L11.6069 18.4051H12.8798V18.4044Z" fill="#007AFF"/>
<path d="M32.5966 28.0234H10.5785C10.1335 28.0234 9.77213 28.3839 9.77213 28.8293C9.77213 29.2743 10.1335 29.6348 10.5785 29.6348H32.5966C33.042 29.6348 33.4032 29.2743 33.4032 28.8293C33.4032 28.3839 33.0427 28.0234 32.5966 28.0234Z" fill="#007AFF"/>
<path d="M32.5966 34.5753H10.5785C10.1335 34.5753 9.77213 34.9364 9.77213 35.3817C9.77213 35.8266 10.1335 36.187 10.5785 36.187H32.5966C33.042 36.187 33.4032 35.8266 33.4032 35.3817C33.4032 34.9364 33.0427 34.5753 32.5966 34.5753Z" fill="#007AFF"/>
</svg>
