<svg width="72" height="72" viewBox="0 0 72 72" fill="none" xmlns="http://www.w3.org/2000/svg">
<g clip-path="url(#clip0)">
<path d="M12.098 25.7813L12.1789 31.6279L7.78465 31.6879C7.39626 31.6931 7.02616 31.852 6.75489 32.1309C6.48362 32.4098 6.335 32.7842 6.34045 33.1726L6.42196 39.057C6.43272 39.8338 7.13002 40.512 7.90679 40.5013L12.3011 40.4396L12.3819 46.2872C12.4043 47.9049 13.734 49.1983 15.3519 49.176C16.9698 49.1537 18.2632 47.824 18.2407 46.206L17.9568 25.7002C17.9343 24.0823 16.6045 22.7889 14.9868 22.8113C13.369 22.8337 12.0756 24.1634 12.098 25.7813Z" fill="#81A8E9"/>
<path d="M53.9888 25.1797L54.2727 45.6855C54.2952 47.3034 55.6248 48.5967 57.2427 48.5744C58.8606 48.5518 60.154 47.2221 60.1316 45.6044L60.0506 39.7568L64.4363 39.6969C64.8247 39.6915 65.1948 39.5327 65.466 39.2538C65.7373 38.9749 65.8859 38.6005 65.8805 38.2122L65.798 32.3287C65.7925 31.9241 65.6236 31.5602 65.3549 31.2988C65.0863 31.0375 64.7178 30.8787 64.3133 30.8844L59.9285 30.9451L59.8476 25.0985C59.8252 23.4807 58.4955 22.1873 56.8777 22.2096C55.2596 22.2321 53.9662 23.5618 53.9888 25.1797Z" fill="#81A8E9"/>
<path d="M29.8773 40.1849L42.474 39.989L42.3523 31.2007L29.7554 31.3968L29.8773 40.1849Z" fill="#81A8E9"/>
<path d="M20.8456 22.7302L21.2107 49.0949C21.2332 50.7127 22.5629 52.0061 24.1807 51.9837C25.7988 51.9613 27.092 50.6317 27.0696 49.0137L26.7044 22.649C26.682 21.0312 25.3523 19.7378 23.7344 19.7601C22.1165 19.7824 20.8231 21.1121 20.8456 22.7302Z" fill="#81A8E9"/>
<path d="M45.1599 22.3719L45.5251 48.7368C45.5475 50.3545 46.8772 51.6479 48.495 51.6255C50.113 51.6031 51.4064 50.2734 51.3839 48.6555L51.0187 22.2907C50.9963 20.673 49.6666 19.3796 48.0487 19.4019C46.4308 19.4242 45.1374 20.7539 45.1599 22.3719Z" fill="#81A8E9"/>
</g>
<defs>
<clipPath id="clip0">
<rect width="50" height="50" fill="white" transform="translate(36.6045 71.0448) rotate(-135.794)"/>
</clipPath>
</defs>
</svg>
