<svg width="155" height="62" viewBox="0 0 155 62" fill="none" xmlns="http://www.w3.org/2000/svg">
<path fill-rule="evenodd" clip-rule="evenodd" d="M56.4023 20.5865C72.9414 19.7735 79.0193 19.1187 75.7087 32.4947C73.5069 41.3932 68.0367 48.1793 64.7782 55.448C67.5093 54.0843 72.9856 46.189 75.5763 42.881C80.2405 36.9299 82.5284 35.322 91.6863 38.8522C90.8662 35.4962 88.0268 28.3297 90.3107 24.5993C91.971 21.888 100.425 21.7499 104.026 20.7407C100.65 16.7239 87.0201 14.311 80.2385 14.2069C71.628 14.0767 62.2155 16.6558 56.4023 20.5865Z" fill="#136BB5"/>
<path fill-rule="evenodd" clip-rule="evenodd" d="M97.9507 47.1261C98.3216 43.3316 99.1137 37.4886 100.752 34.5431C106.324 24.5272 115.45 32.5988 108.135 44.1505C105.857 47.7468 103.242 49.7332 97.9507 47.1261ZM91.8488 60.6582L95.4381 60.5941L97.1807 50.5682C106.324 52.5846 112.298 49.0484 114.059 39.0585C116.164 27.1022 107.822 21.85 100.1 31.4334L100.537 27.0542L97.5977 27.0642L91.8488 60.6582Z" fill="#252525"/>
<path fill-rule="evenodd" clip-rule="evenodd" d="M34.2306 29.9356C33.4325 34.2508 33.1798 39.0044 31.2448 42.6347C30.0778 44.8253 26.1194 50.5221 22.7186 46.8738C19.9774 43.9323 21.8222 28.9204 34.2306 29.9356ZM35.4438 51.1869C35.3415 45.7604 38.4315 29.2708 38.0385 27.5207C27.4389 23.7843 19.7789 31.2672 18.0163 40.0497C17.0558 44.8313 18.2529 50.6543 22.5521 51.5133C28.0144 52.6046 30.2221 47.875 32.4078 45.0836L31.8985 51.1609L35.4438 51.1869Z" fill="#252525"/>
<path fill-rule="evenodd" clip-rule="evenodd" d="M131.538 29.9977C130.888 34.3689 130.363 38.9383 128.603 42.5907C126.904 46.1169 122.846 49.8994 120.102 46.8638C117.399 43.8762 119.667 37.2924 121.201 34.7313C123.63 30.6805 126.986 29.6493 131.538 29.9977ZM132.585 51.0087C132.364 44.9735 135.771 30.292 135.224 27.4386C114.464 22.1544 109.89 49.6891 119.956 51.5273C125.414 52.5225 127.5 48.2354 129.535 45.1277L129.076 51.1729L132.585 51.0087Z" fill="#252525"/>
<path fill-rule="evenodd" clip-rule="evenodd" d="M136.826 27.4366C137.56 32.9933 139.154 39.9555 140.305 45.5622C141.302 50.416 140.642 52.4404 137.482 55.4099L137.037 55.8284C136.369 56.4171 137.045 55.8945 136.315 56.4251C135.408 57.0859 133.969 57.7427 132.876 58.5397L133.441 61.8376C139.972 60.1476 143.782 52.9831 146.742 46.5654C148.089 43.6459 155.035 29.0546 154.999 27.0442C150.297 27.0922 151.394 27.2184 149.926 30.9028L143.678 46.1429L140.626 27.1863L136.826 27.4366Z" fill="#252525"/>
<path fill-rule="evenodd" clip-rule="evenodd" d="M57.7539 27.2364H54.1926C54.9606 33.0753 56.5928 39.8734 57.7639 45.7604C58.6241 50.0936 58.7966 50.6442 56.4124 53.6859C53.4507 57.4584 52.3558 56.8696 50.2944 58.5356L50.8659 61.7915C53.1258 61.1828 54.6979 60.3998 55.8268 59.2385C57.2024 57.8268 58.1509 56.9978 59.1415 55.488C63.4607 48.9082 70.4229 33.9684 72.5765 26.9821L69.0353 27.0822L61.0886 46.1149L57.7539 27.2364Z" fill="#252525"/>
<path fill-rule="evenodd" clip-rule="evenodd" d="M4.10004 37.3624C4.57327 35.2539 6.1193 32.3545 7.20012 31.3773C12.5501 26.5396 17.8659 33.8262 11.8101 36.3793C9.50212 37.3524 6.64667 37.4105 4.10004 37.3624ZM3.73108 40.6524C10.2701 40.342 17.896 39.7413 18.1888 32.9892C18.3391 29.5532 16.2176 27.2724 13.2138 26.8039C4.67754 25.4723 -2.05601 37.1322 0.578859 46.0508C3.07537 54.5088 12.538 50.6222 15.3413 49.9474L14.818 46.7716C14.6836 46.7897 2.74049 52.3042 3.73108 40.6524Z" fill="#252525"/>
<path fill-rule="evenodd" clip-rule="evenodd" d="M52.9494 28.1635C46.7332 23.3718 36.8554 31.7618 42.3136 38.2755C44.1825 40.5082 48.1388 41.5674 47.4129 45.5962C46.6149 50.0275 41.7221 48.2013 38.6361 47.1201L37.7698 50.2478C41.2689 51.1448 44.2026 52.6366 47.9684 50.1196C50.2543 48.5938 52.6386 44.9635 50.7557 40.9027C49.1314 37.3925 45.1089 37.1542 44.5535 34.2487C43.6331 29.427 48.7344 29.419 52.029 30.6705L52.9494 28.1635Z" fill="#252525"/>
<path fill-rule="evenodd" clip-rule="evenodd" d="M82.3299 0H79.685C77.1023 1.33959 74.698 2.31075 74.672 6.16734C74.6178 14.1148 85.7228 14.5413 86.9981 7.45887C87.8704 2.61311 84.3472 1.19542 82.3299 0Z" fill="#F8A81B"/>
</svg>
