<svg width="55" height="55" viewBox="0 0 55 55" fill="none" xmlns="http://www.w3.org/2000/svg">
<path d="M32.7927 19.6328C31.956 19.6328 31.1193 19.9333 31.1193 20.6412V27.9351L27.644 21.3062C26.8287 19.7401 26.3783 19.6328 25.1768 19.6328C24.3401 19.6328 23.5035 19.9546 23.5035 20.6626V34.285C23.5035 34.9716 24.3401 35.3148 25.1768 35.3148C26.0136 35.3148 26.8502 34.9716 26.8502 34.285V26.9911L30.9262 34.4138C31.3338 35.1647 32.0204 35.3149 32.7926 35.3149C33.6292 35.3149 34.4658 34.9717 34.4658 34.2851V20.6411C34.4658 19.9333 33.6292 19.6328 32.7927 19.6328Z" fill="#81A8E9"/>
<path d="M21.0368 22.5504C21.6803 22.5504 22.0451 21.864 22.0451 21.0702C22.0451 20.3837 21.7447 19.6328 21.0368 19.6328H13.3995C12.6701 19.6328 11.9408 19.976 11.9408 20.6626V34.2851C11.9408 34.9717 12.6701 35.3149 13.3995 35.3149H21.0368C21.7447 35.3149 22.0451 34.564 22.0451 33.8775C22.0451 33.0838 21.6803 32.3973 21.0368 32.3973H15.2875V28.7503H18.5054C19.2134 28.7503 19.5136 28.0639 19.5136 27.4847C19.5136 26.7982 19.149 26.176 18.5054 26.176H15.2875V22.5504H21.0368Z" fill="#81A8E9"/>
<path d="M47.0659 27.5L54.7921 11.2343C55.1083 10.5687 55.0613 9.78742 54.6676 9.16459C54.2738 8.54176 53.5883 8.16406 52.8515 8.16406H2.14843C0.961854 8.16406 0 9.12592 0 10.3125V44.6874C0 45.874 0.961854 46.8359 2.14843 46.8359H52.8515C53.5883 46.8359 54.2738 46.4582 54.6675 45.8353C55.0612 45.2125 55.1083 44.4313 54.792 43.7656L47.0659 27.5ZM4.29687 42.539V12.4609H49.4524L42.7467 26.5782C42.4697 27.1615 42.4697 27.8384 42.7467 28.4217L49.4524 42.539H4.29687Z" fill="#81A8E9"/>
</svg>
