<svg width="69" height="60" viewBox="0 0 69 60" fill="none" xmlns="http://www.w3.org/2000/svg">
<path d="M60.957 13.7225H30.9118C30.0451 5.99458 23.4728 0 15.5281 0C7.00572 0 0 6.93349 0 15.5281C0 23.4728 5.99458 30.0451 13.7225 30.9118V58.2125C13.7225 58.8625 14.0837 59.4403 14.5892 59.7292C15.167 60.0181 15.817 60.0181 16.3948 59.7292L22.1005 56.4069L27.8062 59.7292C28.384 60.0903 29.034 60.0903 29.6118 59.7292L35.3175 56.4069L41.0232 59.7292C41.3121 59.8736 41.601 59.9458 41.8899 59.9458C42.1787 59.9458 42.5399 59.8736 42.7565 59.7292L48.4622 56.4069L54.1679 59.7292C54.7457 60.0181 55.3957 60.0903 55.9735 59.7292C56.5513 59.4403 56.8402 58.8625 56.8402 58.2125V36.9064H66.8071C67.746 36.9064 68.5405 36.1119 68.5405 35.173V21.3783C68.6127 17.1171 65.2182 13.7225 60.957 13.7225ZM3.53897 15.4559C3.53897 8.88354 8.88354 3.46675 15.5281 3.46675C22.1005 3.46675 27.5173 8.81132 27.5173 15.4559C27.5173 22.0283 22.1727 27.4451 15.5281 27.4451C8.88354 27.4451 3.53897 22.1005 3.53897 15.4559ZM53.3012 21.3783V55.1068L49.3289 52.7957C48.7511 52.4345 48.1011 52.4345 47.5233 52.7957L41.8176 56.118L36.1119 52.7957C35.5342 52.4345 34.8841 52.4345 34.3063 52.7957L28.6007 56.118L22.895 52.7957C22.6061 52.6512 22.3172 52.579 22.0283 52.579C21.7394 52.579 21.3783 52.6512 21.1616 52.7957L17.1893 55.1068V30.9118C24.3395 30.1174 30.0451 24.4117 30.8396 17.2615H54.529C53.8068 18.4171 53.3012 19.8616 53.3012 21.3783ZM65.0737 33.3674H56.8402V21.3783C56.8402 19.1393 58.718 17.2615 60.957 17.2615C63.1959 17.2615 65.0737 19.1393 65.0737 21.3783V33.3674Z" fill="#81A8E9"/>
<path d="M16.828 24.0505V22.4616C18.7058 22.1005 20.1503 20.5838 20.2947 18.7782C20.4392 17.6226 20.0058 16.467 19.2114 15.6004C18.4169 14.7337 17.3336 14.2281 16.1057 14.2281H14.8057C14.3724 14.2281 13.939 14.0114 13.6501 13.7225C13.3612 13.3614 13.2168 13.0003 13.289 12.4947C13.3612 11.7003 14.0835 11.1225 14.9502 11.1225H16.4669C16.9724 11.1225 17.4058 11.4836 17.478 11.9169C17.5502 12.1336 17.6947 12.2781 17.9113 12.2781H19.6447C19.7892 12.2781 19.9336 12.2058 20.0058 12.1336C20.0781 12.0614 20.1503 11.9169 20.1503 11.7725C20.0058 10.0391 18.6336 8.66686 16.9002 8.52241V6.93348C16.9002 6.64459 16.6835 6.50014 16.4669 6.50014H14.8057C14.5168 6.50014 14.3724 6.71681 14.3724 6.93348V8.52241C12.2057 8.88353 10.689 10.8336 10.9056 13.0725C11.1223 15.167 13.0001 16.8282 15.2391 16.8282H16.3224C16.7558 16.8282 17.1891 17.0448 17.478 17.3337C17.7669 17.6948 17.9113 18.056 17.8391 18.5615C17.7669 19.356 17.0447 19.9338 16.178 19.9338H14.6613C14.1557 19.9338 13.7224 19.5727 13.6501 19.1393C13.5779 18.9226 13.4335 18.7782 13.2168 18.7782H11.4834C11.339 18.7782 11.1945 18.8504 11.1223 18.9226C11.0501 18.9949 10.9779 19.1393 10.9779 19.2838C11.1223 21.0171 12.4946 22.3894 14.2279 22.5338V24.1228C14.2279 24.4117 14.4446 24.5561 14.6613 24.5561H16.3224C16.6113 24.4839 16.828 24.2672 16.828 24.0505Z" fill="#81A8E9"/>
<path d="M45.501 42.7565H25.1338C24.1949 42.7565 23.4005 43.551 23.4005 44.4899C23.4005 45.4288 24.1949 46.2233 25.1338 46.2233H45.501C46.4399 46.2233 47.2343 45.4288 47.2343 44.4899C47.2343 43.551 46.4399 42.7565 45.501 42.7565Z" fill="#81A8E9"/>
<path d="M45.501 33.3674H25.1338C24.1949 33.3674 23.4005 34.1618 23.4005 35.1007C23.4005 36.0396 24.1949 36.8341 25.1338 36.8341H45.501C46.4399 36.8341 47.2343 36.0396 47.2343 35.1007C47.2343 34.1618 46.4399 33.3674 45.501 33.3674Z" fill="#81A8E9"/>
<path d="M35.8232 27.5173H45.5012C46.4401 27.5173 47.2346 26.7229 47.2346 25.784C47.2346 24.8451 46.4401 24.0506 45.5012 24.0506H35.8232C34.8843 24.0506 34.0898 24.8451 34.0898 25.784C34.0898 26.7229 34.8121 27.5173 35.8232 27.5173Z" fill="#81A8E9"/>
</svg>
