<svg width="51" height="44" viewBox="0 0 51 44" fill="none" xmlns="http://www.w3.org/2000/svg">
<path d="M0.886247 21.0978L12.4477 25.4439L16.9227 39.9388C17.209 40.8672 18.3361 41.2103 19.0842 40.5943L25.5288 35.3028C26.2043 34.7485 27.1665 34.7208 27.8725 35.237L39.4961 43.7366C40.2964 44.3225 41.4302 43.8808 41.6309 42.9068L50.1459 1.65412C50.365 0.59017 49.327 -0.29741 48.3212 0.0944119L0.8727 18.5301C-0.298229 18.9849 -0.288027 20.6546 0.886247 21.0978ZM16.2015 23.1304L38.7969 9.11391C39.2029 8.86274 39.6207 9.41578 39.272 9.74156L20.6243 27.2001C19.9688 27.8146 19.546 28.637 19.4263 29.5296L18.791 34.2709C18.7069 34.9039 17.824 34.9668 17.6506 34.3541L15.2075 25.7082C14.9277 24.7221 15.3355 23.6688 16.2015 23.1304Z" fill="#81A8E9"/>
</svg>
