<svg width="90" height="74" viewBox="0 0 90 74" fill="none" xmlns="http://www.w3.org/2000/svg">
<path d="M60.129 35.014H54.961C55.257 34.78 55.522 34.544 55.708 34.303C57.753 31.66 57.269 27.86 54.626 25.814C53.524 24.961 52.22 24.548 50.927 24.548C49.119 24.548 47.33 25.355 46.137 26.896C45.527 27.684 45.112 29.108 44.826 30.712C44.54 29.108 44.125 27.684 43.515 26.896C42.323 25.355 40.534 24.548 38.725 24.548C37.432 24.548 36.128 24.961 35.026 25.814C32.383 27.859 31.899 31.66 33.944 34.303C34.13 34.543 34.395 34.78 34.691 35.014H29.871C26.368 35.014 23.518 37.864 23.518 41.367V67.301C23.518 70.804 26.368 73.655 29.871 73.655H60.128C63.631 73.655 66.481 70.804 66.481 67.301V41.367C66.482 37.864 63.632 35.014 60.129 35.014ZM49.385 29.339C49.764 28.876 50.323 28.611 50.927 28.611C51.235 28.611 51.695 28.683 52.139 29.027C52.991 29.686 53.16 30.906 52.528 31.771C52.012 32.261 50.463 32.988 48.518 33.706C48.725 31.644 49.04 29.961 49.385 29.339ZM36.758 30.349C36.797 30.044 36.947 29.467 37.513 29.028C37.957 28.684 38.418 28.612 38.726 28.612C39.329 28.612 39.888 28.877 40.267 29.34C40.612 29.962 40.927 31.646 41.134 33.71C39.19 32.992 37.641 32.265 37.123 31.773C36.719 31.219 36.72 30.646 36.758 30.349ZM27.581 41.367C27.581 40.104 28.609 39.077 29.871 39.077H60.128C61.391 39.077 62.418 40.105 62.418 41.367V45.1H27.581V41.367ZM27.581 67.302V49.163H42.969V69.593H29.871C28.609 69.593 27.581 68.566 27.581 67.302ZM62.419 67.302C62.419 68.566 61.391 69.593 60.129 69.593H47.031V49.163H62.419V67.302Z" fill="#81A8E9"/>
<path d="M46.993 8.801V0H43.008V8.801C43.756 8.759 44.395 8.74 45.001 8.74C45.607 8.74 46.245 8.759 46.993 8.801Z" fill="#81A8E9"/>
<path d="M28.624 12.65L24.226 5.033L20.775 7.026L25.173 14.644C26.27 13.924 27.428 13.256 28.624 12.65Z" fill="#81A8E9"/>
<path d="M12.649 28.624C13.254 27.431 13.924 26.271 14.644 25.171L7.026 20.774L5.032 24.225L12.649 28.624Z" fill="#81A8E9"/>
<path d="M0 43.007V46.993H8.8C8.759 46.254 8.739 45.615 8.739 44.999C8.739 44.384 8.759 43.745 8.8 43.006L0 43.007Z" fill="#81A8E9"/>
<path d="M90 46.994V43.008H81.2C81.241 43.747 81.261 44.386 81.261 45.001C81.261 45.617 81.241 46.256 81.2 46.995L90 46.994Z" fill="#81A8E9"/>
<path d="M75.356 25.172C76.076 26.272 76.746 27.432 77.351 28.625L84.968 24.226L82.974 20.775L75.356 25.172Z" fill="#81A8E9"/>
<path d="M64.827 14.643L69.225 7.025L65.774 5.032L61.376 12.649C62.572 13.256 63.73 13.924 64.827 14.643Z" fill="#81A8E9"/>
</svg>
