<svg width="40" height="35" viewBox="0 0 40 35" fill="none" xmlns="http://www.w3.org/2000/svg">
<path d="M3.1732 16.4451L0 17.8012L3.06513 25.4368L7.71836 23.448L3.1732 16.4451Z" fill="#B4B4B4"/>
<path d="M26.0292 24.4434C27.4619 24.4434 28.7906 24.9071 29.885 25.6943V18.2406L35.0088 16.0507C39.1277 14.2903 41.0905 9.40026 39.3845 5.1503C37.6784 0.900331 32.9395 -1.12527 28.8202 0.63505L2.5973 11.843L11.7737 25.9811L22.1738 21.5363V25.6943C23.2682 24.9071 24.5969 24.4434 26.0292 24.4434Z" fill="#B4B4B4"/>
<path d="M26.0277 26.4312C28.3208 26.4312 30.18 28.3492 30.18 30.7156C30.18 33.082 28.3208 35 26.0277 35C23.7343 35 21.875 33.082 21.875 30.7156C21.875 28.3492 23.7343 26.4312 26.0277 26.4312Z" fill="#B4B4B4"/>
</svg>
