<svg width="16" height="16" viewBox="0 0 16 16" fill="none" xmlns="http://www.w3.org/2000/svg">
<path fill-rule="evenodd" clip-rule="evenodd" d="M0 8C0 12.4183 3.58121 16 7.99886 16C12.4165 16 15.9977 12.4183 15.9977 8C15.9977 3.58172 12.4165 0 7.99886 0C3.58121 0 0 3.58172 0 8ZM7.99904 15.2706C12.0151 15.2706 15.2707 12.0149 15.2707 7.99887C15.2707 3.98282 12.0151 0.72717 7.99904 0.72717C3.98299 0.72717 0.727344 3.98282 0.727344 7.99887C0.727344 12.0149 3.98299 15.2706 7.99904 15.2706ZM8.90783 4.27212C8.90783 4.82433 8.46018 5.27198 7.90797 5.27198C7.35577 5.27198 6.90812 4.82433 6.90812 4.27212C6.90812 3.71991 7.35577 3.27226 7.90797 3.27226C8.46018 3.27226 8.90783 3.71991 8.90783 4.27212ZM8.72604 6.18094H6.54453V6.54452H7.2717V11.9983H6.54453V12.3619H9.45321V11.9983H8.72604V6.18094Z" fill="#003893"/>
</svg>
