<svg width="42" height="60" viewBox="0 0 42 60" fill="none" xmlns="http://www.w3.org/2000/svg">
<path d="M35.8041 6.14256C27.614 -2.04752 14.3343 -2.04752 6.14303 6.14256C-1.23704 13.5226 -2.06781 27.4185 4.19532 35.769L20.9736 60L37.7518 35.769C44.0149 27.4185 43.1842 13.5226 35.8041 6.14256ZM21.1778 27.692C17.3539 27.692 14.2547 24.5927 14.2547 20.7689C14.2547 16.945 17.3539 13.8457 21.1778 13.8457C25.0017 13.8457 28.1009 16.945 28.1009 20.7689C28.1009 24.5927 25.0005 27.692 21.1778 27.692Z" fill="#111F4D"/>
<path d="M37.1354 3.34948L35 2.74048L35.3851 1.57093L37.4994 2.38062L37.3944 0H38.6476L38.5426 2.42215L40.6219 1.6263L41 2.81661L38.8296 3.42561L40.2299 5.26644L39.2147 6L37.9545 4.00692L36.7083 5.93772L35.6861 5.23183L37.1354 3.34948Z" fill="#003893"/>
</svg>
