<svg width="65" height="65" viewBox="0 0 65 65" fill="none" xmlns="http://www.w3.org/2000/svg">
<path d="M61.0761 3.54669H3.924C1.76034 3.54669 0 5.30703 0 7.47069V46.9302C0 49.0939 1.76034 50.8542 3.924 50.8542H23.5078V53.7094C23.5078 56.3268 21.3783 58.4563 18.7609 58.4563H14.4449C13.6174 58.4563 12.9465 59.1271 12.9465 59.9548C12.9465 60.7824 13.6174 61.4532 14.4449 61.4532H50.555C51.3825 61.4532 52.0534 60.7824 52.0534 59.9548C52.0534 59.1271 51.3825 58.4563 50.555 58.4563H46.2388C43.6214 58.4563 41.4919 56.3268 41.4919 53.7094V50.8544H61.0757C63.2394 50.8544 64.9999 49.094 64.9999 46.9303V7.47069C65.0001 5.30703 63.2398 3.54669 61.0761 3.54669ZM24.8727 58.4566C25.8942 57.1444 26.5049 55.4975 26.5049 53.7097V50.8545H38.4953V53.7097C38.4953 55.4975 39.1061 57.1445 40.1275 58.4566H24.8727ZM62.0033 46.9303C62.0033 47.4416 61.5874 47.8576 61.076 47.8576H3.924C3.41276 47.8576 2.99673 47.4417 2.99673 46.9303V39.055H62.0033V46.9303ZM62.0033 36.0581H2.99686V7.47069C2.99686 6.95945 3.41276 6.54343 3.92413 6.54343H61.076C61.5872 6.54343 62.0034 6.95933 62.0034 7.47069V36.0581H62.0033Z" fill="#BBBBBB"/>
<path d="M35.0693 13.8702C34.4841 13.285 33.5356 13.285 32.9501 13.8702L22.3604 24.4598C21.7753 25.045 21.7753 25.9938 22.3604 26.5791C22.6532 26.8717 23.0364 27.018 23.4201 27.018C23.8037 27.018 24.187 26.8717 24.4796 26.5791L35.0693 15.9894C35.6545 15.4043 35.6545 14.4554 35.0693 13.8702Z" fill="#BBBBBB"/>
<path d="M41.3459 20.007C40.7609 19.4218 39.8124 19.4218 39.2268 20.0068L35.0082 24.2253C34.423 24.8105 34.423 25.7594 35.0082 26.3445C35.3008 26.6371 35.6842 26.7834 36.0677 26.7834C36.4511 26.7834 36.8346 26.6371 37.1273 26.3445L41.3459 22.1261C41.931 21.541 41.931 20.5921 41.3459 20.007Z" fill="#BBBBBB"/>
</svg>
