<svg width="50" height="53" viewBox="0 0 50 53" fill="none" xmlns="http://www.w3.org/2000/svg">
<path fill-rule="evenodd" clip-rule="evenodd" d="M24.9993 0C11.214 0 0 11.2154 0 25.0007C0 31.3233 2.35209 37.327 6.6319 41.9591L5.23812 50.9444C5.18126 51.3106 5.3352 51.6781 5.63615 51.8944C5.80673 52.0179 6.00782 52.0803 6.2103 52.0803C6.36563 52.0803 6.52096 52.0428 6.66241 51.9693L14.7228 47.7949C17.9597 49.258 21.4143 50 24.9993 50C38.7846 50 50 38.7846 50 25.0007C50 11.2154 38.7846 0 24.9993 0ZM24.9993 48.0321C21.5447 48.0321 18.2204 47.2846 15.1222 45.8117C14.8434 45.6786 14.5203 45.6841 14.2471 45.8256L7.48065 49.3302L8.65115 41.7857C8.69831 41.482 8.60123 41.1741 8.38765 40.9522C4.24791 36.6433 1.96794 30.9766 1.96794 24.9993C1.96794 12.2999 12.2999 1.96794 24.9993 1.96794C37.7001 1.96794 48.0321 12.2999 48.0321 24.9993C48.0321 37.7001 37.7001 48.0321 24.9993 48.0321Z" fill="#007AFF"/>
<path fill-rule="evenodd" clip-rule="evenodd" d="M24.7774 9.05191C22.3102 9.05191 20.3035 11.0587 20.3035 13.5273C20.3035 15.9945 22.3102 18.0012 24.7774 18.0012C27.246 18.0012 29.2528 15.9945 29.2528 13.5273C29.2528 11.0587 27.246 9.05191 24.7774 9.05191ZM24.7774 16.3121C23.2422 16.3121 21.9926 15.0625 21.9926 13.5273C21.9926 11.992 23.2422 10.7425 24.7774 10.7425C26.3141 10.7425 27.5622 11.992 27.5622 13.5273C27.5622 15.0625 26.3127 16.3121 24.7774 16.3121Z" fill="#007AFF"/>
<path fill-rule="evenodd" clip-rule="evenodd" d="M29.7382 34.1359H28.7757V20.2757C28.7757 19.8098 28.3971 19.4312 27.9297 19.4312H19.818C19.3507 19.4312 18.9734 19.8098 18.9734 20.2757V23.0855C18.9734 23.5515 19.3507 23.9301 19.818 23.9301H20.7805V34.1359H19.818C19.3507 34.1359 18.9734 34.5145 18.9734 34.9805V37.7902C18.9734 38.2562 19.3507 38.6348 19.818 38.6348H29.7382C30.2055 38.6348 30.5827 38.2562 30.5827 37.7902V34.9805C30.5827 34.5145 30.2041 34.1359 29.7382 34.1359ZM28.8922 36.9443H20.6626V35.8265H21.6251C22.0925 35.8265 22.4711 35.4478 22.4711 34.9805V23.0855C22.4711 22.6181 22.0925 22.2395 21.6251 22.2395H20.6626V21.1217H27.0851V34.9805C27.0851 35.4478 27.4637 35.8265 27.9297 35.8265H28.8922V36.9443Z" fill="#007AFF"/>
</svg>
