<svg width="38" height="48" viewBox="0 0 38 48" fill="none" xmlns="http://www.w3.org/2000/svg">
<path d="M34.8811 5.10667C34.9479 5.1824 35.0449 5.2256 35.1462 5.2256C35.2486 5.2256 35.3445 5.1824 35.4124 5.10667L37.8642 2.65973C37.9568 2.55573 37.9795 2.40853 37.9223 2.28213C37.8642 2.1568 37.737 2.07573 37.5974 2.07573H36.7186V0.350933C36.7191 0.1568 36.5612 0 36.3651 0H33.9278C33.7317 0 33.5733 0.1568 33.5733 0.350933V2.07573H32.6949C32.5554 2.07573 32.4282 2.1568 32.3711 2.28213C32.3134 2.40853 32.3371 2.55573 32.4293 2.65973L34.8811 5.10667Z" fill="#003893"/>
<path d="M23.113 21.8043C22.0995 20.6859 21.0983 19.4363 20.1968 18.312C19.7716 17.7808 19.3648 17.2742 18.9843 16.8139L18.9563 16.7803C19.5135 15.2096 19.832 13.9243 19.9031 12.959C20.0836 10.4998 19.8061 8.91578 19.0555 8.11738C18.5484 7.57711 17.787 7.38885 17.0709 7.62725C16.5579 7.79738 15.8633 8.25338 15.4662 9.45765C14.8745 11.2528 15.1612 14.432 16.8435 17.0614C16.0929 19.007 15.0464 21.2427 13.8906 23.3712C11.6893 24.135 9.93484 25.1392 8.67554 26.3574C7.03042 27.9467 6.3617 29.5243 6.84021 30.6848C7.13496 31.4038 7.81661 31.8326 8.66315 31.8326C9.25265 31.8326 9.89012 31.6219 10.5071 31.224C12.0649 30.216 14.0991 26.8576 15.1903 24.9115C17.4475 24.2139 19.6762 23.9286 20.8089 23.8203C21.3214 23.7712 21.83 23.7323 22.3198 23.7051C24.3023 25.7771 25.9237 26.8699 27.4174 27.1424C27.7181 27.1979 28.0188 27.2256 28.3124 27.2256C29.5297 27.2256 30.5357 26.7451 31.0051 25.9403C31.3591 25.3323 31.3521 24.623 30.9851 23.9936C30.1564 22.5734 27.655 21.7915 23.9418 21.7915C23.6745 21.792 23.3986 21.7958 23.113 21.8043ZM9.47358 29.6614C9.17883 29.8518 8.87599 29.9654 8.66261 29.9654C8.62219 29.9654 8.59471 29.9611 8.57909 29.9574C8.54191 29.7712 8.67554 28.9664 9.99304 27.6923C10.6116 27.0939 11.3941 26.5478 12.3203 26.0646C11.1516 27.9259 10.0997 29.2566 9.47358 29.6614ZM17.2584 10.0374C17.3958 9.62085 17.5661 9.43258 17.6722 9.39738C17.6749 9.39685 17.6771 9.39578 17.6792 9.39525C17.7816 9.50938 18.217 10.1616 18.022 12.8251C17.988 13.2896 17.8738 13.8768 17.6814 14.5744C17.052 12.9702 16.879 11.1878 17.2584 10.0374ZM20.6268 21.9632C19.6234 22.0587 18.0952 22.2555 16.3903 22.655C17.0515 21.3483 17.6636 20.024 18.175 18.7968C18.3523 19.0166 18.5339 19.2422 18.7182 19.4731C19.3351 20.2427 20.0281 21.1078 20.7464 21.9526L20.6268 21.9632ZM29.3503 24.9275C29.3783 24.9755 29.3777 24.9947 29.3707 25.0075C29.2915 25.1435 28.9332 25.3595 28.3097 25.3595C28.1357 25.3595 27.9503 25.3419 27.759 25.3067C26.9809 25.1643 26.0735 24.632 24.992 23.6827C27.9266 23.8214 29.1126 24.5216 29.3503 24.9275Z" fill="#003893"/>
<path d="M27.1097 0H2.71043C1.21511 0 0 1.19947 0 2.6832V45.3168C0 46.7989 1.21511 48 2.71043 48H35.2426C36.7412 48 37.9531 46.7989 37.9531 45.3168V10.7328L27.1097 0ZM27.1097 3.7936L34.1207 10.7328H27.1097V3.7936ZM35.2432 45.3168H2.71043V2.6832H24.3987V10.7328C24.3987 12.2149 25.6112 13.416 27.1092 13.416H35.2426L35.2432 45.3168Z" fill="#003893"/>
<path d="M14.4979 34.3227C14.2764 34.1291 14.0107 33.9882 13.709 33.9056C13.411 33.8213 12.9842 33.7786 12.4405 33.7786H10.6359C10.2926 33.7786 10.034 33.8565 9.86641 34.0117C9.69721 34.1685 9.61045 34.4224 9.61045 34.7653V40.0624C9.61045 40.3706 9.68751 40.6106 9.83947 40.7771C9.99412 40.9477 10.2 41.0346 10.4511 41.0346C10.6914 41.0346 10.894 40.9477 11.0524 40.776C11.2076 40.6074 11.2868 40.3642 11.2868 40.0533V38.2416H12.4405C13.3312 38.2416 14.0156 38.049 14.4731 37.6688C14.9386 37.2837 15.1752 36.7141 15.1752 35.9754C15.1752 35.6315 15.1181 35.3168 15.0044 35.0394C14.8901 34.7584 14.7199 34.5178 14.4979 34.3227ZM13.3318 36.5376C13.231 36.672 13.0871 36.7664 12.891 36.8272C12.6825 36.8912 12.4168 36.9242 12.1 36.9242H11.2874V35.0906H12.1C12.8323 35.0906 13.1292 35.2352 13.2472 35.3531C13.4045 35.5195 13.481 35.7322 13.481 36.0026C13.481 36.2256 13.4309 36.4053 13.3318 36.5376Z" fill="#003893"/>
<path d="M21.164 34.4347C20.8714 34.1813 20.5406 34.0059 20.1806 33.9136C19.8303 33.824 19.4057 33.7781 18.9202 33.7781H17.0876C16.7486 33.7781 16.4954 33.8587 16.3343 34.0187C16.1731 34.1787 16.0912 34.4293 16.0912 34.7643V39.8032C16.0912 40.0395 16.1123 40.2288 16.1554 40.3808C16.2044 40.5536 16.31 40.6885 16.469 40.7819C16.6204 40.8725 16.8327 40.9163 17.1161 40.9163H18.9488C19.2732 40.9163 19.5695 40.8955 19.8298 40.8539C20.0949 40.8112 20.3466 40.7365 20.5772 40.6325C20.81 40.5275 21.0266 40.3856 21.2233 40.2107C21.4695 39.9867 21.6748 39.7291 21.8333 39.4437C21.9901 39.1595 22.1081 38.8368 22.1824 38.4859C22.2568 38.1381 22.2945 37.7483 22.2945 37.3285C22.294 36.0443 21.913 35.0704 21.164 34.4347ZM19.9392 39.2544C19.8481 39.3328 19.7387 39.3957 19.6137 39.44C19.4828 39.4859 19.3556 39.5152 19.2344 39.5264C19.1067 39.5381 18.9261 39.5445 18.6977 39.5445H17.7665V35.1467H18.5603C18.9757 35.1467 19.3319 35.1915 19.6197 35.2795C19.8885 35.3605 20.1202 35.5573 20.3083 35.8656C20.5012 36.1808 20.5993 36.6699 20.5993 37.32C20.5993 38.2368 20.3778 38.8869 19.9392 39.2544Z" fill="#003893"/>
<path d="M27.544 33.7786H24.229C24.0081 33.7786 23.8292 33.8112 23.6826 33.8778C23.5258 33.9482 23.4089 34.0629 23.3345 34.2192C23.2655 34.3653 23.2321 34.544 23.2321 34.7653V40.0528C23.2321 40.3712 23.3108 40.616 23.4644 40.7802C23.6212 40.9488 23.8259 41.0346 24.0727 41.0346C24.3147 41.0346 24.5178 40.9504 24.6763 40.7835C24.8304 40.6186 24.9085 40.3728 24.9085 40.0528V37.9221H27.0898C27.3339 37.9221 27.5252 37.864 27.6572 37.7482C27.7946 37.6283 27.8641 37.4672 27.8641 37.2688C27.8641 37.0709 27.7962 36.9093 27.6615 36.7888C27.5306 36.6704 27.3382 36.6106 27.0898 36.6106H24.9085V35.1194H27.5446C27.8027 35.1194 28.0015 35.0581 28.1357 34.9365C28.2731 34.8128 28.3426 34.648 28.3426 34.4469C28.3426 34.2501 28.2731 34.0869 28.1352 33.961C27.9994 33.8395 27.8011 33.7786 27.544 33.7786Z" fill="#003893"/>
</svg>
