<svg width="14" height="14" viewBox="0 0 14 14" fill="none" xmlns="http://www.w3.org/2000/svg">
<path d="M12.7576 10.4914L10.9001 8.6338C10.5302 8.26533 9.91752 8.27652 9.53467 8.65951L8.5989 9.59508C8.53978 9.56249 8.47859 9.52846 8.41425 9.49235C7.82332 9.16492 7.01453 8.71614 6.16345 7.86444C5.30984 7.01094 4.86065 6.20091 4.53222 5.6096C4.49756 5.54695 4.46436 5.48655 4.43157 5.42919L5.05961 4.80209L5.36838 4.49294C5.75181 4.1094 5.76239 3.4969 5.39329 3.12736L3.53588 1.26953C3.16678 0.900501 2.55384 0.911696 2.1704 1.29524L1.64692 1.82173L1.66122 1.83593C1.48569 2.0599 1.33901 2.31822 1.22986 2.59679C1.12924 2.86195 1.0666 3.11499 1.03795 3.36854C0.792692 5.40179 1.72183 7.26003 4.24339 9.78163C7.72895 13.267 10.5379 13.0037 10.659 12.9908C10.923 12.9593 11.1759 12.8962 11.4329 12.7964C11.7091 12.6885 11.9672 12.542 12.1911 12.3669L12.2025 12.377L12.7328 11.8577C13.1155 11.4743 13.1265 10.8616 12.7576 10.4914Z" stroke="black"/>
</svg>
