<svg width="75" height="75" viewBox="0 0 75 75" fill="none" xmlns="http://www.w3.org/2000/svg">
<path d="M37.4602 74.1232C57.7086 74.1232 74.1233 57.7086 74.1233 37.4601C74.1233 17.2116 57.7086 0.796997 37.4602 0.796997C17.2117 0.796997 0.797028 17.2116 0.797028 37.4601C0.797028 57.7086 17.2117 74.1232 37.4602 74.1232Z" stroke="#D2D2E6" stroke-width="2.32094" stroke-miterlimit="22.9256"/>
<path fill-rule="evenodd" clip-rule="evenodd" d="M56.0308 56.0308C50.2922 56.6684 45.8289 54.1179 45.7492 54.1179C45.6695 54.0382 45.4304 54.0382 45.271 54.0382C45.1913 54.0382 38.0978 55.9511 32.3592 54.6758C28.7726 53.8788 25.3454 51.408 22.8746 49.5749C22.5558 49.3358 22.237 49.0966 21.9979 48.8575C21.5994 48.5387 20.9617 48.2996 20.4038 48.0605C20.085 47.9808 19.7662 47.9011 19.6865 47.8214C19.6068 47.7417 19.6068 47.662 19.6068 47.5823V46.068C19.6068 44.8724 24.7078 26.1423 25.5048 23.7513C25.5048 23.7513 25.5845 23.6716 25.6642 23.6716L35.7864 19.0488L39.0542 23.2731C39.2136 23.5122 39.1339 23.831 38.9745 23.9904L38.3369 24.7077L36.1849 22.5557C36.1052 22.476 35.8661 22.476 35.7067 22.6354C35.5473 22.7151 35.5473 22.9542 35.7067 23.1136L37.8587 25.2656L36.9022 26.3814L34.6706 24.2295C34.5112 24.0701 34.3518 24.0701 34.1924 24.2295C34.0329 24.3889 34.0329 24.628 34.1924 24.7077L36.424 26.9394L35.7864 27.6567C35.5473 27.8958 35.2285 27.8958 34.9894 27.7364L33.6344 26.5409C33.5547 26.3814 33.3156 26.3017 33.0765 26.3814C32.9171 26.3814 32.678 26.5409 32.5983 26.7003C32.5186 26.9394 31.4825 27.1785 30.526 27.1785H30.2072C29.8884 27.1785 29.6493 27.2582 29.5696 27.4973C29.4102 27.7364 29.4102 28.0552 29.5696 28.2146C29.8884 28.6131 30.1275 28.9319 30.2072 29.0913L30.8448 40.0106C30.4463 41.6046 30.1275 42.0031 29.9681 42.0828C29.729 42.2422 29.5696 42.4813 29.5696 42.7204C29.5696 43.119 29.8087 43.4378 30.2072 43.4378C30.9246 43.4378 31.5622 42.4016 32.1201 40.4888C37.3805 36.5834 42.0032 40.2497 42.322 40.5685C43.9958 42.2422 44.1552 43.3581 44.1552 43.4378C44.1552 43.7566 44.3943 44.0754 44.7928 44.0754C45.1913 44.0754 45.4304 43.7566 45.4304 43.4378C45.4304 43.2784 45.4304 41.9234 43.6769 40.0903C45.271 38.0977 47.1839 36.9022 49.1764 36.6631C52.6833 36.2646 55.6323 38.5759 55.6323 38.6556C55.9511 38.815 56.3496 38.815 56.5887 38.4962C56.8279 38.2571 56.7481 37.8586 56.509 37.6195C56.3496 37.4601 53.0818 34.8299 49.017 35.3878C46.6259 35.6269 44.5537 36.9022 42.6408 39.2135C41.2062 38.1774 36.9022 35.866 32.1201 38.8947L31.5622 28.7725C31.4825 28.6928 31.4825 28.5334 31.4028 28.4537C32.0404 28.374 32.7577 28.2146 33.2359 27.8958L34.1126 28.6928C34.9097 29.3304 36.0255 29.2507 36.7428 28.5334L40.0106 24.8671C40.5685 24.2295 40.6483 23.1934 40.0903 22.476L36.5037 17.7736C36.2646 17.5345 35.9458 17.4548 35.7067 17.6142L25.1063 22.3963C25.0266 22.476 24.4687 22.7151 24.2295 23.2731C23.9107 24.4686 18.2519 44.4739 18.2519 46.068V47.5823C18.2519 48.0605 18.491 48.5387 18.8895 48.8575C19.0489 49.0169 19.3677 49.0966 19.9256 49.3358C20.3241 49.4952 20.9617 49.7343 21.2009 49.8937C21.5197 50.1328 21.7588 50.3719 22.1573 50.611C24.7078 52.5238 28.2147 55.154 32.0404 56.0308C37.5399 57.2263 43.9958 55.7119 45.3507 55.3931C46.3071 55.8713 49.6546 57.4654 54.118 57.4654C54.7556 57.4654 55.4729 57.3857 56.1105 57.306C56.509 57.306 56.7481 56.9872 56.7481 56.5887C56.6684 56.2699 56.3496 55.9511 56.0308 56.0308Z" fill="#007AFF"/>
<path fill-rule="evenodd" clip-rule="evenodd" d="M52.1254 49.017C52.1254 48.6982 51.8066 48.3794 51.4878 48.3794C51.0893 48.3794 50.8502 48.6982 50.8502 49.0967C50.8502 49.4952 51.169 51.0096 55.3932 51.7269H55.4729C55.7917 51.7269 56.0308 51.4878 56.1105 51.169C56.1902 50.8502 55.9511 50.4517 55.5526 50.372C52.6036 49.8937 52.2051 49.0967 52.1254 49.017Z" fill="#007AFF"/>
<path fill-rule="evenodd" clip-rule="evenodd" d="M40.6482 50.9299C31.9607 52.8427 28.2147 46.865 28.0552 46.6259C27.8958 46.3071 27.4973 46.2274 27.1785 46.3868C26.8597 46.5462 26.78 46.9447 26.9394 47.2636C27.0191 47.3433 28.0552 49.0967 30.2869 50.6111C31.881 51.5675 34.272 52.6036 37.4601 52.6036C38.4963 52.6036 39.6918 52.5239 40.8873 52.2848C41.2858 52.2051 41.525 51.8066 41.4453 51.4878C41.3656 51.0893 40.967 50.8502 40.6482 50.9299Z" fill="#007AFF"/>
</svg>
