<svg width="48" height="50" viewBox="0 0 48 50" fill="none" xmlns="http://www.w3.org/2000/svg">
<g clip-path="url(#clip0)">
<path d="M12.7069 45.2174H21.0116V36.186H26.0034V45.2174H34.3081V4.78259H12.7069V45.2174ZM25.0228 9.54785H30.0145V14.8566H25.0228V9.54785ZM25.0228 18.0798H30.0145V23.3885H25.0228V18.0798ZM25.0228 26.6115H30.0145V31.9202H25.0228V26.6115ZM17.0004 9.54785H21.9921V14.8566H17.0004V9.54785ZM17.0004 18.0798H21.9921V23.3885H17.0004V18.0798ZM17.0004 26.6115H21.9921V31.9202H17.0004V26.6115Z" fill="#81A8E9"/>
<path d="M36.2472 8.40472V36.9952H39.4542V45.2174H47.0149V8.40472H36.2472ZM43.1061 33.1116H38.5614V28.2785H43.106V33.1116H43.1061ZM43.1061 25.3439H38.5614V20.5109H43.106V25.3439H43.1061ZM43.1061 17.5763H38.5614V12.7433H43.106V17.5763H43.1061Z" fill="#81A8E9"/>
<path d="M0 45.2174H7.56079V36.9952H10.7678V8.40472H0V45.2174ZM3.90891 12.7433H8.45349V17.5763H3.90891V12.7433ZM3.90891 20.5109H8.45349V25.3439H3.90891V20.5109ZM3.90891 28.2782H8.45349V33.1113H3.90891V28.2782Z" fill="#81A8E9"/>
</g>
<defs>
<clipPath id="clip0">
<rect width="47.0149" height="50" fill="white"/>
</clipPath>
</defs>
</svg>
