<svg width="45" height="43" viewBox="0 0 45 43" fill="none" xmlns="http://www.w3.org/2000/svg">
<path d="M39.8185 14.8615H32.7697H28.8486V6.55215C28.8486 -2.1349 21.0996 0.32014 21.0996 0.32014C21.0996 0.32014 21.0996 1.02832 21.0996 8.34622C21.0996 15.0031 14.0975 17.5526 12.8838 17.9775C12.4637 16.6084 11.2033 15.5697 9.70955 15.5697H3.31431C1.49377 15.5697 0 17.0805 0 18.9218V39.6479C0 41.4892 1.49377 43 3.31431 43H9.70955C11.1566 43 12.417 42.0085 12.8371 40.6866C13.7707 41.6308 15.0778 42.2446 16.5249 42.2446H22.6867H33.0031H35.9907C38.8382 42.2446 41.9191 41.0643 42.3859 36.9568L45 20.1021C45 17.2693 42.666 14.8615 39.8185 14.8615ZM9.66286 39.6479H3.36099V19.0162H9.66286V39.6479Z" fill="#81A8E9"/>
</svg>
