<svg width="46" height="55" viewBox="0 0 46 55" fill="none" xmlns="http://www.w3.org/2000/svg">
<path d="M16.593 29.5436C16.6115 29.3658 16.5835 29.1862 16.5117 29.0226C16.4399 28.8589 16.3268 28.717 16.1835 28.6107C15.9241 28.405 15.6373 28.2368 15.3315 28.1109C15.0714 27.9942 14.8114 27.8887 14.5458 27.7832C13.9365 27.5506 13.3463 27.2703 12.7809 26.9447C11.2317 26.0117 10.5235 24.8011 10.6175 23.2462C10.7282 21.4247 11.7241 20.1585 13.561 19.4866H13.5886C13.7361 19.444 13.8775 19.3824 14.0091 19.3033C14.0403 19.1499 14.0515 18.9931 14.0423 18.8368V18.5869C14.0423 18.4314 14.0423 18.2704 14.0423 18.1149C14.0423 17.4207 14.2747 17.2042 14.9608 17.1819H15.5915C16.7866 17.1819 16.8807 17.3985 16.8862 18.6091C16.8758 18.7857 16.887 18.9629 16.9194 19.1367C17.085 19.1896 17.2556 19.225 17.4284 19.2422C18.0569 19.3461 18.669 19.5329 19.2487 19.7976C19.3501 19.8318 19.4437 19.8861 19.5239 19.9572C19.6041 20.0283 19.6693 20.1147 19.7157 20.2115C19.7621 20.3083 19.7887 20.4134 19.7941 20.5206C19.7994 20.6279 19.7833 20.7351 19.7467 20.836L19.625 21.2581C19.5254 21.6079 19.4258 21.9578 19.3151 22.3077C19.2543 22.4965 19.1104 22.9407 18.6678 22.9407C18.493 22.9312 18.3227 22.8819 18.1698 22.7963C17.3549 22.3988 16.4516 22.219 15.5473 22.2743C15.3291 22.2772 15.1134 22.3205 14.911 22.4021C14.771 22.4487 14.646 22.532 14.5488 22.6433C14.4515 22.7545 14.3856 22.8898 14.3577 23.0351C14.3468 23.1759 14.3728 23.317 14.4329 23.4446C14.4931 23.5722 14.5854 23.6818 14.7007 23.7626C15.0384 24.0245 15.4108 24.2376 15.8073 24.3957L16.0729 24.5068C16.7424 24.7687 17.3964 25.069 18.0315 25.4064C18.5994 25.7193 19.0919 26.1535 19.4744 26.6784C19.8568 27.2033 20.1197 27.806 20.2446 28.4441C20.3575 29.0441 20.3372 29.6618 20.1852 30.253C20.0331 30.8443 19.7531 31.3947 19.3649 31.8649C18.7638 32.6007 17.9468 33.1273 17.0301 33.3699C16.7534 33.4476 16.7092 33.5364 16.7202 33.7641C16.7313 33.9918 16.7202 34.3195 16.7202 34.5583C16.7202 34.686 16.7202 34.8137 16.7202 34.9414C16.7299 35.0516 16.7159 35.1626 16.6791 35.2669C16.6423 35.3711 16.5836 35.4663 16.507 35.5458C16.4304 35.6253 16.3377 35.6874 16.2351 35.7278C16.1325 35.7682 16.0225 35.786 15.9124 35.78H14.7007C14.5871 35.786 14.4735 35.7674 14.3675 35.7256C14.2616 35.6838 14.1658 35.6197 14.0867 35.5376C14.0075 35.4555 13.9468 35.3573 13.9086 35.2497C13.8704 35.1421 13.8556 35.0275 13.8653 34.9137V34.0529C13.8788 33.9237 13.8788 33.7934 13.8653 33.6642C13.8376 33.6642 13.6274 33.6198 13.5167 33.6031C12.7193 33.4957 11.9419 33.2712 11.2095 32.9367C10.5345 32.609 10.4073 32.3203 10.6009 31.5983C10.7282 31.1319 10.8444 30.7154 10.9716 30.2989C11.0435 30.0656 11.1819 29.6325 11.6134 29.6325C11.8089 29.6401 11.9993 29.6975 12.1667 29.7991C12.9051 30.177 13.7055 30.4178 14.5292 30.5099C15.0242 30.5806 15.5289 30.5153 15.9899 30.3211C16.1479 30.2535 16.2861 30.1466 16.3916 30.0106C16.4971 29.8746 16.5664 29.7139 16.593 29.5436ZM35.7255 25.4286C35.7255 25.2047 35.6369 24.99 35.4792 24.8317C35.3215 24.6734 35.1076 24.5845 34.8845 24.5845H24.3002C24.1898 24.5845 24.0804 24.6063 23.9784 24.6488C23.8764 24.6912 23.7836 24.7534 23.7055 24.8317C23.6275 24.9101 23.5655 25.0032 23.5232 25.1056C23.481 25.208 23.4592 25.3178 23.4592 25.4286V27.5611C23.4592 27.785 23.5478 27.9997 23.7055 28.158C23.8633 28.3163 24.0772 28.4052 24.3002 28.4052H34.9011C35.1203 28.4009 35.3292 28.3108 35.4832 28.1541C35.6372 27.9975 35.7241 27.7867 35.7255 27.5666V25.4286ZM31.3601 2.94326H28.0404L27.1109 1.21618C26.9073 0.847434 26.609 0.540154 26.2471 0.326279C25.8851 0.112404 25.4727 -0.000259583 25.0527 4.49105e-07H20.9473C20.5273 -0.000259583 20.1149 0.112404 19.7529 0.326279C19.391 0.540154 19.0927 0.847434 18.8891 1.21618L17.9375 2.94326H14.6178C14.2113 2.94326 13.8215 3.10532 13.534 3.3938C13.2466 3.68228 13.0852 4.07355 13.0852 4.48152V11.2732C13.0852 11.6812 13.2466 12.0725 13.534 12.3609C13.8215 12.6494 14.2113 12.8115 14.6178 12.8115H31.3601C31.7666 12.8115 32.1564 12.6494 32.4438 12.3609C32.7312 12.0725 32.8927 11.6812 32.8927 11.2732V4.48152C32.8927 4.07355 32.7312 3.68228 32.4438 3.3938C32.1564 3.10532 31.7666 2.94326 31.3601 2.94326ZM3.45249 5.42003C2.53728 5.4215 1.65998 5.78706 1.01283 6.43661C0.365676 7.08615 0.00146316 7.9667 0 8.8853V51.5347C0.00146316 52.4533 0.365676 53.3339 1.01283 53.9834C1.65998 54.633 2.53728 54.9985 3.45249 55H42.5475C43.4627 54.9985 44.34 54.633 44.9872 53.9834C45.6343 53.3339 45.9985 52.4533 46 51.5347V8.8853C45.9985 7.9667 45.6343 7.08615 44.9872 6.43661C44.34 5.78706 43.4627 5.4215 42.5475 5.42003H36.4614V11.2732C36.4605 11.6354 36.4216 11.9966 36.3452 12.3506H39.1006V48.0473H6.90498V12.3506H9.62714C9.55075 11.9966 9.51181 11.6354 9.51095 11.2732V5.42003H3.45249ZM35.7255 18.0038C35.7255 17.78 35.6369 17.5653 35.4792 17.407C35.3215 17.2487 35.1076 17.1597 34.8845 17.1597H24.3002C24.0772 17.1597 23.8633 17.2487 23.7055 17.407C23.5478 17.5653 23.4592 17.78 23.4592 18.0038V20.1363C23.4592 20.3602 23.5478 20.5749 23.7055 20.7332C23.8633 20.8915 24.0772 20.9804 24.3002 20.9804H34.9011C35.1213 20.976 35.331 20.8852 35.4851 20.7274C35.6392 20.5695 35.7256 20.3573 35.7255 20.1363V18.0038ZM34.9011 32.0148H24.3002C24.0772 32.0148 23.8633 32.1038 23.7055 32.2621C23.5478 32.4204 23.4592 32.6351 23.4592 32.8589V34.9914C23.4607 35.2143 23.5499 35.4276 23.7075 35.5847C23.8651 35.7418 24.0781 35.83 24.3002 35.83H34.9011C35.1203 35.8256 35.3292 35.7355 35.4832 35.5789C35.6372 35.4223 35.7241 35.2115 35.7255 34.9914V32.8589C35.7256 32.6379 35.6392 32.4257 35.4851 32.2679C35.331 32.1101 35.1213 32.0192 34.9011 32.0148ZM9.6548 40.2726V42.4051C9.6548 42.629 9.7434 42.8437 9.90112 43.002C10.0588 43.1603 10.2727 43.2492 10.4958 43.2492H30.663C30.886 43.2492 31.0999 43.1603 31.2577 43.002C31.4154 42.8437 31.504 42.629 31.504 42.4051V40.2726C31.504 40.0487 31.4154 39.834 31.2577 39.6758C31.0999 39.5174 30.886 39.4285 30.663 39.4285H10.4958C10.2727 39.4285 10.0588 39.5174 9.90112 39.6758C9.7434 39.834 9.6548 40.0487 9.6548 40.2726Z" fill="#003893"/>
</svg>
