<svg width="72" height="63" viewBox="0 0 72 63" fill="none" xmlns="http://www.w3.org/2000/svg">
<path d="M12.7523 54.6973L14.3832 45.7812H17.7816L14.7641 60H11.2094L9.30508 51.8945L7.43984 60H3.89492L0.867577 45.7812H4.27578L5.90664 54.6973L7.85976 45.7812H10.7699L12.7523 54.6973ZM27.7379 53.9746H22.3473V57.3633H28.7145V60H18.9195V45.7812H28.734V48.4277H22.3473V51.4258H27.7379V53.9746ZM29.9109 60V45.7812H35.0184C36.8478 45.7812 38.2378 46.1165 39.1883 46.7871C40.1453 47.4577 40.6238 48.431 40.6238 49.707C40.6238 50.4427 40.4546 51.071 40.116 51.5918C39.7775 52.1126 39.2794 52.4967 38.6219 52.7441C39.3641 52.9395 39.9337 53.304 40.3309 53.8379C40.728 54.3717 40.9266 55.0228 40.9266 55.791C40.9266 57.1842 40.4839 58.2324 39.5984 58.9355C38.7195 59.6322 37.4142 59.987 35.6824 60H29.9109ZM33.3387 53.9551V57.3633H35.5848C36.2033 57.3633 36.6785 57.2233 37.0105 56.9434C37.3426 56.6569 37.5086 56.2565 37.5086 55.7422C37.5086 54.5573 36.9194 53.9616 35.741 53.9551H33.3387ZM33.3387 51.709H35.1258C35.8745 51.7025 36.4083 51.5658 36.7273 51.2988C37.0464 51.0319 37.2059 50.638 37.2059 50.1172C37.2059 49.5182 37.0333 49.0885 36.6883 48.8281C36.3432 48.5612 35.7866 48.4277 35.0184 48.4277H33.3387V51.709ZM57.9777 48.4277H53.7102V60H50.2824V48.4277H46.093V45.7812H57.9777V48.4277ZM64.9066 56.1328L67.7387 45.7812H71.5668L66.7816 60H63.0316L58.2855 45.7812H62.0844L64.9066 56.1328Z" fill="#003893"/>
<path d="M7.89519 12.4586H7.81711C6.81614 12.4586 6 13.3201 6 14.3705V22.6945C6 23.7491 6.81614 24.6077 7.81711 24.6077H7.89652C8.89749 24.6077 9.71363 23.7463 9.71363 22.6945V14.3704C9.7123 13.3201 8.8949 12.4586 7.89519 12.4586Z" fill="#111F4D"/>
<path d="M10.5219 25.8347C10.5219 26.8016 11.2729 27.5891 12.1919 27.5891H13.9765V32.0854C13.9765 33.1413 14.7952 34 15.7936 34H15.8717C16.874 34 17.6914 33.1399 17.6914 32.0854V27.5891H20.1853V32.0854C20.1853 33.1413 21.0067 34 22.005 34H22.0818C23.0841 34 23.9002 33.1399 23.9002 32.0854V27.5891H25.6861C26.6037 27.5891 27.3548 26.8016 27.3548 25.8347V12.691H10.5219V25.8347Z" fill="#111F4D"/>
<path d="M23.1869 4.79256L24.6044 2.49033C24.6955 2.34513 24.6552 2.14659 24.5159 2.05205C24.3779 1.95617 24.1892 1.99592 24.0993 2.14519L22.6298 4.52691C21.5273 4.05167 20.296 3.78462 18.9956 3.78462C17.6939 3.78462 16.4652 4.05167 15.3601 4.52691L13.8932 2.14519C13.8034 1.99592 13.6133 1.95617 13.4741 2.05205C13.3348 2.14652 13.2944 2.34513 13.3855 2.49033L14.8043 4.79256C12.2466 6.11148 10.5219 8.59726 10.5219 11.4487C10.5219 11.624 10.5323 11.7966 10.5466 11.9677H27.4458C27.4601 11.7966 27.4692 11.624 27.4692 11.4487C27.4693 8.59726 25.7433 6.11148 23.1869 4.79256ZM15.0777 8.91497C14.6286 8.91497 14.2641 8.53421 14.2641 8.06037C14.2641 7.58653 14.6286 7.2071 15.0777 7.2071C15.5293 7.2071 15.8912 7.58646 15.8912 8.06037C15.8912 8.53427 15.5267 8.91497 15.0777 8.91497ZM22.9123 8.91497C22.4632 8.91497 22.0987 8.53421 22.0987 8.06037C22.0987 7.58653 22.4632 7.2071 22.9123 7.2071C23.3626 7.2071 23.7245 7.58646 23.7245 8.06037C23.7245 8.53421 23.3626 8.91497 22.9123 8.91497Z" fill="#111F4D"/>
<path d="M30.1816 12.4586H30.1061C29.1051 12.4586 28.2864 13.3201 28.2864 14.3705V22.6945C28.2864 23.7491 29.1065 24.6077 30.1061 24.6077H30.1829C31.1851 24.6077 32 23.7463 32 22.6945V14.3704C32 13.3201 31.1825 12.4586 30.1816 12.4586Z" fill="#111F4D"/>
<path d="M43.2902 11.3957C40.7039 15.9435 42.348 22.8452 45.208 27.0299C46.6356 29.122 48.0809 31 50.0606 31C50.0979 31 50.1353 30.9993 50.1736 30.9978C51.1037 30.9602 51.7758 30.67 52.4256 30.3896C53.1552 30.0745 53.9098 29.7487 55.0933 29.7487C56.2193 29.7487 56.9379 30.0639 57.6328 30.3686C58.3176 30.6689 59.023 30.9795 60.0653 30.9596C62.2952 30.9176 63.6643 28.8911 64.8723 27.1033C66.1327 25.2367 66.765 23.4244 66.9784 22.7318L66.987 22.7043C67.0276 22.5812 66.9702 22.4468 66.8538 22.3927C66.8506 22.3911 66.8388 22.3862 66.8354 22.3847C66.4428 22.222 62.9982 20.6735 62.962 16.4531C62.9284 13.0241 65.5461 11.2084 66.0711 10.8793L66.0955 10.8638C66.1524 10.8267 66.192 10.7679 66.2055 10.7006C66.2189 10.6334 66.2049 10.5635 66.1667 10.5069C64.3599 7.82753 61.5906 7.42372 60.4757 7.37513C60.3139 7.35877 60.1469 7.35054 59.9792 7.35054C58.6697 7.35054 57.4152 7.85172 56.4074 8.25441C55.7117 8.5324 55.1108 8.77247 54.6964 8.77247C54.2307 8.77247 53.6263 8.52945 52.9265 8.24811C51.9907 7.87174 50.9301 7.44526 49.8072 7.44526C49.7804 7.44526 49.754 7.44557 49.7281 7.44608C47.1172 7.485 44.6502 8.99862 43.2902 11.3957Z" fill="#111F4D"/>
<path d="M60.478 0.000195294C58.8969 0.0654478 57.0004 1.05166 55.8668 2.39716C54.9034 3.5281 53.9623 5.41371 54.2102 7.31437C54.2257 7.43329 54.3212 7.52507 54.4393 7.53432C54.546 7.54276 54.6549 7.54703 54.7635 7.54713C56.3094 7.54713 57.9771 6.68045 59.116 5.28494C60.3147 3.81137 60.9208 1.92027 60.7375 0.226343C60.723 0.0936019 60.6078 -0.00498832 60.478 0.000195294Z" fill="#111F4D"/>
</svg>
