<svg width="182" height="40" viewBox="0 0 182 40" fill="none" xmlns="http://www.w3.org/2000/svg">
<path d="M1.94 15V0.719999H10.42V2.3H3.74V6.76H5.86C7.28667 6.76 8.39333 6.94 9.18 7.3C9.96667 7.64667 10.5133 8.12667 10.82 8.74C11.1267 9.34 11.28 10.0333 11.28 10.82C11.28 12.1267 10.8867 13.1533 10.1 13.9C9.31333 14.6333 7.98667 15 6.12 15H1.94ZM3.74 13.46H5.94C7.22 13.46 8.12 13.2467 8.64 12.82C9.16 12.38 9.42 11.7133 9.42 10.82C9.42 9.9 9.13333 9.25333 8.56 8.88C7.98667 8.50667 7.01333 8.32 5.64 8.32H3.74V13.46ZM17.9447 4.08C18.8647 4.08 19.6514 4.28 20.3047 4.68C20.9714 5.08 21.478 5.64667 21.8247 6.38C22.1847 7.1 22.3647 7.94667 22.3647 8.92V9.98H15.0247C15.0514 11.1933 15.358 12.12 15.9447 12.76C16.5447 13.3867 17.378 13.7 18.4447 13.7C19.1247 13.7 19.7247 13.64 20.2447 13.52C20.778 13.3867 21.3247 13.2 21.8847 12.96V14.5C21.338 14.74 20.798 14.9133 20.2647 15.02C19.7314 15.14 19.098 15.2 18.3647 15.2C17.3514 15.2 16.4514 14.9933 15.6647 14.58C14.8914 14.1667 14.2847 13.5533 13.8447 12.74C13.418 11.9133 13.2047 10.9067 13.2047 9.72C13.2047 8.54667 13.398 7.54 13.7847 6.7C14.1847 5.86 14.738 5.21333 15.4447 4.76C16.1647 4.30667 16.998 4.08 17.9447 4.08ZM17.9247 5.52C17.0847 5.52 16.418 5.79333 15.9247 6.34C15.4447 6.87333 15.158 7.62 15.0647 8.58H20.5247C20.5114 7.67333 20.298 6.94 19.8847 6.38C19.4714 5.80667 18.818 5.52 17.9247 5.52ZM27.7138 4.08C28.9404 4.08 29.9138 4.32667 30.6338 4.82C31.3671 5.3 31.7338 5.99333 31.7338 6.9C31.7338 7.55333 31.5538 8.07333 31.1938 8.46C30.8338 8.83333 30.3404 9.10667 29.7138 9.28V9.36C30.1404 9.48 30.5338 9.64667 30.8938 9.86C31.2538 10.0733 31.5404 10.3533 31.7538 10.7C31.9804 11.0467 32.0938 11.4933 32.0938 12.04C32.0938 12.9333 31.7204 13.6867 30.9738 14.3C30.2404 14.9 29.0871 15.2 27.5138 15.2C26.7404 15.2 26.0404 15.1333 25.4138 15C24.7871 14.88 24.2671 14.7133 23.8538 14.5V12.92C24.3071 13.1333 24.8404 13.3267 25.4538 13.5C26.0804 13.6733 26.7604 13.76 27.4938 13.76C28.2938 13.76 28.9671 13.6267 29.5138 13.36C30.0738 13.08 30.3538 12.6067 30.3538 11.94C30.3538 10.74 29.3338 10.14 27.2938 10.14H25.8538V8.7H27.0138C27.9338 8.7 28.6671 8.58 29.2138 8.34C29.7738 8.08667 30.0538 7.66 30.0538 7.06C30.0538 6.55333 29.8404 6.17333 29.4138 5.92C29.0004 5.66667 28.4004 5.54 27.6138 5.54C27.0271 5.54 26.5071 5.6 26.0538 5.72C25.6138 5.82667 25.1271 5.99333 24.5938 6.22L23.9738 4.82C25.0938 4.32667 26.3404 4.08 27.7138 4.08ZM40.8384 4.28H42.7584L38.1784 9.44L43.1384 15H41.0984L36.2584 9.56V15H34.4984V4.28H36.2584V9.48L40.8384 4.28ZM53.8138 9.62C53.8138 11.3933 53.3604 12.7667 52.4538 13.74C51.5604 14.7133 50.3471 15.2 48.8138 15.2C47.8671 15.2 47.0204 14.9867 46.2738 14.56C45.5404 14.12 44.9604 13.4867 44.5338 12.66C44.1071 11.82 43.8938 10.8067 43.8938 9.62C43.8938 7.84667 44.3404 6.48 45.2338 5.52C46.1271 4.56 47.3404 4.08 48.8738 4.08C49.8471 4.08 50.7004 4.3 51.4338 4.74C52.1804 5.16667 52.7604 5.79333 53.1738 6.62C53.6004 7.43333 53.8138 8.43333 53.8138 9.62ZM45.7138 9.62C45.7138 10.8867 45.9604 11.8933 46.4538 12.64C46.9604 13.3733 47.7604 13.74 48.8538 13.74C49.9338 13.74 50.7271 13.3733 51.2338 12.64C51.7404 11.8933 51.9938 10.8867 51.9938 9.62C51.9938 8.35333 51.7404 7.36 51.2338 6.64C50.7271 5.92 49.9271 5.56 48.8338 5.56C47.7404 5.56 46.9471 5.92 46.4538 6.64C45.9604 7.36 45.7138 8.35333 45.7138 9.62ZM70.9431 4.28V15H56.4031V4.28H58.1631V13.52H62.7831V4.28H64.5431V13.52H69.1831V4.28H70.9431ZM81.5719 5.76H78.0719V15H76.3319V5.76H72.8719V4.28H81.5719V5.76ZM92.6083 9.62C92.6083 11.3933 92.1549 12.7667 91.2483 13.74C90.3549 14.7133 89.1416 15.2 87.6083 15.2C86.6616 15.2 85.8149 14.9867 85.0683 14.56C84.3349 14.12 83.7549 13.4867 83.3283 12.66C82.9016 11.82 82.6883 10.8067 82.6883 9.62C82.6883 7.84667 83.1349 6.48 84.0283 5.52C84.9216 4.56 86.1349 4.08 87.6683 4.08C88.6416 4.08 89.4949 4.3 90.2283 4.74C90.9749 5.16667 91.5549 5.79333 91.9683 6.62C92.3949 7.43333 92.6083 8.43333 92.6083 9.62ZM84.5083 9.62C84.5083 10.8867 84.7549 11.8933 85.2483 12.64C85.7549 13.3733 86.5549 13.74 87.6483 13.74C88.7283 13.74 89.5216 13.3733 90.0283 12.64C90.5349 11.8933 90.7883 10.8867 90.7883 9.62C90.7883 8.35333 90.5349 7.36 90.0283 6.64C89.5216 5.92 88.7216 5.56 87.6283 5.56C86.5349 5.56 85.7416 5.92 85.2483 6.64C84.7549 7.36 84.5083 8.35333 84.5083 9.62ZM103.818 6.98C103.818 7.64667 103.618 8.16667 103.218 8.54C102.818 8.91333 102.304 9.16667 101.678 9.3V9.38C102.344 9.47333 102.924 9.71333 103.418 10.1C103.911 10.4733 104.158 11.06 104.158 11.86C104.158 12.7667 103.818 13.52 103.138 14.12C102.471 14.7067 101.364 15 99.8177 15H95.1977V4.28H99.7977C100.558 4.28 101.238 4.36667 101.838 4.54C102.451 4.7 102.931 4.98 103.278 5.38C103.638 5.76667 103.818 6.3 103.818 6.98ZM102.038 7.2C102.038 6.69333 101.851 6.32667 101.478 6.1C101.118 5.86 100.524 5.74 99.6977 5.74H96.9577V8.68H99.3777C101.151 8.68 102.038 8.18667 102.038 7.2ZM102.338 11.86C102.338 11.2467 102.104 10.8067 101.638 10.54C101.171 10.2733 100.484 10.14 99.5777 10.14H96.9577V13.58H99.6177C100.498 13.58 101.171 13.4533 101.638 13.2C102.104 12.9333 102.338 12.4867 102.338 11.86ZM108.281 4.28V8.74H114.101V4.28H115.861V15H114.101V10.22H108.281V15H106.521V4.28H108.281ZM120.815 15H119.055V4.28H120.815V15ZM136.968 4.28H138.888L134.308 9.44L139.268 15H137.228L132.388 9.56V15H130.628V4.28H132.388V9.48L136.968 4.28ZM139.334 4.28H141.214L143.534 10.38C143.734 10.9133 143.914 11.4267 144.074 11.92C144.234 12.4 144.354 12.86 144.434 13.3H144.514C144.594 12.9667 144.721 12.5333 144.894 12C145.067 11.4533 145.247 10.9067 145.434 10.36L147.614 4.28H149.514L144.894 16.48C144.521 17.4933 144.034 18.3 143.434 18.9C142.847 19.5 142.034 19.8 140.994 19.8C140.674 19.8 140.394 19.78 140.154 19.74C139.914 19.7133 139.707 19.68 139.534 19.64V18.24C139.681 18.2667 139.854 18.2933 140.054 18.32C140.267 18.3467 140.487 18.36 140.714 18.36C141.327 18.36 141.821 18.1867 142.194 17.84C142.581 17.4933 142.881 17.0333 143.094 16.46L143.654 15.04L139.334 4.28ZM156.109 4.08C157.429 4.08 158.489 4.54 159.289 5.46C160.103 6.38 160.509 7.76667 160.509 9.62C160.509 11.4467 160.103 12.8333 159.289 13.78C158.489 14.7267 157.423 15.2 156.089 15.2C155.263 15.2 154.576 15.0467 154.029 14.74C153.496 14.42 153.076 14.0533 152.769 13.64H152.649C152.676 13.8667 152.703 14.1533 152.729 14.5C152.756 14.8467 152.769 15.1467 152.769 15.4V19.8H151.009V4.28H152.449L152.689 5.74H152.769C153.089 5.27333 153.509 4.88 154.029 4.56C154.549 4.24 155.243 4.08 156.109 4.08ZM155.789 5.56C154.696 5.56 153.923 5.86667 153.469 6.48C153.029 7.09333 152.796 8.02667 152.769 9.28V9.62C152.769 10.94 152.983 11.96 153.409 12.68C153.849 13.3867 154.656 13.74 155.829 13.74C156.483 13.74 157.016 13.56 157.429 13.2C157.856 12.84 158.169 12.3533 158.369 11.74C158.583 11.1133 158.689 10.4 158.689 9.6C158.689 8.37333 158.449 7.39333 157.969 6.66C157.503 5.92667 156.776 5.56 155.789 5.56ZM167.414 15.2C166.467 15.2 165.621 15.0067 164.874 14.62C164.141 14.2333 163.561 13.6333 163.134 12.82C162.721 12.0067 162.514 10.9667 162.514 9.7C162.514 8.38 162.734 7.30667 163.174 6.48C163.614 5.65333 164.207 5.04667 164.954 4.66C165.714 4.27333 166.574 4.08 167.534 4.08C168.081 4.08 168.607 4.14 169.114 4.26C169.621 4.36667 170.034 4.5 170.354 4.66L169.814 6.12C169.494 6 169.121 5.88667 168.694 5.78C168.267 5.67333 167.867 5.62 167.494 5.62C165.387 5.62 164.334 6.97333 164.334 9.68C164.334 10.9733 164.587 11.9667 165.094 12.66C165.614 13.34 166.381 13.68 167.394 13.68C167.981 13.68 168.494 13.62 168.934 13.5C169.387 13.38 169.801 13.2333 170.174 13.06V14.62C169.814 14.8067 169.414 14.9467 168.974 15.04C168.547 15.1467 168.027 15.2 167.414 15.2ZM174.183 4.28V10.82C174.183 10.98 174.177 11.22 174.163 11.54C174.15 11.86 174.13 12.18 174.103 12.5C174.09 12.82 174.077 13.0733 174.063 13.26L179.803 4.28H181.963V15H180.323V8.68C180.323 8.46667 180.323 8.18667 180.323 7.84C180.337 7.49333 180.35 7.15333 180.363 6.82C180.377 6.47333 180.39 6.21333 180.403 6.04L174.703 15H172.523V4.28H174.183ZM5.76 28.1C7.06667 28.1 8.03333 28.3867 8.66 28.96C9.28667 29.5333 9.6 30.4467 9.6 31.7V39H8.32L7.98 37.48H7.9C7.43333 38.0667 6.94 38.5 6.42 38.78C5.91333 39.06 5.20667 39.2 4.3 39.2C3.32667 39.2 2.52 38.9467 1.88 38.44C1.24 37.92 0.92 37.1133 0.92 36.02C0.92 34.9533 1.34 34.1333 2.18 33.56C3.02 32.9733 4.31333 32.6533 6.06 32.6L7.88 32.54V31.9C7.88 31.0067 7.68667 30.3867 7.3 30.04C6.91333 29.6933 6.36667 29.52 5.66 29.52C5.1 29.52 4.56667 29.6067 4.06 29.78C3.55333 29.94 3.08 30.1267 2.64 30.34L2.1 29.02C2.56667 28.7667 3.12 28.5533 3.76 28.38C4.4 28.1933 5.06667 28.1 5.76 28.1ZM7.86 33.76L6.28 33.82C4.94667 33.8733 4.02 34.0867 3.5 34.46C2.99333 34.8333 2.74 35.36 2.74 36.04C2.74 36.64 2.92 37.08 3.28 37.36C3.65333 37.64 4.12667 37.78 4.7 37.78C5.60667 37.78 6.36 37.5333 6.96 37.04C7.56 36.5333 7.86 35.76 7.86 34.72V33.76ZM14.4709 28.28V32.74H20.2909V28.28H22.0509V39H20.2909V34.22H14.4709V39H12.7109V28.28H14.4709ZM31.7853 28.28V29.76H27.0053V39H25.2453V28.28H31.7853ZM41.2522 39H39.4722V29.74H36.3122C36.1389 31.9933 35.8989 33.8133 35.5922 35.2C35.2855 36.5733 34.8789 37.5733 34.3722 38.2C33.8655 38.8267 33.2255 39.14 32.4522 39.14C32.2789 39.14 32.1055 39.1267 31.9322 39.1C31.7722 39.0867 31.6389 39.0533 31.5322 39V37.68C31.6122 37.7067 31.6989 37.7267 31.7922 37.74C31.8855 37.7533 31.9789 37.76 32.0722 37.76C32.7922 37.76 33.3655 36.9933 33.7922 35.46C34.2322 33.9267 34.5655 31.5333 34.7922 28.28H41.2522V39ZM46.2147 39H44.4547V28.28H46.2147V39ZM51.0709 28.28V34.82C51.0709 34.98 51.0643 35.22 51.0509 35.54C51.0376 35.86 51.0176 36.18 50.9909 36.5C50.9776 36.82 50.9643 37.0733 50.9509 37.26L56.6909 28.28H58.8509V39H57.2109V32.68C57.2109 32.4667 57.2109 32.1867 57.2109 31.84C57.2243 31.4933 57.2376 31.1533 57.2509 30.82C57.2643 30.4733 57.2776 30.2133 57.2909 30.04L51.5909 39H49.4109V28.28H51.0709ZM58.0909 23.84C57.9976 24.84 57.6576 25.6 57.0709 26.12C56.4976 26.6267 55.5776 26.88 54.3109 26.88C53.0043 26.88 52.0776 26.6267 51.5309 26.12C50.9976 25.6133 50.6976 24.8533 50.6309 23.84H52.2709C52.3376 24.56 52.5243 25.0467 52.8309 25.3C53.1509 25.54 53.6576 25.66 54.3509 25.66C54.9643 25.66 55.4443 25.5333 55.7909 25.28C56.1509 25.0133 56.3643 24.5333 56.4309 23.84H58.0909ZM66.3625 39.2C65.4158 39.2 64.5692 39.0067 63.8225 38.62C63.0892 38.2333 62.5092 37.6333 62.0825 36.82C61.6692 36.0067 61.4625 34.9667 61.4625 33.7C61.4625 32.38 61.6825 31.3067 62.1225 30.48C62.5625 29.6533 63.1558 29.0467 63.9025 28.66C64.6625 28.2733 65.5225 28.08 66.4825 28.08C67.0292 28.08 67.5558 28.14 68.0625 28.26C68.5692 28.3667 68.9825 28.5 69.3025 28.66L68.7625 30.12C68.4425 30 68.0692 29.8867 67.6425 29.78C67.2158 29.6733 66.8158 29.62 66.4425 29.62C64.3358 29.62 63.2825 30.9733 63.2825 33.68C63.2825 34.9733 63.5358 35.9667 64.0425 36.66C64.5625 37.34 65.3292 37.68 66.3425 37.68C66.9292 37.68 67.4425 37.62 67.8825 37.5C68.3358 37.38 68.7492 37.2333 69.1225 37.06V38.62C68.7625 38.8067 68.3625 38.9467 67.9225 39.04C67.4958 39.1467 66.9758 39.2 66.3625 39.2ZM73.2319 32.68H76.4119C79.1985 32.68 80.5919 33.6933 80.5919 35.72C80.5919 36.72 80.2519 37.52 79.5719 38.12C78.8919 38.7067 77.8119 39 76.3319 39H71.4719V28.28H73.2319V32.68ZM78.8319 35.82C78.8319 35.1667 78.5985 34.7267 78.1319 34.5C77.6785 34.26 77.0385 34.14 76.2119 34.14H73.2319V37.58H76.2519C76.9985 37.58 77.6119 37.4467 78.0919 37.18C78.5852 36.9133 78.8319 36.46 78.8319 35.82ZM89.4869 28.28H91.4069L86.8269 33.44L91.7869 39H89.7469L84.9069 33.56V39H83.1469V28.28H84.9069V33.48L89.4869 28.28ZM102.462 33.62C102.462 35.3933 102.009 36.7667 101.102 37.74C100.209 38.7133 98.9955 39.2 97.4622 39.2C96.5155 39.2 95.6689 38.9867 94.9222 38.56C94.1889 38.12 93.6089 37.4867 93.1822 36.66C92.7555 35.82 92.5422 34.8067 92.5422 33.62C92.5422 31.8467 92.9889 30.48 93.8822 29.52C94.7755 28.56 95.9889 28.08 97.5222 28.08C98.4955 28.08 99.3489 28.3 100.082 28.74C100.829 29.1667 101.409 29.7933 101.822 30.62C102.249 31.4333 102.462 32.4333 102.462 33.62ZM94.3622 33.62C94.3622 34.8867 94.6089 35.8933 95.1022 36.64C95.6089 37.3733 96.4089 37.74 97.5022 37.74C98.5822 37.74 99.3755 37.3733 99.8822 36.64C100.389 35.8933 100.642 34.8867 100.642 33.62C100.642 32.3533 100.389 31.36 99.8822 30.64C99.3755 29.92 98.5755 29.56 97.4822 29.56C96.3889 29.56 95.5955 29.92 95.1022 30.64C94.6089 31.36 94.3622 32.3533 94.3622 33.62ZM106.812 39H105.052V28.28H106.812V39ZM103.112 25.38C103.112 25.0333 103.205 24.7867 103.392 24.64C103.578 24.48 103.798 24.4 104.052 24.4C104.305 24.4 104.525 24.48 104.712 24.64C104.898 24.7867 104.992 25.0333 104.992 25.38C104.992 25.7133 104.898 25.9667 104.712 26.14C104.525 26.3 104.305 26.38 104.052 26.38C103.798 26.38 103.578 26.3 103.392 26.14C103.205 25.9667 103.112 25.7133 103.112 25.38ZM106.872 25.38C106.872 25.0333 106.958 24.7867 107.132 24.64C107.318 24.48 107.538 24.4 107.792 24.4C108.045 24.4 108.265 24.48 108.452 24.64C108.638 24.7867 108.732 25.0333 108.732 25.38C108.732 25.7133 108.638 25.9667 108.452 26.14C108.265 26.3 108.045 26.38 107.792 26.38C107.538 26.38 107.318 26.3 107.132 26.14C106.958 25.9667 106.872 25.7133 106.872 25.38ZM128.124 28.28V39H126.544V32.16C126.544 31.88 126.551 31.5867 126.564 31.28C126.591 30.9733 126.618 30.6733 126.644 30.38H126.584L123.084 39H121.604L118.204 30.38H118.144C118.184 30.98 118.204 31.5933 118.204 32.22V39H116.624V28.28H118.964L122.344 36.9L125.784 28.28H128.124ZM140.666 33.62C140.666 35.3933 140.213 36.7667 139.306 37.74C138.413 38.7133 137.199 39.2 135.666 39.2C134.719 39.2 133.873 38.9867 133.126 38.56C132.393 38.12 131.813 37.4867 131.386 36.66C130.959 35.82 130.746 34.8067 130.746 33.62C130.746 31.8467 131.193 30.48 132.086 29.52C132.979 28.56 134.193 28.08 135.726 28.08C136.699 28.08 137.553 28.3 138.286 28.74C139.033 29.1667 139.613 29.7933 140.026 30.62C140.453 31.4333 140.666 32.4333 140.666 33.62ZM132.566 33.62C132.566 34.8867 132.813 35.8933 133.306 36.64C133.813 37.3733 134.613 37.74 135.706 37.74C136.786 37.74 137.579 37.3733 138.086 36.64C138.593 35.8933 138.846 34.8867 138.846 33.62C138.846 32.3533 138.593 31.36 138.086 30.64C137.579 29.92 136.779 29.56 135.686 29.56C134.593 29.56 133.799 29.92 133.306 30.64C132.813 31.36 132.566 32.3533 132.566 33.62ZM151.875 30.98C151.875 31.6467 151.675 32.1667 151.275 32.54C150.875 32.9133 150.362 33.1667 149.735 33.3V33.38C150.402 33.4733 150.982 33.7133 151.475 34.1C151.969 34.4733 152.215 35.06 152.215 35.86C152.215 36.7667 151.875 37.52 151.195 38.12C150.529 38.7067 149.422 39 147.875 39H143.255V28.28H147.855C148.615 28.28 149.295 28.3667 149.895 28.54C150.509 28.7 150.989 28.98 151.335 29.38C151.695 29.7667 151.875 30.3 151.875 30.98ZM150.095 31.2C150.095 30.6933 149.909 30.3267 149.535 30.1C149.175 29.86 148.582 29.74 147.755 29.74H145.015V32.68H147.435C149.209 32.68 150.095 32.1867 150.095 31.2ZM150.395 35.86C150.395 35.2467 150.162 34.8067 149.695 34.54C149.229 34.2733 148.542 34.14 147.635 34.14H145.015V37.58H147.675C148.555 37.58 149.229 37.4533 149.695 37.2C150.162 36.9333 150.395 36.4867 150.395 35.86ZM156.239 28.28V34.82C156.239 34.98 156.232 35.22 156.219 35.54C156.206 35.86 156.186 36.18 156.159 36.5C156.146 36.82 156.132 37.0733 156.119 37.26L161.859 28.28H164.019V39H162.379V32.68C162.379 32.4667 162.379 32.1867 162.379 31.84C162.392 31.4933 162.406 31.1533 162.419 30.82C162.432 30.4733 162.446 30.2133 162.459 30.04L156.759 39H154.579V28.28H156.239Z" fill="#111F4D"/>
</svg>
