<svg width="133" height="47" viewBox="0 0 133 47" fill="none" xmlns="http://www.w3.org/2000/svg">
<g clip-path="url(#clip0)">
<path d="M126.315 47H6.68452C3.15837 47 0.320251 44.1242 0.320251 40.6475V6.35251C0.320251 2.83288 3.15837 0 6.68452 0H126.315C129.799 0 132.68 2.83288 132.68 6.35251V40.6475C132.68 44.1242 129.799 47 126.315 47Z" fill="#FEFEFE"/>
<path d="M118.661 12.5333C117.758 12.5333 117.414 13.3488 117.328 13.9068H119.822C119.822 13.3918 119.607 12.5333 118.661 12.5333ZM63.3609 15.6237C63.3609 16.1817 63.7049 16.4393 64.1779 16.4393C64.7369 16.4393 65.167 16.053 65.296 15.6667C65.339 15.5808 65.339 15.452 65.339 15.3662V14.5936C64.3069 14.5936 63.3609 14.7653 63.3609 15.6237ZM90.71 12.6192C89.721 12.6192 89.291 13.6064 89.291 14.5078C89.291 15.6237 89.85 16.4393 90.71 16.4393C91.5271 16.4393 92.0861 15.6667 92.0861 14.5078C92.0861 13.6064 91.6991 12.6192 90.71 12.6192ZM81.1636 12.5333C80.3036 12.5333 79.9166 13.3488 79.8736 13.9068H82.3247C82.3247 13.3918 82.1097 12.5333 81.1636 12.5333ZM70.9292 12.705C70.3702 12.705 69.8111 13.0913 69.6821 13.7351C69.6391 13.821 69.6391 13.9498 69.6391 14.0785V15.0228C69.6391 15.1087 69.6391 15.2374 69.6391 15.3662C69.8111 15.9242 70.3272 16.3534 70.9292 16.3534C71.7892 16.3534 72.3483 15.6237 72.3483 14.5078C72.3483 13.5205 71.8752 12.705 70.9292 12.705ZM121.112 31.0329H113.845C113.845 32.1059 114.232 32.9214 114.877 33.5224C115.522 33.9945 116.296 34.252 117.285 34.252C118.36 34.252 119.349 34.0804 120.209 33.737L120.596 35.4109C119.564 35.8831 118.36 36.0977 116.941 36.0977C115.221 36.0977 113.931 35.6256 112.942 34.5954C111.996 33.6082 111.48 32.2776 111.48 30.6036C111.48 28.9726 111.953 27.5991 112.856 26.4831C113.802 25.3242 115.049 24.7662 116.683 24.7662C118.231 24.7662 119.435 25.3242 120.252 26.4831C120.897 27.4274 121.198 28.5863 121.198 29.9169C121.198 30.389 121.155 30.7324 121.112 31.0329ZM111.093 13.9498V17.3406H109.674V9.14246H111.093V12.4904H111.136C111.308 12.1899 111.523 11.9753 111.824 11.8466C112.125 11.6749 112.469 11.589 112.813 11.589C113.759 11.589 114.791 12.2329 114.791 14.0356V17.3406H113.329V14.1644C113.329 13.3488 113.028 12.7479 112.254 12.7479C111.695 12.7479 111.308 13.0913 111.136 13.5205C111.093 13.6493 111.093 13.821 111.093 13.9498ZM110.749 27.1269C110.491 27.084 110.233 27.084 109.975 27.084C109.115 27.084 108.47 27.3845 107.997 28.0283C107.567 28.5863 107.395 29.316 107.395 30.1744V35.8831H104.944V28.4146C104.944 27.1699 104.944 26.0539 104.901 24.9808H107.008L107.094 27.084H107.137C107.395 26.3543 107.825 25.7963 108.384 25.3671C108.9 24.9808 109.502 24.7662 110.104 24.7662C110.362 24.7662 110.534 24.8091 110.749 24.8091V27.1269ZM104.514 11.7178H105.288V10.6447L106.707 10.2584V11.7178H108.04V12.7909H106.707V15.2374C106.707 15.9242 106.879 16.3105 107.438 16.3105C107.653 16.3105 107.825 16.2676 107.954 16.2246L107.997 17.2977C107.782 17.3836 107.395 17.4694 106.965 17.4694C106.449 17.4694 106.019 17.2977 105.761 16.9973C105.417 16.6539 105.288 16.1388 105.288 15.4091V12.7909H104.514V11.7178ZM101.976 34.5096C100.987 35.5826 99.6544 36.1406 97.9773 36.1406C96.3863 36.1406 95.0962 35.6256 94.1502 34.5525C93.2041 33.4794 92.7311 32.1488 92.7311 30.5607C92.7311 28.8438 93.2041 27.4703 94.1932 26.3972C95.1822 25.3242 96.5153 24.7662 98.1493 24.7662C99.7834 24.7662 101.073 25.3242 102.019 26.3543C102.966 27.3845 103.439 28.7151 103.439 30.3461C103.439 32.063 102.966 33.3936 101.976 34.5096ZM90.667 17.4694C89.076 17.4694 87.8289 16.3534 87.8289 14.5507C87.8289 12.705 89.0329 11.589 90.753 11.589C92.4301 11.589 93.5481 12.7479 93.5481 14.4648C93.5481 16.5251 92.0861 17.4694 90.667 17.4694ZM92.0431 26.8265H89.334V32.1059C89.334 33.4794 89.807 34.1233 90.753 34.1233C91.183 34.1233 91.5701 34.0804 91.8281 34.0374L91.9141 35.8402C91.441 36.0548 90.796 36.1406 90.022 36.1406C89.076 36.1406 88.3019 35.8402 87.7859 35.2393C87.2269 34.6813 86.9689 33.6941 86.9689 32.3205V26.8265H85.3778V24.9808H86.9689V23.0064L89.334 22.2767V24.9808H92.0431V26.8265ZM83.4857 34.81C82.4537 35.6685 81.0776 36.1406 79.3145 36.1406C77.6805 36.1406 76.3904 35.7972 75.4014 35.1963L75.9604 33.179C77.0354 33.7799 78.1965 34.1233 79.4865 34.1233C80.3896 34.1233 81.1206 33.9087 81.5936 33.4794C82.1097 33.0931 82.3677 32.5351 82.3677 31.8484C82.3677 31.2475 82.1527 30.7324 81.7656 30.3032C81.3356 29.874 80.6476 29.4877 79.6586 29.1443C76.9924 28.1571 75.6594 26.6977 75.6594 24.8091C75.6594 23.5644 76.1324 22.5342 77.0784 21.7616C78.0245 20.9461 79.2715 20.5598 80.8196 20.5598C82.1957 20.5598 83.3137 20.8173 84.2598 21.2895L83.6147 23.2639C82.7977 22.7918 81.8086 22.5342 80.7336 22.5342C79.8736 22.5342 79.1855 22.7488 78.7125 23.1781C78.3255 23.5644 78.1105 23.9936 78.1105 24.5516C78.1105 25.1525 78.3255 25.6246 78.7985 26.0539C79.2285 26.3972 79.9596 26.7836 80.9916 27.2128C82.3247 27.7278 83.2707 28.3288 83.8727 29.0584C84.5178 29.7452 84.8188 30.6036 84.8188 31.6767C84.8188 32.9644 84.3457 33.9945 83.4857 34.81ZM71.2302 17.4694C70.4992 17.4694 69.8541 17.1689 69.4671 16.4822H69.4241L69.3811 17.3406H68.1771C68.1771 16.9543 68.2201 16.3105 68.2201 15.7525V9.14246H69.6391V12.4904C69.9832 11.9324 70.6282 11.589 71.4452 11.589C72.8213 11.589 73.8103 12.7479 73.8103 14.4219C73.8103 16.4393 72.5203 17.4694 71.2302 17.4694ZM69.5961 34.7242C68.6501 35.6685 67.5321 36.1406 66.199 36.1406C64.7799 36.1406 63.7049 35.6256 63.1029 34.5954V40.347H60.6518V28.5863C60.6518 27.4274 60.6518 26.2256 60.5658 24.9808H62.7159L62.8449 26.7406H62.8879C63.7049 25.41 64.9089 24.7662 66.586 24.7662C67.8761 24.7662 68.9511 25.2813 69.8111 26.3114C70.6712 27.2986 71.1012 28.6721 71.1012 30.3032C71.1012 32.1918 70.5852 33.6511 69.5961 34.7242ZM60.0927 17.3406H58.6737V9.14246H60.0927V17.3406ZM57.5556 34.7242C56.6526 35.6685 55.5345 36.1406 54.2015 36.1406C52.7394 36.1406 51.7074 35.6256 51.1054 34.5954V40.347H48.6543V28.5863C48.6543 27.4274 48.6113 26.2256 48.5683 24.9808H50.7183L50.8474 26.7406H50.8904C51.7074 25.41 52.9114 24.7662 54.5885 24.7662C55.8786 24.7662 56.9106 25.2813 57.8136 26.3114C58.6737 27.2986 59.1037 28.6721 59.1037 30.3032C59.1037 32.1918 58.5877 33.6511 57.5556 34.7242ZM48.0522 15.7954C48.0522 14.379 49.3423 13.6493 51.4064 13.6493V13.5635C51.4064 13.2201 51.2344 12.5762 50.2453 12.5762C49.6863 12.5762 49.1273 12.7479 48.7403 13.0055L48.4823 12.0612C48.8693 11.8466 49.6003 11.589 50.5033 11.589C52.3094 11.589 52.8254 12.7479 52.8254 13.9498V15.9671C52.8254 16.4822 52.8684 16.9973 52.9114 17.3406H51.6214L51.5354 16.6968H51.4924C51.1484 17.126 50.5893 17.4694 49.8153 17.4694C48.6973 17.4694 48.0522 16.6539 48.0522 15.7954ZM45.1281 17.3406H43.7521L41.645 11.7178H43.193L44.0961 14.5507C44.2681 15.0657 44.3541 15.495 44.4831 15.9671H44.5261C44.6121 15.495 44.7411 15.0657 44.9131 14.5507L45.8161 11.7178H47.2782L45.1281 17.3406ZM44.5691 35.8831L43.15 31.4621H38.2478L36.9148 35.8831H34.3777L39.2369 20.7744H42.29L47.1922 35.8831H44.5691ZM27.4114 35.3251C27.4114 36.6986 26.2933 37.8146 24.9173 37.8146H14.2528C12.8768 37.8146 11.7587 36.6986 11.7587 35.3251V11.6749C11.7587 10.3014 12.8768 9.18538 14.2528 9.18538H24.9173C26.2933 9.18538 27.4114 10.3014 27.4114 11.6749V35.3251ZM36.9148 9.57168H38.7209L41.258 17.3406H39.7099L38.9789 15.1087H36.5278L35.8827 17.3406H34.3777L36.9148 9.57168ZM56.4376 11.7178V17.3406H55.0185V11.7178H56.4376ZM55.7496 9.35707C56.2226 9.35707 56.5236 9.70045 56.5236 10.1297C56.5236 10.5589 56.2226 10.9023 55.7496 10.9023C55.2335 10.9023 54.9325 10.5589 54.9325 10.1297C54.9325 9.70045 55.2765 9.35707 55.7496 9.35707ZM64.1349 12.5762C63.5759 12.5762 63.0169 12.7479 62.6298 13.0055L62.3718 12.0612C62.7589 11.8466 63.4899 11.589 64.3929 11.589C66.199 11.589 66.715 12.7479 66.715 13.9498V15.9671C66.715 16.4822 66.715 16.9973 66.801 17.3406H65.511L65.425 16.6968H65.382C65.0379 17.126 64.4359 17.4694 63.7049 17.4694C62.5868 17.4694 61.9418 16.6539 61.9418 15.7954C61.9418 14.379 63.1889 13.6493 65.296 13.6493V13.5635C65.296 13.2201 65.124 12.5762 64.1349 12.5762ZM75.4014 9.14246H76.8204V17.3406H75.4014V9.14246ZM81.2496 11.589C83.0557 11.589 83.6577 13.0913 83.6577 14.3361C83.6577 14.5936 83.6577 14.8082 83.6147 14.937H79.8736C79.8736 15.9242 80.6906 16.3534 81.5936 16.3534C82.2387 16.3534 82.7117 16.2676 83.1417 16.1388L83.3567 17.0831C82.8837 17.2977 82.1957 17.4265 81.3786 17.4265C79.5726 17.4265 78.4975 16.3105 78.4975 14.5936C78.4975 13.0484 79.4436 11.589 81.2496 11.589ZM96.1712 11.7178L96.2572 12.5333C96.5153 12.1041 97.1603 11.589 98.0633 11.589C99.0524 11.589 100.084 12.2329 100.084 13.9927V17.3406H98.6654V14.1644C98.6654 13.3488 98.3643 12.7479 97.5903 12.7479C97.0313 12.7479 96.6013 13.1342 96.4723 13.5635C96.4293 13.6922 96.3863 13.8639 96.3863 14.0356V17.3406H94.9672V13.3918C94.9672 12.7479 94.9672 12.1899 94.9242 11.7178H96.1712ZM118.747 11.589C120.553 11.589 121.155 13.0913 121.155 14.3361C121.155 14.5936 121.112 14.8082 121.112 14.937H117.328C117.371 15.9242 118.145 16.3534 119.091 16.3534C119.736 16.3534 120.209 16.2676 120.639 16.1388L120.854 17.0831C120.338 17.2977 119.693 17.4265 118.876 17.4265C117.07 17.4265 115.995 16.3105 115.995 14.5936C115.995 13.0484 116.941 11.589 118.747 11.589ZM38.1618 12.147C37.9898 11.6749 37.8608 11.1169 37.7748 10.6877H37.7318C37.6028 11.1169 37.5168 11.6749 37.3878 12.147L36.7858 14.0356H38.7639L38.1618 12.147ZM51.4064 15.6667C51.4494 15.5808 51.4494 15.452 51.4494 15.3662V14.5936C50.4173 14.5936 49.4713 14.7653 49.4713 15.6237C49.4713 16.1817 49.8153 16.4393 50.2883 16.4393C50.8474 16.4393 51.2774 16.053 51.4064 15.6667ZM116.468 26.4402C115.694 26.4402 115.049 26.7836 114.533 27.4274C114.146 27.9425 113.888 28.5863 113.845 29.316H118.876C118.919 28.5863 118.747 27.9854 118.403 27.4274C118.016 26.7836 117.371 26.4402 116.468 26.4402ZM40.6989 22.7918H40.6559C40.4839 23.4356 40.2689 24.3799 39.9249 25.6676L38.6778 29.6164H42.72L41.473 25.6676C41.344 25.2383 41.0859 24.2941 40.6989 22.7918ZM65.769 26.6977C65.167 26.6977 64.6509 26.9123 64.1779 27.2986C63.6619 27.6849 63.3609 28.2 63.1889 28.8438C63.1459 29.1443 63.1029 29.4018 63.1029 29.6164V31.4192C63.1029 32.1918 63.3179 32.8785 63.8339 33.4365C64.3069 33.9516 64.9519 34.252 65.726 34.252C66.629 34.252 67.36 33.9087 67.8761 33.179C68.3491 32.4922 68.6071 31.5479 68.6071 30.389C68.6071 29.3589 68.3921 28.4575 67.9191 27.7708C67.36 27.084 66.672 26.6977 65.769 26.6977ZM98.0633 26.5689C97.1173 26.5689 96.3433 26.9982 95.8272 27.8566C95.3972 28.5434 95.1822 29.4447 95.1822 30.4749C95.1822 31.4621 95.3972 32.3205 95.8272 33.0502C96.3863 33.9087 97.1173 34.3379 98.0633 34.3379C98.9664 34.3379 99.6974 33.9087 100.213 33.0073C100.686 32.2776 100.901 31.4192 100.901 30.432C100.901 29.4018 100.686 28.5434 100.256 27.8566C99.7404 26.9982 99.0094 26.5689 98.0633 26.5689ZM53.7715 26.6977C53.1695 26.6977 52.6534 26.9123 52.1374 27.2986C51.6644 27.6849 51.3634 28.2 51.1914 28.8438C51.1054 29.1443 51.1054 29.4018 51.1054 29.6164V31.4192C51.1054 32.1918 51.3204 32.8785 51.7934 33.4365C52.3094 33.9516 52.9544 34.252 53.7285 34.252C54.6315 34.252 55.3625 33.9087 55.8356 33.179C56.3516 32.4922 56.6096 31.5479 56.6096 30.389C56.6096 29.3589 56.3946 28.4575 55.8786 27.7708C55.3625 27.084 54.6745 26.6977 53.7715 26.6977ZM13.3068 32.8356H25.9063V14.1644H13.3068V32.8356ZM19.5851 33.9087C18.897 33.9087 18.295 34.5096 18.295 35.1963C18.295 35.926 18.897 36.484 19.5851 36.484C20.3161 36.484 20.8751 35.926 20.8751 35.1963C20.8751 34.5096 20.3161 33.9087 19.5851 33.9087ZM18.381 12.2758H20.8321C21.0041 12.2758 21.1331 12.147 21.1331 11.9753C21.1331 11.8466 21.0041 11.6749 20.8321 11.6749H18.381C18.209 11.6749 18.08 11.8466 18.08 11.9753C18.08 12.147 18.209 12.2758 18.381 12.2758Z" fill="#5B5B5B"/>
<path d="M6.68452 1.63105C4.06141 1.63105 1.95432 3.73425 1.95432 6.35251V40.6475C1.95432 43.2228 4.06141 45.326 6.68452 45.326H126.315C128.896 45.326 131.003 43.2228 131.003 40.6475V6.35251C131.003 3.73425 128.896 1.63105 126.315 1.63105H6.68452ZM126.315 47H6.68452C3.15837 47 0.320251 44.1242 0.320251 40.6475V6.35251C0.320251 2.83288 3.15837 0 6.68452 0H126.315C129.799 0 132.68 2.83288 132.68 6.35251V40.6475C132.68 44.1242 129.799 47 126.315 47Z" fill="#5B5B5B"/>
</g>
<defs>
<clipPath id="clip0">
<rect width="133" height="47" fill="white"/>
</clipPath>
</defs>
</svg>
