<svg width="75" height="97" viewBox="0 0 75 97" fill="none" xmlns="http://www.w3.org/2000/svg">
<g clip-path="url(#clip0)">
<path fill-rule="evenodd" clip-rule="evenodd" d="M74.9707 23.3151L51.6556 0H0.0292664V96.5909H74.9707V23.3151Z" fill="#FEFEFE"/>
<path fill-rule="evenodd" clip-rule="evenodd" d="M16.6826 38.3036H58.3167C59.2359 38.3036 59.9822 37.559 59.9822 36.638C59.9822 35.717 59.2359 34.9724 58.3167 34.9724H16.6826C15.7634 34.9724 15.0176 35.717 15.0176 36.638C15.0176 37.559 15.7634 38.3036 16.6826 38.3036Z" fill="#CFCFCF"/>
<path fill-rule="evenodd" clip-rule="evenodd" d="M16.6826 24.9802H33.3366C34.2558 24.9802 35.0016 24.2362 35.0016 23.3152C35.0016 22.3942 34.2558 21.6497 33.3366 21.6497H16.6826C15.7634 21.6497 15.0176 22.3942 15.0176 23.3152C15.0176 24.2362 15.7634 24.9802 16.6826 24.9802Z" fill="#CFCFCF"/>
<path fill-rule="evenodd" clip-rule="evenodd" d="M58.3167 48.2952H16.6826C15.7634 48.2952 15.0176 49.0397 15.0176 49.9607C15.0176 50.8817 15.7634 51.6263 16.6826 51.6263H58.3167C59.2359 51.6263 59.9822 50.8817 59.9822 49.9607C59.9822 49.0397 59.2359 48.2952 58.3167 48.2952Z" fill="#CFCFCF"/>
<path fill-rule="evenodd" clip-rule="evenodd" d="M51.6556 0V23.3151H74.9707L51.6556 0Z" fill="#CFCFCF"/>
<path fill-rule="evenodd" clip-rule="evenodd" d="M40.9657 66.0425C36.3764 66.5678 32.5938 70.4858 33.0834 75.6906C33.5143 80.2711 37.5536 84.1058 42.7374 83.6204C47.3401 83.1889 51.1579 79.0927 50.6455 73.885C50.2029 69.3924 46.0486 65.4604 40.9657 66.0425ZM41.1451 69.8966C34.5133 70.99 36.1495 80.8075 42.6963 79.7575C45.1457 79.3647 47.2674 77.0367 46.7937 74.021C46.4156 71.6114 44.0494 69.4176 41.1451 69.8966Z" fill="#403E40"/>
<path fill-rule="evenodd" clip-rule="evenodd" d="M28.1136 73.2355C29.071 70.4191 27.7003 68.0008 26.0523 66.9039C24.0361 65.5613 20.3878 65.9869 17.6775 65.9869C17.7948 68.0746 19.1391 69.6405 21.1676 69.807C22.4444 69.912 23.532 69.5362 24.2519 70.4367C24.9507 71.3108 24.4178 72.4904 23.6498 72.7929C22.581 73.2126 19.5477 72.5314 18.5305 73.2255C18.2392 73.4243 17.8646 73.8868 17.7555 74.299C17.4735 75.3619 17.6142 80.4565 18.0029 81.3752C18.3394 82.169 19.1045 82.9088 19.8121 83.2665C20.8351 83.783 21.9051 83.6587 23.1397 83.6587C25.7375 83.6587 27.6598 83.95 29.4327 82.5319C32.1307 80.3744 32.3534 76.2571 29.2791 73.9126C28.8922 73.6172 28.5562 73.5275 28.1136 73.2355ZM21.5047 79.8269C22.7909 79.8292 24.0748 79.8233 25.3587 79.8292C26.6186 79.8351 27.6276 79.6299 27.6604 78.326C27.6927 77.0673 26.6814 76.7355 25.4842 76.739C24.1657 76.7431 22.8472 76.7419 21.5281 76.7419L21.5047 79.8269Z" fill="#403E40"/>
<path fill-rule="evenodd" clip-rule="evenodd" d="M49.9935 83.3672C55.2676 84.6066 56.1886 81.0632 58.0429 78.751C58.8508 79.6351 59.3386 81.2109 60.789 82.465C62.196 83.6826 63.9032 83.8978 66.0149 83.3573C65.8678 82.7974 63.8165 79.8825 63.3521 79.1602L60.6049 74.8758L63.2982 70.6653C63.7854 69.8908 65.8162 66.9044 66.0267 66.3175C63.2806 65.4563 61.3336 66.4453 60.0034 67.9825C59.4435 68.6292 58.7992 69.7349 58.3126 70.4835C57.7199 71.3946 57.2304 72.1702 56.5972 73.0818C56.256 73.5731 50.1026 82.9117 49.9935 83.3672Z" fill="#403E40"/>
<path fill-rule="evenodd" clip-rule="evenodd" d="M15.3952 83.6586C15.3952 80.0731 15.3952 76.4875 15.3952 72.9025C15.3952 71.3424 15.6497 69.3222 14.9438 68.0294C14.3599 66.9601 13.3457 66.0496 11.5628 66.001C11.5628 69.576 11.5628 73.1516 11.5628 76.7267C11.5628 79.0723 10.9426 83.5103 15.3952 83.6586Z" fill="#403E40"/>
<path fill-rule="evenodd" clip-rule="evenodd" d="M49.9366 66.4171L53.7052 72.0376C54.0751 72.5758 54.5875 73.5706 55.077 73.8843C55.6216 73.1163 56.1985 72.591 56.3785 71.2737C56.5562 69.9774 56.2149 68.8272 55.6422 68.0006C54.6766 66.607 52.2454 65.1619 49.9366 66.4171Z" fill="#E5269D"/>
</g>
<defs>
<clipPath id="clip0">
<rect width="75" height="96.5909" fill="white"/>
</clipPath>
</defs>
</svg>
