<svg width="141" height="47" viewBox="0 0 141 47" fill="none" xmlns="http://www.w3.org/2000/svg">
<path d="M133.714 47H7.28584C3.4534 47 0.336914 43.8835 0.336914 40.0511V6.94892C0.336914 3.11649 3.4534 0 7.28584 0H133.714C137.547 0 140.663 3.11649 140.663 6.94892V40.0511C140.663 43.8835 137.547 47 133.714 47Z" fill="#FEFEFE"/>
<path d="M7.28584 1.64247C4.37992 1.64247 1.97939 4.04301 1.97939 6.94892V40.0511C1.97939 42.9991 4.37992 45.3575 7.28584 45.3575H133.714C136.62 45.3575 139.021 42.9991 139.021 40.0511V6.94892C139.021 4.04301 136.62 1.64247 133.714 1.64247H7.28584ZM133.714 47H7.28584C3.4534 47 0.336914 43.8835 0.336914 40.0511V6.94892C0.336914 3.11649 3.4534 0 7.28584 0H133.714C137.547 0 140.663 3.11649 140.663 6.94892V40.0511C140.663 43.8835 137.547 47 133.714 47Z" fill="#5B5B5B"/>
<path d="M45.6102 12.0869C45.2733 11.0762 45.1048 10.5287 45.1048 10.4445H45.0627C45.0627 10.5287 44.8943 11.0762 44.5574 12.0869H45.6102ZM46.9579 13.7294H46.0314C46.0314 13.6031 45.9471 13.224 45.7787 12.6344H44.431C44.2204 13.224 44.1362 13.561 44.1362 13.7294H43.2518C43.2518 13.6452 43.5045 13.0135 43.9677 11.8764C44.3889 10.6972 44.6416 10.0654 44.6416 9.93909H45.7366C45.7366 10.0233 45.9471 10.655 46.3683 11.8342C46.7473 12.9713 46.9579 13.6031 46.9579 13.7294Z" fill="#625E60"/>
<path d="M50.7061 13.7294H49.9901C49.9901 13.6452 49.7374 13.224 49.19 12.466C48.6425 11.6658 48.3055 11.1183 48.2634 10.8235H48.1792C48.2634 11.2446 48.2634 11.6237 48.2634 11.9606C48.2634 12.466 48.2634 13.0135 48.3055 13.7294H47.5896C47.6317 13.0977 47.6317 12.466 47.6317 11.75C47.6317 11.0341 47.6317 10.4445 47.5896 9.93909H48.474C48.474 10.0233 48.6846 10.4445 49.19 11.1604C49.6953 11.9185 49.9901 12.4239 50.0744 12.7187H50.1165C50.0744 12.2975 50.0323 11.8764 50.0323 11.5394C50.0323 11.0341 50.0323 10.4866 49.9901 9.93909H50.7061C50.7061 10.4023 50.664 10.992 50.664 11.75C50.664 12.466 50.7061 13.1398 50.7061 13.7294Z" fill="#625E60"/>
<path d="M54.1595 11.8342C54.1595 11.4552 54.0331 11.1183 53.8226 10.8656C53.612 10.6129 53.2751 10.4866 52.8118 10.4866C52.7276 10.4866 52.6434 10.4866 52.4749 10.5287C52.517 10.9077 52.517 11.3289 52.517 11.75C52.517 12.2133 52.517 12.6765 52.517 13.0977C52.6434 13.1398 52.7697 13.1398 52.896 13.1398C53.3172 13.1398 53.6541 13.0135 53.8647 12.7608C54.0331 12.5081 54.1595 12.1712 54.1595 11.8342ZM54.9597 11.7079C54.9597 12.2554 54.7491 12.7187 54.4122 13.1398C54.0753 13.561 53.5699 13.7715 52.9382 13.7715C52.6434 13.7715 52.2222 13.7294 51.7168 13.7294C51.7589 13.1398 51.7589 12.466 51.7589 11.75C51.7589 11.0341 51.7589 10.4445 51.7168 9.93909H52.2643C52.3485 9.93909 52.4749 9.93909 52.6012 9.93909C52.7697 9.89697 52.896 9.89697 52.9382 9.89697C53.6541 9.89697 54.1595 10.0654 54.4543 10.4445C54.7912 10.7814 54.9597 11.2025 54.9597 11.7079Z" fill="#625E60"/>
<path d="M57.7392 11.0341C57.7392 10.655 57.4866 10.4445 56.9812 10.4445C56.8127 10.4445 56.6443 10.4866 56.5179 10.4866C56.5179 10.7814 56.56 11.2025 56.56 11.6658C56.6443 11.6658 56.7285 11.6658 56.8127 11.6658C57.4444 11.6658 57.7392 11.4552 57.7392 11.0341ZM58.8342 13.7294H57.9919C57.7392 13.0135 57.5708 12.5923 57.4444 12.466C57.3181 12.2975 57.1496 12.2133 56.8548 12.2133C56.7706 12.2133 56.6443 12.2133 56.56 12.2133C56.56 12.7187 56.56 13.224 56.56 13.7294H55.7599C55.802 13.1398 55.802 12.466 55.802 11.75C55.802 11.0341 55.802 10.4445 55.7599 9.93909H56.2652C56.3073 9.93909 56.4337 9.93909 56.6443 9.93909C56.8127 9.89697 56.9812 9.89697 57.1496 9.89697C58.034 9.89697 58.4973 10.2339 58.4973 10.8235C58.4973 11.3289 58.2446 11.6658 57.7392 11.8342V11.8764C57.9077 11.9185 58.0762 12.0869 58.2446 12.3396C58.371 12.5923 58.5815 13.0556 58.8342 13.7294Z" fill="#625E60"/>
<path d="M62.2034 11.8342C62.2034 11.4131 62.1192 11.1183 61.9086 10.8656C61.698 10.6129 61.4453 10.4866 61.1084 10.4866C60.8557 10.4866 60.603 10.6129 60.3925 10.8656C60.224 11.1183 60.0977 11.4131 60.0977 11.8342C60.0977 12.2133 60.224 12.5502 60.4346 12.8029C60.6452 13.0556 60.8978 13.1819 61.1926 13.1819C61.4874 13.1819 61.698 13.0556 61.9086 12.8029C62.1192 12.5502 62.2034 12.2133 62.2034 11.8342ZM63.0036 11.75C63.0036 12.3396 62.8351 12.845 62.4561 13.224C62.0771 13.6452 61.6559 13.8136 61.1084 13.8136C60.603 13.8136 60.1819 13.6452 59.8029 13.2661C59.4659 12.9292 59.2975 12.466 59.2975 11.9185C59.2975 11.3289 59.4659 10.8235 59.845 10.4445C60.224 10.0233 60.6452 9.85486 61.1926 9.85486C61.698 9.85486 62.1613 10.0233 62.4982 10.3602C62.8351 10.7393 63.0036 11.2025 63.0036 11.75Z" fill="#625E60"/>
<path d="M64.6461 13.7294H63.8459C63.8459 13.0977 63.888 12.466 63.888 11.75C63.888 11.0341 63.8459 10.4445 63.8459 9.93909H64.6461C64.6461 10.4023 64.604 11.0341 64.604 11.75C64.604 12.466 64.6461 13.1398 64.6461 13.7294Z" fill="#625E60"/>
<path d="M68.0994 11.8342C68.0994 11.4552 67.9731 11.1183 67.7625 10.8656C67.552 10.6129 67.215 10.4866 66.7518 10.4866C66.6676 10.4866 66.5412 10.4866 66.4149 10.5287C66.4149 10.9077 66.457 11.3289 66.457 11.75C66.457 12.2133 66.457 12.6765 66.457 13.0977C66.5833 13.1398 66.7097 13.1398 66.836 13.1398C67.2572 13.1398 67.5941 13.0135 67.7625 12.7608C67.9731 12.5081 68.0994 12.1712 68.0994 11.8342ZM68.8575 11.7079C68.8575 12.2554 68.6891 12.7187 68.3521 13.1398C67.9731 13.561 67.5098 13.7715 66.8781 13.7715C66.5833 13.7715 66.1622 13.7294 65.6568 13.7294C65.6989 13.1398 65.6989 12.466 65.6989 11.75C65.6989 11.0341 65.6989 10.4445 65.6568 9.93909H66.1622C66.2464 9.93909 66.3727 9.93909 66.5412 9.93909C66.7097 9.89697 66.836 9.89697 66.8781 9.89697C67.5941 9.89697 68.0994 10.0654 68.3943 10.4445C68.7312 10.7814 68.8575 11.2025 68.8575 11.7079Z" fill="#625E60"/>
<path d="M73.1111 12.0869C72.8163 11.0762 72.6478 10.5287 72.6478 10.4445H72.6057C72.6057 10.5287 72.3952 11.0762 72.0582 12.0869H73.1111ZM74.4588 13.7294H73.5323C73.5323 13.6031 73.448 13.224 73.2796 12.6344H71.9319C71.7634 13.224 71.6792 13.561 71.6792 13.7294H70.7948C70.7948 13.6452 71.0054 13.0135 71.4686 11.8764C71.9319 10.6972 72.1425 10.0654 72.1425 9.93909H73.2375C73.2375 10.0233 73.448 10.655 73.8692 11.8342C74.2903 12.9713 74.4588 13.6031 74.4588 13.7294Z" fill="#625E60"/>
<path d="M77.112 11.0762C77.112 10.655 76.8593 10.4445 76.3118 10.4445C76.1434 10.4445 76.017 10.4866 75.8486 10.4866C75.8907 10.8656 75.8907 11.2868 75.8907 11.75C75.9328 11.75 75.9749 11.75 76.0592 11.75C76.7751 11.75 77.112 11.5394 77.112 11.0762ZM77.8701 10.9077C77.8701 11.371 77.7016 11.7079 77.3647 11.9606C77.0278 12.1712 76.6066 12.2975 76.1013 12.2975C76.017 12.2975 75.9328 12.2975 75.8907 12.2554C75.8907 12.6344 75.8907 13.1398 75.9328 13.7294H75.0905C75.1326 13.1398 75.1326 12.5081 75.1326 11.75C75.1326 11.0341 75.1326 10.4445 75.0905 9.93909H75.5959C75.6801 9.93909 75.8065 9.93909 76.017 9.93909C76.2276 9.89697 76.3961 9.89697 76.5645 9.89697C76.9436 9.89697 77.2384 9.9812 77.491 10.1497C77.7437 10.3181 77.8701 10.5708 77.8701 10.9077Z" fill="#625E60"/>
<path d="M80.6075 11.0762C80.6075 10.655 80.3548 10.4445 79.8073 10.4445C79.6389 10.4445 79.5125 10.4866 79.3441 10.4866C79.3862 10.8656 79.3862 11.2868 79.3862 11.75C79.4283 11.75 79.4704 11.75 79.5546 11.75C80.2706 11.75 80.6075 11.5394 80.6075 11.0762ZM81.3656 10.9077C81.3656 11.371 81.1971 11.7079 80.8602 11.9606C80.5233 12.1712 80.1021 12.2975 79.5967 12.2975C79.4704 12.2975 79.4283 12.2975 79.3862 12.2554C79.3862 12.6344 79.3862 13.1398 79.4283 13.7294H78.586C78.6281 13.1398 78.6281 12.5081 78.6281 11.75C78.6281 11.0341 78.6281 10.4445 78.586 9.93909H79.0914C79.1756 9.93909 79.3019 9.93909 79.5125 9.93909C79.7231 9.89697 79.8916 9.89697 80.06 9.89697C80.439 9.89697 80.7338 9.9812 80.9865 10.1497C81.2392 10.3181 81.3656 10.5708 81.3656 10.9077Z" fill="#625E60"/>
<path d="M86.293 11.8342C86.293 11.4131 86.1667 11.1183 85.9561 10.8656C85.7455 10.6129 85.4928 10.4866 85.198 10.4866C84.9032 10.4866 84.6505 10.6129 84.4821 10.8656C84.2715 11.1183 84.1873 11.4131 84.1873 11.8342C84.1873 12.2133 84.2715 12.5502 84.4821 12.8029C84.6926 13.0556 84.9453 13.1819 85.2401 13.1819C85.5349 13.1819 85.7876 13.0556 85.9561 12.8029C86.1667 12.5502 86.293 12.2133 86.293 11.8342ZM87.0932 11.75C87.0932 12.3396 86.8826 12.845 86.5457 13.224C86.1667 13.6452 85.7034 13.8136 85.1559 13.8136C84.6505 13.8136 84.2294 13.6452 83.8925 13.2661C83.5555 12.9292 83.3871 12.466 83.3871 11.9185C83.3871 11.3289 83.5555 10.8235 83.9346 10.4445C84.2715 10.0233 84.7348 9.85486 85.2822 9.85486C85.7876 9.85486 86.2088 10.0233 86.5457 10.3602C86.9247 10.7393 87.0932 11.2025 87.0932 11.75Z" fill="#625E60"/>
<path d="M91.0099 13.7294H90.2939C90.2939 13.6452 90.0412 13.224 89.4937 12.466C88.9462 11.6658 88.6093 11.1183 88.5672 10.8235H88.483C88.5672 11.2446 88.5672 11.6237 88.5672 11.9606C88.5672 12.466 88.6093 13.0135 88.6093 13.7294H87.8934C87.9355 13.0977 87.9355 12.466 87.9355 11.75C87.9355 11.0341 87.9355 10.4445 87.8934 9.93909H88.7778C88.7778 10.0233 88.9884 10.4445 89.4937 11.1604C89.9991 11.9185 90.2939 12.4239 90.3781 12.7187H90.4203C90.3781 12.2975 90.336 11.8764 90.336 11.5394C90.336 11.0341 90.336 10.4866 90.2939 9.93909H91.0099C91.0099 10.4023 90.9677 10.992 90.9677 11.75C90.9677 12.466 91.0099 13.1398 91.0099 13.7294Z" fill="#625E60"/>
<path d="M56.6864 25.8584C56.6864 27.7536 56.0968 29.2697 55.0018 30.3647C53.7384 31.7124 52.0959 32.3441 50.0323 32.3441C48.095 32.3441 46.4525 31.6702 45.0627 30.3226C43.7151 28.9749 43.0412 27.3324 43.0412 25.3109C43.0412 23.3315 43.7151 21.6469 45.0627 20.2993C46.4525 18.9516 48.095 18.2778 50.0323 18.2778C51.0009 18.2778 51.9274 18.4883 52.8118 18.8674C53.6962 19.2043 54.3701 19.7097 54.9176 20.3414L53.7384 21.5206C52.8539 20.4677 51.5905 19.9202 50.0323 19.9202C48.6425 19.9202 47.379 20.4256 46.3683 21.4364C45.3154 22.4471 44.81 23.7106 44.81 25.3109C44.81 26.9113 45.3154 28.2168 46.3683 29.2276C47.379 30.1962 48.6425 30.7016 50.0323 30.7016C51.5484 30.7016 52.8118 30.1962 53.8226 29.1855C54.4543 28.5538 54.8333 27.6272 54.9176 26.4901H50.0323V24.8477H56.56C56.6443 25.1846 56.6864 25.5215 56.6864 25.8584Z" fill="#625E60"/>
<path d="M60.0134 29.8593C60.603 30.491 61.319 30.7859 62.1192 30.7859C62.9615 30.7859 63.6353 30.491 64.2249 29.8593C64.8566 29.2697 65.1514 28.4695 65.1514 27.4588C65.1514 26.448 64.8566 25.6479 64.2249 25.0161C63.6353 24.4265 62.9615 24.1317 62.1192 24.1317C61.319 24.1317 60.603 24.4265 60.0134 25.0161C59.4238 25.6479 59.129 26.448 59.129 27.4588C59.129 28.4695 59.4238 29.2697 60.0134 29.8593ZM58.7079 23.9212C59.5923 22.9946 60.7294 22.5314 62.1192 22.5314C63.5089 22.5314 64.646 22.9946 65.5304 23.9212C66.4149 24.8898 66.8781 26.0269 66.8781 27.4588C66.8781 28.8486 66.4149 30.0278 65.5304 30.9543C64.646 31.8808 63.5089 32.3441 62.1192 32.3441C60.7294 32.3441 59.5923 31.8808 58.7079 30.9543C57.8235 30.0278 57.4023 28.8486 57.4023 27.4588C57.4023 26.0269 57.8235 24.8898 58.7079 23.9212Z" fill="#625E60"/>
<path d="M70.0789 29.8593C70.6685 30.491 71.3844 30.7859 72.1846 30.7859C73.0269 30.7859 73.7007 30.491 74.3324 29.8593C74.922 29.2697 75.2168 28.4695 75.2168 27.4588C75.2168 26.448 74.922 25.6479 74.3324 25.0161C73.7007 24.4265 73.0269 24.1317 72.1846 24.1317C71.3844 24.1317 70.6685 24.4265 70.0789 25.0161C69.4892 25.6479 69.1944 26.448 69.1944 27.4588C69.1944 28.4695 69.4892 29.2697 70.0789 29.8593ZM68.7733 23.9212C69.6577 22.9946 70.7948 22.5314 72.1846 22.5314C73.5744 22.5314 74.7115 22.9946 75.5959 23.9212C76.4803 24.8898 76.9436 26.0269 76.9436 27.4588C76.9436 28.8486 76.4803 30.0278 75.5959 30.9543C74.7115 31.8808 73.5744 32.3441 72.1846 32.3441C70.7948 32.3441 69.6577 31.8808 68.7733 30.9543C67.8889 30.0278 67.4677 28.8486 67.4677 27.4588C67.4677 26.0269 67.8889 24.8898 68.7733 23.9212Z" fill="#625E60"/>
<path d="M82.2079 30.7858C83.008 30.7858 83.6819 30.491 84.2715 29.8593C84.819 29.2697 85.1138 28.4695 85.1138 27.4588C85.1138 26.448 84.819 25.6057 84.2715 25.0161C83.6819 24.4265 83.008 24.1317 82.2079 24.1317C81.3656 24.1317 80.6917 24.4265 80.1021 25.0161C79.5546 25.6479 79.2598 26.448 79.2598 27.4588C79.2598 28.4695 79.5546 29.2697 80.1021 29.8593C80.6917 30.491 81.3656 30.7858 82.2079 30.7858ZM82.0394 36.4292C80.9444 36.4292 80.06 36.1344 79.3862 35.5869C78.7124 35.0815 78.207 34.4498 77.9122 33.7339L79.4704 33.06C79.6389 33.5654 79.9758 33.9866 80.4391 34.3235C80.9023 34.6604 81.4498 34.8289 82.0394 34.8289C83.008 34.8289 83.7661 34.5762 84.3136 33.9866C84.8611 33.4391 85.1138 32.6389 85.1138 31.6703V30.7858H85.0296C84.7348 31.2491 84.3136 31.6281 83.7661 31.9229C83.2186 32.2177 82.5869 32.3441 81.9131 32.3441C80.7339 32.3441 79.681 31.8808 78.8387 30.9543C77.9543 30.0278 77.5331 28.8486 77.5331 27.4588C77.5331 26.069 77.9543 24.8898 78.8387 23.9633C79.681 22.9946 80.7339 22.5314 81.9131 22.5314C82.5869 22.5314 83.2186 22.6998 83.7661 22.9946C84.3136 23.2894 84.7348 23.6685 85.0296 24.1317H85.1138V22.8262H86.7984V31.586C86.7984 33.1864 86.3351 34.3656 85.4086 35.2079C84.4821 36.0081 83.3871 36.4292 82.0394 36.4292Z" fill="#625E60"/>
<path d="M88.3987 32.0493H90.1676V18.5726H88.3987V32.0493Z" fill="#625E60"/>
<path d="M98.3378 26.3217C98.2957 25.8163 98.0851 25.3109 97.6218 24.8477C97.2007 24.3423 96.5269 24.1317 95.6424 24.1317C95.0107 24.1317 94.4632 24.3002 93.9579 24.7213C93.4946 25.1425 93.1998 25.6479 92.9892 26.3217H98.3378ZM95.853 32.3441C94.4632 32.3441 93.3261 31.8808 92.4838 30.9543C91.5994 30.0278 91.1783 28.8486 91.1783 27.4588C91.1783 26.1111 91.5994 24.9319 92.4417 24.0054C93.284 23.0367 94.379 22.5314 95.6846 22.5314C97.0322 22.5314 98.1272 22.9946 98.9695 23.879C99.7697 24.7635 100.191 25.9427 100.191 27.4588V27.7536H92.905C92.9471 28.6801 93.2419 29.4382 93.8315 29.9857C94.379 30.491 95.0528 30.7859 95.853 30.7859C97.0743 30.7859 97.9166 30.2384 98.3378 29.1855L99.896 29.8593C99.6012 30.5332 99.0959 31.1649 98.422 31.6281C97.7061 32.1335 96.8638 32.3441 95.853 32.3441Z" fill="#625E60"/>
<path d="M107.013 24.9319H109.919C110.635 24.9319 111.225 24.7213 111.646 24.2159C112.109 23.7106 112.32 23.1631 112.32 22.5735C112.32 21.9839 112.109 21.4785 111.646 20.9731C111.225 20.4677 110.635 20.2572 109.919 20.2572H107.013V24.9319ZM107.013 32.0493H105.287V18.5726H109.877C111.014 18.5726 111.983 18.9516 112.825 19.7097C113.668 20.4677 114.089 21.4364 114.089 22.5735C114.089 23.7527 113.668 24.7213 112.825 25.4794C111.983 26.2374 111.014 26.6165 109.877 26.6165H107.013V32.0493Z" fill="#625E60"/>
<path d="M115.226 32.0493H116.953V18.5726H115.226V32.0493Z" fill="#625E60"/>
<path d="M121.669 30.7859C122.385 30.7859 123.059 30.5332 123.649 29.9857C124.238 29.4382 124.533 28.8065 124.533 28.0905C124.028 27.6694 123.27 27.5009 122.301 27.5009C121.459 27.5009 120.827 27.6694 120.406 28.0484C119.985 28.3853 119.774 28.8065 119.774 29.3118C119.774 29.7751 119.985 30.112 120.364 30.3647C120.743 30.6595 121.206 30.7859 121.669 30.7859ZM121.417 32.3441C120.448 32.3441 119.606 32.0914 118.932 31.5018C118.3 30.9543 117.963 30.1962 117.963 29.2697C117.963 28.259 118.342 27.5009 119.142 26.9113C119.901 26.3217 120.869 26.069 122.006 26.069C123.017 26.069 123.859 26.2375 124.533 26.6165V26.3638C124.533 25.69 124.28 25.1425 123.817 24.7213C123.354 24.3423 122.764 24.1317 122.09 24.1317C121.585 24.1317 121.164 24.2581 120.743 24.4686C120.322 24.7213 120.069 25.0583 119.901 25.4373L118.3 24.7635C118.553 24.216 118.974 23.7106 119.564 23.2473C120.195 22.7841 121.038 22.5314 122.048 22.5314C123.228 22.5314 124.238 22.8683 124.996 23.5842C125.797 24.2581 126.176 25.2267 126.176 26.4902V32.0493H124.533V30.7859H124.449C123.733 31.8387 122.722 32.3441 121.417 32.3441Z" fill="#625E60"/>
<path d="M129.924 36.1344H128.155L130.303 31.4597L126.47 22.8262H128.366L131.103 29.4803H131.145L133.841 22.8262H135.694L129.924 36.1344Z" fill="#625E60"/>
<path d="M10.7393 25.1004C10.7393 20.8047 10.7393 16.4669 10.7393 12.1712C10.7393 11.6658 10.8656 11.1604 11.2025 10.7814C11.371 10.6129 11.4552 10.5708 11.6658 10.7393C14.5296 13.7294 17.4355 16.6774 20.3414 19.6255C22.2366 21.5206 24.0896 23.4158 25.9848 25.3531C26.1953 25.5215 26.1953 25.6057 25.9848 25.8163C21.3943 30.4068 16.7617 34.9973 12.1712 39.5878C11.8764 39.8826 11.7079 39.8405 11.4131 39.6299C10.9498 39.2509 10.7393 38.7455 10.7393 38.1559C10.7393 35.5869 10.7393 33.06 10.7393 30.4911C10.7393 28.6801 10.7393 26.9113 10.7393 25.1004Z" fill="#5B5B5B"/>
<path d="M12.3817 10.276C12.7607 10.276 13.0134 10.3602 13.224 10.5287C19.1201 13.8136 25.0161 17.1407 30.9122 20.4256C31.207 20.552 31.207 20.6362 30.9964 20.8468C29.6487 22.1523 28.3432 23.4579 27.0376 24.7635C26.9113 24.9319 26.8271 25.0161 26.6165 24.8056C21.9418 20.0045 17.267 15.2455 12.5502 10.4866C12.5081 10.4445 12.4659 10.3602 12.3817 10.276Z" fill="#5B5B5B"/>
<path d="M13.7294 39.5036C17.983 35.1658 22.2787 30.828 26.5323 26.4901C26.8271 26.2375 26.9534 26.2796 27.164 26.5323C28.259 27.6272 29.354 28.7643 30.4489 29.8593C30.6595 30.0699 30.6595 30.1541 30.4068 30.2805C24.9319 33.3127 19.4149 36.3029 13.94 39.3351C13.8557 39.3772 13.7715 39.4615 13.7294 39.5036Z" fill="#5B5B5B"/>
<path d="M38.1559 25.2267C38.1559 25.69 37.9032 26.0269 37.5663 26.2796C37.3136 26.4901 37.0188 26.6586 36.7661 26.7849C35.0815 27.7115 33.4391 28.638 31.7545 29.5645C31.5439 29.6909 31.4176 29.6487 31.207 29.4803C30.0278 28.259 28.8486 27.0376 27.6693 25.8584C27.5009 25.69 27.5009 25.5636 27.6693 25.3952C29.0591 24.0054 30.4489 22.6577 31.8387 21.2679C31.965 21.0995 32.0914 21.0573 32.302 21.1837C33.9444 22.1102 35.5869 23.0367 37.2294 23.9633C37.7348 24.2581 38.1559 24.595 38.1559 25.2267Z" fill="#5B5B5B"/>
</svg>
