<svg width="273" height="231" viewBox="0 0 273 231" fill="none" xmlns="http://www.w3.org/2000/svg">
<path fill-rule="evenodd" clip-rule="evenodd" d="M250.994 175.546C250.011 176.215 248.951 176.858 247.82 177.47L248.874 181.759L245.898 180.526C245.822 180.952 245.653 181.344 245.407 181.679C244.952 182.299 244.233 182.724 243.361 182.808C243.329 182.805 243.27 182.812 243.236 182.815C242.396 182.864 241.573 182.588 240.91 182.097C240.473 181.773 240.104 181.355 239.847 180.875C239.23 181.081 238.603 181.279 237.964 181.47C233.043 182.94 227.467 183.956 221.457 184.378C209.785 185.198 198.682 183.62 190.169 180.407C183.639 177.943 178.61 174.506 175.963 170.432L176.808 166.593C180.322 169.964 185.874 172.726 192.685 174.601C200.777 176.828 210.613 177.792 220.907 177.033C226.457 176.624 231.656 175.75 236.342 174.51C241.192 173.227 245.493 171.548 249.06 169.587L249.747 169.208L251.26 175.364L250.994 175.546Z" fill="#16509D"/>
<path fill-rule="evenodd" clip-rule="evenodd" d="M247.523 170.259L251.765 167.773L251.994 168.563C252.578 170.573 252.949 172.586 253.15 174.586C253.351 176.583 253.382 178.573 253.29 180.542L253.272 180.906L245.174 182.507C245.899 178.46 246.625 174.413 247.342 170.364L247.523 170.259Z" fill="#0D2C45"/>
<path fill-rule="evenodd" clip-rule="evenodd" d="M239.378 158.653C238.381 159.304 237.309 159.926 236.167 160.516L237.137 164.824L234.186 163.535C234.102 163.959 233.925 164.348 233.673 164.678C233.206 165.288 232.479 165.7 231.606 165.767C231.574 165.763 231.514 165.769 231.48 165.772C230.64 165.804 229.822 165.513 229.168 165.009C228.737 164.676 228.377 164.252 228.129 163.766C227.509 163.96 226.878 164.146 226.235 164.325C221.287 165.7 215.692 166.607 209.675 166.914C197.989 167.508 186.919 165.716 178.469 162.339C171.989 159.749 167.027 156.215 164.459 152.091L165.378 148.269C168.826 151.707 174.324 154.577 181.098 156.582C189.144 158.966 198.961 160.119 209.267 159.559C214.824 159.258 220.039 158.484 224.747 157.335C229.622 156.146 233.954 154.55 237.559 152.658L238.253 152.293L239.647 158.477L239.378 158.653Z" fill="#16509D"/>
<path fill-rule="evenodd" clip-rule="evenodd" d="M236.009 153.3L240.298 150.897L240.512 151.692C241.057 153.712 241.389 155.732 241.551 157.735C241.713 159.736 241.706 161.726 241.576 163.693L241.551 164.056L233.423 165.502C234.226 161.469 235.031 157.437 235.826 153.402L236.009 153.3Z" fill="#0D2C45"/>
<path fill-rule="evenodd" clip-rule="evenodd" d="M55.2988 209.087C56.3558 209.425 57.464 209.717 58.618 209.961L59.4239 214.18L61.3597 212.221C61.5861 212.589 61.8754 212.9 62.2041 213.138C62.8131 213.578 63.5606 213.766 64.3002 213.599C64.3247 213.587 64.376 213.577 64.4048 213.571C65.1042 213.381 65.6657 212.898 66.013 212.263C66.2419 211.845 66.3788 211.36 66.4017 210.848C66.9815 210.864 67.5668 210.87 68.1587 210.867C72.718 210.837 77.6334 210.208 82.6698 208.915C92.4525 206.403 100.845 201.857 106.504 196.537C110.845 192.458 113.592 187.908 114.161 183.44L111.989 180.163C110.446 184.23 107.012 188.309 102.215 191.928C96.5167 196.227 88.913 199.858 80.2721 202.04C75.6139 203.217 71.0593 203.87 66.7799 204.045C62.3495 204.226 58.2123 203.892 54.5602 203.094L53.8565 202.94L55.0133 208.995L55.2988 209.087Z" fill="#16509D"/>
<path fill-rule="evenodd" clip-rule="evenodd" d="M56.0668 203.279L51.6649 202.19L51.7848 202.977C52.0892 204.98 52.5682 206.925 53.1793 208.811C53.7898 210.694 54.5346 212.524 55.3724 214.3L55.527 214.628L62.7143 213.831C60.5595 210.33 58.4033 206.83 56.2544 203.325L56.0668 203.279Z" fill="#0D2C45"/>
<path fill-rule="evenodd" clip-rule="evenodd" d="M51.84 189.564C52.9361 190.028 54.1015 190.45 55.3307 190.828L55.1394 195.24L57.8151 193.447C57.9732 193.85 58.2164 194.201 58.5229 194.481C59.0909 194.999 59.8792 195.275 60.7508 195.186C60.7813 195.177 60.8413 195.172 60.8752 195.169C61.7077 195.052 62.4615 194.62 63.0151 194.008C63.38 193.604 63.6589 193.122 63.8173 192.6C64.4623 192.681 65.1162 192.753 65.78 192.814C70.8937 193.29 76.5613 193.19 82.5365 192.424C94.143 190.936 104.72 187.209 112.436 182.387C118.355 178.688 122.611 174.331 124.407 169.816L122.824 166.218C120.041 170.213 115.139 174.012 108.828 177.188C101.332 180.961 91.876 183.837 81.6335 185.115C76.112 185.803 70.8421 185.967 66.0044 185.672C60.9959 185.366 56.4495 184.564 52.5665 183.341L51.8184 183.105L51.5441 189.438L51.84 189.564Z" fill="#16509D"/>
<path fill-rule="evenodd" clip-rule="evenodd" d="M54.2054 183.699L49.5582 182.094L49.4884 182.914C49.3102 185 49.3423 187.046 49.5377 189.046C49.7332 191.044 50.0929 193.001 50.5706 194.914L50.6588 195.267L58.9143 195.248C57.4087 191.421 55.9015 187.596 54.4035 183.767L54.2054 183.699Z" fill="#0D2C45"/>
<path fill-rule="evenodd" clip-rule="evenodd" d="M167.518 29.4644C169.499 29.8233 171.474 30.23 173.459 30.6526C173.901 30.0927 173.925 29.8357 175.252 29.4305C176.579 29.025 183.528 28.5839 184.116 30.4794C184.299 31.0714 185.501 33.7334 185.553 35.3735L181.843 34.2422L173.418 80.7141C170.744 93.7477 169.687 101.802 167.46 107.378L165.655 107.691C162.136 108.298 158.728 108.908 154.921 108.779C153.472 108.73 153.076 107.623 154.482 107.403C158.484 106.776 162.483 106.12 166.212 105.188C162.322 105.802 158.428 106.411 154.526 107.004C152.902 107.252 152.231 105.927 153.75 105.624C156.082 105.159 158.403 104.679 160.694 104.168L156.059 104.71C154.587 104.881 153.545 103.737 154.923 103.325L158.479 102.266C158.131 102.262 157.862 102.137 157.723 101.978L157.561 101.988C156.12 102.071 155.737 100.776 157.123 100.614L157.375 100.585C157.253 100.389 157.329 100.166 157.726 100.057C160.674 99.2435 163.622 98.4325 166.571 97.6191C163.454 98.1271 160.337 98.6359 157.221 99.1438C156.177 99.3133 155.41 98.413 156.404 98.1504C160.591 97.0439 164.776 95.9367 168.964 94.8319C164.495 95.502 160.026 96.1746 155.557 96.8443C154.24 97.0333 153.608 95.9049 154.92 95.7118C159.711 95.0092 164.301 94.0612 168.686 92.8962C164.451 93.6062 160.193 94.2799 155.906 94.9097C154.511 95.1148 153.954 93.9937 155.244 93.7307C160.136 92.7344 165.006 91.7073 169.623 90.432C168.504 90.6253 167.387 90.8193 166.268 91.0123C163.092 91.5606 160.019 92.1109 156.582 91.9948C155.276 91.9505 154.918 90.9515 156.186 90.7531C159.797 90.1876 163.406 89.5948 166.77 88.7538C163.26 89.308 159.747 89.8576 156.226 90.3933C154.761 90.6161 154.156 89.4217 155.527 89.1479C157.631 88.7285 159.725 88.2956 161.792 87.8342L157.61 88.3232C156.281 88.4774 155.341 87.4447 156.585 87.0741C158.093 86.6249 159.601 86.1738 161.111 85.7257C160.398 85.7761 159.684 85.8251 158.965 85.8669C157.665 85.9424 157.319 84.7739 158.57 84.6278C159.861 84.4773 161.155 84.3441 162.453 84.2212C161.064 84.1857 159.658 84.1046 158.233 83.9828C157.412 83.9129 157.095 83.1904 157.838 83.088C159.006 82.9265 160.177 82.7704 161.347 82.611C160.319 82.6559 159.29 82.7018 158.263 82.7449C157.391 82.7825 156.848 81.9925 157.675 81.8671C160.493 81.4368 163.311 81.0073 166.13 80.5775C163.182 80.7091 160.235 80.8419 157.288 80.9739C156.301 81.018 155.669 80.1079 156.619 79.9735C160.616 79.4066 164.613 78.839 168.61 78.2735C164.39 78.4093 160.17 78.5477 155.949 78.6832C154.705 78.7151 154.22 77.6106 155.46 77.574C159.982 77.4436 164.34 77.065 168.528 76.4655C164.522 76.6632 160.497 76.825 156.45 76.943C155.133 76.9815 154.717 75.8921 155.941 75.7891C160.585 75.399 165.211 74.9782 169.624 74.3025C168.566 74.3601 167.509 74.4181 166.449 74.4751C163.443 74.6383 160.532 74.8132 157.345 74.3377C156.132 74.157 155.89 73.2014 157.09 73.1551C160.502 73.023 163.914 72.8661 167.122 72.4551C163.805 72.5867 160.485 72.7148 157.159 72.8285C155.774 72.8761 155.321 71.7142 156.621 71.6094C158.618 71.4499 160.606 71.2775 162.572 71.075L158.635 71.075C157.384 71.0752 156.603 70.0245 157.795 69.8174L159.641 69.4969C159.338 69.2641 159.3 68.9387 159.619 68.8619C158.973 68.6106 158.887 67.9923 159.51 67.8258C159.576 67.775 159.683 67.7459 159.839 67.751L161.084 67.7895C163.094 67.8067 165.108 67.8629 167.133 67.9291L159.616 66.9069C158.729 66.7862 158.289 65.8882 159.155 65.924C162.803 66.0737 166.45 66.2224 170.098 66.374C166.31 65.8109 162.522 65.25 158.733 64.6869C157.619 64.5137 157.336 63.4695 158.448 63.6376C162.506 64.2536 166.449 64.6272 170.272 64.7788C166.667 64.3045 163.05 63.7958 159.419 63.2456C158.238 63.0666 158.015 62.0464 159.122 62.1539C163.324 62.5624 167.513 62.9419 171.547 63.0636C170.594 62.943 169.641 62.8228 168.687 62.702C165.981 62.3588 163.357 62.0421 160.575 61.1112C159.517 60.757 159.432 59.8818 160.509 60.0354C163.574 60.4708 166.644 60.8845 169.565 61.0428C166.584 60.6227 163.602 60.1986 160.616 59.7607C159.373 59.5789 159.127 58.4888 160.302 58.6073C162.108 58.7907 163.907 58.9602 165.69 59.1014L162.174 58.4651C161.057 58.2628 160.504 57.2177 161.596 57.2295L163.782 57.2523C162.76 57.029 161.731 56.7773 160.696 56.4999C159.972 56.3063 159.787 55.6229 160.466 55.6537C161.4 55.6952 162.336 55.7403 163.271 55.7843C163.307 55.7754 163.346 55.7689 163.388 55.7647C162.556 55.6509 161.723 55.5375 160.892 55.4221C160.108 55.3138 159.731 54.5349 160.487 54.5588C163.063 54.6375 165.638 54.7173 168.214 54.7964C165.564 54.4356 162.913 54.0755 160.264 53.715C159.376 53.5943 158.937 52.6964 159.802 52.7318C163.408 52.8799 167.013 53.027 170.619 53.1767L170.639 53.1661L159.381 51.495C158.266 51.3219 157.984 50.2777 159.096 50.4453C163.153 51.0614 167.097 51.435 170.919 51.5866C167.314 51.1126 163.698 50.6039 160.067 50.0534C158.885 49.8744 158.663 48.8542 159.77 48.9617C163.971 49.3705 168.16 49.7496 172.194 49.8713C171.241 49.7512 170.289 49.631 169.335 49.5094C166.628 49.1669 164.004 48.8498 161.222 47.919C160.165 47.5651 160.079 46.6896 161.156 46.8429C164.222 47.2786 167.291 47.6926 170.212 47.8509C167.232 47.4309 164.249 47.006 161.264 46.5689C160.02 46.3866 159.774 45.2966 160.95 45.4151C162.755 45.5985 164.554 45.768 166.337 45.9091L162.821 45.2729C161.704 45.0706 161.151 44.0255 162.243 44.0372C163.568 44.0514 164.893 44.0644 166.218 44.0792C165.625 43.9448 165.032 43.8089 164.436 43.6667C164.17 43.6028 163.968 43.4936 163.829 43.3681C163.117 43.1697 162.939 42.4956 163.613 42.5257C164.677 42.573 165.745 42.625 166.811 42.6748C165.887 42.5486 164.962 42.4222 164.039 42.294C163.255 42.1858 162.878 41.4072 163.634 41.4311C166.21 41.5098 168.785 41.5893 171.361 41.6683C168.711 41.3075 166.06 40.9478 163.411 40.5873C162.523 40.4663 162.083 39.5684 162.95 39.6041C166.597 39.7538 170.244 39.9025 173.892 40.0541C170.104 39.491 166.317 38.9304 162.528 38.367C161.413 38.1942 161.131 37.1496 162.243 37.3177C166.3 37.9337 170.244 38.3073 174.066 38.459C170.461 37.9846 166.844 37.4759 163.214 36.9253C162.032 36.7467 161.81 35.7265 162.917 35.834C167.118 36.2429 171.307 36.622 175.341 36.7437C174.388 36.6231 173.436 36.5029 172.482 36.3817C169.775 36.0392 167.151 35.7218 164.369 34.7913C163.312 34.4371 163.226 33.5616 164.304 33.7152C167.319 34.1436 170.338 34.5511 173.216 34.7152L173.207 34.7018C170.277 34.2883 167.345 33.8711 164.41 33.4408C163.167 33.2586 162.921 32.1689 164.097 32.2874C165.902 32.4708 167.701 32.6407 169.485 32.7814L165.969 32.1452C164.852 31.9429 164.298 30.8982 165.39 30.9095C166.715 30.9237 168.04 30.9367 169.366 30.9519C168.773 30.8175 168.179 30.6812 167.584 30.539C166.506 30.2809 166.466 29.2745 167.518 29.4644ZM164.472 112.549L153.784 114.154C152.324 114.363 151.624 113.113 153.078 112.899C157.545 112.244 161.854 111.396 166.003 110.375C165.543 111.15 165.037 111.871 164.472 112.549ZM166.142 110.143C162.172 110.797 158.183 111.421 154.17 112.01C152.624 112.237 152.008 110.995 153.437 110.704C158.159 109.741 162.864 108.754 167.38 107.581C167.005 108.498 166.597 109.349 166.142 110.143Z" fill="#B824A4"/>
<path fill-rule="evenodd" clip-rule="evenodd" d="M97.2512 130.184C106.563 127.316 122.704 127.274 134.002 123.793C170.708 112.485 166.348 113.442 173.235 79.3269L181.057 31.5597L187.102 35.9474L184.532 83.0979C183.685 98.6444 180.893 120.206 182.616 135.212C186.019 164.835 187.277 174.024 160.573 182.25C152.703 184.675 149.985 185.333 140.734 187.578C128.824 190.468 117.443 193.943 111.992 192.507C103.798 190.347 97.5918 184.099 92.5057 174.714C89.4366 169.051 86.6095 162.293 85.1883 156.223C82.3688 144.179 82.1528 134.836 97.2512 130.184Z" fill="#16509D"/>
<path d="M223.886 80.93L223.361 75.061C223.772 74.6834 224.01 74.1259 223.956 73.5271C223.865 72.5059 222.963 71.7519 221.942 71.8431C220.921 71.9344 220.167 72.8365 220.258 73.8577C220.311 74.4565 220.644 74.9635 221.116 75.2618L221.64 81.1307C221.042 81.5523 220.678 82.2731 220.748 83.0553L221.409 90.4513L219.707 90.6034C218.54 90.7077 217.679 91.7382 217.783 92.9051L219.987 117.559C220.091 118.726 221.122 119.587 222.289 119.483L261.29 115.996C262.457 115.892 263.319 114.861 263.214 113.694L261.01 89.0405C260.906 87.8736 259.875 87.0123 258.708 87.1166L257.006 87.2688L256.345 79.8728C256.275 79.0906 255.789 78.4458 255.125 78.1371L254.601 72.2681C255.012 71.8905 255.249 71.333 255.196 70.7342C255.104 69.713 254.202 68.959 253.181 69.0503C252.16 69.1416 251.406 70.0436 251.497 71.0648C251.551 71.6636 251.883 72.1706 252.355 72.4688L252.88 78.3378C252.281 78.7594 251.917 79.4802 251.987 80.2624L252.648 87.6584L225.767 90.0616L225.106 82.6657C225.036 81.8834 224.55 81.2387 223.886 80.93Z" fill="#5B5B5B"/>
<path d="M240.859 21.2549L252.305 87.6547L249.689 87.9566L240.003 21.3993L240.859 21.2549Z" fill="#AE4A84"/>
<path d="M182.593 55.4013C178.404 55.1803 174.237 55.2207 170.047 55.1626C169.849 55.1595 169.854 54.8771 170.046 54.8593C174.183 54.4752 178.445 54.5684 182.59 54.7872C182.983 54.808 182.988 55.4223 182.593 55.4013Z" fill="#FEFEFE"/>
<path d="M180.932 60.087C178.673 60.1407 176.413 60.1306 174.154 60.1919C171.897 60.253 169.639 60.391 167.382 60.4184C167.206 60.4206 167.213 60.1689 167.381 60.1507C171.844 59.6644 176.441 59.5052 180.929 59.5124C181.299 59.5131 181.302 60.0783 180.932 60.087Z" fill="#FEFEFE"/>
<path d="M174.442 65.2255C170.253 65.0045 166.086 65.0449 161.896 64.9868C161.698 64.9841 161.703 64.7013 161.894 64.6835C166.032 64.2994 170.293 64.393 174.439 64.6117C174.832 64.6325 174.837 65.2465 174.442 65.2255Z" fill="#FEFEFE"/>
<path d="M176.163 66.84C173.904 66.8937 171.643 66.8836 169.384 66.945C167.128 67.0061 164.87 67.144 162.613 67.1714C162.437 67.1737 162.444 66.922 162.611 66.9037C167.074 66.4175 171.671 66.2583 176.16 66.2654C176.53 66.2662 176.532 66.8313 176.163 66.84Z" fill="#FEFEFE"/>
<path d="M173.972 79.8785C169.783 79.6578 165.616 79.6979 161.426 79.6397C161.228 79.6371 161.233 79.3543 161.424 79.3368C165.562 78.9527 169.823 79.0459 173.969 79.2647C174.362 79.2855 174.367 79.8998 173.972 79.8785Z" fill="#FEFEFE"/>
<path d="M181.337 68.5284C177.148 68.3073 172.981 68.3474 168.791 68.2896C168.593 68.2866 168.597 68.0042 168.789 67.9863C172.927 67.6023 177.188 67.6955 181.334 67.9142C181.727 67.935 181.732 68.5494 181.337 68.5284Z" fill="#FEFEFE"/>
<path d="M182.261 58.2249C178.072 58.0039 173.905 58.0439 169.715 57.9862C169.517 57.9831 169.522 57.7007 169.713 57.6829C173.851 57.2988 178.112 57.392 182.258 57.6108C182.651 57.6316 182.656 58.2459 182.261 58.2249Z" fill="#FEFEFE"/>
<path d="M183.397 57.4449C179.209 57.2239 175.042 57.2643 170.852 57.2061C170.654 57.2035 170.659 56.9207 170.85 56.9028C174.988 56.5188 179.249 56.612 183.395 56.8311C183.788 56.8519 183.793 57.4659 183.397 57.4449Z" fill="#FEFEFE"/>
<path d="M174.445 82.049C170.256 81.828 166.089 81.868 161.899 81.8099C161.701 81.8072 161.706 81.5248 161.897 81.507C166.035 81.1229 170.296 81.2161 174.442 81.4348C174.835 81.4556 174.84 82.07 174.445 82.049Z" fill="#FEFEFE"/>
<path d="M176.166 83.6636C173.907 83.7173 171.647 83.7071 169.388 83.7681C167.131 83.8293 164.873 83.9675 162.616 83.9945C162.44 83.9968 162.447 83.7455 162.614 83.7272C167.077 83.2406 171.675 83.0814 176.163 83.0886C176.533 83.0893 176.536 83.6545 176.166 83.6636Z" fill="#FEFEFE"/>
<path d="M181.34 85.3514C177.151 85.1303 172.984 85.1708 168.794 85.1126C168.596 85.1096 168.601 84.8272 168.792 84.8094C172.93 84.4253 177.192 84.5185 181.337 84.7372C181.73 84.758 181.735 85.3724 181.34 85.3514Z" fill="#FEFEFE"/>
<path d="M170.844 97.1902C166.66 97.4862 162.529 98.0389 158.364 98.4964C158.167 98.518 158.137 98.2372 158.325 98.1957C162.384 97.306 166.625 96.8742 170.765 96.5814C171.158 96.5535 171.239 97.1625 170.844 97.1902Z" fill="#FEFEFE"/>
<path d="M172.75 98.5814C170.515 98.9124 168.271 99.1806 166.036 99.5192C163.804 99.8572 161.58 100.272 159.343 100.577C159.169 100.6 159.145 100.35 159.31 100.311C163.679 99.2798 168.221 98.5564 172.677 98.0113C173.044 97.9665 173.116 98.5269 172.75 98.5814Z" fill="#FEFEFE"/>
<path d="M178.093 99.6201C173.909 99.9161 169.778 100.468 165.613 100.926C165.416 100.948 165.386 100.667 165.574 100.626C169.633 99.7355 173.874 99.3037 178.014 99.0109C178.407 98.9834 178.488 99.5921 178.093 99.6201Z" fill="#FEFEFE"/>
<path fill-rule="evenodd" clip-rule="evenodd" d="M187.161 36.6066L184.727 79.7847C183.828 95.7232 180.902 117.83 182.674 133.212C185.538 158.079 186.922 168.897 172.092 176.649C173.299 118.854 178.991 81.4093 183.709 37.4233L183.499 35.0698L185.213 35.6623L187.161 36.6066Z" fill="url(#paint0_linear)"/>
<path fill-rule="evenodd" clip-rule="evenodd" d="M185.243 32.8337C182.372 33.5689 176.115 31.6996 172.126 27.1517C167.821 22.2438 166.059 16.6275 167.632 14.6246L185.243 32.8337Z" fill="#16509D"/>
<path fill-rule="evenodd" clip-rule="evenodd" d="M184.13 26.0219C182.188 24.5654 180.311 22.5596 179.022 20.1204C175.971 14.349 175.558 8.47735 177.552 6.89322L188.153 24.7832L184.13 26.0219Z" fill="#16509D"/>
<path fill-rule="evenodd" clip-rule="evenodd" d="M186.694 18.1465C189.236 17.804 190.824 18.4938 193.35 19.5782C198.893 21.9576 206.655 20.6278 212.161 18.8742C217.582 17.1494 222.301 14.426 227.598 12.5605C232.644 10.7834 237.718 10.5797 240.759 12.1708C244.263 14.0035 246.102 17.6363 246.195 21.6747C246.47 33.6255 237.53 37.8385 228.208 38.7874C219.259 39.6987 204.648 37.843 195.146 35.307C193.34 36.1495 191.744 36.7165 190.676 36.8603C186.07 37.4811 180.098 32.2162 179.477 27.6101C178.857 23.004 182.088 18.7668 186.694 18.1465Z" fill="#16509D"/>
<path d="M179.247 45.3857C175.067 45.04 170.9 44.9557 166.714 44.7726C166.516 44.7637 166.529 44.4813 166.721 44.4696C170.868 44.2089 175.125 44.4293 179.262 44.772C179.654 44.8046 179.641 45.4187 179.247 45.3857Z" fill="#FEFEFE"/>
<path d="M183.817 41.9551C179.629 41.7344 175.462 41.7744 171.272 41.7163C171.074 41.7136 171.079 41.4308 171.27 41.4133C175.408 41.0293 179.669 41.1225 183.815 41.3412C184.208 41.362 184.213 41.9764 183.817 41.9551Z" fill="#FEFEFE"/>
<path d="M179.369 28.0159C176.998 28.2751 174.642 27.6139 172.694 26.2573C170.782 24.9257 169.261 22.9233 168.504 20.4635C168.308 19.8273 168.171 19.1858 168.091 18.547C168.009 17.8948 167.986 17.2435 168.019 16.6032L168.643 16.634C168.612 17.2359 168.633 17.8506 168.711 18.4686C168.787 19.0694 168.916 19.6756 169.102 20.2796C169.817 22.6033 171.25 24.4925 173.051 25.7461C174.877 27.0178 177.083 27.6378 179.301 27.3951L179.369 28.0159Z" fill="#FEFEFE"/>
<path d="M181.393 18.9306C180.08 18.4339 179.233 17.7593 178.631 16.885C178.04 16.0258 177.699 14.9862 177.386 13.7356C177.177 12.9036 177.01 12.0297 176.902 11.2389C176.792 10.4367 176.742 9.71477 176.768 9.20264L177.392 9.23335C177.368 9.70899 177.416 10.3904 177.52 11.1535C177.626 11.9224 177.788 12.7724 177.991 13.5827C178.288 14.7679 178.607 15.747 179.147 16.5319C179.676 17.3011 180.432 17.8988 181.615 18.3461L181.393 18.9306Z" fill="#FEFEFE"/>
<path fill-rule="evenodd" clip-rule="evenodd" d="M204.381 25.338C208.365 25.4008 229.112 19.7343 229.437 17.8888L228.625 22.4951C228.625 22.4951 216.837 26.829 204.381 25.338Z" fill="#A3AAC8"/>
<path fill-rule="evenodd" clip-rule="evenodd" d="M227.871 12.4664C232.827 10.7771 237.774 10.6088 240.76 12.171C244.263 14.0038 246.102 17.6365 246.195 21.6749C246.433 31.9877 239.808 36.5377 231.997 38.2014C228.822 34.6286 226.655 29.9631 226.082 24.7089C225.605 20.3447 226.29 16.1462 227.871 12.4664Z" fill="#9F4793"/>
<path fill-rule="evenodd" clip-rule="evenodd" d="M245.464 17.6588C245.917 18.909 246.162 20.2675 246.194 21.6752C246.253 24.2164 245.894 26.4065 245.204 28.2907C243.288 30.1644 240.627 31.0244 237.029 30.0522C232.577 28.8492 230.388 24.6086 229.797 20.2241C229.663 19.2284 229.678 18.2903 229.825 17.4139C230.491 19.1606 231.567 20.597 232.937 21.5661C237.735 24.9579 242.733 21.9428 245.464 17.6588Z" fill="#FEFEFE"/>
<path d="M235.62 18.2218C235.881 17.7644 235.23 16.868 234.167 16.2195C233.104 15.571 232.031 15.4161 231.771 15.8734C231.51 16.3308 232.161 17.2272 233.224 17.8757C234.287 18.5242 235.36 18.6791 235.62 18.2218Z" fill="#0D2C45"/>
<path d="M237.869 15.7476C238.115 15.3172 237.502 14.4736 236.502 13.8634C235.502 13.2532 234.492 13.1074 234.247 13.5378C234.002 13.9681 234.614 14.8117 235.615 15.4219C236.615 16.0321 237.624 16.1779 237.869 15.7476Z" fill="#0D2C45"/>
<path d="M245.482 17.6306C242.756 21.9295 237.745 24.9649 232.937 21.5656C231.567 20.5963 230.49 19.1574 229.817 17.4548C229.677 18.3514 229.667 19.261 229.797 20.2236C230.388 24.6082 232.577 28.8491 237.028 30.0517C240.703 31.0444 243.401 30.1281 245.326 28.1715" stroke="#0D2C45" stroke-width="0.13" stroke-miterlimit="22.9256" stroke-linecap="round" stroke-linejoin="round"/>
<path d="M188.623 18.9737C187.105 20.1145 185.954 21.495 185.568 23.3383C185.45 23.9041 185.378 24.4406 185.353 24.9422C185.327 25.4441 185.346 25.9118 185.41 26.3396L185.444 26.5695L184.081 27.1961L184.004 26.8098C183.898 26.2804 183.842 25.6825 183.856 25.0116C183.87 24.3469 183.951 23.6089 184.122 22.7935C184.587 20.5565 185.934 18.9111 187.655 17.5933C189.348 16.297 191.404 15.3185 193.331 14.4035C195.353 13.4423 197.204 12.4585 198.441 11.2302C199.633 10.0467 200.249 8.62721 199.874 6.75889L199.754 6.16095L200.238 6.4454C200.244 6.44856 202.235 7.59502 201.051 10.4948C200.535 11.7581 199.556 12.7616 198.304 13.6385C197.075 14.4998 195.581 15.2398 194.004 15.9898C192.103 16.8926 190.171 17.811 188.623 18.9737ZM182.735 27.389L182.81 27.7803L181.452 28.4042C181.403 28.1691 181.313 27.8214 181.284 27.5816C180.331 22.2785 182.027 18.6252 184.425 16.085C186.799 13.5704 189.853 12.1611 191.682 11.3178L192.106 11.1204C193.273 10.5756 194.656 9.92873 195.857 9.24767C197.025 8.58478 198 7.9002 198.378 7.27342C198.422 7.20084 198.452 7.11235 198.466 7.03118L198.481 6.95639C198.456 6.90563 198.324 6.71355 198.118 6.56593C198.006 6.48653 197.874 6.4246 197.732 6.41951L196.398 6.37272L197.594 5.82282C197.598 5.82102 198.946 5.22193 199.668 6.36375C199.872 6.6867 199.949 7.01999 199.937 7.34118C199.924 7.70349 199.798 8.04434 199.624 8.33279C198.64 9.96902 195.527 11.4235 192.779 12.707C192.668 12.7783 192.431 12.8417 192.34 12.9123C188.679 14.6004 181.07 18.1123 182.735 27.389ZM188.379 24.2319C188.261 24.5404 188.195 24.8439 188.182 25.135L188.174 25.3145L186.765 25.9623L186.719 25.5257C186.668 25.0419 186.691 24.4519 186.886 23.792C187.04 23.2739 187.3 22.7107 187.715 22.1224C189.313 19.8502 191.814 18.4671 194.232 17.1307L194.248 17.122C197.666 15.2344 200.891 13.4519 201.394 9.41469L201.471 8.79333L201.854 9.29618C201.856 9.29959 202.886 10.5781 202.022 12.4086C200.504 15.6285 198.02 17.001 195.024 18.6565L194.978 18.6825C192.688 19.9479 190.32 21.2565 188.903 23.2694C188.675 23.5932 188.5 23.9166 188.379 24.2319Z" fill="#16509D"/>
<path d="M231.054 24.6937C231.054 24.6937 238.785 29.74 246.333 23.8346" stroke="#0D2C45" stroke-width="0.13" stroke-miterlimit="22.9256"/>
<path d="M233.163 21.7534L233.045 27.6151" stroke="#0D2C45" stroke-width="0.13" stroke-miterlimit="22.9256"/>
<path d="M235.634 22.8213L236.182 29.7837" stroke="#0D2C45" stroke-width="0.13" stroke-miterlimit="22.9256"/>
<path d="M238.865 22.7964L239.466 30.5263" stroke="#0D2C45" stroke-width="0.13" stroke-miterlimit="22.9256"/>
<path d="M241.501 21.6829L243.297 29.6795" stroke="#0D2C45" stroke-width="0.13" stroke-miterlimit="22.9256"/>
<path d="M243.359 20.2438L245.525 27.9376" stroke="#0D2C45" stroke-width="0.13" stroke-miterlimit="22.9256"/>
<path d="M244.185 19.4463L246.24 23.2657" stroke="#0D2C45" stroke-width="0.13" stroke-miterlimit="22.9256"/>
<path fill-rule="evenodd" clip-rule="evenodd" d="M183.488 29.897L191.935 23.9486L192.075 24.4648C192.868 27.3818 191.616 31.1059 189.293 32.742C186.97 34.3777 184.421 33.3302 183.628 30.4131L183.488 29.897Z" fill="#C5C6C6"/>
<path fill-rule="evenodd" clip-rule="evenodd" d="M184.845 28.4898L191.767 23.6153L191.816 23.798C192.411 25.9832 191.984 28.5535 190.867 30.4532C190.784 30.5198 190.7 30.5833 190.614 30.644L190.613 30.6444C188.364 32.2284 185.874 31.2473 184.845 28.4898Z" fill="#FEFEFE"/>
<path d="M190.595 30.4855C191.227 30.5544 191.649 29.4404 191.536 27.9975C191.424 26.5545 190.821 25.329 190.189 25.2601C189.557 25.1913 189.135 26.3052 189.248 27.7482C189.36 29.1911 189.963 30.4167 190.595 30.4855Z" fill="#16509D"/>
<path d="M190.5 29.2548C190.834 29.2912 191.057 28.7022 190.998 27.9394C190.938 27.1765 190.619 26.5286 190.285 26.4922C189.951 26.4558 189.728 27.0447 189.788 27.8076C189.847 28.5704 190.166 29.2184 190.5 29.2548Z" fill="#2B2A29"/>
<path fill-rule="evenodd" clip-rule="evenodd" d="M193.802 23.3228L200.042 18.929L200.146 19.3103C200.731 21.465 199.807 24.2162 198.091 25.4244L198.091 25.4245C196.375 26.633 194.492 25.8588 193.906 23.7045L193.802 23.3228Z" fill="#C5C6C6"/>
<path fill-rule="evenodd" clip-rule="evenodd" d="M194.807 22.2832L199.919 18.6826L199.956 18.8174C200.395 20.4319 200.08 22.3303 199.254 23.7339C199.193 23.7826 199.131 23.83 199.068 23.8746L199.068 23.8749C197.406 25.0449 195.566 24.3202 194.807 22.2832Z" fill="#FEFEFE"/>
<path d="M199.053 23.7579C199.52 23.8087 199.831 22.9858 199.748 21.9199C199.666 20.854 199.22 19.9487 198.753 19.8979C198.286 19.847 197.975 20.6699 198.058 21.7358C198.141 22.8017 198.586 23.707 199.053 23.7579Z" fill="#16509D"/>
<path d="M198.982 22.8486C199.229 22.8755 199.394 22.4404 199.35 21.8769C199.306 21.3134 199.07 20.8347 198.824 20.8078C198.577 20.781 198.412 21.216 198.456 21.7795C198.5 22.3431 198.735 22.8217 198.982 22.8486Z" fill="#2B2A29"/>
<path d="M223.059 86.576L225.304 86.3752L224.253 74.621L222.008 74.8218L223.059 86.576Z" fill="#D9DADA"/>
<path d="M227.305 96.8462C227.41 98.0131 226.548 99.0439 225.381 99.1483L225.249 99.1601C224.082 99.2644 223.051 98.4027 222.947 97.2359L221.672 82.9724C221.567 81.8052 222.429 80.7747 223.596 80.6703L223.728 80.6585C224.895 80.5542 225.926 81.4155 226.03 82.5827L227.305 96.8462Z" fill="#C5C6C6"/>
<path d="M224.881 73.4442C224.972 74.4651 224.218 75.3671 223.197 75.4584C222.176 75.5497 221.274 74.7957 221.183 73.7748C221.092 72.7536 221.846 71.8519 222.867 71.7606C223.888 71.6693 224.79 72.4229 224.881 73.4442Z" fill="#00FFFF"/>
<path d="M254.298 83.783L256.543 83.5823L255.492 71.8281L253.247 72.0288L254.298 83.783Z" fill="#FEFEFE" stroke="#B2B3B3" stroke-width="0.3" stroke-miterlimit="22.9256"/>
<path d="M258.545 94.0533C258.649 95.2201 257.787 96.251 256.62 96.3553L256.489 96.3671C255.321 96.4715 254.291 95.6098 254.186 94.4429L252.911 80.1794C252.807 79.0122 253.668 77.9817 254.835 77.8774L254.967 77.8656C256.134 77.7612 257.165 78.6226 257.269 79.7898L258.545 94.0533Z" fill="#FEFEFE" stroke="#B2B3B3" stroke-width="0.3" stroke-miterlimit="22.9256"/>
<path d="M256.121 70.6512C256.212 71.6721 255.458 72.5741 254.437 72.6654C253.416 72.7567 252.514 72.0027 252.423 70.9818C252.331 69.9606 253.085 69.0589 254.106 68.9676C255.128 68.8763 256.029 69.63 256.121 70.6512Z" fill="#00FFFF"/>
<path d="M264.139 113.611C264.243 114.778 263.381 115.809 262.215 115.913L223.214 119.4C222.047 119.505 221.016 118.643 220.911 117.476L218.707 92.8225C218.603 91.6556 219.465 90.6248 220.632 90.5204L259.633 87.0336C260.799 86.9293 261.83 87.791 261.935 88.9578L264.139 113.611Z" fill="url(#paint1_linear)" stroke="#5B5B5B" stroke-width="0.0762" stroke-miterlimit="22.9256"/>
<path d="M264.139 113.611C264.243 114.778 263.381 115.809 262.215 115.913L223.214 119.4C222.047 119.504 221.016 118.643 220.911 117.476L220.058 107.933C219.954 106.766 220.816 105.736 221.983 105.631L260.984 102.144C262.15 102.04 263.181 102.902 263.286 104.069L264.139 113.611Z" fill="#81A8E9"/>
<path d="M233.18 111.571C233.258 112.441 232.615 113.209 231.745 113.287C230.875 113.365 230.107 112.722 230.029 111.852C229.951 110.982 230.593 110.214 231.464 110.136C232.334 110.058 233.102 110.701 233.18 111.571Z" fill="#00FFFF" stroke="#FEFEFE" stroke-width="0.1" stroke-miterlimit="22.9256"/>
<path d="M240.175 110.945C240.253 111.815 239.611 112.584 238.741 112.662C237.871 112.739 237.102 112.097 237.025 111.227C236.947 110.357 237.589 109.588 238.459 109.511C239.329 109.433 240.098 110.075 240.175 110.945Z" fill="#00FFFF"/>
<path d="M238.757 112.841L238.725 112.481L238.796 112.472L238.867 112.46L238.936 112.446L239.003 112.427L239.069 112.406L239.134 112.38L239.197 112.353L239.258 112.323L239.317 112.289L239.374 112.253L239.43 112.214L239.483 112.173L239.534 112.128L239.584 112.083L239.63 112.035L239.675 111.983L239.717 111.931L239.756 111.877L239.793 111.82L239.827 111.762L239.858 111.702L239.886 111.64L239.912 111.577L239.934 111.513L239.953 111.448L239.969 111.381L239.982 111.313L239.992 111.244L239.998 111.175L240 111.104L240 111.032L239.995 110.961L240.356 110.928L240.361 111.019L240.363 111.108L240.359 111.197L240.352 111.285L240.339 111.372L240.323 111.457L240.303 111.541L240.279 111.624L240.25 111.705L240.218 111.784L240.183 111.861L240.144 111.936L240.101 112.01L240.055 112.081L240.005 112.15L239.952 112.216L239.897 112.279L239.838 112.34L239.776 112.398L239.712 112.453L239.645 112.505L239.575 112.554L239.502 112.6L239.428 112.642L239.351 112.681L239.272 112.716L239.191 112.746L239.108 112.774L239.022 112.797L238.935 112.816L238.847 112.831L238.757 112.841ZM236.844 111.242L237.205 111.21L237.213 111.282L237.225 111.352L237.239 111.421L237.258 111.489L237.28 111.555L237.305 111.619L237.332 111.682L237.363 111.743L237.396 111.803L237.432 111.86L237.471 111.915L237.513 111.969L237.556 112.02L237.602 112.069L237.651 112.116L237.702 112.16L237.754 112.202L237.809 112.241L237.865 112.278L237.924 112.312L237.983 112.344L238.045 112.372L238.108 112.397L238.172 112.42L238.237 112.439L238.304 112.455L238.372 112.468L238.441 112.477L238.51 112.484L238.581 112.486L238.653 112.485L238.725 112.481L238.757 112.841L238.666 112.847L238.577 112.848L238.488 112.845L238.4 112.837L238.313 112.825L238.228 112.809L238.144 112.788L238.061 112.764L237.98 112.736L237.901 112.704L237.824 112.668L237.748 112.629L237.675 112.586L237.604 112.54L237.535 112.49L237.469 112.438L237.406 112.382L237.345 112.323L237.287 112.262L237.232 112.197L237.18 112.13L237.131 112.06L237.086 111.988L237.043 111.913L237.004 111.836L236.97 111.757L236.939 111.676L236.911 111.593L236.888 111.507L236.869 111.421L236.855 111.332L236.844 111.242ZM238.443 109.33L238.475 109.69L238.404 109.698L238.333 109.711L238.264 109.725L238.197 109.744L238.13 109.765L238.066 109.79L238.003 109.817L237.942 109.848L237.883 109.882L237.826 109.918L237.77 109.957L237.717 109.998L237.666 110.042L237.616 110.088L237.569 110.136L237.525 110.187L237.483 110.24L237.444 110.294L237.407 110.35L237.373 110.408L237.342 110.468L237.314 110.53L237.288 110.593L237.266 110.657L237.246 110.723L237.231 110.789L237.217 110.857L237.208 110.926L237.201 110.996L237.199 111.066L237.2 111.138L237.205 111.21L236.844 111.242L236.839 111.152L236.837 111.062L236.84 110.973L236.848 110.885L236.86 110.799L236.876 110.713L236.897 110.629L236.921 110.546L236.949 110.465L236.982 110.386L237.017 110.309L237.056 110.234L237.099 110.161L237.145 110.089L237.195 110.021L237.247 109.955L237.303 109.891L237.362 109.83L237.423 109.773L237.488 109.717L237.555 109.666L237.625 109.617L237.697 109.571L237.772 109.529L237.849 109.49L237.928 109.455L238.01 109.424L238.092 109.397L238.178 109.374L238.265 109.355L238.353 109.34L238.443 109.33ZM240.356 110.928L239.995 110.961L239.987 110.889L239.975 110.818L239.96 110.749L239.941 110.682L239.92 110.616L239.895 110.551L239.867 110.488L239.837 110.427L239.804 110.368L239.767 110.311L239.728 110.255L239.687 110.201L239.644 110.151L239.597 110.102L239.549 110.055L239.498 110.011L239.446 109.969L239.391 109.93L239.335 109.892L239.276 109.858L239.216 109.827L239.155 109.799L239.092 109.773L239.028 109.751L238.962 109.732L238.896 109.716L238.828 109.703L238.759 109.694L238.689 109.687L238.619 109.685L238.547 109.686L238.475 109.69L238.443 109.33L238.534 109.324L238.623 109.323L238.712 109.326L238.8 109.334L238.886 109.346L238.972 109.362L239.056 109.382L239.139 109.407L239.22 109.435L239.299 109.467L239.376 109.503L239.451 109.542L239.524 109.585L239.596 109.631L239.664 109.68L239.731 109.733L239.794 109.789L239.854 109.847L239.913 109.909L239.968 109.973L240.02 110.041L240.068 110.11L240.114 110.182L240.156 110.257L240.195 110.334L240.23 110.413L240.261 110.495L240.288 110.578L240.312 110.663L240.331 110.75L240.345 110.838L240.356 110.928Z" fill="#FEFEFE"/>
<path d="M247.171 110.32C247.249 111.189 246.607 111.958 245.737 112.036C244.867 112.114 244.098 111.471 244.02 110.601C243.943 109.731 244.585 108.963 245.455 108.885C246.325 108.807 247.094 109.449 247.171 110.32Z" fill="#00FFFF"/>
<path d="M245.753 112.216L245.721 111.855L245.792 111.847L245.863 111.835L245.932 111.82L245.999 111.802L246.065 111.78L246.13 111.755L246.193 111.728L246.254 111.697L246.313 111.664L246.37 111.627L246.426 111.589L246.479 111.547L246.531 111.503L246.579 111.458L246.626 111.409L246.671 111.358L246.713 111.306L246.752 111.251L246.789 111.195L246.822 111.136L246.854 111.076L246.882 111.015L246.908 110.952L246.93 110.888L246.949 110.822L246.965 110.756L246.978 110.688L246.988 110.619L246.994 110.549L246.996 110.479L246.996 110.407L246.991 110.335L247.351 110.303L247.357 110.394L247.358 110.483L247.355 110.571L247.347 110.66L247.335 110.746L247.32 110.831L247.299 110.916L247.275 110.999L247.246 111.08L247.214 111.159L247.178 111.236L247.14 111.311L247.096 111.384L247.05 111.455L247.001 111.524L246.948 111.59L246.893 111.653L246.834 111.715L246.772 111.773L246.708 111.828L246.64 111.88L246.571 111.928L246.499 111.974L246.424 112.016L246.347 112.055L246.268 112.09L246.187 112.121L246.104 112.148L246.018 112.172L245.931 112.191L245.843 112.205L245.753 112.216ZM243.84 110.617L244.201 110.585L244.209 110.656L244.221 110.727L244.235 110.796L244.254 110.863L244.276 110.929L244.301 110.994L244.328 111.056L244.359 111.118L244.392 111.177L244.428 111.234L244.467 111.29L244.509 111.343L244.552 111.395L244.598 111.443L244.647 111.49L244.697 111.534L244.75 111.576L244.805 111.616L244.861 111.652L244.92 111.687L244.979 111.718L245.041 111.746L245.104 111.772L245.168 111.794L245.233 111.814L245.3 111.829L245.368 111.842L245.437 111.852L245.506 111.858L245.577 111.86L245.649 111.86L245.721 111.855L245.753 112.216L245.662 112.221L245.573 112.223L245.484 112.219L245.396 112.212L245.309 112.199L245.224 112.183L245.14 112.163L245.057 112.138L244.976 112.11L244.897 112.078L244.82 112.043L244.744 112.003L244.671 111.961L244.6 111.915L244.531 111.865L244.465 111.812L244.402 111.757L244.341 111.698L244.283 111.636L244.228 111.571L244.176 111.505L244.127 111.435L244.082 111.363L244.039 111.288L244 111.211L243.966 111.131L243.935 111.05L243.907 110.968L243.884 110.882L243.865 110.795L243.851 110.707L243.84 110.617ZM245.439 108.704L245.471 109.065L245.4 109.073L245.329 109.085L245.26 109.1L245.193 109.118L245.126 109.14L245.062 109.165L244.999 109.192L244.938 109.222L244.879 109.256L244.822 109.292L244.765 109.331L244.712 109.372L244.661 109.416L244.612 109.463L244.565 109.511L244.521 109.561L244.479 109.614L244.44 109.669L244.403 109.725L244.369 109.783L244.338 109.843L244.309 109.905L244.284 109.967L244.262 110.032L244.242 110.097L244.226 110.164L244.213 110.232L244.204 110.301L244.197 110.37L244.195 110.441L244.196 110.513L244.201 110.585L243.84 110.617L243.834 110.526L243.833 110.437L243.836 110.348L243.844 110.26L243.856 110.173L243.872 110.088L243.893 110.003L243.917 109.921L243.945 109.84L243.978 109.761L244.013 109.684L244.052 109.608L244.095 109.535L244.141 109.464L244.191 109.396L244.243 109.33L244.299 109.266L244.358 109.205L244.419 109.147L244.484 109.092L244.551 109.04L244.621 108.991L244.693 108.946L244.768 108.903L244.845 108.865L244.924 108.829L245.006 108.799L245.088 108.772L245.174 108.748L245.261 108.729L245.349 108.715L245.439 108.704ZM247.351 110.303L246.991 110.335L246.983 110.263L246.971 110.193L246.956 110.123L246.937 110.056L246.916 109.99L246.891 109.925L246.864 109.863L246.833 109.802L246.8 109.742L246.764 109.685L246.724 109.63L246.683 109.576L246.64 109.525L246.593 109.476L246.545 109.429L246.494 109.385L246.442 109.343L246.387 109.304L246.33 109.267L246.273 109.233L246.213 109.202L246.151 109.173L246.088 109.148L246.024 109.125L245.959 109.106L245.892 109.09L245.824 109.077L245.755 109.068L245.686 109.062L245.615 109.059L245.543 109.06L245.471 109.065L245.439 108.704L245.53 108.699L245.619 108.697L245.708 108.701L245.796 108.708L245.882 108.721L245.968 108.736L246.052 108.757L246.135 108.781L246.216 108.81L246.295 108.841L246.372 108.877L246.447 108.916L246.521 108.959L246.592 109.006L246.66 109.055L246.726 109.107L246.79 109.163L246.85 109.222L246.909 109.283L246.964 109.348L247.016 109.415L247.065 109.485L247.11 109.557L247.152 109.632L247.191 109.709L247.226 109.788L247.257 109.869L247.284 109.952L247.307 110.037L247.326 110.124L247.341 110.213L247.351 110.303Z" fill="#FEFEFE"/>
<path d="M254.168 109.695C254.245 110.565 253.603 111.334 252.733 111.411C251.863 111.489 251.094 110.846 251.017 109.977C250.939 109.106 251.581 108.338 252.451 108.26C253.322 108.183 254.09 108.825 254.168 109.695Z" fill="#00FFFF"/>
<path d="M252.749 111.59L252.716 111.23L252.788 111.222L252.859 111.209L252.928 111.195L252.995 111.176L253.061 111.155L253.126 111.13L253.189 111.103L253.25 111.072L253.309 111.038L253.366 111.002L253.422 110.963L253.475 110.922L253.526 110.878L253.575 110.832L253.622 110.784L253.666 110.732L253.708 110.68L253.747 110.626L253.785 110.569L253.818 110.511L253.85 110.451L253.878 110.389L253.903 110.327L253.926 110.262L253.945 110.197L253.961 110.13L253.974 110.063L253.983 109.993L253.99 109.924L253.992 109.853L253.991 109.782L253.987 109.71L254.347 109.677L254.353 109.768L254.354 109.857L254.351 109.946L254.343 110.035L254.331 110.121L254.315 110.206L254.295 110.29L254.271 110.373L254.242 110.454L254.21 110.533L254.174 110.611L254.135 110.685L254.092 110.759L254.046 110.83L253.997 110.899L253.944 110.965L253.888 111.028L253.83 111.089L253.768 111.147L253.704 111.202L253.636 111.254L253.567 111.303L253.494 111.349L253.42 111.391L253.343 111.43L253.264 111.465L253.182 111.496L253.099 111.523L253.014 111.546L252.927 111.565L252.839 111.58L252.749 111.59ZM250.836 109.991L251.196 109.959L251.204 110.031L251.217 110.102L251.231 110.17L251.25 110.238L251.271 110.304L251.296 110.368L251.324 110.431L251.355 110.492L251.388 110.552L251.424 110.609L251.463 110.664L251.505 110.718L251.548 110.769L251.594 110.818L251.643 110.865L251.693 110.909L251.746 110.951L251.8 110.99L251.857 111.027L251.915 111.061L251.975 111.093L252.037 111.121L252.099 111.147L252.164 111.169L252.229 111.188L252.296 111.204L252.364 111.217L252.433 111.226L252.502 111.233L252.573 111.235L252.645 111.234L252.716 111.23L252.749 111.59L252.658 111.596L252.569 111.597L252.48 111.594L252.391 111.586L252.305 111.574L252.22 111.558L252.135 111.538L252.053 111.513L251.972 111.485L251.893 111.453L251.815 111.417L251.739 111.378L251.667 111.335L251.596 111.289L251.527 111.239L251.461 111.187L251.398 111.131L251.337 111.073L251.278 111.011L251.223 110.946L251.172 110.879L251.123 110.809L251.077 110.737L251.035 110.663L250.996 110.585L250.961 110.506L250.93 110.425L250.903 110.342L250.88 110.256L250.861 110.17L250.846 110.082L250.836 109.991ZM252.435 108.079L252.467 108.439L252.395 108.448L252.325 108.46L252.255 108.474L252.188 108.493L252.122 108.515L252.057 108.539L251.995 108.567L251.934 108.597L251.874 108.631L251.817 108.667L251.761 108.706L251.708 108.747L251.657 108.791L251.608 108.837L251.561 108.886L251.517 108.936L251.475 108.989L251.435 109.044L251.399 109.099L251.365 109.157L251.333 109.218L251.305 109.279L251.28 109.342L251.257 109.406L251.238 109.472L251.222 109.538L251.209 109.607L251.2 109.675L251.193 109.745L251.191 109.815L251.192 109.887L251.196 109.959L250.836 109.991L250.83 109.901L250.829 109.811L250.832 109.722L250.84 109.634L250.852 109.548L250.868 109.462L250.888 109.378L250.913 109.296L250.941 109.215L250.973 109.135L251.009 109.058L251.048 108.983L251.09 108.91L251.137 108.838L251.187 108.77L251.239 108.704L251.295 108.64L251.354 108.58L251.415 108.522L251.48 108.467L251.547 108.415L251.617 108.366L251.689 108.32L251.764 108.278L251.84 108.24L251.92 108.204L252.001 108.174L252.084 108.146L252.169 108.123L252.256 108.104L252.344 108.089L252.435 108.079ZM254.347 109.677L253.987 109.71L253.979 109.638L253.966 109.567L253.952 109.498L253.933 109.431L253.912 109.365L253.887 109.3L253.859 109.237L253.829 109.177L253.795 109.117L253.759 109.06L253.72 109.004L253.679 108.951L253.635 108.9L253.589 108.851L253.541 108.804L253.49 108.76L253.437 108.718L253.383 108.678L253.326 108.642L253.269 108.608L253.208 108.577L253.147 108.548L253.084 108.523L253.02 108.5L252.954 108.481L252.888 108.465L252.82 108.452L252.751 108.443L252.681 108.436L252.611 108.434L252.539 108.435L252.467 108.439L252.435 108.079L252.525 108.073L252.615 108.072L252.704 108.075L252.792 108.083L252.878 108.095L252.964 108.111L253.048 108.132L253.131 108.156L253.212 108.184L253.291 108.216L253.368 108.252L253.443 108.291L253.517 108.334L253.588 108.38L253.656 108.429L253.722 108.482L253.786 108.538L253.846 108.596L253.904 108.658L253.96 108.723L254.011 108.79L254.06 108.859L254.106 108.932L254.148 109.006L254.187 109.083L254.222 109.162L254.253 109.244L254.28 109.327L254.303 109.412L254.322 109.499L254.337 109.587L254.347 109.677Z" fill="#FEFEFE"/>
<path d="M220.058 107.933L218.707 92.8225C218.603 91.6556 219.465 90.6248 220.632 90.5204L223.066 90.3028L224.417 105.414L221.983 105.631C220.816 105.736 219.954 106.767 220.058 107.933Z" fill="#B2B3B3"/>
<path fill-rule="evenodd" clip-rule="evenodd" d="M225.648 119.183L223.214 119.4C222.046 119.505 221.016 118.643 220.911 117.476L220.058 107.933C219.954 106.766 220.815 105.736 221.983 105.631L224.417 105.414L225.648 119.183Z" fill="#58649B"/>
<path fill-rule="evenodd" clip-rule="evenodd" d="M240.432 26.5543L237.023 108.583C236.338 123.438 240.967 120.248 250.451 118.291L259.12 116.502C257.392 119.094 245.821 120.416 239.798 120.268C237.911 120.222 236.432 119.854 235.706 118.993C234.122 117.116 233.75 115.117 234.039 108.85L240.432 26.5543Z" fill="#AE4A84" stroke="#AE4A84" stroke-width="0.25" stroke-miterlimit="22.9256"/>
<path d="M38.7798 151.288C40.2938 150.145 42.4144 149.455 44.5807 149.398C44.0524 149.008 43.2235 148.937 42.4874 149.02C40.8195 149.207 39.3395 150.113 38.7798 151.288Z" fill="#16509D"/>
<path d="M39.3519 149.928C41.5886 148.68 44.4844 148.428 47.2742 149.236C46.6988 148.375 45.6552 147.914 44.6908 147.743C42.5055 147.356 40.3745 148.228 39.3519 149.928Z" fill="#16509D"/>
<path d="M40.3921 151.455C41.9311 150.433 44.0636 149.799 46.2248 149.72C45.7081 149.385 44.8834 149.335 44.1471 149.417C42.4792 149.604 40.9802 150.417 40.3921 151.455Z" fill="#16509D"/>
<path d="M21.2202 158.698C22.464 159.848 24.109 160.633 25.7198 160.847C25.3702 161.16 24.7636 161.162 24.2096 161.032C22.9539 160.737 21.7608 159.806 21.2202 158.698Z" fill="#16509D"/>
<path d="M20.9859 159.644C22.5387 160.553 24.3404 161.045 26.073 161.056L26.8201 161.986C26.5905 162.04 25.7312 161.768 25.4911 161.774C23.8202 161.821 22.0221 160.971 20.9859 159.644Z" fill="#16509D"/>
<path d="M21.7535 160.705C23.498 161.646 25.5884 161.97 27.4723 161.594C27.1695 162.126 26.4845 162.371 25.8197 162.43C24.3136 162.563 22.6906 161.875 21.7535 160.705Z" fill="#16509D"/>
<path d="M23.6631 159.205C24.9253 160.442 26.5967 161.356 28.2356 161.707C27.8785 161.984 27.2613 161.934 26.6976 161.758C25.4205 161.359 24.2093 160.34 23.6631 159.205Z" fill="#16509D"/>
<path d="M14.6019 159.31C16.8837 161.419 19.9011 162.859 22.8556 163.252C22.2143 163.827 21.1019 163.83 20.0854 163.592C17.7822 163.051 15.5935 161.343 14.6019 159.31Z" fill="#16509D"/>
<path d="M14.173 161.045C17.0213 162.712 20.3258 163.615 23.504 163.635L24.9902 165.132C24.5693 165.23 22.8768 164.94 22.4367 164.952C19.3719 165.038 16.0735 163.479 14.173 161.045Z" fill="#16509D"/>
<path d="M15.581 162.992C18.7809 164.717 22.6152 165.311 26.0709 164.622C25.5153 165.597 24.2589 166.047 23.0395 166.155C20.2769 166.4 17.2998 165.137 15.581 162.992Z" fill="#16509D"/>
<path d="M19.084 160.24C21.3989 162.509 24.4651 164.186 27.4712 164.829C26.8163 165.338 25.6839 165.245 24.65 164.922C22.3075 164.191 20.0857 162.322 19.084 160.24Z" fill="#16509D"/>
<path d="M18.5453 165.434C20.5264 166.502 24.6827 164.238 26.9062 164.696C28.1689 164.955 30.203 166.009 35.0536 165.224C34.4982 166.2 27.6024 168.043 26.3831 168.151C23.6204 168.396 20.2642 167.58 18.5453 165.434Z" fill="#16509D"/>
<path d="M32.1794 157.702C32.7507 157.673 33.3203 157.579 33.8769 157.426C32.8764 157.594 31.8321 157.484 30.9192 157.076C31.6957 157.068 32.4716 156.961 33.2253 156.763C32.2926 156.779 31.3456 156.496 30.6196 155.95C32.0239 156.292 33.5352 156.223 34.8874 155.774C34.2251 155.629 33.597 155.354 33.0843 154.963C33.9132 155.195 34.7834 155.301 35.6432 155.285C36.3228 153.86 37.7382 152.597 39.486 151.931C40.4679 151.557 46.5944 150.168 47.4728 150.545C43.4015 151.824 42.3377 153.177 41.4936 153.784C39.1192 155.493 39.372 154.784 36.7552 156.974C35.4762 158.044 33.6497 158.334 32.1794 157.702Z" fill="#16509D"/>
<path d="M34.4 157.702C35.6824 157.638 36.9955 155.336 38.2171 154.844C38.9111 154.565 40.215 154.475 42.3563 152.394C42.3713 153.133 39.5403 156.502 38.9758 156.975C37.6968 158.045 35.8705 158.336 34.4 157.702Z" fill="#16509D"/>
<path d="M43.1475 152.095C43.2342 155.1 46.1325 157.229 44.5194 158.878C41.643 161.82 29.3434 163.401 26.7957 160.16C27.1399 160.358 27.5056 160.518 27.8821 160.641C27.6569 160.515 27.4412 160.381 27.2357 160.239C26.7761 160.024 26.3633 159.71 26.0602 159.324C26.5785 159.621 27.1437 159.839 27.7219 159.97C27.0208 159.626 26.4142 159.052 26.0932 158.396C29.5953 161.597 34.3929 159.676 38.1364 156.922C39.129 156.191 39.6713 153.897 40.472 153.129C41.4332 152.207 42.6019 152.818 43.1475 152.095Z" fill="#16509D"/>
<path d="M32.0374 161.972C32.3507 161.839 32.6653 161.703 32.9826 161.564C36.0167 160.23 39.6838 158.139 41.982 155.092C42.0688 158.097 44.967 160.225 43.3541 161.876C41.9783 163.282 37.2771 164.762 34.8252 165.26C31.7636 165.883 25.7342 165.235 23.3647 162.276C24.4447 162.859 26.7155 161.385 27.928 161.634C28.5865 161.77 29.631 162.301 32.0374 161.972Z" fill="#16509D"/>
<path d="M29.8042 167.212C30.4999 166.965 31.217 166.666 31.9949 166.324C34.5093 165.219 38.9129 162.008 41.9139 159.102C38.8336 157.59 44.439 146.96 40.4723 149.374C42.7205 145.845 48.1112 142.997 54.2139 142.041L60.2016 135.922C60.4372 135.681 60.9372 135.504 61.2949 135.543C58.7576 133.977 57.6141 133.36 53.8621 133.092C62.8804 128.184 74.2983 126.897 84.3545 132.954C87.3603 134.764 89.8372 137.178 90.1576 138.732C90.7553 141.633 93.6751 142.977 88.475 139.88C73.079 130.711 59.5211 155.007 45.2286 166.023C40.4049 169.74 24.9835 174.593 18.9927 167.115C21.2758 168.346 25.6292 166.251 28.1921 166.778C28.6284 166.868 29.1446 167.04 29.8042 167.212Z" fill="#16509D"/>
<path d="M47.3695 140.163C48.3617 139.838 49.4135 139.623 50.4997 139.518C48.6496 139.889 46.9901 140.758 45.8366 142.045C47.1551 141.55 48.5685 141.223 50.0299 141.064C48.4391 141.648 47.1083 142.744 46.4023 144.143C48.4491 142.646 51.0675 141.774 53.7804 141.648C52.7992 142.326 52 143.202 51.5056 144.197C52.6857 143.263 54.0545 142.515 55.5226 141.98C57.3465 143.408 59.7477 144.436 62.3028 144.883L62.5922 133.397C62.1594 133.321 61.4528 133.142 60.5727 134.005C55.9519 138.535 56.8709 136.624 52.1243 137.624C50.2208 138.025 48.4645 138.98 47.3695 140.163Z" fill="#16509D"/>
<path d="M53.6249 133.322C54.4487 133.186 55.3069 133.134 56.1806 133.163C54.6712 133.249 53.258 133.706 52.1999 134.506C53.3013 134.281 54.4589 134.184 55.6365 134.21C54.3093 134.472 53.1316 135.12 52.4163 136.041C54.2066 135.178 56.3812 134.809 58.5478 134.978C57.694 135.363 56.9627 135.907 56.4602 136.563C57.5002 136.015 58.6694 135.616 59.8937 135.377C61.6641 137 64.3826 138.194 67.2308 138.521C68.8312 138.705 78.2792 138.638 79.3064 137.888C72.8252 137.476 70.553 136.061 69.0151 135.536C64.6878 134.06 65.4481 134.894 60.5054 132.874C58.0892 131.886 55.3431 132.065 53.6249 133.322Z" fill="#16509D"/>
<path d="M19.9595 164.297C19.9595 164.297 25.6295 167.639 30.4988 167.579C36.4489 167.505 41.2516 161.738 44.9633 157.614C57.4679 143.722 69.6592 126.219 89.4815 138.127" stroke="#FEFEFE" stroke-width="0.2" stroke-miterlimit="22.9256"/>
<path d="M19.9595 164.297C19.9595 164.297 25.6295 167.639 30.4988 167.579C36.4489 167.505 41.2516 161.738 44.9633 157.614C57.4679 143.722 69.6592 126.219 89.4815 138.127" stroke="#FEFEFE" stroke-width="0.2" stroke-miterlimit="22.9256"/>
<path d="M21.6262 166.037C21.6415 166.045 26.9575 168.925 31.6786 168.408C32.9176 168.273 34.6462 167.603 36.5319 166.617C38.5543 165.559 40.7533 164.137 42.7235 162.618C46.3488 159.824 49.7726 155.973 53.2592 152.05C62.8546 141.257 72.9295 129.923 89.2106 138.169L89.0545 138.62C73.0797 130.53 63.1117 141.743 53.6182 152.422C50.1198 156.358 46.6844 160.223 43.0278 163.041C41.0427 164.571 38.8238 166.005 36.7791 167.075C34.8523 168.083 33.0745 168.768 31.783 168.909C26.9194 169.442 21.4716 166.49 21.4563 166.482L21.6262 166.037Z" fill="#FEFEFE"/>
<path d="M25.5472 165.453C25.5472 165.453 30.9443 168.377 35.737 167.853C38.3527 167.567 43.05 164.977 46.8819 162.023C59.6601 152.174 69.8687 131.747 89.3583 138.763" stroke="#FEFEFE" stroke-width="0.2" stroke-miterlimit="22.9256"/>
<path d="M44.3297 161.647C57.3777 151.589 68.87 130.254 89.3381 138.583" stroke="#FEFEFE" stroke-width="0.2" stroke-miterlimit="22.9256"/>
<defs>
<linearGradient id="paint0_linear" x1="199.699" y1="168.225" x2="159.96" y2="37.9952" gradientUnits="userSpaceOnUse">
<stop stop-color="#16509D"/>
<stop offset="1" stop-color="#00A0E3"/>
</linearGradient>
<linearGradient id="paint1_linear" x1="227.053" y1="114.794" x2="255.793" y2="91.6402" gradientUnits="userSpaceOnUse">
<stop stop-color="#CFD0D0"/>
<stop offset="1" stop-color="white"/>
</linearGradient>
</defs>
</svg>
