<svg width="208" height="245" viewBox="0 0 208 245" fill="none" xmlns="http://www.w3.org/2000/svg">
<path d="M154.357 111.126C183.983 111.126 208 87.0913 208 57.4427C208 27.794 183.983 3.75903 154.357 3.75903C124.731 3.75903 100.714 27.794 100.714 57.4427C100.714 87.0913 124.731 111.126 154.357 111.126Z" fill="white"/>
<path fill-rule="evenodd" clip-rule="evenodd" d="M120.804 76.2428V76.7316H119.89C119.924 76.9928 120.001 77.184 120.124 77.3069C120.246 77.4298 120.394 77.4906 120.568 77.4906C120.747 77.4906 120.894 77.4372 121.01 77.3304C121.127 77.224 121.199 77.0707 121.225 76.8709L121.815 77.0531C121.747 77.3436 121.611 77.572 121.405 77.739C121.2 77.9058 120.933 77.9893 120.606 77.9893C120.269 77.9893 120.004 77.9099 119.81 77.7513C119.616 77.5917 119.477 77.4086 119.394 77.2004C119.31 76.9928 119.269 76.7587 119.269 76.4989C119.269 76.0432 119.389 75.6755 119.628 75.3961C119.868 75.1166 120.197 74.977 120.617 74.977C120.942 74.977 121.205 75.0537 121.409 75.2076C121.611 75.3609 121.744 75.569 121.807 75.8315L121.225 75.9645C121.182 75.8118 121.104 75.694 120.99 75.6105C120.877 75.527 120.747 75.4855 120.601 75.4855C120.392 75.4855 120.227 75.5574 120.106 75.7015C119.985 75.8452 119.913 76.0256 119.89 76.2428H120.804ZM122.517 75.0265H124.529V77.4506H124.785V78.5753H124.297V77.9398H122.464V78.5753H121.975V77.4506H122.222C122.342 77.2016 122.422 76.9129 122.46 76.5831C122.499 76.2541 122.517 75.8377 122.517 75.3343V75.0265ZM123.077 75.5157C123.077 76.3999 122.998 77.0456 122.837 77.4506H123.944V75.5157H123.077ZM125.182 77.9398V75.0265H125.77V76.1727H126.922V75.0265H127.509V77.9398H126.922V76.666H125.77V77.9398H125.182ZM128.099 77.9398V75.0265H128.687V77.9398H128.099ZM131.11 76.8688L131.679 77.0492C131.592 77.3671 131.447 77.6033 131.243 77.7578C131.041 77.912 130.782 77.9893 130.47 77.9893C130.084 77.9893 129.766 77.8568 129.517 77.5932C129.268 77.3287 129.143 76.9669 129.143 76.5091C129.143 76.0242 129.269 75.6478 129.519 75.3791C129.769 75.1112 130.098 74.977 130.506 74.977C130.862 74.977 131.151 75.082 131.374 75.2932C131.506 75.4172 131.605 75.5962 131.672 75.8294L131.09 75.9687C131.056 75.8175 130.984 75.6979 130.874 75.6105C130.765 75.5228 130.632 75.4796 130.476 75.4796C130.26 75.4796 130.085 75.5568 129.951 75.7122C129.816 75.8667 129.749 76.1178 129.749 76.465C129.749 76.8333 129.815 77.096 129.948 77.252C130.08 77.4086 130.252 77.4867 130.464 77.4867C130.62 77.4867 130.755 77.4372 130.867 77.3373C130.98 77.2383 131.06 77.0817 131.11 76.8688ZM132.738 77.9398V75.5195H131.874V75.0265H134.188V75.5195H133.326V77.9398H132.738ZM134.579 75.0265H135.166V76.1912H135.953C136.323 76.1912 136.592 76.278 136.758 76.4515C136.924 76.6251 137.007 76.8327 137.007 77.0755C137.007 77.2744 136.957 77.4432 136.856 77.5822C136.756 77.7214 136.641 77.8157 136.512 77.8652C136.383 77.9147 136.197 77.9398 135.953 77.9398H134.579V75.0265ZM135.166 77.4506H135.738C135.923 77.4506 136.052 77.4417 136.123 77.4241C136.195 77.4059 136.259 77.365 136.315 77.3021C136.371 77.2383 136.4 77.1604 136.4 77.0674C136.4 76.9338 136.352 76.8354 136.256 76.773C136.16 76.7107 135.996 76.68 135.764 76.68H135.166V77.4506ZM138.63 75.0265H139.217V77.4506H140.357V75.0265H140.945V77.4506H141.188V78.5753H140.699V77.9398H138.63V75.0265ZM141.598 75.0265H142.149V76.9657L143.328 75.0265H143.914V77.9398H143.364V76.0379L142.186 77.9398H141.598V75.0265ZM146.241 77.5998V77.9398H145.666V77.5998C145.201 77.5831 144.873 77.4676 144.682 77.2553C144.49 77.0423 144.395 76.7763 144.395 76.4569C144.395 76.1205 144.495 75.8506 144.694 75.6478C144.894 75.4444 145.218 75.3337 145.666 75.3167V75.0286H146.241V75.3167C146.703 75.3337 147.031 75.4477 147.223 75.6585C147.416 75.8688 147.512 76.136 147.512 76.459C147.512 76.7799 147.416 77.0456 147.225 77.2574C147.032 77.4682 146.705 77.5831 146.241 77.5998ZM146.241 77.1089C146.395 77.1089 146.527 77.0829 146.638 77.0316C146.748 76.98 146.827 76.9099 146.873 76.8231C146.919 76.7358 146.943 76.6075 146.943 76.4393C146.943 76.0182 146.709 75.807 146.241 75.807V77.1089ZM145.666 77.1089V75.807C145.418 75.807 145.239 75.8628 145.13 75.9735C145.02 76.0838 144.965 76.2514 144.965 76.4754C144.965 76.8977 145.198 77.1089 145.666 77.1089ZM147.985 77.9398V75.0265H148.928C149.285 75.0265 149.518 75.0414 149.627 75.0704C149.794 75.1139 149.934 75.2091 150.046 75.3555C150.159 75.5019 150.215 75.6913 150.215 75.9225C150.215 76.1014 150.182 76.252 150.117 76.3734C150.052 76.4957 149.97 76.5911 149.87 76.6612C149.77 76.7304 149.669 76.7763 149.566 76.7987C149.425 76.8267 149.222 76.8407 148.956 76.8407H148.573V77.9398H147.985ZM148.573 75.5195V76.3457H148.894C149.126 76.3457 149.281 76.3307 149.359 76.3003C149.437 76.2696 149.498 76.2222 149.543 76.1572C149.587 76.0922 149.609 76.0167 149.609 75.9305C149.609 75.8249 149.578 75.7372 149.515 75.6681C149.454 75.5995 149.374 75.5562 149.28 75.5392C149.209 75.5258 149.068 75.5195 148.857 75.5195H148.573ZM150.525 76.501C150.525 76.204 150.569 75.955 150.657 75.7536C150.724 75.6057 150.814 75.4721 150.929 75.354C151.043 75.2368 151.169 75.1491 151.305 75.0922C151.487 75.0149 151.695 74.977 151.932 74.977C152.361 74.977 152.705 75.1097 152.962 75.3764C153.219 75.6424 153.348 76.0125 153.348 76.4867C153.348 76.9576 153.22 77.3251 152.965 77.5911C152.709 77.8562 152.367 77.9893 151.941 77.9893C151.507 77.9893 151.163 77.8568 150.908 77.5932C150.652 77.3287 150.525 76.9642 150.525 76.501ZM151.13 76.4814C151.13 76.8109 151.207 77.0614 151.358 77.2314C151.511 77.4017 151.704 77.4867 151.939 77.4867C152.172 77.4867 152.365 77.4026 152.515 77.2329C152.665 77.0641 152.74 76.8109 152.74 76.4733C152.74 76.1396 152.667 75.8905 152.522 75.7256C152.375 75.5616 152.181 75.4796 151.939 75.4796C151.696 75.4796 151.501 75.5631 151.352 75.7292C151.205 75.8953 151.13 76.1455 151.13 76.4814ZM153.808 75.0265H154.972C155.203 75.0265 155.375 75.0358 155.488 75.0555C155.601 75.0746 155.702 75.1145 155.792 75.1757C155.881 75.2368 155.955 75.3173 156.015 75.4193C156.074 75.5201 156.104 75.6341 156.104 75.7596C156.104 75.8959 156.068 76.0215 155.994 76.1354C155.92 76.2493 155.821 76.3349 155.695 76.3919C155.872 76.4435 156.009 76.5315 156.104 76.6558C156.2 76.7805 156.247 76.9269 156.247 77.0951C156.247 77.2276 156.217 77.3564 156.155 77.482C156.093 77.6066 156.009 77.7071 155.903 77.7817C155.796 77.8562 155.665 77.9025 155.508 77.9201C155.411 77.9302 155.174 77.9371 154.8 77.9398H153.808V75.0265ZM154.397 75.5115V76.1849H154.782C155.011 76.1849 155.153 76.1816 155.209 76.1748C155.309 76.1631 155.388 76.1285 155.446 76.071C155.504 76.0134 155.532 75.9374 155.532 75.8431C155.532 75.7528 155.508 75.6797 155.458 75.6233C155.408 75.567 155.334 75.5332 155.237 75.5216C155.178 75.5148 155.011 75.5115 154.734 75.5115H154.397ZM154.397 76.6698V77.4486H154.941C155.152 77.4486 155.287 77.4432 155.344 77.431C155.431 77.4154 155.502 77.3761 155.557 77.3149C155.612 77.2532 155.64 77.1706 155.64 77.0674C155.64 76.98 155.618 76.9061 155.576 76.8449C155.534 76.7838 155.472 76.739 155.393 76.7113C155.312 76.6836 155.138 76.6698 154.871 76.6698H154.397ZM156.752 75.0265H157.302V76.9657L158.481 75.0265H159.067V77.9398H158.517V76.0379L157.339 77.9398H156.752V75.0265ZM159.371 77.9398L160.366 76.4196L159.465 75.0265H160.151L160.735 75.9624L161.307 75.0265H161.988L161.082 76.4414L162.077 77.9398H161.368L160.723 76.9323L160.076 77.9398H159.371ZM164.164 77.9398V75.5195H163.301V75.0265H165.614V75.5195H164.753V77.9398H164.164ZM165.994 77.9398V75.0265H168.152V75.5195H166.581V76.1652H168.042V76.6558H166.581V77.4486H168.207V77.9398H165.994ZM168.41 77.9398L169.405 76.4196L168.503 75.0265H169.19L169.774 75.9624L170.346 75.0265H171.027L170.121 76.4414L171.116 77.9398H170.407L169.762 76.9323L169.115 77.9398H168.41ZM171.42 77.9398V75.0265H172.008V76.1727H173.16V75.0265H173.747V77.9398H173.16V76.666H172.008V77.9398H171.42ZM174.236 76.501C174.236 76.204 174.28 75.955 174.369 75.7536C174.435 75.6057 174.525 75.4721 174.64 75.354C174.755 75.2368 174.88 75.1491 175.016 75.0922C175.198 75.0149 175.407 74.977 175.644 74.977C176.073 74.977 176.416 75.1097 176.673 75.3764C176.931 75.6424 177.06 76.0125 177.06 76.4867C177.06 76.9576 176.932 77.3251 176.676 77.5911C176.421 77.8562 176.079 77.9893 175.652 77.9893C175.219 77.9893 174.874 77.8568 174.619 77.5932C174.364 77.3287 174.236 76.9642 174.236 76.501ZM174.841 76.4814C174.841 76.8109 174.918 77.0614 175.07 77.2314C175.222 77.4017 175.415 77.4867 175.65 77.4867C175.884 77.4867 176.076 77.4026 176.227 77.2329C176.376 77.0641 176.452 76.8109 176.452 76.4733C176.452 76.1396 176.378 75.8905 176.233 75.7256C176.086 75.5616 175.892 75.4796 175.65 75.4796C175.407 75.4796 175.212 75.5631 175.064 75.7292C174.916 75.8953 174.841 76.1455 174.841 76.4814ZM177.626 75.0265H179.665V77.9398H179.077V75.5195H178.202V76.7635C178.202 77.1196 178.19 77.3686 178.166 77.5097C178.142 77.6508 178.084 77.7605 177.992 77.8392C177.9 77.918 177.757 77.9574 177.56 77.9574C177.492 77.9574 177.366 77.9511 177.185 77.9377V77.4825L177.316 77.4846C177.439 77.4846 177.522 77.4682 177.564 77.4351C177.607 77.4017 177.628 77.3203 177.628 77.1903L177.626 76.6895V75.0265ZM180.152 76.501C180.152 76.204 180.196 75.955 180.285 75.7536C180.351 75.6057 180.441 75.4721 180.556 75.354C180.67 75.2368 180.796 75.1491 180.932 75.0922C181.113 75.0149 181.322 74.977 181.559 74.977C181.989 74.977 182.331 75.1097 182.589 75.3764C182.847 75.6424 182.975 76.0125 182.975 76.4867C182.975 76.9576 182.847 77.3251 182.592 77.5911C182.336 77.8562 181.995 77.9893 181.568 77.9893C181.135 77.9893 180.79 77.8568 180.535 77.5932C180.279 77.3287 180.152 76.9642 180.152 76.501ZM180.757 76.4814C180.757 76.8109 180.833 77.0614 180.985 77.2314C181.138 77.4017 181.331 77.4867 181.565 77.4867C181.799 77.4867 181.992 77.4026 182.142 77.2329C182.292 77.0641 182.367 76.8109 182.367 76.4733C182.367 76.1396 182.294 75.8905 182.148 75.7256C182.002 75.5616 181.807 75.4796 181.565 75.4796C181.323 75.4796 181.128 75.5631 180.979 75.7292C180.831 75.8953 180.757 76.1455 180.757 76.4814ZM183.463 75.0265H185.436V75.5157H184.052V77.9398H183.463V75.0265ZM185.721 77.9398V75.0265H186.309V77.9398H185.721ZM186.877 75.0265H187.427V76.9657L188.606 75.0265H189.192V77.9398H188.642V76.0379L187.464 77.9398H186.877V75.0265ZM188.386 74.3015H188.658C188.642 74.4811 188.579 74.6227 188.469 74.7253C188.357 74.8285 188.214 74.8792 188.038 74.8792C187.862 74.8792 187.719 74.8285 187.609 74.7253C187.498 74.6227 187.435 74.4811 187.419 74.3015H187.691C187.7 74.3958 187.733 74.4661 187.79 74.5151C187.847 74.5631 187.93 74.5875 188.038 74.5875C188.147 74.5875 188.229 74.5631 188.286 74.5151C188.343 74.4661 188.377 74.3958 188.386 74.3015Z" fill="#16509D"/>
<path fill-rule="evenodd" clip-rule="evenodd" d="M135.669 69.5044C135.301 69.9697 135.37 70.142 136.325 70.1462L144.591 70.1707C146.632 70.1769 149.196 70.4325 151.063 69.6547C151.518 69.4656 151.945 69.2071 152.378 68.859L154.136 68.791C153.246 69.7269 152.436 70.3299 151.504 70.7177C150.278 71.2282 148.896 71.338 146.88 71.3261L135.849 71.2906C133.835 71.2846 133.556 70.4907 134.14 69.5635L135.669 69.5044Z" fill="#16509D"/>
<path fill-rule="evenodd" clip-rule="evenodd" d="M145.565 40.0979L146.73 37.0964C146.772 36.9634 147.093 35.9893 146.871 35.7922C146.752 35.6863 146.552 35.6243 146.313 35.5929C146.31 35.6192 146.303 35.6454 146.294 35.6711C145.796 36.9505 145.3 38.233 144.805 39.5112L144.582 40.0871C144.91 40.0886 145.237 40.0922 145.565 40.0979ZM140.217 66.5539C139.499 67.9386 140.593 68.5289 142.499 68.5414C144.956 68.5578 145.733 68.5736 147.984 68.5858C148.84 68.7645 149.708 68.9318 150.584 69.0863C151.945 69.3261 153.309 69.5274 154.681 69.6878L153.38 71.1653C153.368 71.1787 153.361 71.1969 153.361 71.2163C153.361 71.2593 153.396 71.2938 153.439 71.2938L165.701 71.3335C165.726 71.3356 165.751 71.3261 165.768 71.3055L166.677 70.1939C166.695 70.1719 166.7 70.1403 166.688 70.114C169.334 69.9888 171.787 69.7185 174.021 69.3219L172.669 71.0609C172.66 71.0737 172.654 71.0898 172.654 71.1071C172.653 71.1501 172.688 71.185 172.731 71.185L175.275 71.196C175.301 71.1978 175.326 71.1871 175.343 71.1653L177.34 68.5986C186.538 66.1781 190.712 61.2384 186.931 55.4149C185.427 53.0997 182.869 50.8811 179.563 48.8858L179.451 48.6377L189.325 43.8283C189.507 43.7379 189.475 43.4847 189.272 43.4847H185.896H184.665L178.482 46.4924L177.122 43.4847C175.987 43.4847 174.504 43.4847 173.368 43.4847L174.648 46.3278C170.014 44.2398 164.528 42.544 158.693 41.4501L160.188 37.0707C160.491 36.1829 160.476 35.5217 160.1 35.0317C159.413 34.136 157.027 34.2076 156.045 34.5625C152.933 35.686 150.388 38.2124 147.787 40.1694C147.521 40.1569 147.255 40.1456 146.988 40.136C147.528 38.9792 148.219 37.6869 148.474 36.5771C148.637 35.8658 148.685 35.0078 148.08 34.4701C147.187 33.6767 145.039 33.8691 143.461 34.499C140.87 35.5336 137.531 39.0063 135.521 40.6243C122.844 42.2977 116.59 47.7155 120.856 54.5622C122.449 57.1203 125.347 59.5894 129.132 61.7806C131.646 63.2357 134.292 64.4203 137.006 65.4421C138.043 65.8313 139.114 66.2026 140.217 66.5539ZM155.848 40.969C156.047 40.3869 156.237 39.8265 156.428 39.2646C156.802 38.165 157.177 37.0621 157.553 35.9607L157.29 35.6902C155.88 35.896 154.943 36.6562 153.642 37.564C152.342 38.4707 151.058 39.3678 149.789 40.2899C151.826 40.4391 153.852 40.6681 155.848 40.969ZM158.35 35.6413C157.913 36.9183 157.478 38.1981 157.044 39.4736L156.501 41.0701C156.8 41.1178 157.099 41.1671 157.396 41.2178L158.955 36.6526C159.109 36.2028 159.148 35.93 159.065 35.822C158.974 35.7027 158.677 35.6565 158.35 35.6413ZM145.134 35.6105C143.778 35.7638 142.834 36.4071 141.781 37.2559L141.673 37.3433L137.926 40.3591C139.906 40.1817 141.896 40.0955 143.885 40.0868L144.198 39.2768C144.615 38.1999 145.033 37.1196 145.452 36.0409L145.134 35.6105Z" fill="#16509D"/>
<path fill-rule="evenodd" clip-rule="evenodd" d="M183.606 51.7664H119.717C119.755 51.9247 119.797 52.0843 119.847 52.2447H184.15C183.974 52.0846 183.792 51.925 183.606 51.7664Z" fill="#FEFEFE"/>
<path fill-rule="evenodd" clip-rule="evenodd" d="M173.732 43.489H176.11L177.499 46.566L183.821 43.489H187.459L178.147 48.0026L179.907 51.9018H177.528L176.196 48.9489L176.184 48.9546L169.957 51.9018H166.536L175.549 47.5153L173.732 43.489Z" fill="#FEFEFE"/>
<path fill-rule="evenodd" clip-rule="evenodd" d="M153.227 70.4529L160.99 61.7141L161.416 61.7153H172.546L172.52 61.7436H172.521L172.447 61.8227L171.394 62.9584H162.082L160.169 65.137L167.718 65.1633H168.859L168.856 65.1671H168.859L168.557 65.5059L167.761 66.4063H159.04L156.567 69.2426H166.259L165.135 70.4925L153.227 70.4529Z" fill="#FEFEFE"/>
<path fill-rule="evenodd" clip-rule="evenodd" d="M172.512 70.3883L178.429 62.8861H173.158L174.216 61.6743L186.865 61.7044L185.822 62.904L180.544 62.8861L174.617 70.3993L172.512 70.3883Z" fill="#FEFEFE"/>
<path d="M149.644 53.419C149.183 53.4023 148.738 53.3874 148.353 53.4249C146.887 53.5678 145.936 54.9263 145.072 55.951C141.972 59.7303 138.788 63.7086 135.635 67.4423C134.063 69.1795 134.77 69.2773 136.628 69.2827L143.509 69.3033C145.55 69.3092 148.475 69.5648 150.343 68.7873C151.386 68.3531 152.285 67.5535 153.446 66.1473L162.33 55.385C163.298 54.2111 164.005 53.569 161.97 53.6567L160.56 53.6522C159.568 53.7441 158.903 54.1186 157.823 55.3432L157.768 55.4056L157.768 55.4061C155.5 58.1163 152.927 61.0602 150.756 63.8493C150.627 65.9678 149.626 67.2723 147.557 67.5911C146.937 67.6865 146.353 67.6567 145.886 67.5091C145.82 67.4882 145.758 67.4643 145.699 67.4381C145.139 67.1202 144.816 66.4924 144.632 65.8684C144.619 65.827 144.608 65.7855 144.597 65.7444C144.478 65.0972 144.477 64.3933 144.422 63.8303L142.63 66.1014H144.044C144.189 66.5735 144.402 67.0441 144.715 67.4264L141.798 67.427C139.334 67.4282 140.49 66.3086 141.547 65.0128L145.25 60.47L145.505 64.3235C145.585 65.5389 145.617 66.9281 147.346 66.8944C148.233 66.8771 148.78 66.6635 149.312 66.1711C150.188 65.359 150.177 64.1094 150.196 62.9752C150.243 60.0808 150.337 57.1855 150.379 54.2913C150.386 53.7712 150.279 53.4452 149.644 53.419ZM134.04 67.481C137.341 63.5404 140.583 59.5416 143.872 55.5917C144.866 54.3802 146.317 52.64 147.981 52.3942C148.222 52.3584 148.452 52.3599 148.696 52.3563C149.442 52.3447 150.441 52.3364 150.985 52.5153C151.398 52.6516 151.63 52.9132 151.76 53.2532C151.884 53.5797 151.914 53.997 151.911 54.3414C151.909 54.4855 151.908 54.5747 151.906 54.677C151.871 56.6755 151.867 58.6787 151.853 60.6793L154.089 58.0098C154.82 57.1365 155.552 56.1938 156.318 55.2851C157.367 54.039 158.1 53.1687 159.122 52.742C159.521 52.5758 160.285 52.5043 160.717 52.5043L161.97 52.504C164.032 52.504 164.782 52.8795 164.782 53.6901L164.779 53.6898C164.78 54.5556 163.779 55.439 163.217 56.1189L154.332 66.8816C153.048 68.4369 152.023 69.334 150.784 69.8499C149.558 70.3605 147.815 70.4706 145.799 70.4584L135.671 70.4232C133.157 70.4118 132.988 68.7694 134.04 67.481Z" fill="#FEFEFE"/>
<path d="M146.15 36.0309C146.379 35.3151 146.553 34.5489 145.495 34.4645C143.741 34.3247 142.39 35.2352 141.095 36.2778C136.835 39.7067 132.573 43.3089 128.39 46.829C127.446 47.6238 126.45 48.4019 125.63 49.308C125.144 49.8451 125.352 50.2322 125.976 50.2322H127.669C128.015 50.2322 128.304 50.2337 128.639 50.1362C129.075 50.0091 129.436 49.8072 129.842 49.512C130.114 49.3139 130.381 49.0971 130.647 48.8809C134.043 46.1177 137.353 43.073 140.781 40.3464L139.238 44.4771L137.58 48.8675C137.207 49.8684 137.552 50.0536 138.473 50.0518L148.43 50.0309C149.324 50.0309 150.177 50.0199 150.92 49.9313C152.692 49.7198 153.797 48.9826 154.36 47.3321L158.371 35.5871C158.676 34.6912 158.029 34.4666 157.317 34.48C155.842 34.5078 154.606 35.4073 153.424 36.1937C151.756 37.3047 150.142 38.5194 148.539 39.727C146.983 40.8988 145.382 42.0193 143.805 43.1615C143.367 43.4786 142.856 43.8487 142.467 44.2394C142.143 44.5645 141.9 44.9158 141.875 45.277C141.838 45.8007 142.341 46.2546 142.757 46.4893C142.933 46.5883 143.107 46.6542 143.278 46.6921C144.666 47.0005 145.915 45.7264 146.912 44.9727C148.866 43.495 150.875 42.0294 152.826 40.577L153.046 40.6017L151.118 45.7866C150.96 46.2104 150.821 46.6584 150.638 47.0709C150.508 47.3637 150.319 47.6029 149.923 47.6029C148.704 47.6029 147.486 47.6029 146.268 47.6029C146.752 47.2406 147.237 46.8779 147.722 46.5155C148.221 46.5155 148.72 46.5155 149.219 46.5155L150.412 43.3709L147.2 45.8388C146.014 46.75 144.725 47.9015 143.091 47.5382C142.835 47.4812 142.581 47.3867 142.333 47.2471C141.759 46.9241 141.135 46.3163 140.989 45.6623C140.824 44.9277 141.242 44.2412 141.852 43.628C141.87 43.6098 141.888 43.5919 141.906 43.574L144.901 35.8024C144.961 35.6459 145.136 35.5728 145.292 35.633C145.449 35.6936 145.527 35.8645 145.467 36.0208L142.869 42.7702C143.185 42.5346 143.505 42.3068 143.821 42.0727L146.15 36.0309ZM146.004 40.0008C146.624 39.5424 147.191 39.115 147.759 38.687C149.216 37.5901 150.677 36.4836 152.187 35.4529C153.775 34.3688 155.324 33.3163 157.301 33.2239C158.202 33.1815 159.054 33.3649 159.515 33.9668C159.891 34.4571 159.906 35.1177 159.603 36.0052L155.593 47.7503C155.377 48.3816 155.12 48.9265 154.76 49.4136C153.851 50.6408 152.52 51.2066 151.038 51.3834C149.472 51.5701 147.817 51.4926 146.239 51.4824C143.889 51.4672 141.534 51.4419 139.192 51.5003C138.465 51.5185 137.726 51.537 137.134 51.3166C136.19 50.9647 135.717 50.2137 136.328 48.5713L137.901 44.3435C135.759 46.1347 133.632 48.1293 131.467 49.8901C130.137 50.9722 129.433 51.6903 127.257 51.6903H125.498C124.793 51.6903 124.153 51.4663 123.904 50.6617C123.466 49.2444 125.051 48.0983 125.925 47.3277L131.504 42.4118C133.629 40.5394 135.812 38.7413 138.026 36.9367C139.096 36.0643 140.166 35.0983 141.339 34.3551C143.06 33.265 145.618 32.3906 147.152 33.7535C147.611 34.1615 147.698 34.7517 147.636 35.3387C147.47 36.9196 146.555 38.5817 146.004 40.0008Z" fill="#FEFEFE"/>
<path fill-rule="evenodd" clip-rule="evenodd" d="M167.062 51.8615H164.793L165.228 49.4861L159.06 49.4655L155.275 51.9018H152.986L166.368 43.2642H168.637L167.062 51.8615ZM165.445 48.3059L166.057 44.9626L160.895 48.2847L165.445 48.3059Z" fill="#FEFEFE"/>
<path fill-rule="evenodd" clip-rule="evenodd" d="M135.934 69.1316C135.889 69.1844 135.837 69.2286 135.781 69.2638C135.322 69.5525 134.728 69.1943 134.752 68.6631C134.759 68.5217 134.809 68.3816 134.906 68.2647L134.906 68.2641C137.346 65.3201 139.804 62.3434 142.273 59.3541H144.018C141.312 62.6318 138.616 65.8969 135.942 69.1227L135.942 69.1221L135.935 69.1308L135.934 69.1316Z" fill="#16509D"/>
<path fill-rule="evenodd" clip-rule="evenodd" d="M185.647 47.4194C185.006 47.4194 184.484 47.9417 184.484 48.5832C184.484 49.225 185.006 49.7469 185.647 49.7469C186.288 49.7469 186.809 49.225 186.809 48.5832C186.809 47.9417 186.288 47.4194 185.647 47.4194ZM185.647 49.4266C185.182 49.4266 184.804 49.0484 184.804 48.5832C184.804 48.1182 185.182 47.7397 185.647 47.7397C186.112 47.7397 186.489 48.1182 186.489 48.5832C186.489 49.0484 186.112 49.4266 185.647 49.4266ZM186.069 48.432C186.069 48.1969 185.905 48.0511 185.639 48.0511H185.247V49.1155H185.472V48.8188H185.639C185.649 48.8188 185.66 48.8185 185.67 48.8182L185.887 49.1155H186.167L185.902 48.7532C186.01 48.6858 186.069 48.5718 186.069 48.432ZM185.639 48.5933H185.472V48.2763H185.639C185.844 48.2763 185.844 48.3935 185.844 48.432C185.844 48.4719 185.844 48.5933 185.639 48.5933Z" fill="#16509D"/>
<path d="M148.325 65.859C148.245 65.9458 148.115 65.9762 147.997 65.9458C147.932 65.9291 147.895 65.9019 147.843 65.8667C148.741 64.9293 148.773 64.8336 148.775 63.5995C148.775 63.4808 148.775 63.3528 148.776 63.2353L148.803 55.4945H149.44L149.396 62.8861C149.396 63.0308 149.395 63.1438 149.395 63.2482C149.393 64.6845 149.393 64.7089 148.325 65.859Z" fill="#FEFEFE"/>
<path d="M153.667 47.3986C153.612 47.5566 153.439 47.6401 153.281 47.585C153.192 47.5539 153.127 47.4856 153.097 47.4039C153.073 47.3401 153.071 47.2679 153.095 47.1987L156.978 35.9998C157.033 35.8417 157.206 35.7582 157.364 35.8134C157.522 35.8686 157.605 36.0415 157.55 36.1996L153.667 47.3986Z" fill="#FEFEFE"/>
<path d="M145.799 44.643C146.043 44.4551 146.29 44.2643 146.537 44.0907L146.765 44.4161C146.517 44.5906 146.278 44.7758 146.042 44.9574C144.833 45.8897 143.719 46.7495 142.678 45.5813C143.752 45.9323 144.416 45.7104 145.799 44.643Z" fill="#FEFEFE"/>
<path d="M146.917 68.7063C149.264 68.6311 151.119 67.2359 152.561 65.5184C155.166 62.4161 159.453 57.0197 160.662 55.4945H161.261C160.526 56.4229 155.742 62.4599 152.92 65.8208C151.292 67.7597 149.472 69.0287 146.844 69.1134L146.917 68.7063Z" fill="#FEFEFE"/>
<path d="M131.277 46.3886C131.151 46.4981 130.959 46.4837 130.85 46.357C130.788 46.2857 130.766 46.1936 130.781 46.1077C130.792 46.0406 130.826 45.977 130.881 45.929L140.63 38.1938C140.757 38.0844 140.949 38.0987 141.058 38.2255C141.167 38.3522 140.627 38.7859 140.5 38.8953L131.277 46.3886Z" fill="#FEFEFE"/>
<path fill-rule="evenodd" clip-rule="evenodd" d="M78.9272 15.1724C79.528 15.0722 80.0736 15.0385 80.5946 15.0597C82.2086 13.5625 84.3239 12.7095 86.3766 11.8828L86.3912 11.8768C89.6217 10.5768 92.6704 9.34925 93.5537 5.82792L93.6899 5.28602L93.9739 5.77304C93.9757 5.77633 94.7479 7.02088 93.7847 8.54817C92.0908 11.2347 89.743 12.1801 86.9119 13.3206L86.8672 13.3385C85.3831 13.9362 83.8647 14.5482 82.5817 15.3985C83.328 15.6108 84.1073 15.9079 85.0153 16.2532C85.6584 16.4978 86.3308 16.6887 87.0245 16.8321L91.6128 14.6928L91.6432 14.7725C91.9966 15.6901 91.7621 16.519 91.2131 17.1751C95.0864 17.0868 99.1469 16.0379 102.351 14.8649C107.286 13.0594 111.535 10.3585 116.351 8.42768C120.939 6.58814 125.614 6.20102 128.483 7.55145C131.789 9.10708 133.629 12.3904 133.873 16.1169C134.595 27.145 126.509 31.3869 117.942 32.629C115.031 33.0513 111.451 33.1808 107.647 33.0847L107.649 33.085C100.713 32.9783 93.0382 32.19 87.3219 31.0704C85.682 31.859 84.2283 32.4065 83.2478 32.5735C81.5119 32.8697 79.5324 32.3391 77.7512 31.3436L77.8224 30.9953L77.7146 30.9294C74.0827 51.2738 70.252 73.6726 69.3582 95.7275C75.7763 102.483 82.0364 110.606 87.5964 119.698C88.4616 121.113 89.2939 122.526 90.0941 123.935L126.403 105.875L126.397 105.837C127.697 104.869 128.66 100.417 127.929 98.8889L126.569 96.0463C126.486 95.8725 126.532 95.6664 126.682 95.5369C126.733 95.491 127.948 94.4719 129.315 94.7448C130.179 94.9166 130.874 95.545 131.385 96.6127L132.6 99.154L136.299 97.5528C136.847 97.3151 137.48 97.2712 138.082 97.4352C138.965 97.6753 139.672 98.3631 139.926 99.2232L141.652 105.22C142.141 106.705 141.494 107.955 139.879 108.654L127.603 113.19L127.622 113.37C127.643 113.641 127.607 113.908 127.52 114.154C127.159 115.167 126.043 115.589 125.073 115.189C124.781 115.068 124.513 114.879 124.298 114.632C123.984 114.864 123.664 115.093 123.336 115.32C122.17 116.126 120.911 116.898 119.571 117.623L119.532 117.469L94.9183 133.193C96.0132 135.5 97.0164 137.782 97.925 140.029L98.5464 139.842C110.028 136.394 112.576 133.42 121.399 141.846L168.99 177.495C169.44 177.802 169.89 178.101 170.339 178.392C173.316 180.319 176.267 181.888 179.087 183.065L179.187 183.02L179.358 183.08L183.368 184.463L182.961 184.956C181.925 186.211 180.771 187.341 179.531 188.364C178.293 189.386 176.967 190.305 175.586 191.141L175.331 191.295L169.797 187.232L170.329 186.993C169.711 186.969 169.092 186.737 168.597 186.296C168.582 186.276 168.544 186.244 168.523 186.225C168.029 185.751 167.762 185.139 167.729 184.525C167.71 184.167 167.77 183.807 167.911 183.472L114.489 159.275C121.339 178.004 127.898 202.054 134.468 222.547C134.919 223.507 135.382 224.446 135.855 225.364C137.855 229.24 140.047 232.719 142.339 235.7L142.473 235.713L142.619 235.881L146.054 239.809L145.318 240.086C143.446 240.792 141.525 241.292 139.576 241.626C137.632 241.96 135.655 242.13 133.671 242.178L133.305 242.187L129.88 234.466L130.593 234.537C129.949 234.133 129.429 233.507 129.17 232.734C129.167 232.703 129.145 232.646 129.135 232.613C128.896 231.805 128.985 230.989 129.325 230.313C129.55 229.868 129.883 229.483 130.303 229.199C129.959 228.617 129.619 228.025 129.285 227.42C129.028 226.955 128.773 226.483 128.522 226.004L102.783 179.105C102.428 183.098 99.0587 200.123 67.4852 202.854C64.3242 206.658 61.8015 210.907 61.8936 215.695C62.0363 222.959 67.2388 231.209 72.5309 239.296C78.5207 240.156 82.8696 241.724 82.8696 244H37.9708C37.9708 241.709 42.3647 240.135 48.4033 239.279C53.9887 231.14 58.7525 222.748 58.7176 215.299C58.6959 210.653 56.3702 206.604 53.3924 202.949C40.514 201.557 28.2325 194.904 18.8004 183.774L16.7626 188.81C16.5948 189.223 16.424 189.63 16.2509 190.032C16.0259 190.555 15.7964 191.068 15.5624 191.572C15.8903 191.801 16.157 192.12 16.345 192.492C16.6293 193.057 16.731 193.748 16.5867 194.442C16.5802 194.47 16.5668 194.519 16.5653 194.546C16.4037 195.209 16.0405 195.756 15.5735 196.117L16.1063 196.037L13.8656 202.691L13.5902 202.693C12.098 202.706 10.6065 202.614 9.13159 202.383C7.65404 202.151 6.1893 201.778 4.75317 201.229L4.18873 201.012L6.60026 197.582L6.70278 197.435L6.80261 197.421C8.3958 194.825 9.89243 191.81 11.2284 188.461C11.5446 187.669 11.8519 186.857 12.1493 186.028C12.7942 183.233 13.4513 180.389 14.1192 177.518C10.414 171.905 7.345 165.441 5.10989 158.193L5.08247 158.103C4.96654 157.726 4.85181 157.348 4.74065 156.967C3.10187 151.417 1.95302 145.383 1.3865 138.881C-2.16703 98.1078 19.7847 81.4484 26.2421 77.4656C27.0315 76.8378 27.8341 76.3314 28.6456 75.97C32.8759 74.0854 38.2437 74.5658 44.1867 76.992L52.6131 75.9094L52.7713 75.5846L43.5436 75.8036C42.3513 75.8241 41.9108 74.8047 43.0993 74.7797C46.6635 74.7066 50.1253 74.4794 53.4806 74.111L53.5664 73.9312C50.4111 74.0472 47.2438 74.1403 44.0628 74.2062C42.7995 74.2324 42.4255 73.227 43.6005 73.1406C47.2453 72.8739 50.8787 72.5882 54.4021 72.1704L54.4963 71.97L53.7023 72.0055C50.8176 72.1343 48.0237 72.2754 44.9789 71.8155C43.8214 71.6404 43.6104 70.7591 44.7604 70.7251C48.0344 70.6276 51.309 70.5071 54.3925 70.151C51.2097 70.2491 48.0249 70.3437 44.8346 70.4254C43.5067 70.4594 43.0975 69.3869 44.3465 69.2998C46.2639 69.1671 48.1736 69.0218 50.0624 68.8498L46.2886 68.8226C45.09 68.8128 44.365 67.8417 45.5114 67.6595C46.9019 67.4391 48.2925 67.2169 49.6839 66.9974C49.0438 66.9649 48.4034 66.9309 47.759 66.8909C46.5941 66.8176 46.4123 65.7943 47.5412 65.8026C48.7064 65.8113 49.8723 65.8351 51.0402 65.8683C49.8079 65.692 48.5658 65.4752 47.3111 65.2223C46.5884 65.0767 46.3837 64.4331 47.0566 64.4251C48.1125 64.4116 49.1713 64.403 50.2293 64.3917C49.3102 64.3216 48.3899 64.2518 47.4715 64.1799C46.6916 64.12 46.2931 63.3955 47.0426 63.3765C49.5969 63.3099 52.1503 63.244 54.704 63.1775C52.0674 62.9786 49.4309 62.7803 46.795 62.5816C45.9122 62.5148 45.4479 61.6798 46.3068 61.666C49.925 61.6082 53.542 61.5497 57.1596 61.4931C53.3903 61.1632 49.6204 60.8357 45.85 60.5059C44.7402 60.4018 44.4275 59.4179 45.5344 59.5172C49.5725 59.8835 53.4905 60.0227 57.2812 59.9574C53.6958 59.7024 50.0973 59.4152 46.4835 59.0886C45.3073 58.9828 45.0549 58.0186 46.1545 58.0603C50.3291 58.2202 54.49 58.3517 58.4899 58.2458C57.542 58.1832 56.5949 58.1206 55.646 58.0573C52.954 57.8787 50.3452 57.7197 47.5603 56.9825C46.5014 56.7021 46.3888 55.8694 47.461 55.9568C50.5112 56.2047 53.5641 56.4313 56.4626 56.4218C53.497 56.1838 50.5294 55.9425 47.5579 55.6881C46.3211 55.5828 46.0425 54.5536 47.2107 54.6019C49.005 54.6777 50.7922 54.7412 52.563 54.7773L49.0602 54.3627C47.9477 54.2309 47.366 53.2616 48.4481 53.2121L50.1253 53.1358C49.8812 52.9073 49.8824 52.6285 50.1741 52.5968C49.627 52.3168 49.6169 51.7856 50.1885 51.7105C50.2528 51.6747 50.3518 51.6616 50.4897 51.6821L51.593 51.8456C53.3799 52.0719 55.1653 52.3314 56.9596 52.6004L50.3825 50.9458C49.6058 50.7504 49.3114 49.9458 50.0779 50.0669C53.3075 50.5774 56.5362 51.0871 59.7654 51.5992C56.456 50.7248 53.1463 49.8524 49.8362 48.9777C48.8632 48.714 48.7246 47.8023 49.6958 48.0615C53.2392 49.009 56.7081 49.7397 60.0924 50.2703C56.9361 49.4901 53.773 48.6797 50.6018 47.8324C49.5701 47.5569 49.4822 46.6717 50.4552 46.8793C54.1494 47.6666 57.8355 48.428 61.4117 48.9559C60.5766 48.7537 59.7422 48.5518 58.9066 48.3493C56.5353 47.7746 54.2346 47.2306 51.8603 46.1516C50.9573 45.7409 50.9755 44.9929 51.9175 45.236C54.5982 45.9264 57.2842 46.5992 59.8662 47.0406C57.2594 46.372 54.6518 45.6994 52.0421 45.0153C50.9558 44.7307 50.8542 43.7841 51.8877 44.0081C53.4741 44.3529 55.0565 44.6857 56.628 44.9926L53.5679 44.085C52.5964 43.7966 52.2164 42.8557 53.1868 42.9804L55.1292 43.23C54.2441 42.9338 53.3561 42.6129 52.4647 42.2697C51.8418 42.0299 51.7509 41.4334 52.3511 41.5306C53.1775 41.6639 54.0054 41.8008 54.833 41.9365C54.8658 41.9326 54.901 41.9312 54.9388 41.9323C54.2111 41.7483 53.4824 41.5646 52.7556 41.3797C52.0698 41.2061 51.8183 40.5082 52.4879 40.6079C54.7713 40.9458 57.0544 41.2846 59.3378 41.6225C57.0186 41.0385 54.6992 40.4558 52.3806 39.8721C51.604 39.6765 51.3096 38.8718 52.0761 38.9932C55.2681 39.4975 58.4596 40.0015 61.6519 40.5076L61.6715 40.5011L51.8344 37.904C50.8614 37.6404 50.7228 36.7286 51.694 36.9875C55.2374 37.935 58.706 38.666 62.0906 39.1963C58.9343 38.4164 55.7712 37.6058 52.6 36.7588C51.5683 36.4832 51.4803 35.598 52.4534 35.8053C56.1473 36.5929 59.8337 37.3543 63.4099 37.8816C62.5748 37.68 61.7404 37.4781 60.9048 37.2753C58.5335 36.7009 56.2328 36.1569 53.8585 35.0776C52.9555 34.6672 52.9734 33.9186 53.9154 34.1617C56.5958 34.8524 59.2824 35.5255 61.8644 35.9666C59.2576 35.298 56.6497 34.6254 54.0403 33.9416C52.954 33.6568 52.8521 32.7101 53.8856 32.9341C55.472 33.2789 57.0544 33.6117 58.6258 33.9186L55.5658 33.0111C54.5943 32.7224 54.214 31.7817 55.1847 31.9064C56.3618 32.0579 57.5393 32.2085 58.717 32.3606C58.2042 32.1846 57.6907 32.0072 57.176 31.8244C56.9465 31.7424 56.7782 31.629 56.6682 31.5085C56.0561 31.2658 55.9699 30.6776 56.5663 30.774C57.5083 30.9261 58.4524 31.0826 59.3959 31.2368C58.5874 31.0328 57.778 30.8288 56.9704 30.6234C56.2846 30.4495 56.0331 29.7522 56.7031 29.8518C58.9864 30.1897 61.2692 30.5279 63.5526 30.8658C61.2335 30.2822 58.9143 29.6991 56.5958 29.1158C55.8191 28.9201 55.5247 28.1155 56.2912 28.2365C59.5208 28.7471 62.7495 29.2568 65.9787 29.7689C62.6693 28.8945 59.3596 28.0221 56.0495 27.1474C55.0765 26.884 54.9379 25.972 55.9091 26.2312C59.4522 27.179 62.9211 27.9094 66.3054 28.4399C63.1491 27.6597 59.986 26.8494 56.8148 26.0021C55.7831 25.7265 55.6955 24.8417 56.6685 25.0492C60.3624 25.8366 64.0488 26.598 67.625 27.1256C66.7899 26.9234 65.9555 26.7215 65.1196 26.519C62.7486 25.9446 60.4479 25.4003 58.0733 24.3212C57.1703 23.9106 57.1888 23.1626 58.1308 23.4056C60.7671 24.0847 63.4093 24.7471 65.9522 25.1885L65.9463 25.1763C63.3839 24.5187 60.8204 23.8575 58.2554 23.1849C57.1691 22.9004 57.0675 21.9541 58.1007 22.1778C59.6874 22.5228 61.2698 22.8557 62.8413 23.1623L59.7812 22.2547C58.8094 21.9663 58.4294 21.0257 59.4001 21.1503C60.5772 21.3015 61.7544 21.4522 62.9324 21.6046C62.4193 21.4286 61.9061 21.2511 61.3914 21.0683C60.4607 20.737 60.5331 19.8825 61.4486 20.1539C63.1729 20.6657 64.8862 21.2168 66.607 21.7829C67.0179 21.3961 67.0966 21.184 68.0207 20.9967C67.1783 20.2234 66.3936 19.3403 65.7219 18.3528C62.4455 13.5374 61.4969 8.37102 63.1068 6.76827L72.994 19.8804C73.2002 19.3821 73.4574 18.9076 73.7599 18.4641C73.7843 17.5014 73.9015 16.6162 74.0946 15.802C73.5036 14.9025 72.9875 13.9222 72.589 12.8756C70.5163 7.43156 70.7893 2.18581 72.7267 1L76.9564 10.6678C77.2318 10.3919 77.517 10.1324 77.8102 9.88936C80.1848 7.92038 83.0416 7.00448 84.7513 6.45691L85.1479 6.32807C86.2405 5.97257 87.535 5.55026 88.6717 5.07755C89.7773 4.61736 90.7151 4.11721 91.1175 3.60334C91.164 3.54369 91.2009 3.46854 91.2221 3.39815L91.2438 3.33373C91.2265 3.28572 91.1312 3.1017 90.9643 2.94841C90.8743 2.86579 90.7637 2.7963 90.6386 2.77662L89.4629 2.58992L90.5816 2.23293C90.5852 2.23173 91.8437 1.8479 92.3584 2.93767C92.5041 3.24635 92.5351 3.54966 92.4898 3.83269C92.4392 4.1524 92.2904 4.44051 92.1051 4.67701C91.0564 6.01939 88.1433 6.96869 85.5711 7.80645C85.4653 7.85745 85.2487 7.88787 85.1602 7.94066C83.1477 8.58516 79.86 9.64033 77.5855 12.1056L78.1732 13.4495C78.8267 12.7048 79.6245 12.0943 80.5052 11.5768C82.1445 10.6129 84.0709 9.97019 85.8757 9.36923C87.7696 8.73786 89.5147 8.06801 90.7432 7.11453C91.9266 6.19595 92.626 5.00567 92.4973 3.31047L92.4564 2.76767L92.8543 3.07218C92.8585 3.07546 94.4961 4.30779 93.1329 6.7471C92.539 7.81003 91.5639 8.59231 90.3602 9.23264C89.1783 9.86193 87.7755 10.3549 86.2989 10.8476C84.5179 11.4402 82.7084 12.0433 81.2118 12.9049C80.2599 13.453 79.4335 14.1071 78.8226 14.9332L78.9272 15.1724V15.1724ZM47.3481 78.437L51.6705 77.8378L51.7524 77.6711L46.184 77.8701C46.5703 78.0517 46.958 78.2402 47.3481 78.437Z" stroke="#FEFEFE" stroke-width="1.5" stroke-miterlimit="22.9256" stroke-linecap="round" stroke-linejoin="round"/>
<path d="M87.596 119.698C69.0193 89.3192 42.6265 69.7412 28.6452 75.97C14.6644 82.1984 3.15569 129.643 21.7336 160.023C40.3095 190.4 81.9388 192.21 95.9184 185.981C109.9 179.753 106.175 150.077 87.596 119.698Z" fill="#F5B2B6"/>
<path fill-rule="evenodd" clip-rule="evenodd" d="M84.6856 120.76C66.544 91.093 40.7687 71.9737 27.1152 78.0551C13.4614 84.1383 2.22175 130.472 20.3646 160.14C38.5062 189.806 79.1598 191.573 92.8134 185.489C106.467 179.409 102.828 150.43 84.6856 120.76Z" fill="#9F4793"/>
<path fill-rule="evenodd" clip-rule="evenodd" d="M84.6869 120.76C72.9144 101.507 58.2366 86.0483 45.1255 80.3438C39.7976 78.0259 35.384 80.9686 30.7612 83.9126C26.9502 86.3388 22.9973 88.7649 18.2714 88.243C9.81583 104.95 6.4736 137.421 20.3658 160.14C38.5075 189.806 79.1611 191.574 92.8146 185.489C106.468 179.409 102.83 150.43 84.6869 120.76Z" fill="#9F4793"/>
<path fill-rule="evenodd" clip-rule="evenodd" d="M73.8209 21.437L78.9971 23.7618C71.5691 65.3583 61.611 117.261 78.1412 157.299L65.9828 177.966L59.7984 177.639C48.3305 170.563 31.3947 152.436 26.9709 140.066C23.443 130.201 24.1401 127.669 26.2438 124.04C46.7737 88.6199 60.5375 64.574 73.8209 21.437Z" fill="#16509D"/>
<path d="M73.8743 196.015H46.9669C52.1708 201.397 58.6818 207.511 58.7185 215.299C58.7563 223.38 53.1465 232.57 46.9669 241.344H73.8743C68.1563 232.612 62.0491 223.573 61.8944 215.695C61.743 207.815 68.6716 201.397 73.8743 196.015Z" fill="#66C3D0"/>
<path d="M102.825 178.265C93.4005 184.645 68.555 184.278 50.9966 170.775C32.6225 156.646 12.4729 104.488 27.9935 76.4747C27.9935 76.4747 -2.77145 91.1729 1.38645 138.881C4.92209 179.462 31.0413 201.841 58.4789 201.841C103.378 201.841 102.825 178.265 102.825 178.265Z" fill="#94D4EE"/>
<path d="M102.824 178.265C93.8466 184.34 70.8858 184.289 53.5515 172.602C49.2621 174.624 44.6846 175.73 39.9241 175.73C23.6454 175.73 9.45872 162.938 1.97974 143.999C7.18248 181.333 32.2202 203.226 58.4779 203.226C103.377 203.224 102.824 178.265 102.824 178.265Z" fill="#66C3D0"/>
<path d="M22.1142 80.4025C10.351 111.005 29.8834 160.355 48.2903 174.377C65.6118 187.568 89.8141 188.925 101.571 183.759C102.878 180.581 103.095 177.485 103.095 177.485C93.6716 183.865 68.5547 184.278 50.9963 170.775C32.6222 156.646 13.3809 103.754 28.9015 75.7407C28.9015 75.7407 25.5405 77.6462 22.1142 80.4025Z" fill="#D8EDEE"/>
<path d="M37.9708 244H82.8697C82.8697 236.687 37.9708 236.675 37.9708 244Z" fill="#66C3D0"/>
<path d="M24.7015 139.484C14.7276 121.271 16.1267 89.9252 19.4523 83.0948C19.4523 83.0948 -0.0605106 99.9046 2.04109 125.298C2.96314 136.446 13.5352 139.739 24.7015 139.484Z" fill="#C8E8FB"/>
<path d="M71.9695 199.2C76.2439 198.818 91.5351 197.885 97.5118 186.75C88.999 193.612 82.0406 196.794 71.9695 199.2Z" fill="#FEFEFE"/>
<path fill-rule="evenodd" clip-rule="evenodd" d="M61.4479 20.1537C63.1722 20.6655 64.8855 21.2167 66.6062 21.7827C67.0595 21.3562 67.1083 21.1418 68.3326 20.9393C69.5568 20.7365 75.7874 21.0959 76.106 22.7586C76.2055 23.2781 76.9875 25.6527 76.8576 27.0437L73.6781 25.6971L61.1731 64.0604C57.3889 74.787 55.5809 81.4786 52.9986 85.9537L51.3586 86.027C48.1615 86.1696 45.0645 86.3262 41.6904 85.8165C40.4071 85.6226 40.1735 84.6456 41.4481 84.6077C45.0767 84.4998 48.7057 84.3664 52.1236 83.9719C48.5963 84.081 45.0663 84.1854 41.5304 84.2755C40.0588 84.3134 39.6052 83.1246 40.9895 83.0285C43.1143 82.8812 45.2311 82.7202 47.3244 82.5299L43.142 82.4995C41.8135 82.4887 41.01 81.4124 42.2802 81.2105L45.5583 80.6897C45.2493 80.6498 45.0237 80.5159 44.917 80.3673L44.7716 80.3584C43.4806 80.2773 43.2791 79.1431 44.5302 79.1523L44.7576 79.1541C44.6699 78.9757 44.7617 78.7953 45.1262 78.7446C47.8369 78.3685 50.5474 77.9936 53.2587 77.6173C50.4309 77.7181 47.603 77.8195 44.7754 77.9203C43.8284 77.9537 43.2433 77.1126 44.1559 76.9957C48.0003 76.5018 51.8435 76.0074 55.6884 75.5153C51.6399 75.6104 47.592 75.7082 43.5429 75.8034C42.3505 75.8239 41.91 74.8046 43.0985 74.7795C47.4364 74.6906 51.6226 74.3733 55.6497 73.8511C51.8056 74.0047 47.9439 74.1255 44.062 74.206C42.7987 74.2322 42.4247 73.2269 43.5998 73.1404C48.0602 72.8141 52.5036 72.4595 56.7488 71.8687C55.7328 71.914 54.7181 71.9602 53.7016 72.0053C50.8168 72.1341 48.0229 72.2752 44.9781 71.8153C43.8206 71.6402 43.6096 70.7589 44.7596 70.7249C48.0336 70.6274 51.3082 70.5069 54.3918 70.1508C51.209 70.2489 48.0241 70.3435 44.8339 70.4252C43.5059 70.4592 43.0967 69.3867 44.3457 69.2996C46.2631 69.1669 48.1728 69.0217 50.0616 68.8496L46.2879 68.8224C45.0893 68.8126 44.3642 67.8415 45.5106 67.6593C46.9012 67.4389 48.2917 67.2167 49.6831 66.9972C49.043 66.9647 48.4026 66.9307 47.7583 66.8907C46.5933 66.8174 46.4115 65.7941 47.5404 65.8025C48.7057 65.8111 49.8715 65.835 51.0394 65.8681C49.8071 65.6918 48.565 65.475 47.3104 65.2221C46.5877 65.0765 46.3829 64.4329 47.0559 64.4249C48.1117 64.4115 49.1706 64.4028 50.2285 64.3915C49.3094 64.3214 48.3892 64.2516 47.4707 64.1797C46.6908 64.1198 46.2923 63.3954 47.0418 63.3763C49.5961 63.3098 52.1495 63.2439 54.7032 63.1773C52.0667 62.9784 49.4301 62.7801 46.7942 62.5815C45.9115 62.5147 45.4472 61.6796 46.306 61.6659C49.9242 61.608 53.5412 61.5495 57.1588 61.4929C53.3896 61.163 49.6197 60.8356 45.8492 60.5057C44.7394 60.4016 44.4268 59.4177 45.5336 59.517C49.5717 59.8833 53.4897 60.0226 57.2804 59.9572C53.695 59.7022 50.0965 59.415 46.4828 59.0885C45.3065 58.9826 45.0541 58.0184 46.1538 58.0601C50.3283 58.22 54.4892 58.3515 58.4892 58.2456C57.5412 58.183 56.5941 58.1204 55.6452 58.0572C52.9533 57.8785 50.3444 57.7195 47.5595 56.9823C46.5006 56.7019 46.388 55.8693 47.4603 55.9566C50.5104 56.2045 53.5633 56.4311 56.4618 56.4216C53.4962 56.1836 50.5286 55.9423 47.5571 55.6879C46.3204 55.5826 46.0417 54.5534 47.2099 54.6017C49.0043 54.6775 50.7915 54.741 52.5623 54.7771L49.0594 54.3625C47.9469 54.2307 47.3652 53.2614 48.4473 53.2119L50.1245 53.1356C49.8804 52.9071 49.8816 52.6283 50.1734 52.5967C49.6262 52.3166 49.6161 51.7854 50.1877 51.7103C50.2521 51.6745 50.351 51.6614 50.489 51.682L51.5922 51.8454C53.3791 52.0718 55.1645 52.3312 56.9589 52.6002L50.3817 50.9456C49.6051 50.7503 49.3106 49.9456 50.0771 50.0667C53.3067 50.5773 56.5354 51.087 59.7647 51.599C56.4552 50.7246 53.1455 49.8522 49.8354 48.9775C48.8624 48.7139 48.7238 47.8021 49.6951 48.0613C53.2385 49.0088 56.7073 49.7395 60.0916 50.2701C56.9353 49.4899 53.7722 48.6796 50.601 47.8323C49.5693 47.5567 49.4814 46.6715 50.4544 46.8791C54.1486 47.6664 57.8347 48.4279 61.4109 48.9557C60.5759 48.7535 59.7414 48.5516 58.9058 48.3491C56.5345 47.7744 54.2338 47.2304 51.8595 46.1514C50.9566 45.7407 50.9747 44.9927 51.9168 45.2358C54.5974 45.9262 57.2834 46.599 59.8654 47.0404C57.2587 46.3718 54.651 45.6992 52.0413 45.0151C50.9551 44.7306 50.8534 43.7839 51.887 44.0079C53.4733 44.3527 55.0557 44.6855 56.6272 44.9924L53.5672 44.0849C52.5956 43.7965 52.2157 42.8555 53.186 42.9802L55.1285 43.2298C54.2434 42.9337 53.3553 42.6128 52.4639 42.2695C51.8411 42.0297 51.7502 41.4332 52.3504 41.5304C53.1768 41.6638 54.0047 41.8006 54.8322 41.9363C54.865 41.9325 54.9002 41.931 54.938 41.9322C54.2103 41.7482 53.4816 41.5644 52.7548 41.3795C52.069 41.206 51.8175 40.5081 52.4872 40.6077C54.7706 40.9456 57.0536 41.2844 59.337 41.6223C57.0179 41.0383 54.6984 40.4556 52.3799 39.8719C51.6033 39.6763 51.3088 38.8716 52.0753 38.993C55.2673 39.4973 58.4588 40.0014 61.6511 40.5075L61.6708 40.5009L51.8336 37.9038C50.8606 37.6402 50.722 36.7285 51.6932 36.9873C55.2366 37.9349 58.7052 38.6658 62.0898 39.1961C58.9335 38.4162 55.7704 37.6056 52.5992 36.7586C51.5675 36.483 51.4796 35.5978 52.4526 35.8051C56.1465 36.5928 59.8329 37.3542 63.4091 37.8815C62.5741 37.6799 61.7396 37.4779 60.904 37.2751C58.5327 36.7007 56.232 36.1567 53.8577 35.0774C52.9547 34.667 52.9726 33.9184 53.9147 34.1615C56.595 34.8522 59.2816 35.5254 61.8636 35.9665C59.2569 35.2978 56.6489 34.6253 54.0395 33.9414C52.9533 33.6566 52.8513 32.71 53.8848 32.9339C55.4712 33.2787 57.0536 33.6116 58.6251 33.9184L55.5651 33.0109C54.5935 32.7222 54.2133 31.7815 55.1839 31.9062C56.3611 32.0577 57.5385 32.2083 58.7163 32.3604C58.2034 32.1845 57.6899 32.007 57.1752 31.8242C56.9458 31.7422 56.7774 31.6288 56.6674 31.5084C56.0553 31.2656 55.9692 30.6775 56.5655 30.7738C57.5075 30.9259 58.4516 31.0825 59.3951 31.2367C58.5866 31.0327 57.7772 30.8287 56.9696 30.6232C56.2839 30.4493 56.0323 29.752 56.7023 29.8516C58.9857 30.1895 61.2685 30.5277 63.5518 30.8657C61.2327 30.282 58.9135 29.6989 56.595 29.1156C55.8184 28.9199 55.5239 28.1153 56.2904 28.2364C59.52 28.747 62.7487 29.2566 65.978 29.7687C62.6685 28.8943 59.3588 28.0219 56.0487 27.1472C55.0757 26.8838 54.9371 25.9718 55.9084 26.231C59.4515 27.1788 62.9204 27.9092 66.3046 28.4398C63.1483 27.6596 59.9852 26.8492 56.814 26.0019C55.7823 25.7264 55.6947 24.8415 56.6677 25.0491C60.3616 25.8364 64.048 26.5978 67.6242 27.1254C66.7892 26.9232 65.9547 26.7213 65.1188 26.5188C62.7478 25.9444 60.4471 25.4001 58.0725 24.3211C57.1696 23.9104 57.188 23.1624 58.1301 23.4055C60.7663 24.0846 63.4085 24.7469 65.9515 25.1883L65.9455 25.1761C63.3832 24.5185 60.8197 23.8573 58.2546 23.1848C57.1684 22.9002 57.0667 21.9539 58.1 22.1776C59.6866 22.5227 61.2691 22.8555 62.8405 23.1621L59.7805 22.2545C58.8086 21.9661 58.4287 21.0255 59.3993 21.1502C60.5765 21.3014 61.7536 21.452 62.9317 21.6044C62.4185 21.4284 61.9053 21.251 61.3906 21.0681C60.4599 20.7368 60.5324 19.8823 61.4479 20.1537ZM49.7821 90.0062L40.0996 90.2367C38.7782 90.2594 38.2898 89.1293 39.6073 89.1019C43.6516 89.0193 47.5771 88.7571 51.3786 88.3313C50.8862 88.937 50.3581 89.4929 49.7821 90.0062ZM51.5273 88.1496C47.9243 88.2838 44.3079 88.3909 40.6748 88.4661C39.2747 88.4953 38.8602 87.3808 40.1628 87.2853C44.4685 86.9698 48.7602 86.6313 52.905 86.1162C52.4723 86.8517 52.0175 87.5272 51.5273 88.1496Z" fill="#468CFF"/>
<path fill-rule="evenodd" clip-rule="evenodd" d="M76.7141 24.8129C74.0934 25.152 68.7583 22.815 65.7225 18.3528C62.4461 13.5374 61.4975 8.37093 63.1074 6.76819L76.7141 24.8129Z" fill="#16509D"/>
<path fill-rule="evenodd" clip-rule="evenodd" d="M76.468 18.6582C74.9076 17.1572 73.4646 15.176 72.5888 12.8756C70.5161 7.43156 70.7891 2.18581 72.7265 1L80.1637 17.9991L76.468 18.6582Z" fill="#16509D"/>
<path fill-rule="evenodd" clip-rule="evenodd" d="M78.8158 15.1914C81.1487 14.7753 82.6415 15.3503 85.0154 16.2531C90.2247 18.2334 97.3366 16.7005 102.351 14.8648C107.286 13.0593 111.535 10.3584 116.351 8.42757C120.939 6.58803 125.614 6.20091 128.484 7.55134C131.789 9.10697 133.629 12.3903 133.873 16.1168C134.595 27.1449 126.509 31.3867 117.942 32.6289C109.718 33.8216 96.1588 32.6808 87.2902 30.7109C85.6556 31.5597 84.2051 32.1464 83.2253 32.3211C78.9982 33.0751 73.2793 28.4464 72.5262 24.2158C71.7729 19.9856 74.5888 15.9453 78.8158 15.1914Z" fill="#16509D"/>
<path d="M68.0175 44.5132C65.3509 43.8615 62.6777 43.4437 59.9974 42.9364C59.8707 42.9122 59.896 42.6626 60.0203 42.6677C62.7016 42.7777 65.4251 43.3241 68.064 43.9692C68.3144 44.0303 68.2694 44.5749 68.0175 44.5132Z" fill="#FEFEFE"/>
<path d="M66.5854 48.483C65.1338 48.2849 63.6863 48.0299 62.2341 47.8385C60.7831 47.6467 59.3255 47.5235 57.8771 47.3019C57.7642 47.2846 57.7883 47.0627 57.8974 47.0648C60.7953 47.1197 63.7537 47.4788 66.6292 47.9739C66.8661 48.0144 66.8232 48.5155 66.5854 48.483Z" fill="#FEFEFE"/>
<path d="M68.0303 35.2783C65.0293 34.5169 62.0151 33.989 58.9951 33.3711C58.8523 33.3419 58.8872 33.0934 59.0275 33.1036C62.0586 33.3243 65.1264 33.9828 68.0964 34.7364C68.378 34.8077 68.3137 35.3502 68.0303 35.2783Z" fill="#FEFEFE"/>
<path d="M70.5766 39.4845C68.9753 38.9933 67.3854 38.4469 65.7824 37.962C64.1812 37.4777 62.5642 37.0592 60.9689 36.5457C60.8446 36.5057 60.8985 36.291 61.0201 36.3151C64.2581 36.9587 67.527 37.9155 70.6868 38.9894C70.9473 39.078 70.8388 39.5647 70.5766 39.4845Z" fill="#FEFEFE"/>
<path d="M60.4679 52.3279C57.6675 51.6762 54.8599 51.2584 52.0449 50.7511C51.9119 50.7269 51.9385 50.4773 52.069 50.4824C54.8852 50.5924 57.7453 51.1388 60.5168 51.7836C60.7797 51.845 60.7326 52.3896 60.4679 52.3279Z" fill="#FEFEFE"/>
<path d="M61.4924 53.9455C59.9677 53.7472 58.4476 53.4925 56.9223 53.3007C55.3983 53.1093 53.8677 52.9858 52.3463 52.7642C52.2277 52.7472 52.253 52.525 52.3675 52.5271C55.4111 52.582 58.5182 52.9414 61.538 53.4362C61.7871 53.477 61.7418 53.9778 61.4924 53.9455Z" fill="#FEFEFE"/>
<path d="M58.9394 65.2555C56.1389 64.6038 53.3313 64.186 50.5163 63.6787C50.3834 63.6545 50.4099 63.4049 50.5404 63.41C53.3563 63.52 56.2167 64.0664 58.9882 64.7115C59.2511 64.7726 59.204 65.3172 58.9394 65.2555Z" fill="#FEFEFE"/>
<path d="M64.834 56.0034C62.0333 55.3518 59.226 54.9339 56.4109 54.4266C56.2777 54.4025 56.3045 54.1528 56.4351 54.1579C59.251 54.268 62.1113 54.8143 64.8829 55.4594C65.1457 55.5206 65.0983 56.0652 64.834 56.0034Z" fill="#FEFEFE"/>
<path d="M67.5852 46.9782C64.9185 46.3265 62.2453 45.909 59.565 45.4014C59.4383 45.3775 59.4637 45.1276 59.5879 45.1326C62.2692 45.2427 64.9927 45.7891 67.6316 46.4342C67.882 46.4953 67.837 47.0399 67.5852 46.9782Z" fill="#FEFEFE"/>
<path d="M68.3731 46.411C65.7065 45.7594 63.0333 45.3415 60.3529 44.8342C60.2263 44.8101 60.2516 44.5604 60.3759 44.5655C63.0571 44.6756 65.7807 45.2219 68.4196 45.8667C68.6699 45.9282 68.6249 46.4728 68.3731 46.411Z" fill="#FEFEFE"/>
<path d="M71.6506 32.7368C68.6323 32.0855 65.6065 31.6676 62.5727 31.16C62.4294 31.1362 62.458 30.8862 62.5987 30.8913C65.6337 31.0017 68.7163 31.5477 71.7033 32.1928C71.9867 32.254 71.9358 32.7986 71.6506 32.7368Z" fill="#FEFEFE"/>
<path d="M59.079 67.2288C56.2786 66.5771 53.471 66.1593 50.6559 65.652C50.523 65.6278 50.5495 65.3782 50.6801 65.3833C53.496 65.4933 56.3563 66.0397 59.1279 66.6845C59.3907 66.7459 59.3436 67.2905 59.079 67.2288Z" fill="#FEFEFE"/>
<path d="M60.1036 68.8462C58.5789 68.6479 57.0588 68.3932 55.5335 68.2014C54.0095 68.0099 52.4786 67.8864 50.9575 67.6648C50.8389 67.6478 50.8642 67.4257 50.9787 67.4277C54.0223 67.4826 57.1294 67.842 60.1492 68.3368C60.3983 68.3776 60.353 68.8784 60.1036 68.8462Z" fill="#FEFEFE"/>
<path d="M63.447 70.9047C60.6463 70.253 57.839 69.8352 55.0239 69.3279C54.8907 69.3037 54.9175 69.0541 55.0481 69.0592C57.864 69.1692 60.7244 69.7156 63.4959 70.3607C63.7587 70.4218 63.7113 70.9664 63.447 70.9047Z" fill="#FEFEFE"/>
<path d="M54.0131 80.2485C51.2535 80.0552 48.5085 80.0952 45.748 80.0472C45.6177 80.0448 45.6207 79.7928 45.7471 79.7767C48.4724 79.4301 51.2797 79.5091 54.0107 79.7006C54.2697 79.7188 54.2736 80.2667 54.0131 80.2485Z" fill="#FEFEFE"/>
<path d="M55.1478 81.6876C53.6598 81.7377 52.1709 81.7308 50.6826 81.7875C49.1958 81.8441 47.7087 81.9694 46.2217 81.9959C46.106 81.998 46.1102 81.7735 46.2208 81.757C49.1604 81.3189 52.1888 81.1725 55.1457 81.1746C55.3895 81.1749 55.3916 81.6792 55.1478 81.6876Z" fill="#FEFEFE"/>
<path d="M58.5586 83.1894C55.799 82.9961 53.054 83.0361 50.2938 82.9881C50.1633 82.9857 50.1663 82.7337 50.2926 82.7176C53.018 82.371 55.8252 82.45 58.5565 82.6415C58.8152 82.6597 58.8194 83.2076 58.5586 83.1894Z" fill="#FEFEFE"/>
<path d="M72.0385 19.9068C69.9122 19.8785 67.8991 19.0366 66.3226 17.6229C64.7747 16.2355 63.6468 14.2963 63.2441 12.0351C63.1398 11.4505 63.0889 10.8674 63.0871 10.2924C63.0853 9.70609 63.136 9.12661 63.2346 8.56323L63.7832 8.65837C63.6906 9.18835 63.6426 9.73472 63.6444 10.2906C63.6462 10.8314 63.6944 11.3822 63.7934 11.9372C64.1736 14.0732 65.2367 15.9026 66.694 17.2089C68.1715 18.534 70.0565 19.3232 72.046 19.3497L72.0385 19.9068Z" fill="#FEFEFE"/>
<path d="M74.8181 12.0801C73.7101 11.497 73.0333 10.8075 72.5962 9.96762C72.1661 9.14208 71.9775 8.18414 71.8359 7.04217C71.7414 6.28285 71.6896 5.49072 71.6795 4.77852C71.6696 4.05589 71.7036 3.41079 71.7826 2.96045L72.3312 3.05529C72.2579 3.47402 72.226 4.08273 72.2355 4.77017C72.2454 5.46239 72.2963 6.23305 72.3881 6.97268C72.5222 8.055 72.6981 8.95688 73.0906 9.71083C73.4753 10.4499 74.0797 11.0613 75.0774 11.5862L74.8181 12.0801Z" fill="#FEFEFE"/>
<path fill-rule="evenodd" clip-rule="evenodd" d="M107.649 33.085C100.713 32.9782 93.0384 32.19 87.3222 31.0704C85.6822 31.8589 84.2285 32.4065 83.248 32.5735C81.5121 32.8697 79.5327 32.3391 77.7515 31.3436L78.0939 29.6687C80.1901 30.1951 84.9929 29.9311 87.0203 27.8694C89.2447 29.8145 101.072 32.2947 107.649 33.085Z" fill="#468CFF"/>
<path fill-rule="evenodd" clip-rule="evenodd" d="M94.4875 19.8383C98.1671 19.7402 117.094 13.6925 117.322 11.9746L116.752 16.2615C116.752 16.2615 106.043 20.7271 94.4875 19.8383Z" fill="#FEFEFE"/>
<path fill-rule="evenodd" clip-rule="evenodd" d="M116.6 8.32933C121.107 6.57478 125.666 6.22524 128.484 7.55122C131.789 9.10684 133.629 12.3902 133.873 16.1167C134.496 25.633 128.56 30.0958 121.416 31.9387C118.345 28.7633 116.162 24.5384 115.427 19.7081C114.816 15.6953 115.284 11.7904 116.6 8.32933Z" fill="#9F4793"/>
<path fill-rule="evenodd" clip-rule="evenodd" d="M133.041 12.4355C133.508 13.5724 133.788 14.8176 133.873 16.1167C134.026 18.4615 133.781 20.4985 133.218 22.2665C131.523 24.072 129.101 24.9706 125.741 24.214C121.586 23.2772 119.399 19.4463 118.682 15.4194C118.519 14.505 118.496 13.6378 118.597 12.8227C119.281 14.4099 120.33 15.6944 121.633 16.5358C126.193 19.4806 130.689 16.4997 133.041 12.4355Z" fill="#FEFEFE"/>
<path d="M123.977 13.3424C124.199 12.9097 123.564 12.1072 122.557 11.5499C121.551 10.9926 120.554 10.8916 120.332 11.3243C120.11 11.7569 120.745 12.5594 121.752 13.1167C122.758 13.674 123.755 13.775 123.977 13.3424Z" fill="#0D2C45"/>
<path d="M125.956 10.9685C126.166 10.5614 125.568 9.80622 124.62 9.2818C123.673 8.75738 122.736 8.66231 122.526 9.06945C122.317 9.47659 122.915 10.2318 123.862 10.7562C124.81 11.2806 125.747 11.3757 125.956 10.9685Z" fill="#0D2C45"/>
<path d="M81.2111 12.905C79.7431 13.7502 78.5743 14.8477 78.0319 16.4382C77.8662 16.9267 77.7443 17.3941 77.6674 17.8355C77.59 18.2772 77.5563 18.6935 77.5661 19.0791L77.5715 19.2867L76.2966 19.6932L76.2707 19.3428C76.2346 18.8623 76.2501 18.3267 76.3353 17.7341C76.4197 17.1465 76.5722 16.502 76.8116 15.7982C77.4666 13.8677 78.8378 12.5566 80.5045 11.5769C82.1439 10.613 84.0703 9.97028 85.8751 9.36932C87.7689 8.73795 89.5141 8.0681 90.7425 7.11462C91.9259 6.19604 92.6254 5.00576 92.4967 3.31056L92.4558 2.76777L92.8537 3.07227C92.8578 3.07555 94.4954 4.30788 93.1323 6.74719C92.5384 7.81012 91.5633 8.59241 90.3596 9.23273C89.1777 9.86202 87.7749 10.355 86.2982 10.8477C84.5173 11.4403 82.7078 12.0434 81.2111 12.905ZM75.0852 19.718L75.1081 20.0723L73.8386 20.4773C73.8204 20.2638 73.779 19.9458 73.7793 19.7302C73.5128 14.9297 75.4115 11.8784 77.8096 9.88946C80.1842 7.92047 83.0409 7.00457 84.7507 6.457L85.1473 6.32816C86.2398 5.97266 87.5344 5.55035 88.671 5.07764C89.7767 4.61745 90.7145 4.11731 91.1168 3.60344C91.1633 3.54379 91.2003 3.46863 91.2214 3.39825L91.2432 3.33383C91.2259 3.28581 91.1305 3.1018 90.9637 2.9485C90.8737 2.86589 90.7631 2.7964 90.6379 2.77671L89.4623 2.59001L90.581 2.23302C90.5846 2.23183 91.8431 1.84799 92.3578 2.93776C92.5035 3.24644 92.5345 3.54975 92.4892 3.83278C92.4385 4.1525 92.2898 4.4406 92.1045 4.6771C91.0557 6.01948 88.1427 6.96878 85.5705 7.80654C85.4647 7.85754 85.248 7.88796 85.1595 7.94075C81.7356 9.03738 74.62 11.3201 75.0852 19.718ZM80.4232 17.5358C80.2855 17.7961 80.194 18.0577 80.1508 18.3142L80.124 18.4722L78.8065 18.8925L78.813 18.5012C78.8205 18.0669 78.9054 17.5471 79.1501 16.9837C79.3423 16.5414 79.6337 16.0711 80.0647 15.5951C81.7267 13.7564 84.0903 12.8036 86.376 11.8829L86.3906 11.8769C89.6211 10.5769 92.6698 9.34934 93.5531 5.82801L93.6893 5.28611L93.9733 5.77314C93.9751 5.77642 94.7473 7.02098 93.7841 8.54827C92.0902 11.2348 89.7424 12.1802 86.9113 13.3207L86.8666 13.3386C84.7024 14.2101 82.4646 15.1117 80.9918 16.74C80.7546 17.0022 80.5641 17.2694 80.4232 17.5358Z" fill="#16509D"/>
<path d="M120.018 19.4995C120.018 19.4995 127.351 23.8574 134.086 18.1067" stroke="#0D2C45" stroke-width="0.13" stroke-miterlimit="22.9256"/>
<path d="M121.847 16.7012L121.968 22.1199" stroke="#0D2C45" stroke-width="0.13" stroke-miterlimit="22.9256"/>
<path d="M124.169 17.5906L124.947 24.0001" stroke="#0D2C45" stroke-width="0.13" stroke-miterlimit="22.9256"/>
<path d="M127.152 17.4406L128.008 24.5569" stroke="#0D2C45" stroke-width="0.13" stroke-miterlimit="22.9256"/>
<path d="M129.541 16.3087L131.511 23.6246" stroke="#0D2C45" stroke-width="0.13" stroke-miterlimit="22.9256"/>
<path d="M131.2 14.9062L133.5 21.928" stroke="#0D2C45" stroke-width="0.13" stroke-miterlimit="22.9256"/>
<path d="M131.931 14.1372L133.978 17.5846" stroke="#0D2C45" stroke-width="0.13" stroke-miterlimit="22.9256"/>
<path fill-rule="evenodd" clip-rule="evenodd" d="M131.76 225.306L128.525 226.006L102.195 178.03L100.6 175.051C100.6 175.051 88.0257 155.23 104.757 159.089L131.76 225.306Z" fill="#16509D"/>
<path fill-rule="evenodd" clip-rule="evenodd" d="M177.697 187.524C176.704 187.245 175.687 186.909 174.652 186.518L172.336 189.081L171.532 186.764C171.203 186.912 170.845 186.989 170.484 186.995C169.816 187.006 169.133 186.774 168.597 186.296C168.582 186.276 168.544 186.244 168.523 186.225C168.028 185.751 167.762 185.139 167.729 184.525C167.708 184.12 167.787 183.713 167.969 183.344C167.491 183.072 167.012 182.791 166.533 182.5C164.826 181.464 163.108 180.302 161.399 179.02L166.378 175.625C167.697 176.616 169.021 177.539 170.339 178.392C173.872 180.68 177.37 182.463 180.656 183.685L181.289 183.92L177.965 187.599L177.697 187.524Z" fill="#16509D"/>
<path fill-rule="evenodd" clip-rule="evenodd" d="M179.358 183.08L183.368 184.463L182.961 184.956C181.925 186.211 180.77 187.341 179.531 188.364C178.293 189.386 176.967 190.305 175.586 191.142L175.331 191.296L169.797 187.232C172.928 185.83 176.059 184.429 179.187 183.021L179.358 183.08Z" fill="#0D2C45"/>
<path fill-rule="evenodd" clip-rule="evenodd" d="M54.2014 153.16C54.2014 153.16 54.2231 170.011 60.3578 175.804C65.0181 180.205 85.2449 183.742 97.0719 180.174C101.058 172.548 107.184 156.559 112.221 158.248L169.25 184.079L168.994 177.498L121.399 141.846C112.576 133.42 110.028 136.394 98.5465 139.842L54.2014 153.16Z" fill="#16509D"/>
<path fill-rule="evenodd" clip-rule="evenodd" d="M138.132 239.608C137.243 238.704 136.363 237.723 135.497 236.673L131.461 237.992L132.017 235.028C131.576 234.985 131.146 234.848 130.758 234.634C130.038 234.237 129.451 233.571 129.17 232.734C129.167 232.703 129.145 232.646 129.135 232.613C128.896 231.805 128.985 230.989 129.325 230.313C129.55 229.868 129.883 229.482 130.303 229.199C129.959 228.617 129.619 228.025 129.285 227.42C128.096 225.271 126.972 222.98 125.931 220.568L133.317 219.989C134.12 221.853 134.969 223.647 135.855 225.363C138.23 229.966 140.874 234.007 143.634 237.32L144.166 237.958L138.373 239.852L138.132 239.608Z" fill="#16509D"/>
<path fill-rule="evenodd" clip-rule="evenodd" d="M142.619 235.881L146.054 239.809L145.319 240.086C143.447 240.792 141.525 241.291 139.577 241.626C137.632 241.96 135.656 242.13 133.672 242.178L133.305 242.186L129.881 234.466C134.078 234.883 138.275 235.303 142.473 235.713L142.619 235.881Z" fill="#0D2C45"/>
<path fill-rule="evenodd" clip-rule="evenodd" d="M12.1189 186.157C13.7899 187.903 15.1834 188.139 16.1406 188.191C16.5358 188.218 16.5492 188.251 16.5492 188.251L33.5041 147.645L36.9963 138.8L28.0633 124.178C22.595 141.004 16.9986 165.004 12.1189 186.157Z" fill="url(#paint0_linear)"/>
<path fill-rule="evenodd" clip-rule="evenodd" d="M14.3018 188.302L16.7616 188.81L36.9962 138.8L32.0539 130.71L14.3018 188.302Z" fill="#16509D"/>
<path fill-rule="evenodd" clip-rule="evenodd" d="M10.1299 200.629C10.7593 199.836 11.3777 198.979 11.9826 198.063L15.0707 199.076L14.5259 196.572C14.8552 196.523 15.172 196.395 15.4548 196.203C15.9787 195.846 16.3906 195.265 16.5655 194.545C16.567 194.519 16.5804 194.47 16.587 194.442C16.7312 193.748 16.6296 193.057 16.3453 192.492C16.1572 192.12 15.8905 191.801 15.5627 191.571C15.7966 191.068 16.0261 190.555 16.2511 190.032C17.0519 188.174 17.7978 186.196 18.4758 184.118L12.9041 183.824C12.3805 185.43 11.8199 186.978 11.2287 188.461C9.64264 192.436 7.83041 195.942 5.89928 198.832L5.52706 199.389L9.95943 200.843L10.1299 200.629Z" fill="#16509D"/>
<path fill-rule="evenodd" clip-rule="evenodd" d="M6.59974 197.581L4.18821 201.012L4.75265 201.228C6.18878 201.778 7.65352 202.15 9.13108 202.382C10.6059 202.614 12.0975 202.705 13.5897 202.693L13.865 202.69L16.1058 196.037C12.9716 196.504 9.83707 196.974 6.70226 197.435L6.59974 197.581Z" fill="#0D2C45"/>
<path d="M44.3495 87.491C41.5899 87.2977 38.8449 87.3377 36.0844 87.29C35.9541 87.2876 35.9571 87.0353 36.0835 87.0195C38.8088 86.6726 41.6161 86.752 44.3474 86.9431C44.6061 86.9613 44.6103 87.5095 44.3495 87.491Z" fill="#FEFEFE"/>
<path d="M45.4844 88.9301C43.9964 88.9802 42.5075 88.9733 41.0192 89.0303C39.5327 89.0869 38.0454 89.2122 36.5583 89.2384C36.4426 89.2408 36.4468 89.0163 36.5574 88.9999C39.497 88.5614 42.5257 88.415 45.4823 88.4174C45.7261 88.4174 45.7282 88.9217 45.4844 88.9301Z" fill="#FEFEFE"/>
<path d="M48.8943 90.4318C46.135 90.2386 43.39 90.2785 40.6295 90.2308C40.4989 90.2284 40.5019 89.9761 40.6283 89.96C43.3536 89.6135 46.1612 89.6928 48.8922 89.884C49.1512 89.9022 49.1551 90.4503 48.8943 90.4318Z" fill="#FEFEFE"/>
<path d="M47.9499 76.3597C45.1903 76.1664 42.4456 76.2061 39.6851 76.1584C39.5545 76.156 39.5575 75.9037 39.6839 75.8879C42.4092 75.541 45.2168 75.6204 47.9478 75.8115C48.2068 75.8297 48.2107 76.3779 47.9499 76.3597Z" fill="#FEFEFE"/>
<path d="M49.0842 77.7983C47.5959 77.8485 46.107 77.8416 44.619 77.8986C43.1322 77.9552 41.6448 78.0805 40.158 78.107C40.0421 78.1091 40.0466 77.8845 40.1568 77.8681C43.0968 77.4297 46.1252 77.2833 49.0821 77.2857C49.3259 77.2857 49.3276 77.79 49.0842 77.7983Z" fill="#FEFEFE"/>
<path d="M52.4941 79.3004C49.7345 79.1072 46.9894 79.1472 44.2289 79.0994C44.0987 79.097 44.1017 78.8447 44.2277 78.8289C46.9531 78.4821 49.7607 78.5614 52.4917 78.7526C52.7507 78.7708 52.7545 79.3189 52.4941 79.3004Z" fill="#FEFEFE"/>
<path d="M54.2245 55.0668C51.4648 54.8736 48.7198 54.9135 45.9593 54.8655C45.8291 54.8634 45.8321 54.6111 45.9581 54.595C48.6835 54.2485 51.4911 54.3275 54.2221 54.519C54.481 54.5372 54.4849 55.0853 54.2245 55.0668Z" fill="#FEFEFE"/>
<path d="M55.3589 56.5062C53.871 56.5563 52.3821 56.5494 50.8938 56.6061C49.407 56.6627 47.9199 56.788 46.4328 56.8145C46.3172 56.8166 46.3214 56.5924 46.4319 56.5759C49.3715 56.1375 52.3999 55.9911 55.3568 55.9932C55.6006 55.9935 55.6024 56.4978 55.3589 56.5062Z" fill="#FEFEFE"/>
<path d="M58.7685 58.0077C56.0089 57.8145 53.2639 57.8544 50.5034 57.8064C50.3731 57.804 50.3761 57.552 50.5025 57.5359C53.2278 57.1894 56.0351 57.2684 58.7664 57.4599C59.0251 57.4781 59.0293 58.0259 58.7685 58.0077Z" fill="#FEFEFE"/>
<path fill-rule="evenodd" clip-rule="evenodd" d="M63.5852 128.116C63.5852 128.116 63.1188 109.292 67.2833 112.625L84.7386 126.598L126.804 105.675L127.622 113.369C127.643 113.64 127.607 113.908 127.52 114.154C127.159 115.167 126.043 115.589 125.073 115.189C124.781 115.067 124.513 114.878 124.298 114.632C123.984 114.864 123.664 115.093 123.336 115.32C122.17 116.126 120.912 116.897 119.571 117.623L119.532 117.469L89.3074 136.777C83.8025 141.793 81.5188 141.032 75.3928 136.62L63.5852 128.116Z" fill="#16509D"/>
<path fill-rule="evenodd" clip-rule="evenodd" d="M75.0174 22.7043L83.6935 18.7133L83.7362 18.823C85.448 23.2191 77.125 26.1997 75.0174 22.7043Z" fill="#FEFEFE"/>
<path d="M80.7976 23.7566C80.5096 24.4761 79.9058 24.6216 79.4491 24.0816C78.9923 23.5416 78.8554 22.5206 79.1434 21.8011C79.4314 21.0816 80.0352 20.936 80.492 21.476C80.9487 22.016 81.0856 23.0371 80.7976 23.7566Z" fill="#2B2A29"/>
<path fill-rule="evenodd" clip-rule="evenodd" d="M85.4863 17.5496L91.6138 14.6927L91.6442 14.7724C92.8741 17.9647 86.9928 20.0909 85.4863 17.5496Z" fill="#FEFEFE"/>
<path d="M89.9898 18.4322C89.7648 18.9942 89.2932 19.1079 88.9364 18.6861C88.5796 18.2643 88.4727 17.4667 88.6977 16.9046C88.9226 16.3426 89.3943 16.2289 89.7511 16.6507C90.1079 17.0725 90.2148 17.8701 89.9898 18.4322Z" fill="#2B2A29"/>
<path fill-rule="evenodd" clip-rule="evenodd" d="M138.082 97.4354C137.481 97.2714 136.848 97.3152 136.299 97.5529L132.601 99.1542L131.385 96.6129C130.875 95.5451 130.179 94.9168 129.316 94.745C127.949 94.4721 126.733 95.4912 126.683 95.5371C126.533 95.6665 126.487 95.8726 126.57 96.0465L127.93 98.889C128.66 100.418 127.697 104.869 126.398 105.837L127.553 113.209L139.88 108.654C141.495 107.955 142.142 106.705 141.653 105.22L139.927 99.2234C139.673 98.3632 138.966 97.6755 138.082 97.4354Z" fill="#0D2C45"/>
<path fill-rule="evenodd" clip-rule="evenodd" d="M64.4586 188.238C64.6302 187.702 64.7608 187.127 63.9678 187.064C62.6529 186.959 61.64 187.641 60.6699 188.423C57.4773 190.993 54.2826 193.693 51.1475 196.331C50.4397 196.927 49.6935 197.51 49.0787 198.189C48.7142 198.591 48.8701 198.882 49.3379 198.882H50.6069C50.8661 198.882 51.0825 198.883 51.3337 198.81C51.6604 198.715 51.931 198.563 52.2355 198.342C52.4394 198.194 52.6393 198.031 52.8387 197.869C55.3844 195.798 57.865 193.516 60.4342 191.472L59.2779 194.568L58.0352 197.859C57.7559 198.609 58.014 198.748 58.7045 198.747L66.1677 198.731C66.8376 198.731 67.4769 198.722 68.0336 198.656C69.3615 198.498 70.1897 197.945 70.612 196.708L73.6178 187.905C73.8469 187.234 73.3618 187.065 72.8283 187.076C71.7227 187.096 70.7962 187.77 69.9105 188.36C68.6597 189.192 67.4507 190.103 66.2488 191.008C65.0826 191.886 63.8831 192.726 62.7006 193.582C62.3728 193.82 61.9895 194.097 61.6978 194.39C61.4555 194.634 61.2728 194.897 61.254 195.168C61.2266 195.56 61.6033 195.9 61.9156 196.076C62.0477 196.151 62.1779 196.2 62.3057 196.228C63.3464 196.46 64.2825 195.505 65.0296 194.94C66.4943 193.832 67.9996 192.734 69.4623 191.645L69.6271 191.664L68.182 195.55C68.064 195.867 67.9594 196.203 67.8226 196.512C67.7251 196.732 67.5827 196.911 67.2862 196.911C66.373 196.911 65.4599 196.911 64.5468 196.911C64.9101 196.64 65.2734 196.368 65.6366 196.096C66.0107 196.096 66.3847 196.096 66.7587 196.096L67.6527 193.739L65.2454 195.589C64.3564 196.272 63.3905 197.135 62.1657 196.863C61.9737 196.82 61.7833 196.749 61.5974 196.644C61.1676 196.402 60.6997 195.947 60.5901 195.457C60.4667 194.906 60.7796 194.391 61.2374 193.932C61.2508 193.918 61.2645 193.905 61.2779 193.892L63.5219 188.067C63.5672 187.949 63.6984 187.894 63.8155 187.94C63.9326 187.985 63.9916 188.113 63.9463 188.23L61.9994 193.289C62.236 193.112 62.4762 192.942 62.7131 192.766L64.4586 188.238ZM64.3492 191.213C64.8135 190.87 65.2388 190.549 65.6647 190.229C66.7566 189.407 67.8515 188.577 68.983 187.805C70.1733 186.992 71.3344 186.203 72.8161 186.134C73.492 186.102 74.1298 186.24 74.4758 186.691C74.7571 187.058 74.7687 187.553 74.5416 188.219L71.5358 197.022C71.3743 197.495 71.1818 197.903 70.9115 198.268C70.2308 199.188 69.2331 199.612 68.1224 199.744C66.9482 199.884 65.7082 199.826 64.5253 199.819C62.7638 199.807 60.9986 199.788 59.2436 199.832C58.6986 199.846 58.1443 199.86 57.7011 199.694C56.9936 199.431 56.6387 198.868 57.0967 197.637L58.276 194.468C56.6703 195.811 55.0756 197.306 53.4532 198.625C52.4564 199.436 51.9292 199.975 50.2981 199.974H48.9794C48.4513 199.974 47.9718 199.807 47.7853 199.203C47.4569 198.141 48.6448 197.283 49.3001 196.705L53.4812 193.02C55.0738 191.617 56.7102 190.269 58.3696 188.917C59.1715 188.263 59.9735 187.539 60.8526 186.982C62.1424 186.165 64.0598 185.509 65.2096 186.531C65.5535 186.837 65.6188 187.279 65.5726 187.719C65.4477 188.904 64.762 190.149 64.3492 191.213Z" fill="#16509D"/>
<path fill-rule="evenodd" clip-rule="evenodd" d="M70.0934 196.758C70.0519 196.877 69.9223 196.939 69.804 196.898C69.7372 196.875 69.6884 196.823 69.6657 196.762C69.6481 196.714 69.6461 196.66 69.6642 196.608L72.5746 188.215C72.6161 188.096 72.7454 188.034 72.864 188.075C72.9823 188.116 73.0449 188.246 73.0038 188.364L70.0934 196.758Z" fill="#16509D"/>
<path fill-rule="evenodd" clip-rule="evenodd" d="M64.1955 194.693C64.3779 194.552 64.5635 194.409 64.748 194.279L64.9193 194.522C64.7337 194.653 64.554 194.792 64.3773 194.928C63.4716 195.627 62.6363 196.271 61.8558 195.396C62.661 195.659 63.1584 195.492 64.1955 194.693Z" fill="#16509D"/>
<path fill-rule="evenodd" clip-rule="evenodd" d="M53.312 196.001C53.2169 196.083 53.0733 196.073 52.9916 195.977C52.9454 195.924 52.9284 195.855 52.9395 195.79C52.9481 195.74 52.9735 195.693 53.0152 195.657L60.3219 189.859C60.417 189.777 60.5606 189.788 60.6426 189.883C60.7245 189.978 60.3189 190.303 60.2241 190.385L53.312 196.001Z" fill="#16509D"/>
<path d="M47.1634 198.439C42.9181 197.292 27.7018 193.568 22.4851 182.714C30.5258 190.322 37.2633 194.423 47.1634 198.439Z" fill="#FEFEFE"/>
<defs>
<linearGradient id="paint0_linear" x1="37.1226" y1="126.648" x2="12.0469" y2="186.83" gradientUnits="userSpaceOnUse">
<stop stop-color="#16509D"/>
<stop offset="1" stop-color="#00A0E3"/>
</linearGradient>
</defs>
</svg>
