<svg width="116" height="264" viewBox="0 0 116 264" fill="none" xmlns="http://www.w3.org/2000/svg">
<path fill-rule="evenodd" clip-rule="evenodd" d="M34.2743 36.2043C36.1879 36.1709 39.0037 36.0154 42.0521 35.7304C42.1173 35.4423 42.175 35.1539 42.2249 34.8662C39.0968 31.1912 36.4104 23.3844 37.9223 16.0665C39.7666 7.13972 44.8633 0.690637 48.7578 1.01172L45.2198 24.4442C49.1401 21.2386 54.2514 19.2992 59.8424 19.2992C65.2725 19.2992 70.2506 21.1287 74.1241 24.1707L94.5818 13.7418C96.0846 17.7955 91.0321 25.4089 82.4684 30.3815C80.7973 31.3521 79.0258 32.0774 77.2334 32.5911C77.301 35.6725 78.4116 39.1347 80.2726 41.7543C82.45 42.9619 83.9387 45.4025 83.9387 48.2167C83.9387 49.1275 83.7827 49.9987 83.498 50.8019C83.7599 51.2579 83.9113 51.7949 83.9113 52.37C83.9113 53.9931 82.7078 55.314 81.2073 55.3587C81.2073 84.8727 82.3956 76.082 74.1451 91.5061C74.2332 92.1663 74.2798 92.8404 74.2798 93.5254C74.2798 96.1181 73.627 98.5546 72.4815 100.673L76.0281 134.301H47.5867H43.6567H42.9364C43.1906 134.169 43.4441 134.037 43.6969 133.903L43.7063 133.811L42.5218 134.301H35.8573C38.6449 132.954 41.3945 131.575 44.0772 130.143L44.0939 129.978C43.0284 130.428 41.9628 130.877 40.8962 131.327C38.38 132.388 35.912 133.439 33.3453 134.301H26.4459C26.5951 134.186 26.7841 134.079 27.0168 133.986C31.8991 132.02 36.7742 130.013 41.28 127.698C36.5347 129.616 31.7849 131.528 27.0227 133.42C25.0405 134.208 24.0483 132.553 25.8932 131.715C28.7262 130.431 31.543 129.129 34.3188 127.792L28.642 129.814C26.8384 130.454 25.4076 129.149 27.0652 128.202C29.0756 127.053 31.086 125.901 33.0985 124.753C32.1256 125.047 31.152 125.339 30.1703 125.622C28.3947 126.132 27.7617 124.439 29.4597 123.834C31.213 123.21 32.9721 122.614 34.7372 122.03C32.8253 122.397 30.883 122.699 28.9099 122.943C27.7735 123.084 27.2391 122.069 28.2474 121.686C29.8279 121.083 31.4152 120.487 32.9998 119.887C31.5952 120.268 30.1887 120.651 28.7838 121.029C27.5912 121.351 26.7377 120.3 27.8573 119.856C31.6693 118.339 35.4808 116.823 39.2928 115.306C35.2631 116.403 31.2337 117.501 27.2049 118.598C25.8557 118.965 24.8645 117.756 26.1502 117.261C31.5627 115.176 36.9743 113.09 42.3875 111.007C36.6106 112.496 30.8336 113.989 25.055 115.479C23.3519 115.905 22.5359 114.352 24.2334 113.919C30.4265 112.347 36.3598 110.442 42.0293 108.249C36.5549 109.768 31.0492 111.238 25.5076 112.648C23.704 113.107 22.9855 111.556 24.6517 111.026C30.9769 109.017 37.2723 106.966 43.2419 104.587C41.7965 104.996 40.352 105.406 38.905 105.816C34.7991 106.979 30.8253 108.131 26.3832 108.366C24.6941 108.455 24.2318 107.058 25.873 106.623C30.5408 105.384 35.2057 104.108 39.5551 102.502C35.0176 103.71 30.4761 104.915 25.9239 106.099C24.0292 106.592 23.2484 104.941 25.0205 104.385C27.7412 103.534 30.4475 102.666 33.1198 101.758L27.7134 102.952C25.9963 103.331 24.7811 101.951 26.3889 101.271L28.881 100.218C28.4338 99.9512 28.3374 99.4614 28.7646 99.2466C27.8441 99.0556 27.6423 98.1301 28.474 97.685C28.558 97.5869 28.7019 97.5098 28.9164 97.47L30.6311 97.151C33.3938 96.5684 36.1667 96.0441 38.9562 95.5316L28.4961 96.2385C27.2611 96.3218 26.5356 95.0729 27.7294 94.8651C32.7593 93.9889 37.7876 93.1119 42.8175 92.2385C37.5398 92.5208 32.262 92.8064 26.9832 93.0887C25.429 93.1602 24.8998 91.6384 26.4497 91.5597C32.1044 91.2773 37.5712 90.6559 42.8404 89.7302C37.8258 90.0936 32.79 90.4077 27.7294 90.6618C26.0831 90.7447 25.6393 89.2413 27.1739 89.0713C32.5235 88.4785 37.8555 87.8509 42.9942 86.9494L42.9162 86.8158L40.3832 87.0135C36.6198 87.3064 32.9732 87.6148 29.0275 87.0259C27.5267 86.8012 27.291 85.4798 28.7914 85.3894C33.06 85.13 37.3307 84.8358 41.3634 84.1937C37.2138 84.4513 33.0604 84.7024 28.9007 84.9343C27.1692 85.0314 26.6835 83.4279 28.3139 83.2541C30.8178 82.9887 33.3116 82.7042 35.7797 82.3801L30.8651 82.4678C29.3039 82.4946 28.402 81.054 29.9037 80.7407L32.9083 80.1126C31.4751 80.0788 30.0284 80.0036 28.5683 79.8909C27.5491 79.8122 27.2024 78.8168 28.138 78.6577C29.426 78.4384 30.7178 78.2241 32.0079 78.0084C32.0557 77.9831 32.1082 77.9616 32.1656 77.9429C31.0079 78.0199 29.8489 78.0973 28.6919 78.1719C27.6011 78.2436 26.9777 77.1585 28.0186 76.9658L38.4994 75.018L38.4985 74.9987C34.8647 75.2436 31.231 75.4903 27.5984 75.735C26.3632 75.8182 25.6374 74.5695 26.8317 74.3615C30.6976 73.6881 34.5629 73.014 38.4287 72.3416L38.4247 71.9224L26.0854 72.5852C24.5308 72.6568 24.0017 71.135 25.5515 71.0558C29.9559 70.8362 34.2461 70.4106 38.4178 69.7955L38.4185 69.4733C34.5697 69.7336 30.708 69.9636 26.8315 70.1582C25.1849 70.2413 24.7415 68.7381 26.2762 68.5676C30.3632 68.1152 34.4401 67.6417 38.4283 67.0415L38.431 66.5915C35.0368 66.8528 31.706 67.0562 28.1296 66.5218C26.6289 66.2981 26.3926 64.9765 27.8928 64.8854C31.4557 64.6691 35.0206 64.4288 38.4471 63.9814L38.4482 63.8146C34.9699 64.0283 31.4886 64.2364 28.0028 64.431C26.2714 64.5275 25.7849 62.9245 27.4157 62.7507C29.9196 62.4848 32.4131 62.2001 34.8814 61.8766L29.9664 61.9639C28.4053 61.991 27.5038 60.5505 29.0052 60.2368C30.8261 59.8571 32.6472 59.4751 34.4695 59.0959C33.6372 59.0688 32.8038 59.0393 31.9668 59.0012C31.5931 58.9837 31.3005 58.8771 31.093 58.726C30.0879 58.6365 29.7517 57.6532 30.6812 57.4945C32.1494 57.2447 33.6222 57.0012 35.0937 56.754C33.808 56.8401 32.5203 56.9261 31.2351 57.009C30.1442 57.0804 29.5208 55.9958 30.5618 55.8032L36.7572 54.6513C36.5956 54.504 36.4498 54.3371 36.3229 54.1542L30.1413 54.572C28.9061 54.6548 28.1809 53.4061 29.3745 53.1981L35.7862 52.0813C35.8197 51.7033 35.9191 51.3461 36.0715 51.0225C33.5907 51.1561 31.1095 51.2895 28.6283 51.422C27.0744 51.494 26.545 49.9719 28.0947 49.8934C30.71 49.7628 33.2852 49.5597 35.8191 49.2875C35.79 49.0753 35.7693 48.8605 35.7574 48.6427C33.6341 48.7705 31.5066 48.8883 29.3746 48.9953C27.7282 49.078 27.2848 47.5753 28.8193 47.4053C31.1947 47.142 33.5666 46.8719 35.9196 46.5741C35.9848 46.2713 36.0677 45.9758 36.1667 45.6886C34.3736 45.717 32.5572 45.6405 30.6728 45.3594C29.172 45.1348 28.936 43.8134 30.4366 43.7232C32.8447 43.5764 35.2541 43.419 37.6209 43.1945C37.731 43.0707 37.8452 42.9513 37.9632 42.8362C35.4926 42.9852 33.0204 43.13 30.5459 43.2681C28.8143 43.3649 28.3287 41.7616 29.9592 41.5876C32.463 41.3222 34.9568 41.0378 37.4248 40.7135L32.5098 40.8013C30.9492 40.8287 30.047 39.3883 31.5489 39.0746C33.3697 38.694 35.1909 38.312 37.0134 37.9337C36.1812 37.9065 35.3477 37.8772 34.5104 37.8387C32.9958 37.7681 32.804 36.2311 34.2743 36.2043V36.2043Z" stroke="#FEFEFE" stroke-width="1.5" stroke-miterlimit="22.9256" stroke-linecap="round" stroke-linejoin="round"/>
<path fill-rule="evenodd" clip-rule="evenodd" d="M34.2737 36.2045C39.761 36.1084 52.6622 35.0101 57.2043 32.732C57.8756 32.3955 59.5473 37.3209 59.8417 39.8298L54.5927 39.2137L49.3193 113.305C48.575 121.454 48.0664 128.359 47.5862 134.301H42.9359C43.4501 134.034 43.962 133.765 44.4714 133.493C43.8219 133.763 43.1721 134.033 42.5215 134.301H35.8567C39.1131 132.728 42.3169 131.111 45.424 129.416C43.9143 130.053 42.4063 130.691 40.8957 131.327C38.3795 132.388 35.9114 133.439 33.3448 134.301H26.4452C26.5945 134.187 26.7836 134.079 27.0163 133.986C31.8986 132.02 36.7739 130.013 41.2794 127.698C36.5344 129.616 31.7844 131.528 27.0221 133.42C25.0398 134.208 24.0476 132.553 25.8929 131.715C28.7257 130.431 31.5423 129.13 34.3184 127.792L28.6414 129.814C26.8378 130.454 25.4069 129.15 27.0645 128.202C29.0751 127.053 31.0854 125.901 33.098 124.753C32.1249 125.047 31.1513 125.339 30.1697 125.622C28.3941 126.133 27.7612 124.439 29.4592 123.834C31.2123 123.211 32.9717 122.614 34.7368 122.03C32.8248 122.397 30.8825 122.699 28.9094 122.943C27.7729 123.085 27.2386 122.069 28.2469 121.686C29.8273 121.083 31.4146 120.488 32.9992 119.887C31.5945 120.269 30.1882 120.651 28.7833 121.029C27.5907 121.351 26.7372 120.3 27.8566 119.856C31.6688 118.339 35.4805 116.823 39.2923 115.306C35.2626 116.403 31.2332 117.502 27.2044 118.598C25.8552 118.965 24.8639 117.756 26.1495 117.262C31.5622 115.176 36.9738 113.09 42.3868 111.007C36.6101 112.496 30.8332 113.989 25.0544 115.479C23.3514 115.905 22.5352 114.352 24.2329 113.919C30.4259 112.347 36.3591 110.443 42.0288 108.249C36.5544 109.769 31.0489 111.238 25.507 112.648C23.7035 113.107 22.985 111.556 24.6511 111.026C30.9763 109.017 37.2716 106.966 43.2414 104.587C41.796 104.996 40.3515 105.407 38.9043 105.816C34.7985 106.979 30.8246 108.131 26.3828 108.366C24.6938 108.455 24.2313 107.058 25.8725 106.623C30.5403 105.385 35.2052 104.108 39.5546 102.502C35.017 103.711 30.4755 104.915 25.9236 106.099C24.0287 106.592 23.2478 104.941 25.0199 104.385C27.7407 103.534 30.4471 102.666 33.1193 101.758L27.7127 102.952C25.9958 103.331 24.7807 101.952 26.3886 101.271L28.8803 100.218C28.4332 99.9514 28.337 99.4617 28.764 99.2467C27.8436 99.0558 27.6417 98.1303 28.4733 97.6852C28.5574 97.587 28.7012 97.5099 28.9159 97.47L30.6306 97.1513C33.3935 96.5686 36.1662 96.0443 38.9556 95.5315L28.4956 96.2386C27.2605 96.3219 26.5349 95.0732 27.7289 94.8652C32.7588 93.9891 37.7871 93.112 42.8169 92.2386C37.5391 92.5209 32.2615 92.8065 26.9827 93.0888C25.4283 93.1604 24.8992 91.6384 26.4492 91.5599C32.1039 91.2774 37.5706 90.6561 42.8398 89.7303C37.8252 90.0937 32.7895 90.4078 27.7289 90.662C26.0824 90.7448 25.6387 89.2416 27.1734 89.0715C32.9981 88.426 38.8023 87.7393 44.3584 86.7027C43.0334 86.8067 41.7093 86.9107 40.3826 87.0134C36.6193 87.3067 32.9727 87.6149 29.0269 87.026C27.5261 86.8013 27.2904 85.4799 28.7908 85.3896C33.0595 85.13 37.3302 84.8361 41.3631 84.1938C37.2133 84.4514 33.0598 84.7027 28.9002 84.9344C27.1686 85.0314 26.6829 83.428 28.3133 83.2542C30.8175 82.9888 33.3109 82.7041 35.7791 82.3802L30.8644 82.468C29.3033 82.4947 28.4016 81.0542 29.903 80.7409L32.9078 80.1127C31.4744 80.079 30.0279 80.0038 28.5678 79.8912C27.5484 79.8123 27.2019 78.8167 28.1374 78.6579C29.4254 78.4386 30.7173 78.2242 32.0073 78.0084C32.0552 77.9834 32.1079 77.9618 32.1651 77.9429C31.0073 78.02 29.8483 78.0974 28.6914 78.1719C27.6006 78.2437 26.9771 77.1587 28.018 76.9659C31.5662 76.3061 35.114 75.6475 38.6621 74.9876C34.9735 75.2364 31.2852 75.4868 27.5978 75.7352C26.3625 75.8182 25.637 74.5696 26.8312 74.3616C31.8025 73.4957 36.7728 72.6285 41.7446 71.7654L41.7719 71.7427L26.0847 72.5852C24.5304 72.6568 24.0012 71.135 25.5509 71.056C31.2058 70.774 36.6726 70.1523 41.9418 69.2264C36.9273 69.5902 31.8917 69.9042 26.8308 70.1584C25.1845 70.2414 24.741 68.7384 26.2755 68.5677C32.1001 67.9229 37.9044 67.2357 43.4607 66.1993C42.1355 66.3033 40.8112 66.407 39.4846 66.5094C35.7215 66.8033 32.0749 67.1115 28.129 66.5219C26.6284 66.2982 26.3921 64.9766 27.8922 64.8855C32.161 64.6263 36.4324 64.333 40.4653 63.69C36.3152 63.9477 32.1621 64.1988 28.0023 64.4311C26.2709 64.5278 25.7844 62.9246 27.4151 62.7506C29.9191 62.4849 32.4126 62.2004 34.8807 61.8766L29.9658 61.9641C28.4049 61.9911 27.5032 60.5506 29.0046 60.237C30.8256 59.8572 32.6467 59.4752 34.4692 59.0961C33.6366 59.0689 32.8033 59.0395 31.9663 59.0013C31.5926 58.9838 31.3 58.8771 31.0923 58.7262C30.0875 58.6366 29.7511 57.6533 30.6805 57.4948C32.1489 57.2448 33.6217 57.0013 35.0932 56.7543C33.8073 56.8402 32.5196 56.9262 31.2346 57.0091C30.1435 57.0805 29.5202 55.996 30.5614 55.8033C34.1094 55.1436 37.6568 54.4843 41.205 53.8245C37.5162 54.0732 33.8281 54.3235 30.1408 54.5721C28.9056 54.6551 28.1804 53.4062 29.3739 53.1983C34.404 52.3227 39.4321 51.4453 44.4618 50.5719C39.1843 50.854 33.9067 51.1405 28.6276 51.4221C27.0737 51.4942 26.5444 49.9721 28.0942 49.8935C33.7492 49.6114 39.2158 48.9896 44.485 48.0635C39.4703 48.4269 34.4345 48.7411 29.3741 48.9954C27.7275 49.0781 27.2841 47.5753 28.8187 47.4053C34.6433 46.7599 40.4475 46.0732 46.0036 45.0362C44.6783 45.14 43.3542 45.2439 42.0278 45.3471C38.2646 45.6406 34.618 45.9481 30.6724 45.3595C29.1716 45.1348 28.9355 43.8137 30.4359 43.7232C34.6341 43.4676 38.8354 43.1796 42.8099 42.5589L42.7963 42.5406C38.7168 42.7933 34.6342 43.0401 30.5454 43.2682C28.8138 43.3649 28.3281 41.7617 29.9585 41.5877C32.4627 41.3223 34.9564 41.0379 37.4245 40.7137L32.5093 40.8014C30.9487 40.8288 30.0465 39.3883 31.5482 39.0747C33.3693 38.6943 35.1904 38.3123 37.0129 37.9338C36.1807 37.9066 35.3472 37.8773 34.5099 37.8387C32.9953 37.7681 32.8035 36.2312 34.2737 36.2045Z" fill="#468CFF"/>
<path fill-rule="evenodd" clip-rule="evenodd" d="M76.0275 134.301H43.6561L48.8927 82.5046H70.5647L76.0275 134.301Z" fill="#16509D"/>
<path fill-rule="evenodd" clip-rule="evenodd" d="M43.4624 36.0834C39.8683 33.2359 36.2134 24.3384 37.9222 16.0664C39.7667 7.13964 44.8632 0.690392 48.7579 1.01148L43.4624 36.0834Z" fill="#16509D"/>
<path fill-rule="evenodd" clip-rule="evenodd" d="M59.8422 19.299C68.1292 19.299 75.3633 23.5596 79.2257 29.8891C77.9508 32.2219 77.23 29.1397 77.23 32.2938C77.23 35.4479 78.3512 39.05 80.2726 41.754C82.4498 42.9617 83.9385 45.4022 83.9385 48.2166C83.9385 49.1272 83.7825 49.9984 83.498 50.8017C83.7597 51.2576 83.9111 51.7947 83.9111 52.3698C83.9111 53.9927 82.7076 55.3138 81.2071 55.3585C81.2071 89.7966 82.8292 72.0706 69.1809 101.53H50.5033C36.855 72.0706 38.4773 89.7966 38.4773 55.3585C36.9768 55.3139 35.7733 53.993 35.7733 52.3699C35.7733 51.7949 35.9245 51.2576 36.1864 50.8017C35.9018 49.9986 35.7458 49.1272 35.7458 48.2166C35.7458 45.4022 37.2345 42.9617 39.4118 41.754C41.333 39.05 42.4544 35.4479 42.4544 32.2938C42.4544 29.1397 41.7335 32.2219 40.4585 29.8891C44.3211 23.5596 51.5552 19.299 59.8422 19.299Z" fill="#16509D"/>
<path fill-rule="evenodd" clip-rule="evenodd" d="M48.5845 47.8024H71.0983L67.8935 82.5048H53.3919L48.5845 47.8024Z" fill="url(#paint0_linear)"/>
<path d="M43.7172 25.3584C41.1677 22.7372 39.7404 19.4209 39.535 16.0502C39.3325 12.7423 40.3075 9.38086 42.5536 6.5733C43.1339 5.84764 43.7775 5.18797 44.4705 4.59701C45.1777 3.99364 45.9403 3.46231 46.7412 3.00525L47.2934 3.77179C46.5392 4.20133 45.8204 4.70308 45.1496 5.27464C44.4982 5.8303 43.8904 6.45355 43.3395 7.14296C41.2178 9.79498 40.2962 12.9643 40.4866 16.0788C40.6795 19.2377 42.0144 22.3442 44.3999 24.7964L43.7172 25.3584Z" fill="#FEFEFE"/>
<path fill-rule="evenodd" clip-rule="evenodd" d="M71.0068 33.5773C74.7624 33.435 78.85 32.4827 82.4681 30.3814C91.0319 25.4088 96.0842 17.7954 94.5816 13.7417L66.479 28.0677L71.0068 33.5773Z" fill="#16509D"/>
<path d="M74.8477 29.1779C77.5113 29.5585 79.6166 29.2784 81.5428 28.4914C83.4362 27.7172 85.1223 26.4624 86.9928 24.87C88.2384 23.8105 89.4612 22.6528 90.4995 21.5695C91.5525 20.4698 92.4217 19.4387 92.9386 18.6552L91.8969 18.1692C91.4168 18.8966 90.5965 19.8696 89.5943 20.9155C88.5848 21.9688 87.3957 23.0944 86.1829 24.1259C84.4081 25.6358 82.8244 26.8199 81.0954 27.5268C79.4017 28.2194 77.5268 28.4626 75.1277 28.1192L74.8477 29.1779Z" fill="#FEFEFE"/>
<path d="M59.8416 108.306C67.8153 108.306 74.2792 101.688 74.2792 93.5254C74.2792 85.3625 67.8153 78.7451 59.8416 78.7451C51.868 78.7451 45.404 85.3625 45.404 93.5254C45.404 101.688 51.868 108.306 59.8416 108.306Z" fill="#9F4793"/>
<path d="M53.7982 87.0476C54.5959 87.0301 55.2385 85.9934 55.2337 84.732C55.2288 83.4705 54.5782 82.4621 53.7806 82.4796C52.9829 82.4971 52.3402 83.5338 52.3451 84.7952C52.35 86.0566 53.0005 87.0651 53.7982 87.0476Z" fill="#0D2C45"/>
<path d="M65.4686 86.9295C66.2663 86.9121 66.909 85.8753 66.9041 84.6139C66.8992 83.3525 66.2487 82.3441 65.451 82.3616C64.6533 82.379 64.0107 83.4158 64.0155 84.6772C64.0204 85.9386 64.671 86.947 65.4686 86.9295Z" fill="#0D2C45"/>
<path fill-rule="evenodd" clip-rule="evenodd" d="M57.148 103.968C53.1612 102.432 50.8848 98.4512 49.9911 94.5131C49.9626 94.3874 49.9367 94.2631 49.9135 94.1401L50.7877 93.8275C51.3778 94.6799 52.0725 95.4259 52.8462 96.0321C57.5763 99.7368 66.2167 96.6468 67.5247 90.7828C67.7385 89.8233 67.8024 88.806 67.7183 87.7726L68.5925 87.46C68.6524 87.5699 68.7112 87.6823 68.769 87.7976C70.5753 91.4095 71.3396 95.9311 69.2307 99.6466C66.9539 103.657 61.4514 105.624 57.148 103.968Z" fill="#FEFEFE"/>
<path fill-rule="evenodd" clip-rule="evenodd" d="M81.5967 50.8317C80.3325 49.5551 71.379 49.961 70.5433 52.0344C74.9501 41.0981 79.4443 47.381 81.5967 50.8317Z" fill="#FEFEFE"/>
<path fill-rule="evenodd" clip-rule="evenodd" d="M35.6384 50.8318C36.9025 49.5552 45.856 49.9611 46.6918 52.0345C42.285 41.0982 37.7907 47.3811 35.6384 50.8318Z" fill="#FEFEFE"/>
<path d="M76.9849 51.3611C77.8615 51.3398 78.5678 50.0746 78.5624 48.5353C78.5571 46.996 77.8421 45.7654 76.9655 45.7867C76.089 45.808 75.3827 47.0732 75.388 48.6125C75.3934 50.1518 76.1083 51.3824 76.9849 51.3611Z" fill="#0D2C45"/>
<path d="M41.4243 51.3615C42.3009 51.3402 43.0072 50.075 43.0018 48.5357C42.9965 46.9963 42.2815 45.7658 41.4049 45.7871C40.5284 45.8084 39.8221 47.0736 39.8274 48.6129C39.8328 50.1522 40.5477 51.3828 41.4243 51.3615Z" fill="#0D2C45"/>
<path fill-rule="evenodd" clip-rule="evenodd" d="M69.8405 94.4348L69.9854 95.8076C69.8965 95.9483 69.8056 96.0872 69.712 96.2239C66.575 100.82 61.0305 103.328 55.211 101.522C54.1275 101.186 53.0465 100.725 51.9848 100.133C51.7913 100.025 51.7313 99.7958 51.8508 99.6209C51.9702 99.4459 52.2243 99.3919 52.418 99.4998C53.42 100.058 54.4457 100.495 55.4794 100.815C60.9293 102.507 66.0772 100.131 69.0109 95.8326C69.3124 95.3908 69.5898 94.9245 69.8405 94.4348Z" fill="#B2B3B3"/>
<path d="M51.8743 99.264C59.154 103.753 67.6201 100.536 70.3294 92.6487" stroke="#2B2A29" stroke-width="0.25" stroke-miterlimit="22.9256" stroke-linecap="round" stroke-linejoin="round"/>
<path d="M45.1454 95.7725C49.2225 96.3269 49.902 93.1782 50.1393 91.5763" stroke="#FEFEFE" stroke-width="0.25" stroke-miterlimit="22.9256"/>
<path d="M73.4959 86.6865C70.8779 89.2324 68.7324 87.3431 67.718 86.3248" stroke="#FEFEFE" stroke-width="0.25" stroke-miterlimit="22.9256"/>
<path d="M114.79 257.99L109.539 258.265C109.204 256.524 107.626 255.253 105.804 255.348C103.982 255.444 102.546 256.873 102.395 258.639L97.1097 258.916C96.7744 257.175 95.1965 255.904 93.3747 256C91.5521 256.095 90.1154 257.524 89.9639 259.291L84.6802 259.568C84.3449 257.826 82.7667 256.556 80.9441 256.651C79.1223 256.747 77.6859 258.176 77.5344 259.942L72.2496 260.219C71.9143 258.478 70.3363 257.207 68.5146 257.303C66.6928 257.398 65.2563 258.827 65.1049 260.594L59.8201 260.871C59.4847 259.129 57.9068 257.858 56.085 257.954C54.2633 258.049 52.8268 259.478 52.6754 261.245L47.3905 261.522C47.0552 259.781 45.4773 258.51 43.6555 258.605C41.8328 258.701 40.3962 260.13 40.2447 261.897L34.961 262.173C34.6255 260.432 33.0464 259.161 31.2249 259.257C29.4031 259.352 27.9667 260.781 27.8152 262.548L22.5304 262.825C22.1951 261.084 20.6171 259.813 18.7954 259.908C16.9736 260.004 15.5371 261.433 15.3857 263.199L10.1352 263.475L10.1335 263.443L10.1196 263.178L10.1057 262.913L10.0918 262.647L10.0779 262.382L10.064 262.117L10.0501 261.851L10.0362 261.586L10.0223 261.321L10.0084 261.055L9.9945 260.79L9.98059 260.525L9.96669 260.259L9.95278 259.994L9.93888 259.729L9.92497 259.464L9.91107 259.198L9.89716 258.933L9.88326 258.668L9.86936 258.402L9.85545 258.137L9.84155 257.872L9.82764 257.606L9.81374 257.341L9.79983 257.076L9.78593 256.81L9.77202 256.545L9.75812 256.28L9.74422 256.014L9.73031 255.749L9.71641 255.484L9.7025 255.219L9.6886 254.953L9.67469 254.688L9.66079 254.423L9.64688 254.157L9.63298 253.892L9.61908 253.627L9.60517 253.361L9.59127 253.096L9.57736 252.831L9.56346 252.565L9.54955 252.3L9.53565 252.035L9.52175 251.769L9.50784 251.504L9.49394 251.239L9.48003 250.974L9.46613 250.708L9.45222 250.443L9.43832 250.178L9.42441 249.912L9.41051 249.647L9.39661 249.382L9.3827 249.116L9.3688 248.851L9.35489 248.586L9.34099 248.32L9.32708 248.055L9.31318 247.79L9.29927 247.524L9.28537 247.259L9.27147 246.994L9.25756 246.729L9.24366 246.463L9.22975 246.198L9.21585 245.933L9.20194 245.667L9.18804 245.402L9.17413 245.137L9.16023 244.871L9.14633 244.606L9.13242 244.341L9.11852 244.075L9.10461 243.81L9.09071 243.545L9.0768 243.279L9.0629 243.014L9.04899 242.749L9.03509 242.484L9.02119 242.218L9.00728 241.953L8.99338 241.688L8.97947 241.422L8.96557 241.157L8.95166 240.892L8.93776 240.626L8.92385 240.361L8.90995 240.096L8.89605 239.83L8.88214 239.565L8.86824 239.3L8.85433 239.034L8.84043 238.769L8.82652 238.504L8.81262 238.239L8.79872 237.973L8.78481 237.708L8.77091 237.443L8.757 237.177L8.7431 236.912L8.72919 236.647L8.71529 236.381L8.70138 236.116L8.68748 235.851L8.67358 235.585L8.65967 235.32L8.64577 235.055L8.63186 234.789L8.61796 234.524L8.60405 234.259L8.59015 233.994L8.57624 233.728L8.56234 233.463L8.54844 233.198L8.53453 232.932L8.52063 232.667L8.50672 232.402L8.49282 232.136L8.47891 231.871L8.46501 231.606L8.4511 231.34L8.4372 231.075L8.4233 230.81L8.40939 230.544L8.39549 230.279L8.38158 230.014L8.36768 229.749L8.35377 229.483L8.33987 229.218L8.32596 228.953L8.31206 228.687L8.29816 228.422L8.28425 228.157L8.27035 227.891L8.25644 227.626L8.24254 227.361L8.22863 227.095L8.21473 226.83L8.20082 226.565L8.18692 226.3L8.17302 226.034L8.15911 225.769L8.14521 225.504L8.1313 225.238L8.1174 224.973L8.10349 224.708L8.08959 224.442L8.07568 224.177L8.06178 223.912L8.04788 223.646L8.03397 223.381L8.02007 223.116L8.00616 222.85L7.99226 222.585L7.97835 222.32L7.96445 222.055L7.95054 221.789L7.93664 221.524L7.92274 221.259L7.90883 220.993L7.89493 220.728L7.88102 220.463L7.86712 220.197L7.85321 219.932L7.83931 219.667L7.82541 219.401L7.8115 219.136L7.7976 218.871L7.78369 218.605L7.76979 218.34L7.75588 218.075L7.74198 217.81L7.72807 217.544L7.71417 217.279L7.70027 217.014L7.68636 216.748L7.67246 216.483L7.65855 216.218L7.64465 215.952L7.63074 215.687L7.61684 215.422L7.60293 215.156L7.58903 214.891L7.57513 214.626L7.56122 214.36L7.54732 214.095L7.53341 213.83L7.51951 213.565L7.5056 213.299L7.4917 213.034L7.47779 212.769L7.46389 212.503L7.44999 212.238L7.43608 211.973L7.42218 211.707L7.40827 211.442L7.39437 211.177L7.38046 210.911L7.36656 210.646L7.35265 210.381L7.33875 210.115L7.32485 209.85L7.31094 209.585L7.29704 209.32L7.28313 209.054L7.26923 208.789L7.25532 208.524L7.24142 208.258L7.22752 207.993L7.21361 207.728L7.19971 207.462L7.1858 207.197L7.1719 206.932L7.15799 206.666L7.14409 206.401L7.13018 206.136L7.11628 205.87L7.10238 205.605L7.08847 205.34L7.07457 205.075L7.06066 204.809L7.04676 204.544L7.03285 204.279L7.01895 204.013L7.00504 203.748L6.99114 203.483L6.97724 203.217L6.96333 202.952L6.94943 202.687L6.93552 202.421L6.92162 202.156L6.90771 201.891L6.89381 201.625L6.8799 201.36L6.866 201.095L6.8521 200.83L6.83819 200.564L6.82429 200.299L6.81038 200.034L6.79648 199.768L6.78257 199.503L6.76867 199.238L6.75476 198.972L6.74086 198.707L6.72696 198.442L6.71305 198.176L6.69915 197.911L6.68524 197.646L6.67134 197.38L6.65743 197.115L6.64353 196.85L6.62962 196.585L6.61572 196.319L6.60182 196.054L6.58791 195.789L6.57401 195.523L6.5601 195.258L6.5462 194.993L6.53229 194.727L6.51839 194.462L6.50449 194.197L6.49058 193.931L6.47668 193.666L6.46277 193.401L6.44887 193.135L6.43496 192.87L6.42106 192.605L6.40715 192.34L6.39325 192.074L6.37935 191.809L6.36544 191.544L6.35154 191.278L6.33763 191.013L6.32373 190.748L6.30982 190.482L6.29592 190.217L6.28201 189.952L6.26811 189.686L6.25421 189.421L6.2403 189.156L6.2264 188.89L6.21249 188.625L6.19859 188.36L6.18468 188.095L6.17078 187.829L6.15687 187.564L6.14297 187.299L6.12907 187.033L6.11516 186.768L6.10126 186.503L6.08735 186.237L6.07345 185.972L6.05954 185.707L6.04564 185.441L6.03173 185.176L6.01783 184.911L6.00393 184.645L5.99002 184.38L5.97612 184.115L5.96221 183.85L5.94831 183.584L5.9344 183.319L5.9205 183.054L5.90659 182.788L5.89269 182.523L5.87879 182.258L5.86488 181.992L5.85098 181.727L5.83707 181.462L5.82317 181.196L5.80926 180.931L5.79536 180.666L5.78145 180.4L5.76755 180.135L5.75365 179.87L5.73974 179.605L5.72584 179.339L5.71193 179.074L5.69803 178.809L5.68412 178.543L5.67022 178.278L5.65632 178.013L5.64241 177.747L5.62851 177.482L5.6146 177.217L5.6007 176.951L5.58679 176.686L5.57289 176.421L5.55898 176.155L5.54508 175.89L5.53118 175.625L5.51727 175.36L5.50337 175.094L5.48946 174.829L5.47556 174.564L5.46165 174.298L5.44775 174.033L5.43384 173.768L5.41994 173.502L5.40604 173.237L5.39213 172.972L5.37823 172.706L5.36432 172.441L5.35042 172.176L5.33651 171.911L5.32261 171.645L5.3087 171.38L5.2948 171.115L5.2809 170.849L5.26699 170.584L5.25309 170.319L5.23918 170.053L5.22528 169.788L5.21137 169.523L5.19747 169.257L5.18356 168.992L5.16966 168.727L5.15576 168.461L5.14185 168.196L5.12795 167.931L5.11404 167.666L5.10014 167.4L5.08623 167.135L5.07233 166.87L5.05843 166.604L5.04452 166.339L5.03062 166.074L5.01671 165.808L5.00281 165.543L4.9889 165.278L4.975 165.012L4.96109 164.747L4.94719 164.482L4.93329 164.216L4.91938 163.951L4.90548 163.686L4.89157 163.421L4.87767 163.155L4.86376 162.89L4.84986 162.625L4.83595 162.359L4.82205 162.094L4.80815 161.829L4.79424 161.563L4.78034 161.298L4.76643 161.033L4.75253 160.767L4.73862 160.502L4.72472 160.237L4.71081 159.971L4.69691 159.706L4.68301 159.441L4.6691 159.176L4.6552 158.91L4.64129 158.645L4.62739 158.38L4.61348 158.114L4.59958 157.849L4.58567 157.584L4.57177 157.318L4.55787 157.053L4.54396 156.788L4.53006 156.522L4.51615 156.257L4.50225 155.992L4.48834 155.726L4.47444 155.461L4.46053 155.196L4.44663 154.931L4.43273 154.665L4.41882 154.4L4.40492 154.135L4.39101 153.869L4.37711 153.604L4.3632 153.339L4.3493 153.073L4.3354 152.808L4.32149 152.543L4.30759 152.277L4.29368 152.012L4.27978 151.747L4.26587 151.481L4.25197 151.216L4.23806 150.951L4.22416 150.686L4.21026 150.42L4.19635 150.155L4.18245 149.89L4.16854 149.624L4.15464 149.359L4.14073 149.094L4.12683 148.828L4.11292 148.563L4.09902 148.298L4.08512 148.032L4.07121 147.767L4.05731 147.502L4.0434 147.236L4.0295 146.971L4.01559 146.706L4.00169 146.441L3.98778 146.175L3.97388 145.91L3.95998 145.645L3.94607 145.379L3.93217 145.114L3.91826 144.849L3.90436 144.583L3.89045 144.318L3.87655 144.053L3.86264 143.787L3.84874 143.522L3.83484 143.257L3.82093 142.991L3.80703 142.726L3.79312 142.461L3.77922 142.196L3.76531 141.93L3.75141 141.665L3.7375 141.4L3.7236 141.134L3.7097 140.869L3.69579 140.604L3.68189 140.338L3.66798 140.073L3.65408 139.808L3.64017 139.542L3.62627 139.277L3.61236 139.012L3.59846 138.746L3.58456 138.481L3.57065 138.216L3.55675 137.951L3.54284 137.685L3.52894 137.42L3.51503 137.155L3.50113 136.889L3.48723 136.624L3.47332 136.359L3.45942 136.093L3.44551 135.828L3.43161 135.563L3.4177 135.297L3.4038 135.032L3.38989 134.767L3.37599 134.501L3.36209 134.236L3.34818 133.971L3.33428 133.706L3.32037 133.44L3.30647 133.175L3.29256 132.91L3.27866 132.644L3.26475 132.379L3.25085 132.114L3.23695 131.848L3.22304 131.583L3.20914 131.318L3.19523 131.052L3.18133 130.787L3.16742 130.522L3.15352 130.256L3.13961 129.991L3.12571 129.726L3.11181 129.461L3.0979 129.195L3.084 128.93L3.07009 128.665L3.06845 128.633L107.723 123.149L107.725 123.18L107.739 123.445L107.752 123.711L107.766 123.976L107.78 124.241L107.794 124.506L107.808 124.772L107.822 125.037L107.836 125.302L107.85 125.568L107.864 125.833L107.878 126.098L107.892 126.364L107.905 126.629L107.919 126.894L107.933 127.16L107.947 127.425L107.961 127.69L107.975 127.956L107.989 128.221L108.003 128.486L108.017 128.751L108.031 129.017L108.044 129.282L108.058 129.547L108.072 129.813L108.086 130.078L108.1 130.343L108.114 130.609L108.128 130.874L108.142 131.139L108.156 131.405L108.17 131.67L108.184 131.935L108.197 132.201L108.211 132.466L108.225 132.731L108.239 132.996L108.253 133.262L108.267 133.527L108.281 133.792L108.295 134.058L108.309 134.323L108.323 134.588L108.336 134.854L108.35 135.119L108.364 135.384L108.378 135.65L108.392 135.915L108.406 136.18L108.42 136.446L108.434 136.711L108.448 136.976L108.462 137.241L108.476 137.507L108.489 137.772L108.503 138.037L108.517 138.303L108.531 138.568L108.545 138.833L108.559 139.099L108.573 139.364L108.587 139.629L108.601 139.895L108.615 140.16L108.628 140.425L108.642 140.691L108.656 140.956L108.67 141.221L108.684 141.486L108.698 141.752L108.712 142.017L108.726 142.282L108.74 142.548L108.754 142.813L108.768 143.078L108.781 143.344L108.795 143.609L108.809 143.874L108.823 144.14L108.837 144.405L108.851 144.67L108.865 144.935L108.879 145.201L108.893 145.466L108.907 145.731L108.92 145.997L108.934 146.262L108.948 146.527L108.962 146.793L108.976 147.058L108.99 147.323L109.004 147.589L109.018 147.854L109.032 148.119L109.046 148.385L109.06 148.65L109.073 148.915L109.087 149.18L109.101 149.446L109.115 149.711L109.129 149.976L109.143 150.242L109.157 150.507L109.171 150.772L109.185 151.038L109.199 151.303L109.212 151.568L109.226 151.834L109.24 152.099L109.254 152.364L109.268 152.63L109.282 152.895L109.296 153.16L109.31 153.425L109.324 153.691L109.338 153.956L109.352 154.221L109.365 154.487L109.379 154.752L109.393 155.017L109.407 155.283L109.421 155.548L109.435 155.813L109.449 156.079L109.463 156.344L109.477 156.609L109.491 156.875L109.504 157.14L109.518 157.405L109.532 157.67L109.546 157.936L109.56 158.201L109.574 158.466L109.588 158.732L109.602 158.997L109.616 159.262L109.63 159.528L109.643 159.793L109.657 160.058L109.671 160.324L109.685 160.589L109.699 160.854L109.713 161.12L109.727 161.385L109.741 161.65L109.755 161.915L109.769 162.181L109.783 162.446L109.796 162.711L109.81 162.977L109.824 163.242L109.838 163.507L109.852 163.773L109.866 164.038L109.88 164.303L109.894 164.569L109.908 164.834L109.922 165.099L109.935 165.365L109.949 165.63L109.963 165.895L109.977 166.16L109.991 166.426L110.005 166.691L110.019 166.956L110.033 167.222L110.047 167.487L110.061 167.752L110.075 168.018L110.088 168.283L110.102 168.548L110.116 168.814L110.13 169.079L110.144 169.344L110.158 169.61L110.172 169.875L110.186 170.14L110.2 170.405L110.214 170.671L110.227 170.936L110.241 171.201L110.255 171.467L110.269 171.732L110.283 171.997L110.297 172.263L110.311 172.528L110.325 172.793L110.339 173.059L110.353 173.324L110.367 173.589L110.38 173.855L110.394 174.12L110.408 174.385L110.422 174.65L110.436 174.916L110.45 175.181L110.464 175.446L110.478 175.712L110.492 175.977L110.506 176.242L110.519 176.508L110.533 176.773L110.547 177.038L110.561 177.304L110.575 177.569L110.589 177.834L110.603 178.1L110.617 178.365L110.631 178.63L110.645 178.895L110.659 179.161L110.672 179.426L110.686 179.691L110.7 179.957L110.714 180.222L110.728 180.487L110.742 180.753L110.756 181.018L110.77 181.283L110.784 181.549L110.798 181.814L110.811 182.079L110.825 182.345L110.839 182.61L110.853 182.875L110.867 183.14L110.881 183.406L110.895 183.671L110.909 183.936L110.923 184.202L110.937 184.467L110.951 184.732L110.964 184.998L110.978 185.263L110.992 185.528L111.006 185.794L111.02 186.059L111.034 186.324L111.048 186.59L111.062 186.855L111.076 187.12L111.09 187.385L111.103 187.651L111.117 187.916L111.131 188.181L111.145 188.447L111.159 188.712L111.173 188.977L111.187 189.243L111.201 189.508L111.215 189.773L111.229 190.039L111.243 190.304L111.256 190.569L111.27 190.835L111.284 191.1L111.298 191.365L111.312 191.63L111.326 191.896L111.34 192.161L111.354 192.426L111.368 192.692L111.382 192.957L111.395 193.222L111.409 193.488L111.423 193.753L111.437 194.018L111.451 194.284L111.465 194.549L111.479 194.814L111.493 195.08L111.507 195.345L111.521 195.61L111.534 195.875L111.548 196.141L111.562 196.406L111.576 196.671L111.59 196.937L111.604 197.202L111.618 197.467L111.632 197.733L111.646 197.998L111.66 198.263L111.674 198.529L111.687 198.794L111.701 199.059L111.715 199.325L111.729 199.59L111.743 199.855L111.757 200.12L111.771 200.386L111.785 200.651L111.799 200.916L111.813 201.182L111.826 201.447L111.84 201.712L111.854 201.978L111.868 202.243L111.882 202.508L111.896 202.774L111.91 203.039L111.924 203.304L111.938 203.57L111.952 203.835L111.966 204.1L111.979 204.365L111.993 204.631L112.007 204.896L112.021 205.161L112.035 205.427L112.049 205.692L112.063 205.957L112.077 206.223L112.091 206.488L112.105 206.753L112.118 207.019L112.132 207.284L112.146 207.549L112.16 207.814L112.174 208.08L112.188 208.345L112.202 208.61L112.216 208.876L112.23 209.141L112.244 209.406L112.258 209.672L112.271 209.937L112.285 210.202L112.299 210.468L112.313 210.733L112.327 210.998L112.341 211.264L112.355 211.529L112.369 211.794L112.383 212.059L112.397 212.325L112.41 212.59L112.424 212.855L112.438 213.121L112.452 213.386L112.466 213.651L112.48 213.917L112.494 214.182L112.508 214.447L112.522 214.713L112.536 214.978L112.55 215.243L112.563 215.509L112.577 215.774L112.591 216.039L112.605 216.304L112.619 216.57L112.633 216.835L112.647 217.1L112.661 217.366L112.675 217.631L112.689 217.896L112.702 218.162L112.716 218.427L112.73 218.692L112.744 218.958L112.758 219.223L112.772 219.488L112.786 219.754L112.8 220.019L112.814 220.284L112.828 220.549L112.842 220.815L112.855 221.08L112.869 221.345L112.883 221.611L112.897 221.876L112.911 222.141L112.925 222.407L112.939 222.672L112.953 222.937L112.967 223.203L112.981 223.468L112.994 223.733L113.008 223.999L113.022 224.264L113.036 224.529L113.05 224.794L113.064 225.06L113.078 225.325L113.092 225.59L113.106 225.856L113.12 226.121L113.134 226.386L113.147 226.652L113.161 226.917L113.175 227.182L113.189 227.448L113.203 227.713L113.217 227.978L113.231 228.244L113.245 228.509L113.259 228.774L113.273 229.039L113.286 229.305L113.3 229.57L113.314 229.835L113.328 230.101L113.342 230.366L113.356 230.631L113.37 230.897L113.384 231.162L113.398 231.427L113.412 231.693L113.425 231.958L113.439 232.223L113.453 232.489L113.467 232.754L113.481 233.019L113.495 233.284L113.509 233.55L113.523 233.815L113.537 234.08L113.551 234.346L113.565 234.611L113.578 234.876L113.592 235.142L113.606 235.407L113.62 235.672L113.634 235.938L113.648 236.203L113.662 236.468L113.676 236.734L113.69 236.999L113.704 237.264L113.717 237.529L113.731 237.795L113.745 238.06L113.759 238.325L113.773 238.591L113.787 238.856L113.801 239.121L113.815 239.387L113.829 239.652L113.843 239.917L113.857 240.183L113.87 240.448L113.884 240.713L113.898 240.979L113.912 241.244L113.926 241.509L113.94 241.774L113.954 242.04L113.968 242.305L113.982 242.57L113.996 242.836L114.009 243.101L114.023 243.366L114.037 243.632L114.051 243.897L114.065 244.162L114.079 244.428L114.093 244.693L114.107 244.958L114.121 245.224L114.135 245.489L114.149 245.754L114.162 246.019L114.176 246.285L114.19 246.55L114.204 246.815L114.218 247.081L114.232 247.346L114.246 247.611L114.26 247.877L114.274 248.142L114.288 248.407L114.301 248.673L114.315 248.938L114.329 249.203L114.343 249.469L114.357 249.734L114.371 249.999L114.385 250.264L114.399 250.53L114.413 250.795L114.427 251.06L114.441 251.326L114.454 251.591L114.468 251.856L114.482 252.122L114.496 252.387L114.51 252.652L114.524 252.918L114.538 253.183L114.552 253.448L114.566 253.713L114.58 253.979L114.593 254.244L114.607 254.509L114.621 254.775L114.635 255.04L114.649 255.305L114.663 255.571L114.677 255.836L114.691 256.101L114.705 256.367L114.719 256.632L114.733 256.897L114.746 257.163L114.76 257.428L114.774 257.693L114.788 257.958L114.79 257.99Z" fill="#FEFEFE" stroke="#C8C8C8"/>
<path d="M73.704 202.022L68.9036 202.274C69.167 202.04 69.4016 201.806 69.5625 201.571C71.3322 198.993 70.6959 195.453 68.1403 193.663C67.0748 192.917 65.8432 192.593 64.6422 192.656C62.9628 192.744 61.3407 193.588 60.3083 195.091C59.7804 195.86 59.4649 197.215 59.2781 198.733C58.9336 197.243 58.4781 195.928 57.8728 195.219C56.6898 193.832 54.9884 193.162 53.3081 193.25C52.1071 193.313 50.9161 193.764 49.9344 194.617C47.5799 196.664 47.3171 200.251 49.3465 202.63C49.5311 202.846 49.7889 203.055 50.0754 203.26L45.5982 203.495C42.3443 203.666 39.8371 206.477 40.0093 209.761L41.2837 234.079C41.4558 237.364 44.2432 239.899 47.4971 239.728L75.602 238.255C78.8558 238.085 81.363 235.273 81.1909 231.988L79.9164 207.67C79.7452 204.385 76.9579 201.852 73.704 202.022ZM63.4453 197.224C63.7746 196.771 64.2808 196.496 64.8419 196.466C65.128 196.451 65.5588 196.496 65.9881 196.797C66.8119 197.374 67.0288 198.509 66.4843 199.351C66.0291 199.836 64.626 200.593 62.8546 201.361C62.9455 199.417 63.1554 197.824 63.4453 197.224ZM51.7661 198.786C51.7873 198.498 51.8983 197.949 52.4025 197.51C52.798 197.166 53.2227 197.076 53.5087 197.061C54.0689 197.032 54.6011 197.253 54.9759 197.669C55.3269 198.235 55.7023 199.799 55.996 201.724C54.155 201.145 52.6804 200.539 52.1751 200.103C51.7726 199.603 51.7454 199.066 51.7661 198.786ZM43.7833 209.564C43.7212 208.379 44.6256 207.366 45.7978 207.305L73.9028 205.832C75.0759 205.771 76.0804 206.684 76.1424 207.868L76.3259 211.368L43.9667 213.064L43.7833 209.564ZM45.0578 233.882L44.1664 216.874L58.4599 216.125L59.4638 235.282L47.2975 235.919C46.1252 235.981 45.1199 235.068 45.0578 233.882ZM77.4178 232.187C77.4799 233.372 76.5755 234.385 75.4033 234.446L63.2369 235.084L62.2329 215.927L76.5264 215.178L77.4178 232.187Z" fill="#FB3569"/>
<path d="M55.1996 138.103L52.8963 138.224L54.4162 167.224L56.7195 167.103L55.1996 138.103Z" fill="#2B2A29"/>
<path d="M51.2387 138.31L48.2937 138.465L49.8136 167.465L52.7586 167.311L51.2387 138.31Z" fill="#2B2A29"/>
<path d="M46.6382 138.551L45.1662 138.629L46.6861 167.629L48.158 167.552L46.6382 138.551Z" fill="#2B2A29"/>
<path d="M43.511 138.715L41.15 138.839L42.6699 167.84L45.0309 167.716L43.511 138.715Z" fill="#2B2A29"/>
<path d="M39.4896 138.926L37.973 139.005L39.4928 168.006L41.0095 167.927L39.4896 138.926Z" fill="#2B2A29"/>
<path d="M36.3205 139.092L33.3025 139.25L34.8223 168.251L37.8404 168.093L36.3205 139.092Z" fill="#2B2A29"/>
<path d="M31.6428 139.337L30.1261 139.417L31.646 168.417L33.1626 168.338L31.6428 139.337Z" fill="#2B2A29"/>
<path d="M28.4723 139.503L26.9557 139.583L28.4755 168.584L29.9922 168.504L28.4723 139.503Z" fill="#2B2A29"/>
<path d="M25.2962 139.67L23.7796 139.75L25.2994 168.75L26.8161 168.671L25.2962 139.67Z" fill="#2B2A29"/>
<path d="M22.1254 139.836L20.6088 139.916L22.1286 168.916L23.6453 168.837L22.1254 139.836Z" fill="#2B2A29"/>
<path d="M59.1579 137.895L56.8546 138.016L58.3745 167.017L60.6778 166.896L59.1579 137.895Z" fill="#2B2A29"/>
<path d="M63.7624 137.654L60.8174 137.808L62.3372 166.809L65.2823 166.655L63.7624 137.654Z" fill="#2B2A29"/>
<path d="M66.8917 137.49L65.4197 137.567L66.9396 166.568L68.4115 166.491L66.8917 137.49Z" fill="#2B2A29"/>
<path d="M70.9092 137.279L68.5482 137.403L70.068 166.404L72.4291 166.28L70.9092 137.279Z" fill="#2B2A29"/>
<path d="M74.0864 137.113L72.5697 137.193L74.0896 166.193L75.6062 166.114L74.0864 137.113Z" fill="#2B2A29"/>
<path d="M78.7588 136.868L75.7407 137.026L77.2606 166.027L80.2786 165.869L78.7588 136.868Z" fill="#2B2A29"/>
<path d="M81.9332 136.702L80.4166 136.781L81.9364 165.782L83.4531 165.702L81.9332 136.702Z" fill="#2B2A29"/>
<path d="M85.1041 136.536L83.5875 136.615L85.1074 165.616L86.624 165.536L85.1041 136.536Z" fill="#2B2A29"/>
<path d="M88.2746 136.369L86.758 136.449L88.2779 165.45L89.7945 165.37L88.2746 136.369Z" fill="#2B2A29"/>
<path d="M91.4561 136.203L89.9394 136.282L91.4593 165.283L92.9759 165.203L91.4561 136.203Z" fill="#2B2A29"/>
<path fill-rule="evenodd" clip-rule="evenodd" d="M97.1879 176.768C98.6209 176.003 100.078 175.097 101.551 174.056C103.214 174.877 104.876 175.694 106.543 176.502L107.369 172.465C107.575 172.5 107.782 172.51 107.987 172.493C108.808 172.425 109.603 171.931 110.172 171.033L110.252 170.898C110.769 170.01 110.983 168.914 110.909 167.842C110.87 167.266 110.747 166.697 110.544 166.171C110.796 165.908 111.048 165.641 111.299 165.371C116.307 159.98 112.315 150.473 109.242 148.297L109.187 153.208C107.886 154.898 106.574 156.501 105.256 158.013C100.936 162.97 96.56 166.946 92.3557 169.802L91.5482 170.35L96.8358 176.956L97.1879 176.768Z" fill="#16509D"/>
<path fill-rule="evenodd" clip-rule="evenodd" d="M94.0069 168.447L88.8233 171.698L89.4784 172.587C91.1498 174.855 92.9073 176.838 94.7514 178.599C96.5991 180.364 98.5306 181.906 100.546 183.289L100.918 183.544L108.465 174.238C103.714 172.267 98.9611 170.303 94.2126 168.318L94.0069 168.447Z" fill="#0D2C45"/>
<path fill-rule="evenodd" clip-rule="evenodd" d="M19.8874 180.594C18.309 180.089 16.691 179.468 15.0437 178.733C13.382 179.594 11.7211 180.451 10.0536 181.302L8.78533 177.965C8.57346 178.015 8.35785 178.044 8.14103 178.05C7.27274 178.074 6.3904 177.736 5.70472 177.032L5.60762 176.925C4.97728 176.225 4.64346 175.318 4.61398 174.404C4.59832 173.911 4.66995 173.418 4.82995 172.953C4.53979 172.755 4.2497 172.553 3.95975 172.35C-1.82786 168.284 1.41042 159.837 4.41509 157.688L4.96163 161.841C6.49382 163.142 8.02963 164.369 9.5611 165.518C14.5844 169.285 19.5673 172.216 24.2593 174.215L25.1604 174.599L20.2753 180.718L19.8874 180.594Z" fill="#16509D"/>
<path fill-rule="evenodd" clip-rule="evenodd" d="M22.3936 173.232L28.1517 175.469L27.5533 176.287C26.0271 178.373 24.382 180.227 22.6244 181.902C20.863 183.581 18.9918 185.078 17.0165 186.45L16.6516 186.703L7.81383 179.576C12.5979 177.433 17.3852 175.297 22.1653 173.143L22.3936 173.232Z" fill="#0D2C45"/>
<defs>
<linearGradient id="paint0_linear" x1="59.8415" y1="47.8024" x2="59.8415" y2="82.5048" gradientUnits="userSpaceOnUse">
<stop stop-color="#16509D"/>
<stop offset="1" stop-color="#66C3D0"/>
</linearGradient>
</defs>
</svg>
