<?xml version="1.0" encoding="UTF-8"?>
<!DOCTYPE svg PUBLIC "-//W3C//DTD SVG 1.1//EN" "http://www.w3.org/Graphics/SVG/1.1/DTD/svg11.dtd">
<!-- Creator: CorelDRAW 2017 -->
<svg xmlns="http://www.w3.org/2000/svg" xml:space="preserve" width="101.6mm" height="35.9832mm" version="1.1" style="shape-rendering:geometricPrecision; text-rendering:geometricPrecision; image-rendering:optimizeQuality; fill-rule:evenodd; clip-rule:evenodd"
viewBox="0 0 10159.98 3598.32"
 xmlns:xlink="http://www.w3.org/1999/xlink">
 <defs>
  <style type="text/css">
   <![CDATA[
    .fil1 {fill:white}
    .fil0 {fill:white;fill-rule:nonzero}
   ]]>
  </style>
 </defs>
 <g id="Слой_x0020_1">
  <metadata id="CorelCorpID_0Corel-Layer"/>
  <path class="fil0" d="M4187.65 1066.72l39.8 0 -38.1 -570.65 -48.26 0 -127.85 329.35c-28.79,77.05 -49.11,132.08 -63.5,184.57l-2.54 0c-16.09,-55.03 -35.56,-112.6 -62.65,-184.57l-122.77 -329.35 -46.56 0 -41.49 570.65 39.79 0 17.78 -262.46c6.78,-94.83 11.01,-193.89 12.7,-260.78l1.7 0c16.93,62.66 41.48,131.24 73.66,220.14l112.6 303.1 27.94 0 120.23 -309.88c33.02,-85.51 55.88,-151.55 77.04,-213.36l1.7 0c0,62.66 6.77,167.64 11.85,253.16l16.93 270.08z"/>
  <path id="1" class="fil0" d="M4836.96 866.91l71.96 199.81 41.49 0 -205.74 -570.65 -38.95 0 -206.58 570.65 41.49 0 70.27 -199.81 226.06 0zm-213.36 -33.87l70.27 -192.19c11.85,-36.41 21.17,-66.04 29.63,-99.06l1.7 0c8.46,32.17 16.08,60.96 29.63,100.75l69.43 190.5 -200.66 0z"/>
  <path id="2" class="fil0" d="M5241.58 496.07l0 570.65 40.64 0 0 -275.16 22.86 0c113.45,0 154.94,52.49 185.42,134.61 17.78,46.57 35.56,100.76 56.72,140.55l43.18 0c-23.7,-46.57 -38.94,-93.98 -60.96,-150.71 -33.02,-82.12 -71.12,-143.08 -178.64,-153.24l226.06 -266.7 -46.57 0 -218.44 263.31 -29.63 0 0 -263.31 -40.64 0z"/>
  <path id="3" class="fil0" d="M6228.7 1014.23c-33.02,16.08 -80.43,26.24 -128.69,26.24 -153.25,0 -241.3,-99.9 -241.3,-254.84 0,-164.25 93.98,-264.16 248.07,-264.16 48.26,0 89.75,10.16 118.53,24.55l12.7 -33.86c-16.93,-8.47 -59.26,-24.56 -132.08,-24.56 -180.33,0 -289.55,127.85 -289.55,297.18 0,202.35 132.08,290.41 270.08,290.41 70.27,0 125.31,-14.4 154.09,-28.79l-11.85 -32.17z"/>
  <polygon id="4" class="fil0" points="6540.19,496.07 6540.19,1066.72 6580.83,1066.72 6580.83,781.4 6895.79,781.4 6895.79,1066.72 6936.43,1066.72 6936.43,496.07 6895.79,496.07 6895.79,747.53 6580.83,747.53 6580.83,496.07 "/>
  <polygon id="5" class="fil0" points="7545.94,749.22 7318.19,749.22 7318.19,529.94 7559.49,529.94 7559.49,496.07 7277.55,496.07 7277.55,1066.72 7573.03,1066.72 7573.03,1032.85 7318.19,1032.85 7318.19,783.09 7545.94,783.09 "/>
  <polygon id="6" class="fil0" points="7992.04,1066.72 8032.68,1066.72 8032.68,529.94 8218.95,529.94 8218.95,496.07 7805.78,496.07 7805.78,529.94 7992.04,529.94 "/>
  <path class="fil0" d="M2601.98 871.74c-118.02,47.95 -250.8,77.46 -379.9,106.97 -361.45,73.76 -608.57,188.1 -774.55,475.79 -147.53,247.12 -210.23,556.94 -210.23,922.08 0,534.81 143.84,1195.02 767.17,1195.02 516.37,0 759.8,-361.45 759.8,-940.52 0,-586.45 -324.57,-870.45 -733.98,-870.45 -247.12,0 -516.37,140.16 -634.39,438.91l-7.38 0c18.44,-217.61 73.77,-486.86 195.48,-678.65 143.85,-232.36 368.84,-339.33 674.97,-394.65 110.65,-22.13 258.18,-59.01 339.32,-92.21l3.69 -162.29zm-14.75 1785.16c0,372.52 -151.22,770.86 -571.69,770.86 -402.03,0 -579.07,-494.24 -579.07,-826.19 0,-136.47 25.82,-272.94 84.83,-390.96 88.52,-177.04 254.5,-302.45 486.86,-302.45 449.98,0 579.07,431.54 579.07,745.05l0 3.69z"/>
  <path class="fil0" d="M3578.29 1760.63l0 693.41c0,457.35 -22.13,759.79 -224.99,888.89 -47.95,29.5 -110.65,51.63 -162.29,59.01l14.76 143.84c114.34,0 177.04,-29.5 247.12,-70.07 254.49,-143.85 302.44,-497.93 302.44,-1036.43l0 -531.12 745.04 0 0 1622.87 177.04 0 0 -1770.4 -1099.12 0z"/>
  <polygon class="fil0" points="7923.13,1760.63 7923.13,3531.03 8100.17,3531.03 8100.17,1908.16 8922.67,1908.16 8922.67,1760.63 "/>
  <path class="fil1" d="M6347.16 1693.35c526.02,0 952.46,426.44 952.46,952.47 0,526.03 -426.44,952.47 -952.46,952.47 -526.03,0 -952.47,-426.44 -952.47,-952.47 0,-526.03 426.44,-952.47 952.47,-952.47zm-420.82 571.26c0.37,-0.25 0.91,-0.46 1.2,-0.54 10.95,-3.44 400.77,-1.12 419.93,-1.12 25.25,0 405.7,-2.16 419.96,0.75 3.56,10.86 0.41,435.97 1.24,510.81l-0.66 11.15c-0.08,0.33 -0.46,1.49 -0.5,1.29 -0.08,-0.21 -0.33,0.82 -0.54,1.24l-840.71 -0.17 0.08 -523.41zm-69.65 570.93l980.48 0c-2.45,-93 0,-189.32 0,-282.23 0,-94.66 0,-189.28 0,-283.93 0,-18.25 3.81,-51.25 -5.35,-63.48 -12.03,-16.05 -35.37,-11.74 -58.5,-11.74l-850.05 0c-74.3,0 -66.58,2.16 -66.58,75.22 0,94.11 0,188.19 0,282.27 0,94.16 1.7,189.94 0,283.89zm363.57 145.2c4.4,-10.66 10.28,-19.82 15.76,-30.44 3.56,-6.96 10.36,-25.54 17.37,-28.94l192.67 0.38 27.57 59.08 -253.37 -0.08zm-455.62 35.36l1164.57 0c-2.65,-8.95 -71.11,-141.79 -75.29,-146.85l-1014.23 0 -75.05 146.85zm1119.25 81.23c31.97,0 46.52,6.01 59.21,-17.75 20.52,-38.51 -5.6,-29.77 -36.11,-29.77l-1137.25 0c-21.6,0 -27.78,-3.69 -25.33,11.86 1.57,10.16 6.01,19.78 12.02,26.54 8.29,9.28 13.77,9.16 29.81,9.12 365.2,-1.29 732.17,0 1097.65,0z"/>
  <polygon class="fil0" points="667.36,3598.32 -0,3598.32 -0,0 667.36,0 667.36,238.99 279.57,238.99 279.57,3359.33 667.36,3359.33 "/>
  <polygon class="fil0" points="9492.63,3598.32 10159.99,3598.32 10159.99,0 9492.63,0 9492.63,238.99 9880.42,238.99 9880.42,3359.33 9492.63,3359.33 "/>
 </g>
</svg>
