<svg width="1140" height="257" viewBox="0 0 1140 257" fill="none" xmlns="http://www.w3.org/2000/svg">
<g clip-path="url(#clip0)">
<path d="M1125.13 242H821.946C819.363 242 817.243 239.649 817.243 236.798V235.124C817.243 232.256 819.363 229.922 821.946 229.922C921.915 229.922 1060.45 229.922 1125.13 229.922C1127.73 229.922 1129.85 232.256 1129.85 235.124V236.798C1129.85 239.649 1127.73 242 1125.13 242Z" fill="#043078"/>
<path d="M907.254 146.128C905.206 146.128 903.531 144.454 903.531 142.405V126.32C903.531 114.937 912.794 105.674 924.177 105.674H960.481C962.547 105.674 964.204 107.348 964.204 109.397C964.204 111.445 962.547 113.12 960.481 113.12H924.177C916.891 113.12 910.977 119.034 910.977 126.32V142.405C910.977 144.454 909.303 146.128 907.254 146.128Z" fill="#8E9AA6"/>
<path d="M906.791 139.413V129.223C906.791 117.983 913.828 108.578 926.956 108.578C927.116 108.578 927.277 108.578 927.437 108.578H957.239C957.043 110.163 956.865 111.677 956.687 113.12H924.177C916.891 113.12 910.977 119.034 910.977 126.32V139.288C909.445 139.341 908.038 139.377 906.791 139.413Z" fill="#4E5C6B"/>
<path d="M933.28 229.228C933.28 232.63 930.537 235.391 927.134 235.391C923.732 235.391 920.971 232.63 920.971 229.228C920.971 225.825 923.732 223.064 927.134 223.064C930.537 223.064 933.28 225.825 933.28 229.228Z" fill="#43566A"/>
<path d="M955.6 229.228C955.6 232.63 952.839 235.391 949.437 235.391C946.034 235.391 943.291 232.63 943.291 229.228C943.291 225.825 946.034 223.064 949.437 223.064C952.839 223.064 955.6 225.825 955.6 229.228Z" fill="#43566A"/>
<path d="M977.92 229.228C977.92 232.63 975.159 235.391 971.757 235.391C968.354 235.391 965.593 232.63 965.593 229.228C965.593 225.825 968.354 223.064 971.757 223.064C975.159 223.064 977.92 225.825 977.92 229.228Z" fill="#43566A"/>
<path d="M1000.24 229.228C1000.24 232.63 997.479 235.391 994.077 235.391C990.675 235.391 987.914 232.63 987.914 229.228C987.914 225.825 990.675 223.064 994.077 223.064C997.479 223.064 1000.24 225.825 1000.24 229.228Z" fill="#43566A"/>
<path d="M933.173 228.106H921.078C921.202 227.375 921.47 226.698 921.826 226.093H932.425C932.781 226.698 933.048 227.375 933.173 228.106Z" fill="#2E3E50"/>
<path d="M955.493 228.106H943.398C943.523 227.375 943.79 226.698 944.146 226.093H954.745C955.101 226.698 955.368 227.375 955.493 228.106Z" fill="#2E3E50"/>
<path d="M977.813 228.106H965.7C965.843 227.375 966.092 226.698 966.466 226.093H977.047C977.421 226.698 977.671 227.375 977.813 228.106Z" fill="#2E3E50"/>
<path d="M1000.13 228.106H988.02C988.163 227.375 988.412 226.698 988.786 226.093H999.368C999.742 226.698 999.991 227.375 1000.13 228.106Z" fill="#2E3E50"/>
<path d="M958.272 216.331H964.329V152.862H958.272V216.331Z" fill="#99A4AE"/>
<path d="M958.272 216.331H961.407V152.862H958.272V216.331Z" fill="#BFC5CC"/>
<path d="M965.95 205.482V184.944H956.651V205.037C956.651 207.246 955.226 209.188 953.124 209.847L924.658 218.825C921.487 219.822 919.35 222.761 919.35 226.093H1001.86C1001.86 222.761 999.706 219.822 996.535 218.825L969.477 210.292C967.375 209.633 965.95 207.674 965.95 205.482Z" fill="#8E9AA6"/>
<path d="M1001.86 226.093H980.004C980.004 222.761 978.437 219.822 976.103 218.825L963.634 210.292C962.102 209.633 961.051 207.674 961.051 205.482V184.944H965.95V205.482C965.95 207.674 967.375 209.633 969.477 210.292L996.535 218.825C999.706 219.822 1001.86 222.761 1001.86 226.093Z" fill="#6F7C89"/>
<path d="M961.407 159.845H964.329V157.048H961.407V159.845Z" fill="#6A7683"/>
<path d="M958.272 159.845H961.407V157.048H958.272V159.845Z" fill="#848E9A"/>
<path d="M981.287 157.048H941.314C937.787 157.048 934.919 154.162 934.919 150.653C934.919 147.144 937.787 144.258 941.314 144.258H981.287C984.814 144.258 987.682 147.144 987.682 150.653C987.682 154.162 984.814 157.048 981.287 157.048Z" fill="#8E9AA6"/>
<path d="M987.682 150.688C987.682 150.688 987.682 150.688 987.682 150.671C987.682 150.688 987.682 150.688 987.682 150.688ZM934.919 150.688C934.919 150.688 934.919 150.688 934.919 150.671C934.919 150.688 934.919 150.688 934.919 150.688Z" fill="#1B2E42"/>
<path d="M986.969 153.556H935.631C935.186 152.701 934.919 151.739 934.919 150.724V150.706C934.919 150.688 934.919 150.688 934.919 150.688C934.919 150.688 934.919 150.688 934.919 150.671C934.919 150.671 934.919 150.671 934.919 150.653L954.656 150.76C954.727 150.777 954.816 150.777 954.905 150.777H955.048L955.101 150.76L955.725 150.777C955.725 150.777 955.778 150.76 955.903 150.742C958.985 150.671 970.439 150.368 987.629 149.851C987.664 150.118 987.682 150.386 987.682 150.653C987.682 150.671 987.682 150.671 987.682 150.671C987.682 150.688 987.682 150.688 987.682 150.688C987.682 150.688 987.682 150.688 987.682 150.706V150.724C987.664 151.739 987.415 152.701 986.969 153.556Z" fill="#6F7C89"/>
<path d="M1029.28 2.14251L1029.29 2H971.881V2.01781C969.174 2.21376 966.929 4.35137 966.698 7.13026C962.672 57.3463 956.704 124.093 953.694 130.185L953.605 130.346C950.933 135.387 949.454 138.166 932.122 138.682C911.601 139.306 899.096 139.609 898.971 139.609C895.889 139.698 893.467 142.245 893.538 145.327C893.609 148.373 896.103 150.778 899.114 150.778H899.256C899.327 150.76 902.712 150.688 908.804 150.51L954.798 150.76L954.905 150.778H955.048L955.101 150.76L955.725 150.778C955.725 150.778 955.778 150.76 955.903 150.742C959.02 150.671 970.706 150.368 988.234 149.833C1010.45 149.174 1014.78 144.008 1019.25 135.583L1019.34 135.405C1024.73 125.269 1031.63 32.7281 1033.6 8.02093C1033.84 5.22423 1031.95 2.74816 1029.28 2.14251Z" fill="#7FB6D7"/>
<path d="M954.905 150.778C951.895 150.778 949.401 148.373 949.33 145.327C949.258 142.245 951.681 139.698 954.763 139.609C954.887 139.609 967.392 139.306 987.896 138.682C1005.25 138.166 1006.72 135.387 1009.4 130.346L1009.49 130.185C1012.48 124.093 1018.46 57.3462 1022.49 7.13024C1022.74 4.06634 1025.43 1.76841 1028.49 2.01779C1031.57 2.26718 1033.85 4.95701 1033.6 8.02091C1031.63 32.7281 1024.73 125.269 1019.34 135.405L1019.25 135.583C1014.78 144.008 1010.45 149.174 988.234 149.833C967.695 150.457 955.172 150.76 955.048 150.778H954.905Z" fill="#B6202E"/>
<path d="M967.464 4.7967H1032.84C1032.09 3.47851 1030.83 2.49878 1029.28 2.14251L1029.29 2H971.881V2.01781C970.011 2.16032 968.372 3.22912 967.464 4.7967Z" fill="#7FB6D7"/>
<path d="M954.816 125.928C955.386 122.9 955.992 118.517 956.687 113.12H956.722C956.045 118.517 955.404 122.9 954.816 125.928ZM957.631 105.674H957.595C957.791 104.035 957.987 102.325 958.201 100.562C958.005 102.325 957.827 104.035 957.631 105.674Z" fill="#1F3449"/>
<path d="M957.292 108.578H957.239C957.364 107.633 957.47 106.672 957.595 105.674H957.631C957.506 106.672 957.399 107.633 957.292 108.578Z" fill="#808C98"/>
<path d="M956.722 113.12H956.687C956.865 111.677 957.043 110.163 957.239 108.578H957.292C957.096 110.163 956.918 111.677 956.722 113.12Z" fill="#465362"/>
<path d="M953.302 139.84H897.546C897.991 139.715 898.455 139.626 898.953 139.609C898.971 139.609 898.971 139.609 898.971 139.609C899.096 139.609 911.601 139.306 932.122 138.682C949.454 138.166 950.933 135.387 953.605 130.346L953.694 130.185C953.694 130.167 953.694 130.167 953.712 130.167C954.068 129.437 954.424 127.994 954.816 125.928C955.404 122.9 956.045 118.517 956.722 113.12C956.918 111.677 957.096 110.163 957.292 108.578C957.399 107.633 957.506 106.672 957.631 105.674C957.827 104.035 958.005 102.325 958.201 100.562C958.325 99.564 958.45 98.5308 958.575 97.4798L1014.33 97.4264C1014.03 100.312 1013.73 103.073 1013.42 105.674H980.895C969.512 105.674 960.249 114.937 960.249 126.32V139.466C956.722 139.573 954.816 139.609 954.763 139.609C954.264 139.626 953.765 139.715 953.302 139.84Z" fill="#7FB6D7"/>
<path d="M1019.34 135.405H1019.35H1019.34ZM1019.35 135.405C1019.94 134.282 1020.55 132.198 1021.15 129.33C1020.57 132.145 1019.96 134.229 1019.35 135.405ZM1025.54 98.7089C1025.57 98.2814 1025.62 97.8361 1025.68 97.4086H1025.7C1025.64 97.8361 1025.59 98.2814 1025.54 98.7089Z" fill="#1F3449"/>
<path d="M967.695 139.27V126.32C967.695 119.034 973.609 113.12 980.895 113.12H1012.51C1011.36 122.294 1010.3 128.511 1009.49 130.185L1009.4 130.346C1006.72 135.387 1005.25 138.166 987.896 138.682C979.844 138.932 973.021 139.128 967.695 139.27Z" fill="#7FB6D7"/>
<path d="M955.725 150.777L955.101 150.76L955.048 150.777C955.172 150.76 967.695 150.457 988.234 149.833C970.706 150.368 959.02 150.671 955.903 150.742C955.778 150.76 955.725 150.777 955.725 150.777Z" fill="#CF4647"/>
<path d="M899.114 150.778H899.096H899.114H899.256C899.327 150.76 902.712 150.689 908.804 150.51L934.919 150.653L908.804 150.51C902.712 150.689 899.327 150.76 899.256 150.778H899.114ZM899.096 150.778H899.078H899.096ZM899.078 150.778H899.06H899.078ZM899.06 150.778H899.042H899.06ZM899.042 150.778H899.025H899.042ZM899.025 150.778H899.007H899.025ZM899.007 150.778C899.007 150.778 899.007 150.778 898.989 150.778C899.007 150.778 899.007 150.778 899.007 150.778ZM898.989 150.778C898.989 150.778 898.989 150.778 898.971 150.778C898.989 150.778 898.989 150.778 898.989 150.778ZM898.971 150.778C898.971 150.778 898.971 150.778 898.953 150.778C898.971 150.778 898.971 150.778 898.971 150.778ZM898.953 150.778C898.953 150.76 898.953 150.76 898.936 150.76C898.953 150.76 898.953 150.76 898.953 150.778ZM898.864 150.76C898.864 150.76 898.864 150.76 898.846 150.76C898.864 150.76 898.864 150.76 898.864 150.76ZM898.846 150.76C898.846 150.76 898.846 150.76 898.829 150.76C898.846 150.76 898.846 150.76 898.846 150.76ZM898.829 150.76C898.829 150.76 898.829 150.76 898.811 150.76C898.829 150.76 898.829 150.76 898.829 150.76ZM898.811 150.76C898.811 150.76 898.811 150.76 898.793 150.76C898.811 150.76 898.811 150.76 898.811 150.76ZM898.793 150.76C898.793 150.76 898.793 150.76 898.775 150.76C898.793 150.76 898.793 150.76 898.793 150.76ZM898.615 150.742C898.597 150.742 898.597 150.742 898.597 150.742C898.597 150.742 898.597 150.742 898.615 150.742ZM898.472 150.742C898.455 150.742 898.455 150.742 898.455 150.742C898.455 150.742 898.455 150.742 898.472 150.742ZM898.455 150.724C898.437 150.724 898.437 150.724 898.437 150.724C898.437 150.724 898.437 150.724 898.455 150.724ZM898.437 150.724H898.419H898.437ZM898.419 150.724H898.401H898.419ZM898.205 150.706C898.205 150.706 898.205 150.706 898.205 150.689C898.205 150.706 898.205 150.706 898.205 150.706Z" fill="#1E3248"/>
<path d="M899.114 150.778H899.096H899.078H899.06H899.042H899.025H899.007C899.007 150.778 899.007 150.778 898.989 150.778C898.989 150.778 898.989 150.778 898.971 150.778C898.971 150.778 898.971 150.778 898.953 150.778C898.953 150.76 898.953 150.76 898.936 150.76C898.918 150.76 898.918 150.76 898.918 150.76C898.9 150.76 898.9 150.76 898.9 150.76C898.882 150.76 898.882 150.76 898.882 150.76C898.864 150.76 898.864 150.76 898.864 150.76C898.864 150.76 898.864 150.76 898.846 150.76C898.846 150.76 898.846 150.76 898.829 150.76C898.829 150.76 898.829 150.76 898.811 150.76C898.811 150.76 898.811 150.76 898.793 150.76C898.793 150.76 898.793 150.76 898.775 150.76C898.757 150.76 898.757 150.76 898.757 150.76C898.74 150.76 898.74 150.76 898.74 150.76C898.722 150.76 898.722 150.76 898.722 150.76C898.704 150.76 898.704 150.76 898.704 150.76H898.686H898.668H898.651C898.651 150.76 898.651 150.76 898.633 150.76C898.633 150.76 898.633 150.742 898.615 150.742C898.597 150.742 898.597 150.742 898.597 150.742C898.579 150.742 898.579 150.742 898.561 150.742H898.544H898.526H898.508C898.508 150.742 898.508 150.742 898.49 150.742C898.49 150.742 898.49 150.742 898.472 150.742C898.455 150.742 898.455 150.742 898.455 150.742C898.455 150.724 898.455 150.724 898.455 150.724C898.437 150.724 898.437 150.724 898.437 150.724H898.419H898.401C898.383 150.724 898.383 150.724 898.383 150.724C898.33 150.724 898.294 150.706 898.259 150.706C898.241 150.706 898.241 150.706 898.241 150.706C898.223 150.706 898.223 150.706 898.223 150.706H898.205C898.205 150.706 898.205 150.706 898.205 150.689H898.187C898.187 150.689 898.187 150.689 898.17 150.689C895.783 150.279 893.894 148.337 893.592 145.897H949.365C949.704 148.569 951.93 150.653 954.656 150.76L934.919 150.653L908.804 150.51C902.712 150.689 899.327 150.76 899.256 150.778H899.114Z" fill="#7FB6D7"/>
<path d="M988.234 149.833C989.73 149.798 991.138 149.727 992.492 149.637C991.138 149.727 989.73 149.798 988.234 149.833ZM992.492 149.637C992.509 149.637 992.509 149.637 992.527 149.637C992.509 149.637 992.509 149.637 992.492 149.637Z" fill="#1E3248"/>
<path d="M954.905 150.778C951.895 150.778 949.401 148.373 949.33 145.327C949.258 142.245 951.681 139.698 954.763 139.609C954.887 139.609 967.392 139.306 987.896 138.682C1005.25 138.166 1006.72 135.387 1009.4 130.346L1009.49 130.185C1012.48 124.093 1018.46 57.3462 1022.49 7.13024C1022.74 4.06634 1025.43 1.76841 1028.49 2.01779C1031.57 2.26718 1033.85 4.95701 1033.6 8.02091C1031.63 32.7281 1024.73 125.269 1019.34 135.405L1019.25 135.583C1014.78 144.008 1010.45 149.174 988.234 149.833C967.695 150.457 955.172 150.76 955.048 150.778H954.905Z" fill="#EE4F4F"/>
<path d="M954.905 150.778C951.895 150.778 949.401 148.373 949.33 145.327C949.33 145.291 949.33 145.238 949.33 145.184C949.33 142.174 951.734 139.698 954.763 139.609C954.816 139.609 956.722 139.573 960.249 139.466V142.405C960.249 144.454 961.924 146.128 963.972 146.128C966.021 146.128 967.695 144.454 967.695 142.405V139.27C973.021 139.128 979.844 138.932 987.896 138.682C1005.25 138.166 1006.72 135.387 1009.4 130.346L1009.49 130.185C1010.3 128.511 1011.36 122.294 1012.51 113.12H1017.2C1019.27 113.12 1020.92 111.446 1020.92 109.397C1020.92 107.348 1019.27 105.674 1017.2 105.674H1013.42C1013.96 101.043 1014.51 95.9123 1015.08 90.4436H1026.43C1024.11 112.514 1021.6 131.165 1019.34 135.405L1019.25 135.583C1014.78 144.008 1010.45 149.174 988.234 149.833C967.695 150.457 955.172 150.76 955.048 150.778H954.905ZM1028.56 68.6221H1026.11C1026.14 68.4262 1026.14 68.2302 1026.14 68.0343C1026.14 66.057 1024.84 64.4538 1023.26 64.4538C1022.9 64.4538 1022.61 64.7388 1022.61 65.0951C1022.61 65.4514 1022.9 65.7186 1023.26 65.7186C1024.13 65.7186 1024.88 66.7874 1024.88 68.0343C1024.88 68.2302 1024.86 68.4262 1024.82 68.6221H1019.75C1019.78 68.4262 1019.8 68.2302 1019.8 68.0343C1019.8 66.342 1018.86 64.9348 1017.57 64.5607C1019.32 45.6963 1021.03 25.3356 1022.49 7.13026C1022.72 4.20886 1025.18 2 1028.05 2C1028.21 2 1028.35 2 1028.49 2.01781C1031.41 2.24939 1033.64 4.68982 1033.64 7.5756C1033.64 7.7181 1033.62 7.87842 1033.6 8.02093C1032.71 19.1009 1030.84 43.8081 1028.56 68.6221ZM1018.46 68.6221H1017.2C1017.29 67.7137 1017.38 66.7874 1017.45 65.8789C1018.07 66.1995 1018.52 67.0546 1018.52 68.0343C1018.52 68.2302 1018.5 68.4262 1018.46 68.6221Z" fill="#2D87BD"/>
<path d="M963.972 146.128C961.924 146.128 960.249 144.454 960.249 142.405V126.32C960.249 114.937 969.512 105.674 980.895 105.674H1017.2C1019.27 105.674 1020.92 107.348 1020.92 109.397C1020.92 111.445 1019.27 113.12 1017.2 113.12H980.895C973.609 113.12 967.695 119.034 967.695 126.32V142.405C967.695 144.454 966.021 146.128 963.972 146.128Z" fill="#8E9AA6"/>
<path d="M963.972 146.128C963.848 146.128 963.723 146.093 963.598 146.093C963.545 145.825 963.509 145.576 963.509 145.309V129.223C963.509 117.983 970.545 108.578 983.674 108.578C983.834 108.578 983.995 108.578 984.155 108.578H1020.46C1020.58 108.578 1020.71 108.613 1020.83 108.613C1020.89 108.863 1020.92 109.13 1020.92 109.397C1020.92 111.446 1019.27 113.12 1017.2 113.12H980.895C973.609 113.12 967.695 119.034 967.695 126.32V142.405C967.695 144.454 966.021 146.128 963.972 146.128Z" fill="#4E5C6B"/>
<path d="M1092.98 72.6301H1125.09V59.2878H1092.98V72.6301Z" fill="#B824A4"/>
<path d="M1065.94 71.0091H1091.23V60.9089H1065.94V71.0091Z" fill="white"/>
<path d="M1065.94 63.2069H1091.23V60.9089H1065.94V63.2069Z" fill="#B0B8C0"/>
<path d="M1063.64 59.2878V61.9242H1090.55V69.9937H1063.64V72.6301H1093.53V59.2878H1063.64Z" fill="#DB41C7"/>
<path d="M1096.77 68.4439H1121.32V63.474H1096.77V68.4439Z" fill="#DB41C7"/>
<path d="M1094.95 89.8378H1127.07V72.5767H1094.95V89.8378Z" fill="#2D87BD"/>
<path d="M1056.09 88.2169H1093.19V74.1978H1056.09V88.2169Z" fill="white"/>
<path d="M1056.09 76.4779H1093.19V74.1978H1056.09V76.4779Z" fill="#B0B8C0"/>
<path d="M1053.81 72.5767V75.1952H1092.51V87.2015H1053.81V89.8378H1095.49V72.5767H1053.81Z" fill="#7FB6D7"/>
<path d="M1098.73 85.6517H1123.28V76.745H1098.73V85.6517Z" fill="#7FB6D7"/>
<path d="M1025.34 69.8156L1025.14 69.7799C1024.81 69.6731 1024.63 69.3168 1024.73 68.9783C1024.82 68.6755 1024.88 68.3549 1024.88 68.0342C1024.88 66.7873 1024.13 65.7185 1023.26 65.7185C1022.9 65.7185 1022.61 65.4513 1022.61 65.095C1022.61 64.7387 1022.9 64.4537 1023.26 64.4537C1024.84 64.4537 1026.14 66.0569 1026.14 68.0342C1026.14 68.4974 1026.07 68.9427 1025.95 69.3702C1025.86 69.6374 1025.61 69.8156 1025.34 69.8156Z" fill="#5E6E7F"/>
<path d="M1031.7 69.8156L1031.49 69.7799C1031.16 69.6731 1030.99 69.3168 1031.09 68.9783C1031.18 68.6755 1031.24 68.3549 1031.24 68.0342C1031.24 66.7873 1030.49 65.7185 1029.6 65.7185C1029.26 65.7185 1028.97 65.4513 1028.97 65.095C1028.97 64.7387 1029.26 64.4537 1029.6 64.4537C1031.2 64.4537 1032.5 66.0569 1032.5 68.0342C1032.5 68.4974 1032.43 68.9427 1032.29 69.3702C1032.22 69.6374 1031.97 69.8156 1031.7 69.8156Z" fill="#5E6E7F"/>
<path d="M1038.04 69.8156L1037.84 69.7799C1037.52 69.6731 1037.33 69.3168 1037.43 68.9783C1037.54 68.6755 1037.6 68.3549 1037.6 68.0342C1037.6 66.7873 1036.85 65.7185 1035.96 65.7185C1035.6 65.7185 1035.33 65.4513 1035.33 65.095C1035.33 64.7387 1035.6 64.4537 1035.96 64.4537C1037.56 64.4537 1038.86 66.0569 1038.86 68.0342C1038.86 68.4974 1038.79 68.9427 1038.65 69.3702C1038.56 69.6374 1038.31 69.8156 1038.04 69.8156Z" fill="#5E6E7F"/>
<path d="M1018.98 69.8156L1018.78 69.7799C1018.45 69.6731 1018.27 69.3168 1018.37 68.9783C1018.46 68.6755 1018.52 68.3549 1018.52 68.0342C1018.52 66.7873 1017.77 65.7185 1016.9 65.7185C1016.54 65.7185 1016.25 65.4513 1016.25 65.095C1016.25 64.7387 1016.54 64.4537 1016.9 64.4537C1018.5 64.4537 1019.8 66.0569 1019.8 68.0342C1019.8 68.4974 1019.73 68.9427 1019.59 69.3702C1019.5 69.6374 1019.25 69.8156 1018.98 69.8156Z" fill="#5E6E7F"/>
<path d="M1046.61 90.4435L1042.81 68.6221H1011.02L1014.83 90.4435H1046.61Z" fill="#384C61"/>
<path d="M1042.8 90.4435H1014.83L1011.02 68.6221H1042.81L1042.8 90.4435Z" fill="#2E4055"/>
<path d="M1039.2 90.4435L1042.81 68.6577L1042.17 67.4464L1011.02 68.6577L1007.42 90.4435H1039.2Z" fill="#D9DCDF"/>
<path d="M1038.36 90.497H1006.58L1010.39 67.4464H1042.17L1038.36 90.497Z" fill="white"/>
<path d="M1041.18 73.4852L1042.17 67.4464H1010.39L1009.4 73.4852H1041.18Z" fill="#FECC00"/>
<path d="M1016.4 70.154C1016.4 70.7418 1015.92 71.2406 1015.33 71.2406C1014.74 71.2406 1014.26 70.7418 1014.26 70.154C1014.26 69.5483 1014.74 69.0674 1015.33 69.0674C1015.92 69.0674 1016.4 69.5483 1016.4 70.154Z" fill="#223950"/>
<path d="M1015.2 70.635C1015.01 70.635 1014.81 70.5281 1014.69 70.35C1014.24 69.7087 1013.99 68.8893 1013.99 68.0342C1013.99 66.0569 1015.29 64.4537 1016.9 64.4537C1017.25 64.4537 1017.52 64.7387 1017.52 65.095C1017.52 65.4513 1017.25 65.7185 1016.9 65.7185C1016.01 65.7185 1015.26 66.7873 1015.26 68.0342C1015.26 68.6221 1015.44 69.1921 1015.74 69.6374C1015.93 69.9225 1015.86 70.3143 1015.56 70.5103C1015.45 70.5994 1015.33 70.635 1015.2 70.635Z" fill="#5E6E7F"/>
<path d="M1022.76 70.154C1022.76 70.7418 1022.28 71.2406 1021.69 71.2406C1021.1 71.2406 1020.62 70.7418 1020.62 70.154C1020.62 69.5483 1021.1 69.0674 1021.69 69.0674C1022.28 69.0674 1022.76 69.5483 1022.76 70.154Z" fill="#223950"/>
<path d="M1021.56 70.635C1021.37 70.635 1021.17 70.5281 1021.05 70.35C1020.6 69.7087 1020.35 68.8893 1020.35 68.0342C1020.35 66.0569 1021.65 64.4537 1023.26 64.4537C1023.59 64.4537 1023.88 64.7387 1023.88 65.095C1023.88 65.4513 1023.59 65.7185 1023.26 65.7185C1022.36 65.7185 1021.62 66.7873 1021.62 68.0342C1021.62 68.6221 1021.78 69.1921 1022.08 69.6374C1022.29 69.9225 1022.2 70.3143 1021.92 70.5103C1021.81 70.5994 1021.69 70.635 1021.56 70.635Z" fill="#5E6E7F"/>
<path d="M1029.12 70.154C1029.12 70.7418 1028.63 71.2406 1028.05 71.2406C1027.44 71.2406 1026.96 70.7418 1026.96 70.154C1026.96 69.5483 1027.44 69.0674 1028.05 69.0674C1028.63 69.0674 1029.12 69.5483 1029.12 70.154Z" fill="#223950"/>
<path d="M1027.92 70.635C1027.71 70.635 1027.51 70.5281 1027.39 70.35C1026.94 69.7087 1026.71 68.8893 1026.71 68.0342C1026.71 66.0569 1028.01 64.4537 1029.6 64.4537C1029.95 64.4537 1030.24 64.7387 1030.24 65.095C1030.24 65.4513 1029.95 65.7185 1029.6 65.7185C1028.72 65.7185 1027.98 66.7873 1027.98 68.0342C1027.98 68.6221 1028.14 69.1921 1028.44 69.6374C1028.63 69.9225 1028.56 70.3143 1028.28 70.5103C1028.17 70.5994 1028.05 70.635 1027.92 70.635Z" fill="#5E6E7F"/>
<path d="M1035.48 70.154C1035.48 70.7418 1034.99 71.2406 1034.39 71.2406C1033.8 71.2406 1033.32 70.7418 1033.32 70.154C1033.32 69.5483 1033.8 69.0674 1034.39 69.0674C1034.99 69.0674 1035.48 69.5483 1035.48 70.154Z" fill="#223950"/>
<path d="M1034.28 70.635C1034.07 70.635 1033.87 70.5281 1033.75 70.35C1033.3 69.7087 1033.05 68.8893 1033.05 68.0342C1033.05 66.0569 1034.35 64.4537 1035.96 64.4537C1036.31 64.4537 1036.6 64.7387 1036.6 65.095C1036.6 65.4513 1036.31 65.7185 1035.96 65.7185C1035.08 65.7185 1034.34 66.7873 1034.34 68.0342C1034.34 68.6221 1034.5 69.1921 1034.8 69.6374C1034.99 69.9225 1034.92 70.3143 1034.64 70.5103C1034.53 70.5994 1034.41 70.635 1034.28 70.635Z" fill="#5E6E7F"/>
<path d="M951.04 76.7806L852.834 75.9612L843.75 8.09216H942.792L951.04 76.7806Z" fill="#97A2AD"/>
<path d="M947.94 3.74573L942.792 8.0922L951.04 76.7807L956.206 72.452L947.94 3.74573Z" fill="#BFC5CC"/>
<path d="M947.94 3.74573H848.916L843.75 8.0922H942.792L947.94 3.74573Z" fill="#DEE1E5"/>
<path d="M911.227 82.3562H898.223L904.618 35.311H887.499L870.167 89.9982H915.751V86.8987C915.751 84.387 913.721 82.3562 911.227 82.3562Z" fill="#516275"/>
<path d="M909.499 76.4422L899.042 76.3531L902.338 52.1269L904.582 35.5426L909.499 76.4422Z" fill="#828E9A"/>
<path d="M861.385 237.244H870.06V97.1592H861.385V237.244Z" fill="#8E9AA6"/>
<path d="M867.887 237.244H876.562V97.1592H867.887V237.244Z" fill="#627283"/>
<path d="M861.385 106.137H867.887V97.1592H861.385V106.137Z" fill="#6F7C89"/>
<path d="M876.562 106.137H867.887V97.1592H876.562V106.137Z" fill="#4D5C6C"/>
<path d="M823.87 237.244H832.545V97.1592H823.87V237.244Z" fill="#8E9AA6"/>
<path d="M830.39 237.244H839.065V97.1592H830.39V237.244Z" fill="#627283"/>
<path d="M823.87 106.137H830.39V97.1592H823.87V106.137Z" fill="#6F7C89"/>
<path d="M839.065 106.137H830.39V97.1592H839.065V106.137Z" fill="#4D5C6C"/>
<path d="M1108.47 237.244H1117.15V97.1592H1108.47V237.244Z" fill="#8E9AA6"/>
<path d="M1114.98 237.244H1123.65V97.1592H1114.98V237.244Z" fill="#627283"/>
<path d="M1108.47 106.137H1114.98V97.1592H1108.47V106.137Z" fill="#6F7C89"/>
<path d="M1123.65 106.137H1114.98V97.1592H1123.65V106.137Z" fill="#4D5C6C"/>
<path d="M1070.96 237.244H1079.65V97.1592H1070.96V237.244Z" fill="#8E9AA6"/>
<path d="M1077.48 237.244H1086.15V97.1592H1077.48V237.244Z" fill="#627283"/>
<path d="M1070.96 106.137H1077.48V97.1592H1070.96V106.137Z" fill="#6F7C89"/>
<path d="M1086.15 106.137H1077.48V97.1592H1086.15V106.137Z" fill="#4D5C6C"/>
<path d="M809.067 101.951H1080.42V89.8735H809.067V101.951Z" fill="#D9DADA"/>
<path d="M1079.03 101.951H1139.93V89.8735H1079.03V101.951Z" fill="#B2B3B3"/>
</g>
<path d="M182.575 194.481C167.447 185.764 142.909 185.764 127.781 194.481C114.954 201.907 113.002 213.203 121.925 221.814C121.403 221.953 120.915 222.163 120.496 222.407L72.6743 250.019C70.6526 251.17 70.6526 253.087 72.6743 254.238L75.6719 255.981C77.6935 257.166 80.9351 257.062 82.887 255.772L127.433 226.625C127.607 226.486 127.781 226.381 127.921 226.242C143.083 234.888 167.517 234.853 182.575 226.137C197.737 217.421 197.737 203.231 182.575 194.481Z" fill="#043078"/>
<path d="M288.954 162.719L228.061 197.967C226.702 198.734 224.541 198.734 223.181 197.967L117.22 136.78C115.861 135.978 115.861 134.723 117.22 133.956L178.113 98.6738C179.472 97.9068 181.668 97.9068 183.028 98.6738L288.954 159.895C290.314 160.662 290.314 161.917 288.954 162.719Z" fill="#043078"/>
<path d="M17.7764 229.379L1.46394 219.966C-0.487981 218.816 -0.487981 216.968 1.46394 215.852L114.815 150.377C116.802 149.262 119.974 149.262 121.96 150.377L138.238 159.791C140.225 160.941 140.225 162.789 138.238 163.905L24.9219 229.379C22.9351 230.495 19.7284 230.495 17.7764 229.379Z" fill="#043078"/>
<path d="M286.724 151.284L227.852 185.346C226.563 186.113 224.436 186.113 223.147 185.346L120.74 126.216C119.451 125.484 119.451 124.264 120.74 123.497L179.612 89.4348C180.901 88.6677 183.028 88.6677 184.352 89.4348L286.724 148.564C288.013 149.297 288.013 150.552 286.724 151.284Z" fill="#516275"/>
<path d="M255.284 166.903C253.436 167.949 250.508 167.949 248.696 166.903C246.883 165.857 246.883 164.184 248.696 163.103C250.508 162.057 253.436 162.057 255.284 163.103C257.096 164.184 257.096 165.857 255.284 166.903Z" fill="#29383E"/>
<path d="M227.852 185.346L286.724 151.284C287.874 150.621 288.013 149.575 287.072 148.808C288.222 149.68 289.094 151.284 289.094 152.644V154.875C289.094 156.409 288.013 158.222 286.724 158.989L227.852 193.051C227.225 193.435 226.353 193.609 225.482 193.609V185.904C226.353 185.904 227.225 185.73 227.852 185.346Z" fill="#808E9E"/>
<path d="M120.74 133.921C119.451 133.154 118.405 131.341 118.405 129.807V127.611C118.405 126.216 119.276 124.613 120.392 123.741C119.451 124.508 119.59 125.554 120.74 126.216L223.147 185.346C223.774 185.73 224.645 185.904 225.482 185.904V193.609C224.645 193.609 223.774 193.435 223.147 193.051L120.74 133.921Z" fill="#415163"/>
<path d="M218.023 178.234L273.548 146.089C274.315 145.636 274.315 144.904 273.548 144.45L191.498 96.9654C190.731 96.5122 189.441 96.5122 188.674 96.9654L133.149 129.11C132.347 129.563 132.347 130.296 133.149 130.749L215.2 178.234C215.966 178.687 217.256 178.687 218.023 178.234Z" fill="#FAFAFA"/>
<path d="M141.724 130.575L168.249 145.915C169.225 146.473 170.828 146.473 171.839 145.915L218.441 118.965C219.452 118.407 219.452 117.466 218.441 116.908L191.916 101.568C190.94 101.01 189.337 101.01 188.361 101.568L141.724 128.518C140.713 129.075 140.713 129.982 141.724 130.575Z" fill="#EBECEC"/>
<path d="M161.208 123.218L168.005 124.578C168.458 124.648 168.911 124.613 169.294 124.438L175.046 121.963C175.952 121.58 177.276 121.963 177.242 122.625L177.172 126.774C177.172 127.018 177.381 127.262 177.73 127.437L183.62 129.808C184.561 130.191 184.317 131.028 183.237 131.237L176.37 132.457C175.917 132.527 175.603 132.736 175.464 132.98L173.303 136.955C172.989 137.582 171.525 137.722 170.863 137.164L166.715 133.782C166.471 133.573 166.018 133.433 165.565 133.468L158.385 133.503C157.234 133.503 156.572 132.771 157.269 132.248L161.557 128.901C161.835 128.692 161.905 128.413 161.766 128.169L159.465 124.229C159.082 123.602 160.127 123.009 161.208 123.218Z" fill="#FECC00"/>
<path d="M176.37 114.537L190.94 106.135C191.532 105.786 192.404 105.716 192.857 105.995C193.31 106.239 193.24 106.762 192.648 107.076L178.043 115.513C177.451 115.862 176.579 115.931 176.126 115.653C175.673 115.374 175.778 114.886 176.37 114.537Z" fill="#FAFAFA"/>
<path d="M180.03 116.664L194.635 108.227C195.227 107.913 196.064 107.843 196.552 108.122C197.005 108.366 196.9 108.889 196.308 109.203L181.703 117.64C181.111 117.989 180.274 118.058 179.821 117.779C179.333 117.5 179.437 117.012 180.03 116.664Z" fill="#FAFAFA"/>
<path d="M183.725 118.79L198.294 110.353C198.887 110.04 199.758 109.97 200.212 110.249C200.665 110.493 200.56 111.016 200.002 111.329L185.398 119.767C184.805 120.115 183.934 120.185 183.481 119.906C183.028 119.627 183.132 119.139 183.725 118.79Z" fill="#FAFAFA"/>
<path d="M187.385 120.917L201.989 112.48C202.582 112.166 203.418 112.096 203.906 112.375C204.359 112.619 204.255 113.142 203.662 113.456L189.058 121.893C188.465 122.242 187.629 122.312 187.175 122.033C186.687 121.754 186.792 121.266 187.385 120.917Z" fill="#FAFAFA"/>
<path d="M191.079 123.044L205.649 114.607C206.242 114.293 207.113 114.223 207.566 114.502C208.019 114.746 207.915 115.234 207.357 115.583L192.752 124.02C192.16 124.369 191.288 124.404 190.835 124.159C190.382 123.881 190.487 123.392 191.079 123.044Z" fill="#FAFAFA"/>
<path d="M194.739 125.171L209.344 116.733C209.936 116.42 210.773 116.35 211.261 116.629C211.714 116.873 211.609 117.361 211.017 117.71L196.412 126.147C195.82 126.495 194.983 126.53 194.53 126.286C194.042 126.007 194.147 125.519 194.739 125.171Z" fill="#FAFAFA"/>
<path d="M174.453 149.471L175.673 150.168C176.266 150.517 177.207 150.517 177.799 150.168L205.788 134.026C206.381 133.677 206.381 133.12 205.788 132.771L204.569 132.074C203.976 131.76 203.035 131.76 202.442 132.074L174.453 148.251C173.861 148.599 173.861 149.157 174.453 149.471Z" fill="#E0E0E0"/>
<path d="M224.645 120.499L225.865 121.196C226.458 121.545 226.458 122.068 225.865 122.416L214.607 128.936C214.014 129.25 213.073 129.25 212.481 128.936L211.261 128.239C210.668 127.89 210.668 127.332 211.261 126.984L222.519 120.499C223.112 120.15 224.053 120.15 224.645 120.499Z" fill="#E0E0E0"/>
<path d="M181.912 153.759L208.438 169.099C209.413 169.657 211.017 169.657 211.993 169.099L258.63 142.184C259.641 141.591 259.641 140.685 258.63 140.092L232.105 124.752C231.129 124.194 229.525 124.194 228.549 124.752L181.912 151.702C180.901 152.26 180.901 153.201 181.912 153.759Z" fill="#EBECEC"/>
<path d="M201.397 146.438L208.193 147.762C208.647 147.832 209.1 147.797 209.483 147.658L215.234 145.148C216.141 144.764 217.465 145.148 217.43 145.81L217.361 149.959C217.326 150.238 217.57 150.482 217.918 150.621L223.809 153.027C224.75 153.41 224.506 154.247 223.425 154.422L216.559 155.677C216.106 155.746 215.792 155.921 215.653 156.2L213.492 160.139C213.178 160.767 211.714 160.906 211.052 160.383L206.904 157.001C206.66 156.757 206.207 156.653 205.754 156.653L198.573 156.688C197.423 156.723 196.761 155.956 197.458 155.433L201.745 152.086C202.024 151.876 202.094 151.632 201.954 151.388L199.654 147.449C199.27 146.821 200.316 146.228 201.397 146.438Z" fill="#FECC00"/>
<path d="M216.559 137.757L231.129 129.319C231.721 128.971 232.593 128.901 233.046 129.18C233.499 129.459 233.394 129.947 232.837 130.296L218.232 138.733C217.639 139.047 216.768 139.116 216.315 138.837C215.862 138.593 215.966 138.07 216.559 137.757Z" fill="#FAFAFA"/>
<path d="M220.219 139.883L234.823 131.446C235.416 131.097 236.252 131.028 236.74 131.307C237.194 131.586 237.089 132.074 236.496 132.422L221.892 140.859C221.299 141.173 220.463 141.243 220.01 140.964C219.522 140.72 219.626 140.197 220.219 139.883Z" fill="#FAFAFA"/>
<path d="M223.913 142.01L238.483 133.573C239.076 133.224 239.947 133.154 240.4 133.433C240.853 133.712 240.749 134.2 240.156 134.549L225.587 142.951C224.994 143.3 224.123 143.37 223.669 143.091C223.216 142.847 223.321 142.324 223.913 142.01Z" fill="#FAFAFA"/>
<path d="M227.573 144.137L242.178 135.699C242.77 135.351 243.607 135.281 244.095 135.56C244.548 135.839 244.444 136.327 243.851 136.676L229.246 145.078C228.654 145.427 227.817 145.496 227.329 145.217C226.876 144.973 226.981 144.45 227.573 144.137Z" fill="#FAFAFA"/>
<path d="M231.268 146.263L245.838 137.826C246.43 137.478 247.302 137.408 247.755 137.687C248.208 137.966 248.103 138.454 247.546 138.802L232.941 147.205C232.349 147.553 231.477 147.623 231.024 147.344C230.571 147.065 230.675 146.577 231.268 146.263Z" fill="#FAFAFA"/>
<path d="M234.928 148.355L249.532 139.953C250.125 139.604 250.962 139.535 251.45 139.813C251.903 140.092 251.798 140.58 251.206 140.929L236.601 149.331C236.008 149.68 235.172 149.75 234.684 149.471C234.231 149.192 234.335 148.704 234.928 148.355Z" fill="#FAFAFA"/>
<path d="M214.642 172.69L215.862 173.388C216.454 173.736 217.395 173.736 217.988 173.388L245.977 157.211C246.57 156.862 246.57 156.339 245.977 155.991L244.757 155.293C244.165 154.945 243.224 154.945 242.631 155.293L214.642 171.435C214.049 171.784 214.049 172.342 214.642 172.69Z" fill="#E0E0E0"/>
<path d="M264.834 143.683L266.054 144.381C266.647 144.729 266.647 145.287 266.054 145.636L254.796 152.12C254.203 152.469 253.262 152.469 252.669 152.12L251.45 151.423C250.857 151.075 250.857 150.517 251.45 150.168L262.708 143.683C263.3 143.335 264.242 143.335 264.834 143.683Z" fill="#E0E0E0"/>
<path d="M155.143 109.028C154.76 109.238 154.097 109.238 153.714 109.028C153.296 108.784 153.296 108.401 153.714 108.157C154.097 107.948 154.76 107.948 155.143 108.157C155.561 108.401 155.561 108.784 155.143 109.028Z" fill="#29383E"/>
<path d="M152.843 115.583C152.041 116.036 150.751 116.036 149.95 115.583C149.148 115.13 149.148 114.363 149.95 113.909C150.751 113.456 152.041 113.456 152.843 113.909C153.644 114.363 153.644 115.13 152.843 115.583Z" fill="#29383E"/>
<path d="M154.899 112.689C154.341 112.375 154.376 111.852 154.934 111.539L164.484 105.995C165.077 105.681 165.948 105.681 166.506 105.96C167.029 106.274 166.994 106.797 166.436 107.111L156.886 112.654C156.328 112.968 155.422 112.968 154.899 112.689Z" fill="#29383E"/>
<path d="M131.79 32.0483V34.0007L125.097 37.8706L115.059 43.6581L26.4555 94.8038C25.9675 95.0827 25.5493 95.5708 25.2007 96.1286C24.887 96.6865 24.6779 97.314 24.6779 97.9067V215.678C24.6779 222.058 20.1815 224.673 14.6394 221.465C9.09735 218.258 4.60095 210.483 4.60095 204.068V86.2969C4.60095 85.7391 4.81009 85.1116 5.12379 84.5537C5.47235 83.9959 5.89062 83.5078 6.3786 83.2289L105.02 26.2609L114.536 20.7523C114.85 21.3101 115.059 21.9377 115.059 22.5304V24.3085L9.72475 85.2859C9.27162 85.5299 8.85336 85.9832 8.53965 86.5061C8.15624 87.0988 7.94711 87.7612 7.94711 88.3539V206.02C7.94711 210.274 10.9447 215.469 14.6394 217.595C18.3341 219.722 21.3317 217.979 21.3317 213.725V95.9543C21.3317 95.3965 21.5409 94.7689 21.8546 94.2111C22.2031 93.6533 22.6214 93.1652 23.1094 92.8863L131.302 30.4097C131.58 30.9327 131.79 31.5253 131.79 32.0483Z" fill="#E0E0E0"/>
<path d="M121.751 26.4004V32.0484L19.7632 90.934C19.2752 91.2129 18.857 91.701 18.5084 92.2588C18.1947 92.8166 17.9856 93.479 17.9856 94.0369V211.808C17.9856 213.935 16.4868 214.806 14.6394 213.726C12.7921 212.68 11.2933 210.065 11.2933 207.938V90.1669C11.2933 89.6091 11.5024 88.9816 11.8161 88.3889C12.1647 87.831 12.5829 87.3778 13.0709 87.064L121.228 24.6223C121.542 25.1801 121.751 25.8077 121.751 26.4004Z" fill="#E0E0E0"/>
<path d="M28.5469 98.081C28.2332 98.6388 28.0241 99.2664 28.0241 99.8242V216.584C28.0241 217.491 27.9543 218.327 27.8498 219.129C27.8149 219.339 27.7801 219.548 27.7801 219.757C27.7104 219.966 27.6755 220.14 27.6406 220.35C27.6058 220.524 27.5709 220.698 27.5012 220.838C27.4664 221.012 27.4315 221.186 27.3967 221.326C26.6647 223.592 25.4099 225.231 23.8065 226.172C21.4015 227.532 18.1947 227.392 14.6394 225.335C7.25001 221.047 1.25482 210.204 1.25482 201.105V84.3794C1.25482 83.7867 1.46396 83.1591 1.77766 82.6013L5.12381 84.5537C4.81011 85.1115 4.60098 85.7391 4.60098 86.2969V204.068C4.60098 210.483 9.09737 218.258 14.6394 221.465C20.1815 224.673 24.6779 222.058 24.6779 215.678V97.9067C24.6779 97.314 24.887 96.6864 25.2007 96.1286L28.5469 98.081Z" fill="#EBECEC"/>
<path d="M21.8546 94.2112C21.5409 94.769 21.3318 95.3966 21.3318 95.9544V213.726C21.3318 217.979 18.3342 219.722 14.6395 217.595C10.9447 215.469 7.94714 210.274 7.94714 206.021V88.354C7.94714 87.7613 8.15628 87.0989 8.53969 86.5062L11.8161 88.3889C11.5024 88.9816 11.2933 89.6091 11.2933 90.167V207.938C11.2933 210.065 12.7921 212.68 14.6395 213.726C16.4868 214.806 17.9856 213.935 17.9856 211.808V94.0369C17.9856 93.4791 18.1947 92.8166 18.5084 92.2588L21.8546 94.2112Z" fill="#EBECEC"/>
<path d="M114.536 20.7523L105.02 26.2608L6.37861 83.2289C5.89063 83.5078 5.47236 83.9959 5.1238 84.5537L1.77765 82.6013C2.09135 82.0435 2.54448 81.5554 3.03246 81.2765C14.3954 74.722 76.9615 38.5679 101.674 24.3085L103.556 23.2277L105.439 22.1469L107.112 21.1707L108.088 20.6128L109.9 19.5669C110.911 18.9742 112.445 18.9742 113.351 19.4972C113.839 19.7412 114.222 20.2293 114.536 20.7523Z" fill="#FAFAFA"/>
<path d="M137.959 34.2796L128.444 39.7881L111.713 49.4455L29.8017 96.7213C29.3137 97.0351 28.8606 97.5232 28.5469 98.081L25.2007 96.1286C25.5493 95.5708 25.9676 95.0827 26.4556 94.8038L115.059 43.6581L125.097 37.8706L131.79 34.0007L133.323 33.0942L133.463 33.0245C134.439 32.5015 135.868 32.5015 136.774 32.9896V33.0245L136.948 33.1291C137.367 33.408 137.68 33.7915 137.959 34.2796Z" fill="#FAFAFA"/>
<path d="M121.228 24.6223L13.0709 87.064C12.5829 87.3778 12.1647 87.831 11.8161 88.3889L8.53967 86.5062C8.85337 85.9832 9.27164 85.53 9.72477 85.286L115.059 24.3085L116.593 23.4369C117.603 22.8442 119.137 22.8094 120.078 23.3672C120.531 23.6112 120.915 24.0993 121.228 24.6223Z" fill="#FAFAFA"/>
<path d="M131.302 30.4097L23.1094 92.8863C22.6214 93.1652 22.2031 93.6533 21.8546 94.2111L18.5084 92.2587C18.857 91.7009 19.2752 91.2128 19.7632 90.9339L121.751 32.0483L126.666 29.2243C127.642 28.6665 129.175 28.6316 130.117 29.1546C130.57 29.4335 130.988 29.8867 131.302 30.4097Z" fill="#FAFAFA"/>
<path d="M138.482 36.0577V152.818C138.482 157.594 136.809 160.941 134.16 162.44L23.6322 226.242C25.375 225.231 26.8389 223.453 27.5012 220.838C27.5709 220.698 27.6058 220.524 27.6406 220.35C27.6755 220.141 27.7103 219.966 27.78 219.757C27.78 219.548 27.8149 219.339 27.8498 219.129C27.9543 218.328 28.024 217.491 28.024 216.584V99.8243C28.024 99.2665 28.2332 98.6389 28.5469 98.0811C28.8606 97.5233 29.3137 97.0352 29.8017 96.7214L111.713 49.4456L128.443 39.7882L137.959 34.2797C138.273 34.8375 138.482 35.465 138.482 36.0577Z" fill="#F4F4F4"/>
<path d="M39.8401 98.6737L56.3618 89.1209C57.3377 88.5631 58.1394 89.0163 58.1394 90.1669V113.107C58.1394 114.258 57.3377 115.618 56.3618 116.21L39.8401 125.728C38.8642 126.286 38.0625 125.833 38.0625 124.682V101.777C38.0625 100.626 38.8642 99.2315 39.8401 98.6737Z" fill="#97A2AD"/>
<path d="M38.0625 134.479L128.444 82.3225V86.1576L38.0625 138.349V134.479Z" fill="#00A8A1"/>
<path d="M38.0625 138.349V134.479L128.444 82.3225V86.1576L38.0625 138.349Z" fill="#B824A4"/>
<path d="M39.143 145.461L57.0938 135.107C57.6863 134.758 58.1394 135.037 58.1394 135.734V171.923C58.1394 172.586 57.6863 173.422 57.0938 173.771L39.143 184.126C38.5505 184.474 38.0625 184.196 38.0625 183.498V147.309C38.0625 146.647 38.5505 145.81 39.143 145.461Z" fill="#EFEFEF"/>
<path d="M39.143 187.996L57.0938 177.641C57.6863 177.292 58.1394 177.571 58.1394 178.234V206.543L38.0625 218.153V189.844C38.0625 189.146 38.5505 188.344 39.143 187.996Z" fill="#EFEFEF"/>
<path d="M62.5661 131.934L80.5168 121.58C81.1094 121.231 81.5625 121.51 81.5625 122.207V169.971C81.5625 170.668 81.1094 171.505 80.5168 171.819L62.5661 182.208C61.9735 182.522 61.4856 182.243 61.4856 181.581V133.782C61.4856 133.12 61.9735 132.283 62.5661 131.934Z" fill="#EFEFEF"/>
<path d="M85.9892 118.407L103.94 108.052C104.532 107.704 105.02 107.982 105.02 108.68V144.869C105.02 145.531 104.532 146.368 103.94 146.717L85.9892 157.071C85.3966 157.42 84.9086 157.141 84.9086 156.444V120.255C84.9086 119.592 85.3966 118.755 85.9892 118.407Z" fill="#EFEFEF"/>
<path d="M109.412 104.88L127.363 94.525C127.956 94.1763 128.444 94.4552 128.444 95.1525V142.916C128.444 143.614 127.956 144.416 127.363 144.764L109.412 155.119C108.82 155.468 108.367 155.189 108.367 154.526V106.727C108.367 106.065 108.82 105.228 109.412 104.88Z" fill="#EFEFEF"/>
<path d="M62.5661 186.043L80.5168 175.689C81.1094 175.34 81.5625 175.619 81.5625 176.316V193.016L61.4856 204.626V187.926C61.4856 187.229 61.9735 186.392 62.5661 186.043Z" fill="#EFEFEF"/>
<path d="M84.9086 162.789V191.099L105.02 179.489V151.179C105.02 150.517 104.532 150.238 103.94 150.587L85.9892 160.941C85.3966 161.255 84.9086 162.092 84.9086 162.789Z" fill="#EFEFEF"/>
<path d="M109.412 158.989L127.363 148.634C127.956 148.285 128.444 148.564 128.444 149.262V165.962L108.367 177.571V160.837C108.367 160.174 108.82 159.337 109.412 158.989Z" fill="#EFEFEF"/>
<path d="M65.9123 187.996L77.1707 181.511C77.7632 181.162 78.2163 181.441 78.2163 182.139V191.238C78.2163 191.935 77.7632 192.772 77.1707 193.086L65.9123 199.606C65.3197 199.954 64.8317 199.675 64.8317 198.978V189.844C64.8317 189.181 65.3197 188.344 65.9123 187.996Z" fill="#E0E0E0"/>
<path d="M112.758 160.941L124.017 154.456C124.609 154.108 125.097 154.387 125.097 155.049V164.184C125.097 164.881 124.609 165.718 124.017 166.031L112.758 172.551C112.166 172.865 111.713 172.621 111.713 171.923V162.789C111.713 162.127 112.166 161.29 112.758 160.941Z" fill="#E0E0E0"/>
<path d="M42.4892 147.414L53.7476 140.894C54.3401 140.58 54.7933 140.859 54.7933 141.522V150.656C54.7933 151.319 54.3401 152.155 53.7476 152.504L42.4892 158.989C41.8966 159.337 41.4087 159.058 41.4087 158.396V149.262C41.4087 148.564 41.8966 147.728 42.4892 147.414Z" fill="#E0E0E0"/>
<path d="M42.1406 161.15L54.0962 154.247C54.4796 154.003 54.7933 154.178 54.7933 154.631V154.945C54.7933 155.398 54.4796 155.921 54.0962 156.165L42.1406 163.068C41.7224 163.312 41.4087 163.103 41.4087 162.65V162.371C41.4087 161.917 41.7224 161.36 42.1406 161.15Z" fill="#E0E0E0"/>
<path d="M42.1406 165.02L54.0962 158.082C54.4796 157.873 54.7933 158.047 54.7933 158.501V158.78C54.7933 159.233 54.4796 159.791 54.0962 160.035L42.1406 166.938C41.7224 167.147 41.4087 166.973 41.4087 166.519V166.241C41.4087 165.787 41.7224 165.229 42.1406 165.02Z" fill="#E0E0E0"/>
<path d="M42.1406 168.855L54.0962 161.952C54.4796 161.743 54.7933 161.917 54.7933 162.371V162.649C54.7933 163.103 54.4796 163.661 54.0962 163.905L42.1406 170.808C41.7224 171.017 41.4087 170.843 41.4087 170.389V170.11C41.4087 169.657 41.7224 169.099 42.1406 168.855Z" fill="#E0E0E0"/>
<path d="M42.1406 172.725L54.0962 165.822C54.4796 165.613 54.7933 165.787 54.7933 166.241V166.519C54.7933 166.973 54.4796 167.531 54.0962 167.775L42.1406 174.678C41.7224 174.887 41.4087 174.713 41.4087 174.259V173.98C41.4087 173.527 41.7224 172.969 42.1406 172.725Z" fill="#E0E0E0"/>
<path d="M42.1406 176.595L54.0962 169.692C54.4796 169.448 54.7933 169.657 54.7933 170.11V170.389C54.7933 170.843 54.4796 171.4 54.0962 171.61L42.1406 178.548C41.7224 178.757 41.4087 178.582 41.4087 178.129V177.85C41.4087 177.397 41.7224 176.839 42.1406 176.595Z" fill="#E0E0E0"/>
<path d="M65.9123 133.887L77.1707 127.367C77.7632 127.053 78.2163 127.297 78.2163 127.995V137.129C78.2163 137.791 77.7632 138.628 77.1707 138.977L65.9123 145.462C65.3197 145.81 64.8317 145.531 64.8317 144.834V135.734C64.8317 135.037 65.3197 134.2 65.9123 133.887Z" fill="#E0E0E0"/>
<path d="M65.5637 147.623L77.5192 140.685C77.9026 140.476 78.2163 140.65 78.2163 141.103V141.382C78.2163 141.87 77.9026 142.393 77.5192 142.638L65.5637 149.541C65.1803 149.785 64.8317 149.575 64.8317 149.122V148.843C64.8317 148.39 65.1803 147.832 65.5637 147.623Z" fill="#E0E0E0"/>
<path d="M65.5637 151.458L77.5192 144.555C77.9026 144.346 78.2163 144.52 78.2163 144.973V145.252C78.2163 145.706 77.9026 146.263 77.5192 146.507L65.5637 153.41C65.1803 153.62 64.8317 153.445 64.8317 152.992V152.713C64.8317 152.26 65.1803 151.702 65.5637 151.458Z" fill="#E0E0E0"/>
<path d="M65.5637 155.328L77.5192 148.425C77.9026 148.216 78.2163 148.39 78.2163 148.843V149.122C78.2163 149.576 77.9026 150.133 77.5192 150.377L65.5637 157.28C65.1803 157.49 64.8317 157.315 64.8317 156.862V156.583C64.8317 156.13 65.1803 155.572 65.5637 155.328Z" fill="#E0E0E0"/>
<path d="M65.5637 159.198L77.5192 152.295C77.9026 152.086 78.2163 152.26 78.2163 152.713V152.992C78.2163 153.445 77.9026 154.003 77.5192 154.247L65.5637 161.15C65.1803 161.36 64.8317 161.185 64.8317 160.732V160.453C64.8317 160 65.1803 159.442 65.5637 159.198Z" fill="#E0E0E0"/>
<path d="M65.5637 163.068L77.5192 156.165C77.9026 155.921 78.2163 156.13 78.2163 156.583V156.862C78.2163 157.315 77.9026 157.873 77.5192 158.082L65.5637 164.985C65.1803 165.229 64.8317 165.055 64.8317 164.602V164.288C64.8317 163.835 65.1803 163.312 65.5637 163.068Z" fill="#E0E0E0"/>
<path d="M65.5637 166.938L77.5192 160.035C77.9026 159.791 78.2163 160 78.2163 160.453V160.732C78.2163 161.185 77.9026 161.743 77.5192 161.952L65.5637 168.855C65.1803 169.099 64.8317 168.925 64.8317 168.472V168.158C64.8317 167.705 65.1803 167.147 65.5637 166.938Z" fill="#E0E0E0"/>
<path d="M65.5637 170.808L77.5192 163.905C77.9026 163.661 78.2163 163.835 78.2163 164.323V164.602C78.2163 165.055 77.9026 165.613 77.5192 165.822L65.5637 172.725C65.1803 172.969 64.8317 172.76 64.8317 172.307V172.028C64.8317 171.575 65.1803 171.017 65.5637 170.808Z" fill="#E0E0E0"/>
<path d="M65.5637 174.678L77.5192 167.775C77.9026 167.531 78.2163 167.705 78.2163 168.158V168.472C78.2163 168.925 77.9026 169.448 77.5192 169.692L65.5637 176.595C65.1803 176.839 64.8317 176.63 64.8317 176.177V175.898C64.8317 175.445 65.1803 174.887 65.5637 174.678Z" fill="#E0E0E0"/>
<path d="M42.4892 189.913L53.7476 183.429C54.3401 183.08 54.7933 183.359 54.7933 184.056V193.19C54.7933 193.853 54.3401 194.69 53.7476 195.038L42.4892 201.523C41.8966 201.872 41.4087 201.593 41.4087 200.895V191.796C41.4087 191.099 41.8966 190.262 42.4892 189.913Z" fill="#E0E0E0"/>
<path d="M42.1406 203.65L54.0962 196.747C54.4796 196.537 54.7933 196.712 54.7933 197.165V197.444C54.7933 197.897 54.4796 198.455 54.0962 198.699L42.1406 205.602C41.7224 205.811 41.4087 205.637 41.4087 205.184V204.905C41.4087 204.452 41.7224 203.894 42.1406 203.65Z" fill="#E0E0E0"/>
<path d="M42.1406 207.52L54.0962 200.617C54.4796 200.407 54.7933 200.582 54.7933 201.035V201.314C54.7933 201.767 54.4796 202.325 54.0962 202.569L42.1406 209.472C41.7224 209.681 41.4087 209.507 41.4087 209.054V208.775C41.4087 208.322 41.7224 207.764 42.1406 207.52Z" fill="#E0E0E0"/>
<path d="M42.1406 211.39L54.0962 204.486C54.4796 204.242 54.7933 204.452 54.7933 204.905V205.184C54.7933 205.637 54.4796 206.195 54.0962 206.404L42.1406 213.342C41.7224 213.551 41.4087 213.377 41.4087 212.924V212.645C41.4087 212.191 41.7224 211.634 42.1406 211.39Z" fill="#E0E0E0"/>
<path d="M89.3353 120.359L100.594 113.84C101.186 113.491 101.674 113.77 101.674 114.467V123.602C101.674 124.264 101.186 125.101 100.594 125.449L89.3353 131.934C88.7428 132.283 88.2897 132.004 88.2897 131.307V122.207C88.2897 121.51 88.7428 120.673 89.3353 120.359Z" fill="#E0E0E0"/>
<path d="M88.9868 134.096L100.942 127.158C101.326 126.949 101.674 127.123 101.674 127.576V127.855C101.674 128.343 101.326 128.866 100.942 129.11L88.9868 136.013C88.6034 136.257 88.2897 136.048 88.2897 135.595V135.316C88.2897 134.863 88.6034 134.305 88.9868 134.096Z" fill="#E0E0E0"/>
<path d="M88.9868 137.931L100.942 131.028C101.326 130.819 101.674 130.993 101.674 131.446V131.725C101.674 132.178 101.326 132.736 100.942 132.98L88.9868 139.883C88.6034 140.092 88.2897 139.918 88.2897 139.465V139.186C88.2897 138.733 88.6034 138.175 88.9868 137.931Z" fill="#E0E0E0"/>
<path d="M88.9868 141.801L100.942 134.898C101.326 134.688 101.674 134.863 101.674 135.316V135.595C101.674 136.048 101.326 136.606 100.942 136.85L88.9868 143.753C88.6034 143.962 88.2897 143.788 88.2897 143.335V143.056C88.2897 142.603 88.6034 142.045 88.9868 141.801Z" fill="#E0E0E0"/>
<path d="M88.9868 145.671L100.942 138.768C101.326 138.558 101.674 138.733 101.674 139.186V139.465C101.674 139.918 101.326 140.476 100.942 140.72L88.9868 147.623C88.6034 147.832 88.2897 147.658 88.2897 147.205V146.926C88.2897 146.473 88.6034 145.915 88.9868 145.671Z" fill="#E0E0E0"/>
<path d="M88.9868 149.541L100.942 142.638C101.326 142.393 101.674 142.603 101.674 143.056V143.335C101.674 143.788 101.326 144.346 100.942 144.555L88.9868 151.458C88.6034 151.702 88.2897 151.528 88.2897 151.075V150.761C88.2897 150.308 88.6034 149.785 88.9868 149.541Z" fill="#E0E0E0"/>
<path d="M112.758 106.832L124.017 100.312C124.609 99.9638 125.097 100.243 125.097 100.94V110.074C125.097 110.737 124.609 111.574 124.017 111.922L112.758 118.407C112.166 118.756 111.713 118.477 111.713 117.779V108.68C111.713 107.983 112.166 107.146 112.758 106.832Z" fill="#E0E0E0"/>
<path d="M112.41 120.569L124.365 113.631C124.784 113.421 125.097 113.596 125.097 114.049V114.328C125.097 114.781 124.784 115.339 124.365 115.583L112.41 122.486C112.026 122.695 111.713 122.521 111.713 122.068V121.789C111.713 121.336 112.026 120.778 112.41 120.569Z" fill="#E0E0E0"/>
<path d="M112.41 124.404L124.365 117.5C124.784 117.291 125.097 117.466 125.097 117.919V118.198C125.097 118.651 124.784 119.209 124.365 119.453L112.41 126.356C112.026 126.565 111.713 126.391 111.713 125.938V125.659C111.713 125.205 112.026 124.648 112.41 124.404Z" fill="#E0E0E0"/>
<path d="M112.41 128.273L124.365 121.37C124.784 121.161 125.097 121.335 125.097 121.789V122.068C125.097 122.521 124.784 123.079 124.365 123.323L112.41 130.226C112.026 130.435 111.713 130.261 111.713 129.807V129.528C111.713 129.075 112.026 128.517 112.41 128.273Z" fill="#E0E0E0"/>
<path d="M112.41 132.143L124.365 125.24C124.784 124.996 125.097 125.205 125.097 125.659V125.938C125.097 126.391 124.784 126.949 124.365 127.158L112.41 134.096C112.026 134.305 111.713 134.131 111.713 133.677V133.398C111.713 132.945 112.026 132.387 112.41 132.143Z" fill="#E0E0E0"/>
<path d="M112.41 136.013L124.365 129.11C124.784 128.866 125.097 129.075 125.097 129.529V129.807C125.097 130.261 124.784 130.819 124.365 131.028L112.41 137.931C112.026 138.175 111.713 138.001 111.713 137.547V137.234C111.713 136.78 112.026 136.222 112.41 136.013Z" fill="#E0E0E0"/>
<path d="M112.41 139.883L124.365 132.98C124.784 132.736 125.097 132.945 125.097 133.399V133.677C125.097 134.131 124.784 134.688 124.365 134.898L112.41 141.801C112.026 142.045 111.713 141.871 111.713 141.382V141.104C111.713 140.65 112.026 140.092 112.41 139.883Z" fill="#E0E0E0"/>
<path d="M112.41 143.753L124.365 136.85C124.784 136.606 125.097 136.78 125.097 137.234V137.547C125.097 138.001 124.784 138.558 124.365 138.768L112.41 145.671C112.026 145.915 111.713 145.706 111.713 145.252V144.973C111.713 144.52 112.026 143.962 112.41 143.753Z" fill="#E0E0E0"/>
<path d="M112.41 147.623L124.365 140.72C124.784 140.476 125.097 140.65 125.097 141.103V141.382C125.097 141.87 124.784 142.393 124.365 142.637L112.41 149.541C112.026 149.785 111.713 149.575 111.713 149.122V148.843C111.713 148.39 112.026 147.832 112.41 147.623Z" fill="#E0E0E0"/>
<path d="M89.3353 162.859L100.594 156.374C101.186 156.025 101.674 156.304 101.674 157.002V166.101C101.674 166.798 101.186 167.635 100.594 167.984L89.3353 174.468C88.7428 174.817 88.2897 174.538 88.2897 173.841V164.707C88.2897 164.044 88.7428 163.207 89.3353 162.859Z" fill="#E0E0E0"/>
<path d="M88.9868 176.595L100.942 169.692C101.326 169.483 101.674 169.657 101.674 170.11V170.389C101.674 170.843 101.326 171.4 100.942 171.644L88.9868 178.548C88.6034 178.757 88.2897 178.582 88.2897 178.129V177.85C88.2897 177.397 88.6034 176.839 88.9868 176.595Z" fill="#E0E0E0"/>
<path d="M88.9868 180.465L100.942 173.562C101.326 173.353 101.674 173.527 101.674 173.98V174.259C101.674 174.712 101.326 175.27 100.942 175.514L88.9868 182.417C88.6034 182.627 88.2897 182.452 88.2897 181.999V181.72C88.2897 181.267 88.6034 180.709 88.9868 180.465Z" fill="#E0E0E0"/>
<path d="M88.9868 184.335L100.942 177.432C101.326 177.188 101.674 177.397 101.674 177.85V178.129C101.674 178.582 101.326 179.14 100.942 179.349L88.9868 186.253C88.6034 186.497 88.2897 186.322 88.2897 185.869V185.555C88.2897 185.102 88.6034 184.579 88.9868 184.335Z" fill="#E0E0E0"/>
<path d="M218.162 2.27431L214.816 0.321914C214.433 0.112729 213.91 0.147593 213.317 0.461371L170.724 25.1103C169.573 25.8076 168.597 27.4811 168.597 28.8408V116.594C168.597 117.256 168.841 117.744 169.225 117.988L172.571 119.906L172.641 119.941C173.024 120.115 173.512 120.08 174.07 119.767L185.328 113.282V120.045C185.328 121.231 185.502 121.928 185.816 122.102L189.127 124.02L189.162 124.055H189.197C189.581 124.264 190.138 123.741 190.731 122.451L198.713 105.542L216.663 95.1176C217.814 94.4552 218.79 92.7817 218.79 91.422V3.63401C218.79 2.97159 218.546 2.48349 218.162 2.27431Z" fill="#7FB6D7"/>
<path d="M169.817 25.8774C170.061 25.6333 170.305 25.3893 170.549 25.2149C170.305 25.3893 170.061 25.6333 169.817 25.8774ZM218.093 2.20459L214.816 0.321926C214.781 0.287061 214.712 0.287061 214.677 0.252197C214.712 0.287061 214.781 0.287061 214.816 0.321926L218.093 2.20459Z" fill="#FEFEFE"/>
<path d="M172.606 28.6317L169.26 26.6793C169.399 26.4003 169.608 26.1214 169.817 25.8774C170.061 25.6333 170.305 25.3893 170.549 25.215C170.619 25.1801 170.689 25.1452 170.724 25.1104L213.317 0.461408C213.631 0.287088 213.98 0.182495 214.258 0.182495C214.398 0.182495 214.537 0.217359 214.677 0.252223C214.712 0.287088 214.781 0.287088 214.816 0.321952L218.093 2.20462C217.953 2.16975 217.779 2.13489 217.605 2.13489C217.326 2.13489 217.012 2.20462 216.663 2.4138L174.07 27.0628C173.512 27.3765 172.989 27.9692 172.606 28.6317Z" fill="#679DBF"/>
<path d="M189.127 124.02L185.816 122.103L189.127 124.02Z" fill="#BDBCBB"/>
<path d="M189.127 124.02L185.816 122.102C185.502 121.928 185.328 121.231 185.328 120.046V113.282L188.674 111.329V121.963C188.674 123.079 188.849 123.776 189.127 124.02Z" fill="#4D85A8"/>
<path d="M172.571 119.906L169.225 117.988C169.12 117.919 169.05 117.849 168.981 117.779C169.05 117.849 169.12 117.919 169.225 117.988L172.571 119.906Z" fill="#D4D4D5"/>
<path d="M172.571 119.906L169.225 117.989C169.12 117.919 169.05 117.849 168.981 117.779C168.737 117.535 168.597 117.117 168.597 116.594V28.8409C168.597 28.1436 168.841 27.3766 169.26 26.6793L172.606 28.6317C172.188 29.2941 171.944 30.0611 171.944 30.7584V118.546C171.944 119.209 172.188 119.697 172.571 119.906Z" fill="#4D85A8"/>
<path d="M180.413 31.1419L210.32 13.8144C211.296 13.2217 212.097 13.6749 212.097 14.8255V33.8962C212.097 35.0467 211.296 36.4064 210.32 36.9991L180.413 54.3266C179.437 54.8844 178.636 54.4312 178.636 53.2806V34.2099C178.636 33.0943 179.437 31.6997 180.413 31.1419Z" fill="#FEFEFE"/>
<path d="M212.097 41.7754C212.097 42.8214 211.296 44.1462 210.32 44.7389L180.413 61.9967C179.437 62.5545 178.636 62.171 178.636 61.0902C178.636 60.0094 179.437 58.6846 180.413 58.1267L210.32 40.869C211.296 40.2763 212.097 40.6947 212.097 41.7754Z" fill="#FEFEFE"/>
<path d="M212.097 49.4804C212.097 50.5612 211.296 51.886 210.32 52.4439L180.413 69.7365C179.437 70.2943 178.636 69.8759 178.636 68.83C178.636 67.7492 179.437 66.4244 180.413 65.8666L210.32 48.6088C211.296 48.0161 212.097 48.4345 212.097 49.4804Z" fill="#FEFEFE"/>
<path d="M212.097 57.2202C212.097 58.301 211.296 59.6258 210.32 60.1837L180.413 77.4414C179.437 78.0341 178.636 77.6158 178.636 76.535C178.636 75.489 179.437 74.1642 180.413 73.5715L210.32 56.3137C211.296 55.7559 212.097 56.1394 212.097 57.2202Z" fill="#FEFEFE"/>
<path d="M212.097 64.9601C212.097 66.006 211.296 67.3308 210.32 67.9235L180.413 85.1813C179.437 85.7391 178.636 85.3556 178.636 84.2748C178.636 83.2289 179.437 81.8692 180.413 81.3114L210.32 64.0536C211.296 63.4958 212.097 63.8793 212.097 64.9601Z" fill="#FEFEFE"/>
<path d="M178.636 92.0147C178.636 93.0955 179.437 93.479 180.413 92.9212L183.55 91.1082C184.526 90.5504 185.328 89.2256 185.328 88.1448C185.328 87.064 184.526 86.6805 183.55 87.2383L180.413 89.0512C179.437 89.6091 178.636 90.9339 178.636 92.0147Z" fill="#FEFEFE"/>
<path d="M189.859 85.53C189.859 86.6108 190.661 87.0292 191.637 86.4365L210.32 75.6635C211.296 75.0708 212.097 73.7459 212.097 72.7C212.097 71.6192 211.296 71.2008 210.32 71.7935L191.637 82.5666C190.661 83.1593 189.859 84.4841 189.859 85.53Z" fill="#FEFEFE"/>
<path d="M178.636 99.7546C178.636 100.8 179.437 101.219 180.413 100.661L183.55 98.8481C184.526 98.2554 185.328 96.9306 185.328 95.8846C185.328 94.8039 184.526 94.4204 183.55 94.9782L180.413 96.7911C179.437 97.3489 178.636 98.6738 178.636 99.7546Z" fill="#FEFEFE"/>
<path d="M189.859 93.2699C189.859 94.3507 190.661 94.7342 191.637 94.1763L210.32 83.3684C211.296 82.8106 212.097 81.4858 212.097 80.405C212.097 79.359 211.296 78.9407 210.32 79.4985L191.637 90.3064C190.661 90.8991 189.859 92.2239 189.859 93.2699Z" fill="#FEFEFE"/>
<path d="M178.636 107.46C178.636 108.54 179.437 108.959 180.413 108.366L183.55 106.588C184.526 105.995 185.328 104.67 185.328 103.624C185.328 102.544 184.526 102.125 183.55 102.718L180.413 104.496C179.437 105.089 178.636 106.414 178.636 107.46Z" fill="#FEFEFE"/>
<path d="M189.859 101.01C189.859 102.09 190.661 102.474 191.637 101.916L210.32 91.1082C211.296 90.5504 212.097 89.2256 212.097 88.1448C212.097 87.064 211.296 86.6805 210.32 87.2383L191.637 98.0462C190.661 98.604 189.859 99.9289 189.859 101.01Z" fill="#FEFEFE"/>
<path d="M258.351 25.4242V25.3893L255.005 23.4718C254.621 23.2278 254.064 23.2626 253.471 23.6113L210.912 48.2602C209.727 48.9226 208.786 50.5961 208.786 51.9558V139.744C208.786 140.406 208.995 140.894 209.413 141.103L212.725 143.056H212.76L212.794 143.091C213.178 143.265 213.701 143.23 214.258 142.916L225.517 136.432V143.16C225.517 144.381 225.691 145.078 226.005 145.252L229.316 147.17H229.351L229.386 147.205C229.734 147.414 230.292 146.891 230.919 145.566L238.901 128.692L256.817 118.267C258.002 117.57 258.978 115.932 258.978 114.537V26.7839C258.978 26.1215 258.734 25.6334 258.351 25.4242Z" fill="#7FB6D7"/>
<path d="M210.633 48.4347C210.669 48.3997 210.704 48.3997 210.739 48.3647C210.704 48.3997 210.669 48.3997 210.633 48.4347Z" fill="#57BEC0"/>
<path d="M210.006 49.0271C210.18 48.818 210.424 48.6088 210.633 48.4344C210.424 48.6088 210.18 48.818 210.006 49.0271Z" fill="#8CA0A6"/>
<path d="M258.281 25.3544L255.005 23.4717C254.97 23.4368 254.935 23.4368 254.865 23.402C254.935 23.4368 254.97 23.4368 255.005 23.4717L258.281 25.3544Z" fill="#FEFEFE"/>
<path d="M212.76 51.7466L209.413 49.829C209.588 49.5501 209.797 49.2712 210.006 49.0272C210.18 48.818 210.424 48.6088 210.633 48.4345C210.668 48.3996 210.703 48.3996 210.738 48.3647C210.808 48.3299 210.843 48.295 210.912 48.2601L253.506 23.6112C253.82 23.402 254.168 23.3323 254.447 23.3323C254.587 23.3323 254.761 23.3671 254.865 23.402C254.935 23.4369 254.97 23.4369 255.005 23.4717L258.281 25.3544C258.142 25.2847 257.968 25.2498 257.793 25.2498C257.514 25.2498 257.166 25.3544 256.817 25.5636L214.258 50.2125C213.666 50.5263 213.143 51.0841 212.76 51.7466Z" fill="#679DBF"/>
<path d="M229.316 147.17L226.005 145.252L229.281 147.17C229.316 147.17 229.316 147.17 229.316 147.17Z" fill="#BDBCBB"/>
<path d="M229.281 147.17L226.005 145.252C225.691 145.078 225.517 144.381 225.517 143.16V136.432L228.863 134.479V145.113C228.863 146.228 229.037 146.926 229.281 147.17Z" fill="#4D85A8"/>
<path d="M212.76 143.056H212.725L209.413 141.138L209.379 141.103C209.309 141.069 209.239 140.999 209.169 140.929C209.239 140.999 209.309 141.069 209.413 141.103L212.725 143.056H212.76Z" fill="#D4D4D5"/>
<path d="M212.76 143.056H212.725L209.413 141.104C209.309 141.069 209.239 140.999 209.169 140.929C208.925 140.65 208.786 140.267 208.786 139.744V51.9558C208.786 51.2934 209.03 50.4915 209.413 49.8291L212.76 51.7466C212.376 52.4439 212.132 53.2109 212.132 53.9082V141.661C212.132 142.359 212.376 142.847 212.76 143.056Z" fill="#4D85A8"/>
<path d="M220.602 54.2568L250.508 36.9293C251.484 36.3715 252.286 36.8247 252.286 37.9752V57.0459C252.286 58.1616 251.484 59.5561 250.508 60.114L220.602 77.4414C219.626 78.0341 218.825 77.5809 218.825 76.4304V57.3597C218.825 56.2092 219.626 54.8495 220.602 54.2568Z" fill="#FEFEFE"/>
<path d="M252.286 64.8903C252.286 65.9711 251.484 67.296 250.508 67.8538L220.602 85.1464C219.626 85.7042 218.825 85.2859 218.825 84.2399C218.825 83.1591 219.626 81.8343 220.602 81.2765L250.508 63.9839C251.484 63.426 252.286 63.8444 252.286 64.8903Z" fill="#FEFEFE"/>
<path d="M252.286 72.6302C252.286 73.711 251.484 75.0358 250.508 75.5936L220.602 92.8514C219.626 93.4441 218.825 93.0257 218.825 91.9449C218.825 90.899 219.626 89.5742 220.602 88.9815L250.508 71.7237C251.484 71.1659 252.286 71.5843 252.286 72.6302Z" fill="#FEFEFE"/>
<path d="M252.286 80.3701C252.286 81.416 251.484 82.7757 250.508 83.3336L220.602 100.591C219.626 101.149 218.825 100.766 218.825 99.6849C218.825 98.6389 219.626 97.3141 220.602 96.7214L250.508 79.4637C251.484 78.9058 252.286 79.2893 252.286 80.3701Z" fill="#FEFEFE"/>
<path d="M252.286 88.1099C252.286 89.1558 251.484 90.4807 250.508 91.0734L220.602 108.331C219.626 108.889 218.825 108.505 218.825 107.425C218.825 106.344 219.626 105.019 220.602 104.461L250.508 87.2034C251.484 86.6108 252.286 87.0291 252.286 88.1099Z" fill="#FEFEFE"/>
<path d="M218.825 115.164C218.825 116.21 219.626 116.629 220.602 116.071L223.704 114.258C224.715 113.7 225.517 112.34 225.517 111.295C225.517 110.214 224.715 109.83 223.739 110.388L220.602 112.201C219.626 112.759 218.825 114.084 218.825 115.164Z" fill="#FEFEFE"/>
<path d="M230.048 108.68C230.048 109.761 230.85 110.144 231.826 109.586L250.508 98.7783C251.484 98.2205 252.286 96.8957 252.286 95.8149C252.286 94.769 251.484 94.3506 250.508 94.9084L231.826 105.716C230.85 106.309 230.048 107.634 230.048 108.68Z" fill="#FEFEFE"/>
<path d="M218.825 122.87C218.825 123.95 219.626 124.369 220.602 123.776L223.704 121.998C224.715 121.405 225.517 120.08 225.517 119.034C225.517 117.954 224.715 117.535 223.739 118.128L220.602 119.906C219.626 120.499 218.825 121.824 218.825 122.87Z" fill="#FEFEFE"/>
<path d="M230.048 116.42C230.048 117.5 230.85 117.884 231.826 117.326L250.508 106.518C251.484 105.96 252.286 104.635 252.286 103.555C252.286 102.474 251.484 102.09 250.508 102.648L231.826 113.456C230.85 114.014 230.048 115.339 230.048 116.42Z" fill="#FEFEFE"/>
<path d="M218.825 130.609C218.825 131.69 219.626 132.074 220.602 131.516L223.704 129.703C224.715 129.145 225.517 127.82 225.517 126.739C225.517 125.694 224.715 125.275 223.739 125.833L220.602 127.646C219.626 128.239 218.825 129.563 218.825 130.609Z" fill="#FEFEFE"/>
<path d="M230.048 124.159C230.048 125.205 230.85 125.624 231.826 125.066L250.508 114.258C251.484 113.7 252.286 112.34 252.286 111.295C252.286 110.214 251.484 109.83 250.508 110.388L231.826 121.196C230.85 121.754 230.048 123.079 230.048 124.159Z" fill="#FEFEFE"/>
<path d="M131.755 188.972C137.785 185.486 145.871 183.568 154.516 183.568C163.195 183.568 171.281 185.486 177.311 188.972C182.749 192.11 185.781 196.084 185.781 200.198C185.781 204.277 182.749 208.252 177.311 211.425C171.281 214.876 163.195 216.794 154.516 216.794C145.871 216.794 137.785 214.876 131.755 211.425C126.282 208.252 123.285 204.277 123.285 200.198C123.285 196.084 126.282 192.11 131.755 188.972ZM189.127 200.198C189.127 195.073 185.746 189.948 178.984 186.043C165.495 178.269 143.571 178.269 130.082 186.043C123.32 189.948 119.939 195.073 119.939 200.198V209.612C119.939 214.702 123.32 219.827 130.082 223.732C143.571 231.506 165.495 231.506 178.984 223.732C185.746 219.827 189.127 214.702 189.127 209.612V200.198Z" fill="#FECC00"/>
<path d="M154.516 216.794C163.195 216.794 171.281 214.876 177.311 211.425C177.311 211.39 177.346 211.39 177.346 211.39C177.346 211.39 177.346 211.39 177.381 211.39V211.355C177.416 211.355 177.416 211.355 177.416 211.355C180.692 209.437 183.062 207.241 184.422 204.905C183.028 207.276 180.623 209.507 177.311 211.425C171.281 214.876 163.195 216.794 154.516 216.794Z" fill="#EEEEEE"/>
<path d="M119.939 199.745C120.148 194.759 123.529 189.844 130.082 186.043C136.809 182.173 145.662 180.221 154.516 180.221C145.662 180.221 136.809 182.173 130.082 186.043C124.679 189.181 121.438 193.051 120.357 197.095C120.113 197.967 119.974 198.873 119.939 199.745ZM183.655 194.306C182.296 192.493 180.309 190.75 177.73 189.181C180.309 190.75 182.296 192.493 183.655 194.306ZM176.231 188.379C176.231 188.379 176.231 188.379 176.231 188.344C176.231 188.379 176.231 188.379 176.231 188.379ZM176.196 188.344C172.989 186.671 169.294 185.416 165.286 184.579C169.294 185.416 172.989 186.671 176.196 188.344Z" fill="#FCFBFB"/>
<path d="M154.516 220.141C146.255 220.141 137.994 218.467 131.441 215.05C130.988 214.806 130.535 214.562 130.082 214.318C121.96 209.612 118.719 203.197 120.357 197.095C121.437 193.051 124.679 189.181 130.082 186.043C136.809 182.173 145.662 180.221 154.516 180.221C163.369 180.221 172.222 182.173 178.984 186.043C192.474 193.853 192.474 206.509 178.984 214.318C172.222 218.223 163.369 220.141 154.516 220.141ZM154.516 216.794C163.195 216.794 171.281 214.876 177.311 211.425C180.623 209.507 183.028 207.276 184.422 204.905C185.293 203.371 185.781 201.802 185.781 200.198C185.781 198.176 185.049 196.189 183.655 194.306C182.296 192.493 180.309 190.75 177.73 189.181C177.59 189.111 177.451 189.042 177.311 188.972C176.963 188.763 176.614 188.554 176.231 188.379C176.231 188.379 176.231 188.379 176.231 188.344C176.231 188.344 176.231 188.344 176.196 188.344C172.989 186.671 169.294 185.416 165.286 184.579C161.87 183.917 158.245 183.568 154.516 183.568C145.871 183.568 137.785 185.486 131.755 188.972C126.282 192.11 123.285 196.084 123.285 200.198C123.285 201.418 123.564 202.639 124.087 203.824C125.306 206.578 127.886 209.158 131.615 211.355C131.65 211.355 131.65 211.355 131.65 211.355C131.65 211.355 131.65 211.355 131.685 211.355V211.39C131.72 211.39 131.72 211.39 131.72 211.39C131.72 211.39 131.72 211.39 131.755 211.425C137.785 214.876 145.871 216.794 154.516 216.794Z" fill="#FFF383" stroke="#FFF383" stroke-width="0.885577" stroke-miterlimit="10"/>
<path d="M123.285 200.198C123.285 201.802 123.738 203.371 124.644 204.905C126.004 202.534 128.409 200.303 131.755 198.385C137.785 194.899 145.871 192.981 154.516 192.981C163.195 192.981 171.281 194.899 177.311 198.385C180.623 200.303 183.062 202.534 184.422 204.905C185.293 203.371 185.781 201.802 185.781 200.198C185.781 196.084 182.749 192.11 177.311 188.972C171.281 185.486 163.195 183.568 154.516 183.568C145.871 183.568 137.785 185.486 131.755 188.972C126.282 192.11 123.285 196.084 123.285 200.198Z" fill="#00A8A1"/>
<path d="M184.422 204.905C184.422 204.905 184.422 204.905 184.422 204.87C184.91 204.033 185.258 203.197 185.502 202.325C184.631 198.978 181.808 195.805 177.311 193.225C171.281 189.739 163.195 187.821 154.516 187.821C145.871 187.821 137.785 189.739 131.755 193.225C127.258 195.805 124.4 198.978 123.564 202.325C123.773 203.197 124.156 204.033 124.644 204.905C124.435 204.556 124.261 204.173 124.087 203.824C123.564 202.639 123.285 201.418 123.285 200.198C123.285 196.084 126.282 192.11 131.755 188.972C137.785 185.486 145.871 183.568 154.516 183.568C163.195 183.568 171.281 185.486 177.311 188.972C182.749 192.11 185.781 196.084 185.781 200.198C185.781 201.802 185.293 203.371 184.422 204.905Z" fill="#FECC00" stroke="#FECC00" stroke-width="0.885577" stroke-miterlimit="10"/>
<path d="M154.516 216.794C145.871 216.794 137.785 214.876 131.755 211.424C129.907 210.344 128.374 209.228 127.119 208.008C126.108 206.997 125.272 205.951 124.644 204.905C126.004 202.534 128.409 200.303 131.755 198.385C137.785 194.899 145.871 192.981 154.516 192.981C163.195 192.981 171.281 194.899 177.311 198.385C180.623 200.303 183.028 202.499 184.422 204.87C183.062 207.241 180.692 209.437 177.416 211.355C177.416 211.355 177.416 211.355 177.381 211.355V211.39C177.346 211.39 177.346 211.39 177.346 211.39C177.346 211.39 177.311 211.39 177.311 211.424C171.281 214.876 163.195 216.794 154.516 216.794Z" fill="#043078"/>
<path d="M154.516 216.794C145.871 216.794 137.785 214.876 131.755 211.425C131.72 211.39 131.72 211.39 131.72 211.39C131.72 211.39 131.72 211.39 131.685 211.39V211.355C131.65 211.355 131.65 211.355 131.65 211.355C131.65 211.355 131.65 211.355 131.615 211.355C129.873 210.309 128.339 209.193 127.119 208.008C128.374 209.228 129.907 210.344 131.755 211.425C137.785 214.876 145.871 216.794 154.516 216.794Z" fill="#57BEC0"/>
<path d="M154.516 216.794C163.195 216.794 171.281 214.876 177.311 211.425C177.311 211.39 177.346 211.39 177.346 211.39C177.346 211.39 177.311 211.39 177.311 211.425C171.281 214.876 163.195 216.794 154.516 216.794ZM177.346 211.39C177.346 211.39 177.346 211.39 177.381 211.39C177.346 211.39 177.346 211.39 177.346 211.39Z" fill="#F4F4F4"/>
<path d="M154.516 216.794C145.871 216.794 137.785 214.876 131.755 211.424C131.72 211.39 131.72 211.39 131.72 211.39C131.72 211.39 131.72 211.39 131.755 211.424C137.785 214.876 145.871 216.794 154.516 216.794ZM131.685 211.355C131.65 211.355 131.65 211.355 131.65 211.355C131.65 211.355 131.65 211.355 131.685 211.355ZM131.65 211.355C131.65 211.355 131.65 211.355 131.615 211.355C131.65 211.355 131.65 211.355 131.65 211.355Z" fill="#8CCECF"/>
<path d="M124.644 204.905C124.156 204.033 123.773 203.197 123.564 202.325C124.4 198.978 127.258 195.805 131.755 193.225C137.785 189.739 145.871 187.821 154.516 187.821C163.195 187.821 171.281 189.739 177.311 193.225C181.808 195.805 184.631 198.978 185.502 202.325C185.258 203.197 184.91 204.033 184.422 204.87C183.028 202.499 180.623 200.303 177.311 198.385C171.281 194.899 163.195 192.981 154.516 192.981C145.871 192.981 137.785 194.899 131.755 198.385C128.409 200.303 126.004 202.534 124.644 204.905Z" fill="#FFF383" stroke="#FFF383" stroke-width="0.885577" stroke-miterlimit="10"/>
<path d="M138.447 227.288C135.833 226.486 133.393 225.51 131.127 224.289C133.393 225.51 135.833 226.486 138.447 227.288Z" fill="#CECECE"/>
<path d="M123.215 218.084C121.019 215.399 119.939 212.505 119.939 209.612V201V209.612C119.939 212.505 121.019 215.399 123.215 218.084Z" fill="#CECECE"/>
<path d="M146.359 228.996C143.641 228.647 140.992 228.055 138.447 227.288C135.833 226.486 133.393 225.51 131.127 224.289C130.779 224.115 130.43 223.906 130.082 223.732C129.594 223.453 129.106 223.139 128.653 222.86L130.361 221.884C130.814 221.605 131.093 221.082 131.093 220.315C131.093 220.28 131.093 220.28 131.093 220.28C131.093 220.28 131.093 220.28 131.093 220.245C131.093 220.21 131.093 220.21 131.093 220.21C131.093 220.21 131.093 220.21 131.093 220.175V220.141C131.093 220.141 131.093 220.141 131.093 220.106C131.023 218.607 129.977 216.828 128.688 216.096C128.304 215.852 127.921 215.748 127.607 215.748C127.363 215.748 127.154 215.817 126.98 215.922L123.215 218.084C121.019 215.399 119.939 212.505 119.939 209.612V200.407C120.043 205.463 123.424 210.448 130.082 214.318C130.535 214.562 130.988 214.806 131.441 215.05C135.833 217.351 140.992 218.851 146.359 219.618V228.996Z" fill="#FECC00"/>
<path d="M119.939 200.407C119.939 200.198 119.939 199.954 119.939 199.745C119.974 198.873 120.113 197.967 120.357 197.095C120.078 198.106 119.939 199.152 119.939 200.198V200.407Z" fill="#E3E3E1"/>
<path d="M131.441 215.05C130.988 214.806 130.535 214.562 130.082 214.318C123.424 210.448 120.043 205.463 119.939 200.407V200.198C119.939 199.152 120.078 198.106 120.357 197.095C118.719 203.197 121.96 209.612 130.082 214.318C130.535 214.562 130.988 214.806 131.441 215.05Z" fill="#1BB2AE"/>
<path d="M131.093 220.315C131.093 218.746 130.012 216.863 128.688 216.096C128.025 215.713 127.433 215.678 126.98 215.922L115.338 222.546V222.581C114.885 222.825 114.606 223.348 114.606 224.115C114.606 225.684 115.686 227.567 117.011 228.334C117.708 228.717 118.3 228.752 118.754 228.508L130.361 221.884C130.814 221.605 131.093 221.082 131.093 220.315Z" fill="#97A2AD"/>
<path d="M130.361 221.884C130.814 221.605 131.093 221.082 131.093 220.315C131.093 219.722 130.953 219.095 130.674 218.502L115.686 227.079C116.07 227.602 116.523 228.055 117.011 228.334C117.708 228.717 118.3 228.752 118.754 228.508L130.361 221.884Z" fill="#97A2AD"/>
<path d="M118.998 228.299C118.998 226.277 117.603 223.836 115.861 222.825C114.989 222.337 114.222 222.267 113.665 222.581H113.63L75.0096 243.221L80.7608 253.401L118.056 230.356C118.614 230.007 118.998 229.31 118.998 228.299Z" fill="#FECC00"/>
<path d="M80.9351 253.331C81.5973 252.843 82.0156 251.971 82.0156 250.716C82.0156 250.716 82.0156 250.716 82.0156 250.681C82.0156 249.322 81.5276 247.823 80.726 246.463L117.952 224.987C118.579 226.032 118.998 227.218 118.998 228.299C118.998 229.31 118.614 230.007 118.056 230.356L80.9351 253.331Z" fill="#FECC00"/>
<path d="M77.8678 253.087C75.6022 251.762 73.7548 248.555 73.7548 245.905C73.7548 243.29 75.637 242.209 77.9027 243.534C80.1683 244.859 82.0156 248.102 82.0156 250.716C82.0156 253.366 80.1334 254.412 77.8678 253.087Z" fill="#00A8A1"/>
<path d="M79.7152 253.68C79.1575 253.68 78.5301 253.506 77.8678 253.087C75.6022 251.797 73.7548 248.59 73.7548 245.94C73.7548 245.94 73.7548 245.94 73.7548 245.905C73.7548 244.057 74.6959 242.977 76.0553 242.977C76.613 242.977 77.2404 243.151 77.9027 243.534C80.1683 244.859 82.0156 248.067 82.0156 250.682C82.0156 250.716 82.0156 250.716 82.0156 250.716C82.0156 252.599 81.0745 253.68 79.7152 253.68Z" fill="#FFF383"/>
<path fill-rule="evenodd" clip-rule="evenodd" d="M65.9123 85.2162L127.224 49.7942V66.9125L65.9123 102.369V85.2162Z" fill="#B824A4"/>
<path d="M105.299 74.1991C95.8882 79.6379 87.5925 79.8122 82.5036 75.6634L119.555 54.2219C120.601 55.6165 121.368 57.3248 121.821 59.2772C117.185 65.3436 111.469 70.6429 105.299 74.1991Z" fill="#DB41C7"/>
<path d="M80.0637 90.5155C80.6214 89.609 80.9002 88.7374 80.9002 87.9356V86.1924L78.9832 87.308V89.0164C78.9832 89.3301 78.8438 89.6439 78.6346 89.9926C78.4255 90.3063 78.1815 90.5504 77.9026 90.7247C77.5889 90.899 77.345 90.9339 77.1358 90.8642C76.9267 90.7596 76.8221 90.5852 76.8221 90.2715V83.4381C76.8221 83.1592 76.9267 82.8454 77.1358 82.5316C77.345 82.183 77.5889 81.9389 77.9026 81.7297C78.1815 81.5903 78.4255 81.5554 78.6346 81.6252C78.8438 81.7297 78.9832 81.9041 78.9832 82.2178V83.6821L80.9002 82.5316V81.1022C80.9002 80.3003 80.6214 79.7774 80.0637 79.5333C79.4712 79.2544 78.774 79.359 77.9375 79.8471C77.1358 80.3352 76.4038 81.0325 75.8462 81.9389C75.2536 82.8803 74.9748 83.717 74.9748 84.5537V91.3523C74.9748 92.189 75.2536 92.712 75.8462 92.956C76.4038 93.2001 77.1358 93.0955 77.9375 92.6074C78.774 92.1541 79.4712 91.4568 80.0637 90.5155ZM86.7909 87.3429L89.0565 73.5715L87.0697 74.7221L85.5012 85.3905L83.9327 76.535L81.9808 77.6506L84.2115 88.842L86.7909 87.3429Z" fill="#FEFEFE"/>
<defs>
<clipPath id="clip0">
<rect width="331" height="240" fill="white" transform="translate(809 2)"/>
</clipPath>
</defs>
</svg>
