<svg width="169" height="182" viewBox="0 0 169 182" fill="none" xmlns="http://www.w3.org/2000/svg">
<g clip-path="url(#clip0)">
<path fill-rule="evenodd" clip-rule="evenodd" d="M0 165.165H116.124V5.31451H0V165.165Z" fill="#97A2AD"/>
<path fill-rule="evenodd" clip-rule="evenodd" d="M3.95459 161.177H112.169V10.0393H3.95459V161.177Z" fill="#DFE4E8"/>
<path fill-rule="evenodd" clip-rule="evenodd" d="M14.4912 71.8163H54.2868V67.6104H14.4912V71.8163Z" fill="#CACED2"/>
<path fill-rule="evenodd" clip-rule="evenodd" d="M62.4727 71.8163H102.268V67.6104H62.4727V71.8163Z" fill="#CACED2"/>
<path fill-rule="evenodd" clip-rule="evenodd" d="M14.4912 79.3267H54.2868V76.8961H14.4912V79.3267Z" fill="#CACED2"/>
<path fill-rule="evenodd" clip-rule="evenodd" d="M14.4912 122.806H102.268V120.375H14.4912V122.806Z" fill="#CACED2"/>
<path fill-rule="evenodd" clip-rule="evenodd" d="M14.4912 133.593H83.5459V131.163H14.4912V133.593Z" fill="#CACED2"/>
<path fill-rule="evenodd" clip-rule="evenodd" d="M14.4912 144.381H90.9298V141.978H14.4912V144.381Z" fill="#CACED2"/>
<path fill-rule="evenodd" clip-rule="evenodd" d="M14.4912 89.0767H54.2868V86.646H14.4912V89.0767Z" fill="#CACED2"/>
<path fill-rule="evenodd" clip-rule="evenodd" d="M14.4912 98.8267H54.2868V96.396H14.4912V98.8267Z" fill="#CACED2"/>
<path fill-rule="evenodd" clip-rule="evenodd" d="M62.4727 79.3267H102.268V76.8961H62.4727V79.3267Z" fill="#CACED2"/>
<path fill-rule="evenodd" clip-rule="evenodd" d="M62.4727 89.0767H102.268V86.646H62.4727V89.0767Z" fill="#CACED2"/>
<path fill-rule="evenodd" clip-rule="evenodd" d="M62.4727 98.8267H102.268V96.396H62.4727V98.8267Z" fill="#CACED2"/>
<path fill-rule="evenodd" clip-rule="evenodd" d="M14.4912 113.766H102.268V109.56H14.4912V113.766Z" fill="#CACED2"/>
<path fill-rule="evenodd" clip-rule="evenodd" d="M15.5974 56.0853H46.1562V22.056H15.5974V56.0853Z" fill="#CACED2"/>
<path fill-rule="evenodd" clip-rule="evenodd" d="M38.9661 186.686H155.09V26.8354H38.9661V186.686Z" fill="#97A2AD"/>
<path fill-rule="evenodd" clip-rule="evenodd" d="M75.5813 31.5602H118.723L118.308 36.1484H75.1665L75.5813 31.5602Z" fill="#D6D4D2"/>
<path fill-rule="evenodd" clip-rule="evenodd" d="M42.9207 182.698H151.135V31.5602H42.9207V182.698Z" fill="#FEFEFE"/>
<path fill-rule="evenodd" clip-rule="evenodd" d="M52.4062 77.6335H82.9651V47.5916H52.4062V77.6335Z" fill="#DFE4E8"/>
<path fill-rule="evenodd" clip-rule="evenodd" d="M91.0681 47.2093H140.626V60.892H91.0681V47.2093Z" fill="#B824A4"/>
<path fill-rule="evenodd" clip-rule="evenodd" d="M91.0405 69.0852H140.626V66.6819H91.0405V69.0852Z" fill="#DFE4E8"/>
<path fill-rule="evenodd" clip-rule="evenodd" d="M91.0405 76.6503H129.287V74.2197H91.0405V76.6503Z" fill="#DFE4E8"/>
<path fill-rule="evenodd" clip-rule="evenodd" d="M52.8489 92.2994H92.6445V88.0935H52.8489V92.2994Z" fill="#00A0E3"/>
<path fill-rule="evenodd" clip-rule="evenodd" d="M100.83 92.2994H140.626V88.0935H100.83V92.2994Z" fill="#00A0E3"/>
<path fill-rule="evenodd" clip-rule="evenodd" d="M52.8489 99.8099H92.6445V97.3792H52.8489V99.8099Z" fill="#DFE4E8"/>
<path fill-rule="evenodd" clip-rule="evenodd" d="M52.8489 143.289H140.626V140.858H52.8489V143.289Z" fill="#DFE4E8"/>
<path fill-rule="evenodd" clip-rule="evenodd" d="M52.8489 154.076H121.904V151.646H52.8489V154.076Z" fill="#DFE4E8"/>
<path fill-rule="evenodd" clip-rule="evenodd" d="M52.8489 164.864H129.287V162.461H52.8489V164.864Z" fill="#DFE4E8"/>
<path fill-rule="evenodd" clip-rule="evenodd" d="M52.8489 109.56H92.6445V107.129H52.8489V109.56Z" fill="#DFE4E8"/>
<path fill-rule="evenodd" clip-rule="evenodd" d="M52.8489 119.31H92.6445V116.879H52.8489V119.31Z" fill="#DFE4E8"/>
<path fill-rule="evenodd" clip-rule="evenodd" d="M100.83 99.8099H140.626V97.3792H100.83V99.8099Z" fill="#DFE4E8"/>
<path fill-rule="evenodd" clip-rule="evenodd" d="M100.83 109.56H140.626V107.129H100.83V109.56Z" fill="#DFE4E8"/>
<path fill-rule="evenodd" clip-rule="evenodd" d="M100.83 119.31H140.626V116.879H100.83V119.31Z" fill="#DFE4E8"/>
<path fill-rule="evenodd" clip-rule="evenodd" d="M52.8489 134.249H140.626V130.043H52.8489V134.249Z" fill="#B824A4"/>
<path d="M97.1245 43.0307C101.743 36.1757 109.348 32.4614 117.119 32.4614V36.8858C110.814 36.8858 104.619 39.9173 100.83 45.4887C94.8568 54.3647 97.2904 66.3541 106.278 72.2806C109.597 74.4927 113.386 75.5306 117.119 75.5306V79.9549C112.528 79.9549 107.882 78.6713 103.789 75.9675C92.7274 68.7029 89.7406 53.955 97.1245 43.0307ZM117.119 32.4614C121.71 32.4614 126.356 33.745 130.449 36.4488C141.511 43.7135 144.498 58.4613 137.114 69.3856C132.495 76.2406 124.89 79.9549 117.119 79.9549V75.5306C123.424 75.5306 129.619 72.4991 133.408 66.9277C139.381 58.0516 136.948 46.0622 127.96 40.1358C124.614 37.9509 120.853 36.8858 117.119 36.8858V32.4614Z" fill="#FECC00"/>
<path d="M152.628 83.4507L156.223 78.0978L136.754 65.289L133.159 70.6146L152.628 83.4507Z" fill="#FECC00"/>
<path d="M104.481 47.2093C103.651 46.0622 102.932 44.8606 102.324 43.5769C103.651 42.0475 105.172 40.7639 106.859 39.7534C106.859 39.7534 106.859 39.7534 106.887 39.7534C106.887 39.7534 106.887 39.7534 106.887 39.7261C109.984 37.869 113.524 36.8858 117.119 36.8858C117.119 36.8858 117.119 36.8858 117.147 36.8858C120.853 36.8858 124.641 37.9509 127.96 40.1358C128.845 40.7093 129.675 41.3648 130.421 42.0475L130.449 42.0749C132.081 43.5769 133.436 45.3248 134.431 47.2093H104.481Z" fill="#FEFEFE"/>
<path d="M122.927 56.5769C115.321 56.5769 108.574 52.8899 104.481 47.2093H134.431C135.288 48.8206 135.897 50.5412 136.256 52.2891C132.523 54.9929 127.905 56.5769 122.927 56.5769Z" fill="#DB41C7"/>
<path d="M130.449 42.0749L130.421 42.0475L130.449 42.0749ZM130.421 42.0475C129.674 41.3648 128.845 40.7093 127.96 40.1358C124.641 37.9509 120.853 36.8858 117.147 36.8858C117.119 36.8858 117.119 36.8858 117.119 36.8858C117.119 36.8858 117.119 36.8858 117.147 36.8858C120.853 36.8858 124.641 37.9509 127.96 40.1358C128.845 40.7093 129.674 41.3648 130.421 42.0475ZM106.887 39.7534C106.887 39.7534 106.887 39.7534 106.887 39.7261C106.887 39.7534 106.887 39.7534 106.887 39.7534ZM106.887 39.7261C109.984 37.869 113.524 36.8858 117.119 36.8858C113.524 36.8858 109.984 37.869 106.887 39.7261Z" fill="#F1CE65"/>
<path d="M160.925 91.207C163.303 92.791 166.539 92.1355 168.143 89.7868C169.719 87.4381 169.083 84.2427 166.677 82.6587L148.314 70.56C145.908 69.0033 142.672 69.6315 141.096 71.9802C139.492 74.3562 140.156 77.5243 142.534 79.1083L160.925 91.207Z" fill="#FECC00"/>
<path d="M102.489 57.9697C102.96 57.5055 103.181 56.9319 103.181 56.2765V54.8836H101.632V56.2492C101.632 56.495 101.522 56.7134 101.356 56.8773C101.19 57.0412 100.996 57.1231 100.747 57.1231C100.498 57.1231 100.305 57.0412 100.139 56.8773C99.9452 56.7134 99.8623 56.495 99.8623 56.2492V50.8143C99.8623 50.5685 99.9452 50.3773 100.139 50.2135C100.305 50.0496 100.498 49.9404 100.747 49.9404C100.996 49.9404 101.19 50.0496 101.356 50.2135C101.522 50.3773 101.632 50.5685 101.632 50.8143V51.9887H103.181V50.8416C103.181 50.1862 102.96 49.6399 102.489 49.1757C102.019 48.7114 101.466 48.4656 100.803 48.4656C100.139 48.4656 99.5581 48.7114 99.0879 49.1483C98.6178 49.6399 98.3689 50.1862 98.3689 50.8416V56.2765C98.3689 56.9319 98.6178 57.4781 99.0879 57.9697C99.5581 58.4067 100.139 58.6525 100.803 58.6525C101.439 58.6525 102.019 58.4067 102.489 57.9697ZM107.938 58.516L109.79 48.5748H108.186L106.914 56.3857L105.642 48.5748H104.038L105.863 58.516H107.938Z" fill="#FEFEFE"/>
<path d="M67.6719 64.1147C71.1841 64.1147 74.0049 61.3017 74.0049 57.8605C74.0049 54.392 71.1841 51.6063 67.6719 51.6063C64.1873 51.6063 61.3389 54.392 61.3389 57.8605C61.3389 61.3017 64.1873 64.1147 67.6719 64.1147Z" fill="#587A8E"/>
<path d="M65.8744 54.7197C66.9253 55.7302 67.672 58.2701 73.0647 58.2701C73.0647 61.1924 70.6311 63.5684 67.672 63.5684C64.7129 63.5684 62.3069 61.1924 62.3069 58.2701C62.3069 58.2701 64.381 57.0138 65.8744 54.7197Z" fill="#DFE4E8"/>
<path d="M67.6719 64.4424L65.4595 66.6546L67.6719 75.4486L69.9119 66.6546L67.6719 64.4424Z" fill="#587A8E"/>
<path d="M74.005 64.934H69.912L71.0183 66.0264L68.5293 75.8856H75.609C76.4663 75.8856 77.1853 75.2028 77.1853 74.3289V68.0747C77.1853 66.3541 75.7749 64.934 74.005 64.934Z" fill="#587A8E"/>
<path d="M65.4317 64.934H61.3388C59.5965 64.934 58.1584 66.3541 58.1584 68.0747V74.3289C58.1584 75.2028 58.8775 75.8856 59.7624 75.8856H66.8421L64.3255 66.0264L65.4317 64.934Z" fill="#587A8E"/>
</g>
<defs>
<clipPath id="clip0">
<rect width="169" height="182" fill="white"/>
</clipPath>
</defs>
</svg>
